<svg width="112" height="112" viewBox="0 0 112 112" fill="none" xmlns="http://www.w3.org/2000/svg">
<circle cx="55.5511" cy="55.5511" r="55.5511" fill="white"/>
<path d="M71.9578 50.7161C72.3959 50.2652 72.5953 49.6879 72.5953 48.8884C72.5821 46.5018 72.5821 44.0971 72.5821 41.6973C72.5821 39.568 72.5821 37.4356 72.5716 35.3115C72.0337 35.4792 71.4963 35.6474 70.9405 35.823C70.9379 35.8256 70.9326 35.8256 70.93 35.8283C67.1168 37.0058 62.6242 38.4143 59.496 39.3977C57.1673 40.1112 54.815 40.1112 52.4964 39.4003C49.9869 38.6136 46.4907 37.5173 43.1654 36.5048C43.1628 36.5022 43.1602 36.5022 43.1575 36.5022L43.1549 36.4996L39.3576 35.3141C39.3445 38.2776 39.3497 41.2307 39.3576 44.1837L39.3629 49.0562C39.3629 49.767 39.5517 50.2992 39.9424 50.6873C40.1887 50.9467 40.4513 51.1228 40.8499 51.2931C44.4769 52.8957 48.2588 53.8975 52.0905 54.2725C53.3049 54.4038 54.5689 54.4639 55.9642 54.4639C61.1256 54.4639 66.1816 53.4177 70.997 51.3484C71.3926 51.1856 71.7205 50.9709 71.9589 50.7162L71.9578 50.7161ZM68.4542 47.5665C68.4068 47.5876 68.1658 47.6899 68.1157 47.7057L67.35 47.9445C64.2763 48.8963 60.9141 49.9377 58.4752 50.714C57.602 50.9919 56.7573 51.1364 55.9657 51.1364C55.7062 51.1627 55.4437 51.1785 55.1736 51.1785C54.2819 51.1785 53.3327 51.0266 52.3493 50.7171C50.212 50.0405 47.201 49.1173 44.3582 48.244C43.7603 48.0604 43.427 47.4335 43.611 46.8434C43.7945 46.2507 44.432 45.9122 45.0274 46.1041C47.8781 46.9773 50.8991 47.9059 53.0369 48.5825C54.015 48.8894 54.9331 48.9838 55.8507 48.9025C56.514 48.8946 57.141 48.7871 57.778 48.5825C60.2248 47.8063 63.5922 46.7627 66.6712 45.8077L67.4369 45.5688C67.9875 45.2778 68.6461 45.4955 68.9425 46.0382C69.2384 46.5804 69.0048 47.2727 68.4542 47.5665Z" fill="#0B434B"/>
<path d="M39.9338 53.3445C39.7581 53.2685 39.619 53.1741 39.4618 53.0876C38.4941 54.5378 37.6916 56.0433 37.1828 57.6168C36.5848 59.3269 36.2937 61.105 36.1914 62.9116H54.8399V56.6803C53.8016 56.654 52.805 56.6018 51.858 56.5021C47.7959 56.103 43.781 55.041 39.934 53.3445L39.9338 53.3445Z" fill="#0B434B"/>
<path d="M57.1074 83.9932C62.3552 83.6209 67.1412 81.2843 70.6161 77.4186C66.4435 75.2602 61.8072 74.0907 57.1074 73.9229V83.9932Z" fill="#0B434B"/>
<path d="M39.8824 75.5922C44.4849 73.1453 49.6331 71.8445 54.8411 71.6847V65.1543H36.1914C36.4092 68.9257 37.6864 72.5526 39.8815 75.5921L39.8824 75.5922Z" fill="#0B434B"/>
<path d="M54.839 83.9997V73.9189C50.1343 74.0735 45.4844 75.2356 41.2988 77.3914C44.8024 81.2879 49.6178 83.6403 54.839 83.9999V83.9997Z" fill="#0B434B"/>
<path d="M71.8907 53.413C67.157 55.4453 62.1822 56.5052 57.1074 56.6492V62.9117H75.7616C75.5649 59.3713 74.4501 56.0249 72.4885 53.093C72.2923 53.2032 72.1035 53.324 71.891 53.4131L71.8907 53.413Z" fill="#0B434B"/>
<path d="M57.1074 71.6872C62.3105 71.8602 67.4482 73.1716 72.0402 75.6236C74.285 72.5578 75.5463 68.9836 75.7589 65.1543H57.1103V71.6872H57.1074Z" fill="#0B434B"/>
<path d="M81.2914 29.359L75.9312 27.6989C70.5367 26.031 65.1475 24.363 59.7767 22.6504C57.2144 21.8399 54.9723 21.7903 52.7195 22.4827C47.228 24.2529 41.7101 25.9577 36.1997 27.6625L30.9154 29.2961C30.3411 29.4638 30.1207 29.5925 30 29.776V29.8493C30.0891 30.0645 30.2441 30.1953 30.6502 30.2875C30.7762 30.3007 30.9571 30.3661 31.091 30.4135C31.1564 30.4214 31.3035 30.4684 31.3689 30.4894C31.7413 30.6154 32.2896 30.7911 32.8876 30.9825C32.885 31.0141 32.8586 31.0347 32.8586 31.0663C32.8428 38.0396 32.8402 37.6515 32.8507 44.2604C31.8989 44.7007 31.2298 45.7342 31.2298 46.938V50.1272H36.5167L36.5172 46.938C36.5172 45.7289 35.8432 44.6959 34.8888 44.2577C34.8804 37.9398 34.8804 38.5115 34.8962 31.9707V31.6111C35.7015 31.86 36.4935 32.1015 37.1253 32.2903C37.2144 32.2956 37.3061 32.314 37.4005 32.3452C37.4062 32.3482 37.6657 32.4374 37.6736 32.44C37.8782 32.5002 38.0433 32.5449 38.1956 32.5972C38.2347 32.613 38.2742 32.6288 38.3133 32.6472L42.6564 33.9951L43.8339 34.3647C47.1671 35.3772 50.6711 36.4735 53.1781 37.2655C55.0717 37.8451 56.9205 37.8477 58.8193 37.2629C61.9452 36.2821 66.4428 34.871 70.2588 33.6882C71.4965 33.3001 72.656 32.9357 73.7022 32.6262C73.7233 32.6182 73.7418 32.6103 73.7624 32.6024C73.8252 32.5629 74.0065 32.5212 74.1426 32.487H74.1452C76.5894 31.7709 79.0572 30.9867 81.5251 30.2C81.7297 30.1372 81.8763 30.0323 81.929 29.9194C81.8689 29.584 81.8004 29.508 81.2915 29.3583L81.2914 29.359Z" fill="#0B434B"/>
</svg>
