<svg width="370" height="567" viewBox="0 0 370 567" fill="none" xmlns="http://www.w3.org/2000/svg">
<g opacity="0.06">
<rect width="739" height="739" transform="matrix(0 -1 -1 0 739 681)" fill="#8EB5F0"/>
<path d="M0 588.625V496.25L92.375 588.625H0Z" fill="#1E1E1E"/>
<path d="M92.375 588.625V496.25L184.75 588.625H92.375Z" fill="#1E1E1E"/>
<path d="M184.75 588.625V496.25L277.125 588.625H184.75Z" fill="#1E1E1E"/>
<path d="M277.125 588.625V496.25L369.5 588.625H277.125Z" fill="#1E1E1E"/>
<path d="M369.5 588.625V496.25L461.875 588.625H369.5Z" fill="#1E1E1E"/>
<path d="M0 496.25V403.875L92.375 496.25H0Z" fill="#1E1E1E"/>
<path d="M92.375 496.25V403.875L184.75 496.25H92.375Z" fill="#1E1E1E"/>
<path d="M184.75 496.25V403.875L277.125 496.25H184.75Z" fill="#1E1E1E"/>
<path d="M277.125 496.25V403.875L369.5 496.25H277.125Z" fill="#1E1E1E"/>
<path d="M369.5 496.25V403.875L461.875 496.25H369.5Z" fill="#1E1E1E"/>
<path d="M0 403.875V311.5L92.375 403.875H0Z" fill="#1E1E1E"/>
<path d="M92.375 403.875V311.5L184.75 403.875H92.375Z" fill="#1E1E1E"/>
<path d="M184.75 403.875V311.5L277.125 403.875H184.75Z" fill="#1E1E1E"/>
<path d="M277.125 403.875V311.5L369.5 403.875H277.125Z" fill="#1E1E1E"/>
<path d="M369.5 403.875V311.5L461.875 403.875H369.5Z" fill="#1E1E1E"/>
<path d="M0 311.5V219.125L92.375 311.5H0Z" fill="#1E1E1E"/>
<path d="M92.375 311.5V219.125L184.75 311.5H92.375Z" fill="#1E1E1E"/>
<path d="M184.75 311.5V219.125L277.125 311.5H184.75Z" fill="#1E1E1E"/>
<path d="M277.125 311.5V219.125L369.5 311.5H277.125Z" fill="#1E1E1E"/>
<path d="M369.5 311.5V219.125L461.875 311.5H369.5Z" fill="#1E1E1E"/>
<path d="M0 219.125V126.75L92.375 219.125H0Z" fill="#1E1E1E"/>
<path d="M92.375 219.125V126.75L184.75 219.125H92.375Z" fill="#1E1E1E"/>
<path d="M184.75 219.125V126.75L277.125 219.125H184.75Z" fill="#1E1E1E"/>
<path d="M277.125 219.125V126.75L369.5 219.125H277.125Z" fill="#1E1E1E"/>
<path d="M369.5 219.125V126.75L461.875 219.125H369.5Z" fill="#1E1E1E"/>
<path d="M0 126.75V34.375L92.375 126.75H0Z" fill="#1E1E1E"/>
<path d="M92.375 126.75V34.375L184.75 126.75H92.375Z" fill="#1E1E1E"/>
<path d="M184.75 126.75V34.375L277.125 126.75H184.75Z" fill="#1E1E1E"/>
<path d="M277.125 126.75V34.375L369.5 126.75H277.125Z" fill="#1E1E1E"/>
<path d="M369.5 126.75V34.375L461.875 126.75H369.5Z" fill="#1E1E1E"/>
<path d="M0 34.375V-58L92.375 34.375L0 34.375Z" fill="#1E1E1E"/>
<path d="M92.375 34.375V-58L184.75 34.375L92.375 34.375Z" fill="#1E1E1E"/>
<path d="M184.75 34.375V-58L277.125 34.375L184.75 34.375Z" fill="#1E1E1E"/>
<path d="M277.125 34.375V-58L369.5 34.375L277.125 34.375Z" fill="#1E1E1E"/>
<path d="M369.5 34.375V-58L461.875 34.375L369.5 34.375Z" fill="#1E1E1E"/>
</g>
</svg>
