<svg width="350" height="108" viewBox="0 0 350 108" fill="none" xmlns="http://www.w3.org/2000/svg">
<g opacity="0.06">
<rect width="394" height="394" transform="matrix(1 4.37114e-08 4.37114e-08 -1 0 394)" fill="#8EB5F0"/>
<path d="M2.15279e-06 0L49.25 2.15279e-06L0 49.25L2.15279e-06 0Z" fill="#1E1E1E"/>
<path d="M2.15279e-06 49.25L49.25 49.25L0 98.5L2.15279e-06 49.25Z" fill="#1E1E1E"/>
<path d="M2.15279e-06 98.5L49.25 98.5L0 147.75L2.15279e-06 98.5Z" fill="#1E1E1E"/>
<path d="M49.25 0L98.5 2.15279e-06L49.25 49.25L49.25 0Z" fill="#1E1E1E"/>
<path d="M49.25 49.25L98.5 49.25L49.25 98.5L49.25 49.25Z" fill="#1E1E1E"/>
<path d="M49.25 98.5L98.5 98.5L49.25 147.75L49.25 98.5Z" fill="#1E1E1E"/>
<path d="M98.5 0L147.75 2.15279e-06L98.5 49.25L98.5 0Z" fill="#1E1E1E"/>
<path d="M98.5 49.25L147.75 49.25L98.5 98.5L98.5 49.25Z" fill="#1E1E1E"/>
<path d="M98.5 98.5L147.75 98.5L98.5 147.75L98.5 98.5Z" fill="#1E1E1E"/>
<path d="M147.75 0L197 2.15279e-06L147.75 49.25L147.75 0Z" fill="#1E1E1E"/>
<path d="M147.75 49.25L197 49.25L147.75 98.5L147.75 49.25Z" fill="#1E1E1E"/>
<path d="M147.75 98.5L197 98.5L147.75 147.75L147.75 98.5Z" fill="#1E1E1E"/>
<path d="M197 0L246.25 2.15279e-06L197 49.25L197 0Z" fill="#1E1E1E"/>
<path d="M197 49.25L246.25 49.25L197 98.5L197 49.25Z" fill="#1E1E1E"/>
<path d="M197 98.5L246.25 98.5L197 147.75L197 98.5Z" fill="#1E1E1E"/>
<path d="M246.25 0L295.5 2.15279e-06L246.25 49.25L246.25 0Z" fill="#1E1E1E"/>
<path d="M246.25 49.25L295.5 49.25L246.25 98.5L246.25 49.25Z" fill="#1E1E1E"/>
<path d="M246.25 98.5L295.5 98.5L246.25 147.75L246.25 98.5Z" fill="#1E1E1E"/>
<path d="M295.5 0L344.75 2.15279e-06L295.5 49.25L295.5 0Z" fill="#1E1E1E"/>
<path d="M295.5 49.25L344.75 49.25L295.5 98.5L295.5 49.25Z" fill="#1E1E1E"/>
<path d="M295.5 98.5L344.75 98.5L295.5 147.75L295.5 98.5Z" fill="#1E1E1E"/>
<path d="M344.75 0L394 2.15279e-06L344.75 49.25L344.75 0Z" fill="#1E1E1E"/>
<path d="M344.75 49.25L394 49.25L344.75 98.5L344.75 49.25Z" fill="#1E1E1E"/>
<path d="M344.75 98.5L394 98.5L344.75 147.75L344.75 98.5Z" fill="#1E1E1E"/>
</g>
</svg>
