<svg width="74" height="73" viewBox="0 0 74 73" fill="none" xmlns="http://www.w3.org/2000/svg">
<circle cx="37.0323" cy="36.4366" r="36.4366" fill="#EDE6D8" fill-opacity="0.39"/>
<path fill-rule="evenodd" clip-rule="evenodd" d="M38.1518 19.135C37.7365 18.955 37.2652 18.955 36.8499 19.135L15.5645 28.3574C14.9657 28.6168 14.5781 29.2071 14.5781 29.8598C14.5781 30.5124 14.9657 31.1027 15.5645 31.3621L18.4875 32.6286V50.9375C17.0652 51.5685 16.0731 52.993 16.0731 54.6493C16.0731 56.8908 17.8902 58.7079 20.1318 58.7079C22.3733 58.7079 24.1904 56.8908 24.1904 54.6493C24.1904 52.9913 23.1965 51.5655 21.772 50.9355V34.0517L36.8499 40.5845C37.2652 40.7645 37.7365 40.7645 38.1518 40.5845L59.4372 31.3621C60.0358 31.1027 60.4236 30.5124 60.4236 29.8598C60.4236 29.2071 60.0358 28.6168 59.4372 28.3574L38.1518 19.135ZM24.257 47.3793L24.2406 39.583L35.221 44.3405C36.6746 44.9703 38.3241 44.9703 39.7776 44.3405L50.76 39.5821L50.7616 47.3755C50.7616 47.7334 50.6444 48.0814 50.4279 48.3663L49.1243 47.3759C50.4279 48.3663 50.4276 48.367 50.427 48.3678L50.4257 48.3693L50.423 48.3728L50.4168 48.381L50.4001 48.4024L50.35 48.4645C50.3094 48.5142 50.2541 48.5802 50.1833 48.6601C50.0422 48.8198 49.8401 49.0354 49.5752 49.288C49.0454 49.7926 48.2604 50.4476 47.2027 51.0966C45.0767 52.4012 41.8774 53.664 37.5 53.664C33.1223 53.664 29.9271 52.4012 27.805 51.0956C26.7492 50.4463 25.9665 49.791 25.4382 49.2858C25.174 49.033 24.9726 48.8172 24.832 48.6573C24.7616 48.5773 24.7063 48.5113 24.6658 48.4614L24.616 48.3992L24.5993 48.3777L24.593 48.3695L24.5904 48.366L24.5892 48.3644C24.5886 48.3637 24.588 48.363 25.8943 47.376L24.588 48.363C24.374 48.0796 24.2578 47.7344 24.257 47.3793Z" fill="#0C434B"/>
</svg>
