<svg width="82" height="82" viewBox="0 0 82 82" fill="none" xmlns="http://www.w3.org/2000/svg">
<circle cx="41.1863" cy="41.1707" r="40.8113" fill="#0C434B"/>
<g clip-path="url(#clip0_596_470)">
<path fill-rule="evenodd" clip-rule="evenodd" d="M27.7977 23.9022C28.5242 23.1757 29.5095 22.7676 30.5369 22.7676H47.3232C47.6657 22.7676 47.9941 22.9036 48.2363 23.1458L57.2752 32.1846C57.5172 32.4267 57.6533 32.7552 57.6533 33.0977V55.0491C57.6533 56.0764 57.2453 57.0619 56.5188 57.7883C55.7924 58.5148 54.8069 58.9228 53.7795 58.9228H30.5369C29.5095 58.9228 28.5242 58.5148 27.7977 57.7883C27.0712 57.0619 26.6631 56.0764 26.6631 55.0491V26.6414C26.6631 25.614 27.0712 24.6287 27.7977 23.9022ZM41.056 39.743C41.4628 40.1498 42.1582 39.8617 42.1582 39.2865V26.6414H31.8281V39.2865C31.8281 39.8617 32.5236 40.1498 32.9303 39.743L36.0801 36.5932C36.5844 36.089 37.402 36.089 37.9062 36.5932L41.056 39.743Z" fill="white"/>
</g>
<defs>
<clipPath id="clip0_596_470">
<rect width="36.9245" height="36.9245" fill="white" transform="translate(23.6963 22.3828)"/>
</clipPath>
</defs>
</svg>
