<svg width="286" height="72" viewBox="0 0 286 72" fill="none" xmlns="http://www.w3.org/2000/svg">
<g clip-path="url(#clip0_1286_31141)">
<path d="M14.1504 19.8327H64.4294V13.7297H20.2533V6.10294H64.4294V0H14.1504V19.8327Z" fill="#259D4A"/>
<path d="M58.3242 27.6963V39.0457C58.3242 45.9706 55.5734 52.6118 50.6768 57.5084C45.7801 62.405 39.1389 65.1559 32.2141 65.1559C25.2892 65.1559 18.648 62.405 13.7514 57.5084C8.85476 52.6118 6.10387 45.9706 6.10387 39.0457V0H0V39.0457C0 47.5893 3.39392 55.7829 9.43514 61.8242C15.4764 67.8654 23.67 71.2593 32.2136 71.2593C40.7572 71.2593 48.9508 67.8654 54.992 61.8242C61.0333 55.7829 64.4272 47.5893 64.4272 39.0457V27.6963H58.3242Z" fill="#259D4A"/>
<path d="M44.1779 38.5581C44.15 41.7123 42.8774 44.7278 40.6371 46.9483C38.3968 49.1689 35.3702 50.4148 32.2158 50.4148C29.0615 50.4148 26.0348 49.1689 23.7946 46.9483C21.5543 44.7278 20.2817 41.7123 20.2538 38.5581V27.6973H14.1509V38.5581C14.1337 40.9413 14.5883 43.3044 15.4885 45.5112C16.3886 47.718 17.7166 49.7249 19.3957 51.4162C21.0749 53.1076 23.0722 54.4499 25.2725 55.3659C27.4727 56.282 29.8325 56.7535 32.2158 56.7535C34.5992 56.7535 36.9589 56.282 39.1592 55.3659C41.3595 54.4499 43.3567 53.1076 45.0359 51.4162C46.7151 49.7249 48.0431 47.718 48.9432 45.5112C49.8434 43.3044 50.298 40.9413 50.2808 38.5581V27.6973H44.1779V38.5581Z" fill="#259D4A"/>
<path d="M32.1029 39.7523L35.3678 41.8097V27.6934H29.0664V41.8097L32.1029 39.7523Z" fill="#259D4A"/>
<path d="M82.1309 21.3401V3.12109H85.9452V17.9759H94.9995V21.3401H82.1309Z" fill="#17444C"/>
<path d="M104.182 17.2557H107.835C107.515 18.5998 106.722 19.7837 105.6 20.5898C104.397 21.4182 102.961 21.8406 101.5 21.7954C100.619 21.8369 99.74 21.6825 98.9257 21.3434C98.1114 21.0044 97.3824 20.489 96.7912 19.8345C95.5681 18.3433 94.948 16.4482 95.053 14.5225C94.9462 12.6329 95.5577 10.7728 96.765 9.31531C97.3592 8.67502 98.0865 8.17268 98.8957 7.8436C99.705 7.51451 100.576 7.36668 101.449 7.41048C102.346 7.35469 103.245 7.49322 104.084 7.81663C104.923 8.14004 105.683 8.64069 106.311 9.28442C107.538 10.7818 108.151 12.6896 108.025 14.6217C108.025 14.8782 108.022 15.0691 108.018 15.1964C108.014 15.3189 108.003 15.4411 107.986 15.5624H98.8439C98.8261 16.4244 99.1036 17.2666 99.6302 17.9493C99.8914 18.2254 100.21 18.4405 100.564 18.5793C100.918 18.7181 101.298 18.7772 101.677 18.7524C102.217 18.7746 102.752 18.6486 103.225 18.3883C103.653 18.1173 103.986 17.722 104.182 17.2557ZM98.8439 13.1989H104.234C104.255 12.4405 103.992 11.7016 103.496 11.1275C103.234 10.8795 102.924 10.6884 102.585 10.5661C102.246 10.4439 101.885 10.3931 101.526 10.417C101.179 10.3982 100.833 10.4523 100.508 10.5758C100.184 10.6993 99.8894 10.8895 99.6433 11.134C99.1454 11.7088 98.8628 12.4387 98.8439 13.1989Z" fill="#17444C"/>
<path d="M117.254 19.6685C116.806 20.3572 116.179 20.9108 115.44 21.27C114.626 21.652 113.735 21.8407 112.835 21.8214C112.275 21.8572 111.713 21.7767 111.185 21.585C110.657 21.3933 110.174 21.0946 109.767 20.7075C109.003 19.8361 108.616 18.6973 108.691 17.5409C108.655 17.0079 108.732 16.4734 108.918 15.9724C109.103 15.4715 109.393 15.0155 109.767 14.6345C110.794 13.8396 112.031 13.3623 113.326 13.2613C113.703 13.2033 114.197 13.1378 114.811 13.0638C116.363 12.8654 117.14 12.4242 117.142 11.7403C117.163 11.5176 117.126 11.2933 117.035 11.0887C116.945 10.8842 116.804 10.706 116.625 10.5712C116.095 10.2932 115.496 10.1709 114.898 10.2183C114.301 10.1806 113.706 10.3323 113.2 10.6517C113.006 10.7925 112.85 10.9794 112.747 11.1954C112.643 11.4115 112.595 11.6499 112.607 11.8891V12.0866H109.183V11.8395C109.156 11.2192 109.276 10.6012 109.535 10.0366C109.793 9.47206 110.182 8.97703 110.669 8.5924C111.863 7.74237 113.311 7.32559 114.773 7.41113C116.303 7.31965 117.828 7.65815 119.176 8.38835C119.66 8.67829 120.057 9.09291 120.326 9.58887C120.595 10.0848 120.726 10.6439 120.705 11.2077V18.8523C120.684 19.2784 120.744 19.7046 120.882 20.1084C120.996 20.3816 121.207 20.6034 121.474 20.7318V21.3384H117.658C117.528 21.0967 117.43 20.839 117.368 20.5718C117.299 20.2754 117.261 19.9727 117.254 19.6685ZM117.191 14.7216C116.531 15.0143 115.841 15.2337 115.133 15.3758C114.356 15.5415 113.954 15.6283 113.929 15.6361C113.427 15.7418 112.961 15.9763 112.577 16.3166C112.306 16.6264 112.167 17.0305 112.191 17.4417C112.181 17.6627 112.22 17.8832 112.305 18.0874C112.391 18.2916 112.52 18.4745 112.684 18.6229C113.053 18.9308 113.525 19.0877 114.006 19.0619C114.43 19.0862 114.855 19.026 115.256 18.8849C115.657 18.7439 116.026 18.5247 116.342 18.2401C116.631 17.9451 116.856 17.5933 117.002 17.2069C117.148 16.8205 117.212 16.408 117.191 15.9955V14.7216Z" fill="#17444C"/>
<path d="M122.873 21.3411V7.89686H126.274V10.1967C126.654 9.39001 127.229 8.69068 127.947 8.16175C128.624 7.71821 129.42 7.49189 130.228 7.51308C130.369 7.51308 130.482 7.51495 130.561 7.51963C130.639 7.52431 130.706 7.52993 130.757 7.53742L130.77 11.1861H129.548C129.14 11.1554 128.73 11.2075 128.342 11.3394C127.955 11.4713 127.598 11.6803 127.293 11.9536C127.023 12.2643 126.817 12.6253 126.688 13.0158C126.558 13.4064 126.507 13.8187 126.538 14.2291V21.3411H122.873Z" fill="#17444C"/>
<path d="M131.736 21.3389V7.89467H135.327V9.49061C135.806 8.86505 136.427 8.36258 137.139 8.02478C137.87 7.69123 138.666 7.52403 139.469 7.53523C140.084 7.48727 140.702 7.56512 141.285 7.76404C141.869 7.96296 142.406 8.27877 142.863 8.69217C143.684 9.65815 144.089 10.9095 143.991 12.1733V21.3389H140.326V13.2132C140.39 12.4886 140.215 11.763 139.829 11.1464C139.625 10.9265 139.373 10.7564 139.092 10.6493C138.811 10.5422 138.51 10.5009 138.211 10.5287C137.835 10.5088 137.459 10.5661 137.106 10.697C136.753 10.8279 136.43 11.0296 136.158 11.2897C135.898 11.5658 135.697 11.8917 135.567 12.2478C135.437 12.6038 135.381 12.9826 135.401 13.3611V21.3389H131.736Z" fill="#17444C"/>
<path d="M154.55 17.2594H158.201C157.881 18.6037 157.088 19.7875 155.965 20.5936C154.762 21.4219 153.325 21.8443 151.865 21.7992C150.984 21.8402 150.105 21.6856 149.291 21.3465C148.477 21.0075 147.748 20.4924 147.156 19.8382C145.934 18.3466 145.314 16.4518 145.418 14.5262C145.312 12.6368 145.924 10.7772 147.13 9.31903C147.725 8.67865 148.453 8.17627 149.262 7.84719C150.072 7.51812 150.944 7.37033 151.817 7.41421C152.714 7.35886 153.613 7.49761 154.451 7.82099C155.29 8.14438 156.05 8.6448 156.677 9.28814C157.903 10.7862 158.515 12.6937 158.389 14.6254C158.389 14.8819 158.388 15.0728 158.383 15.2001C158.379 15.3226 158.368 15.4448 158.351 15.5661H149.209C149.193 16.4278 149.47 17.2693 149.995 17.953C150.256 18.2288 150.575 18.4437 150.929 18.5825C151.283 18.7213 151.663 18.7806 152.042 18.7561C152.582 18.7783 153.118 18.6524 153.592 18.392C154.019 18.1203 154.353 17.7253 154.55 17.2594ZM149.209 13.2026H154.598C154.62 12.4446 154.357 11.706 153.863 11.1312C153.601 10.883 153.29 10.6918 152.951 10.5695C152.611 10.4472 152.25 10.3966 151.89 10.4207C151.544 10.4021 151.197 10.4563 150.873 10.5798C150.549 10.7033 150.254 10.8933 150.008 11.1377C149.51 11.7125 149.227 12.4425 149.209 13.2026Z" fill="#17444C"/>
<path d="M159.773 21.3411V7.89686H163.174V10.1967C163.556 9.39026 164.131 8.69107 164.85 8.16175C165.525 7.71823 166.321 7.49189 167.129 7.51308C167.272 7.51308 167.382 7.51495 167.464 7.51963C167.529 7.5223 167.593 7.52823 167.658 7.53742L167.671 11.1861H166.449C166.041 11.1552 165.631 11.2073 165.244 11.3392C164.856 11.4711 164.5 11.6801 164.196 11.9536C163.925 12.2639 163.719 12.6248 163.589 13.0154C163.459 13.406 163.408 13.8186 163.438 14.2291V21.3411H159.773Z" fill="#17444C"/>
<path d="M167.873 16.963H171.525C171.521 17.2593 171.588 17.5524 171.719 17.818C171.851 18.0836 172.044 18.3141 172.282 18.4906C172.92 18.8676 173.658 19.0419 174.397 18.9904C174.971 19.0225 175.543 18.901 176.054 18.6385C176.233 18.5426 176.383 18.3989 176.486 18.2233C176.589 18.0477 176.642 17.847 176.638 17.6435C176.638 17.0319 175.907 16.5742 174.446 16.2703C173.851 16.1467 173.376 16.0391 173.024 15.9483C171.685 15.7018 170.418 15.1612 169.314 14.3655C168.969 14.0556 168.697 13.673 168.517 13.2452C168.337 12.8174 168.255 12.3551 168.275 11.8915C168.251 11.2649 168.376 10.6415 168.64 10.0726C168.904 9.50383 169.299 9.00595 169.794 8.62009C170.986 7.75947 172.437 7.33361 173.905 7.41354C175.436 7.32651 176.953 7.74877 178.22 8.61447C178.737 9.0122 179.157 9.52328 179.446 10.1084C179.735 10.6936 179.886 11.3372 179.887 11.9898H176.324C176.323 11.7334 176.263 11.4807 176.149 11.2513C176.034 11.0219 175.868 10.822 175.664 10.6672C175.152 10.3261 174.544 10.1611 173.93 10.1973C173.394 10.1622 172.858 10.2688 172.376 10.5062C172.214 10.5986 172.08 10.7342 171.99 10.898C171.9 11.0617 171.857 11.2472 171.866 11.4338C171.866 11.9702 172.776 12.4444 174.597 12.8566C175.018 12.9474 175.35 13.0213 175.593 13.0784C176.938 13.2939 178.215 13.8145 179.326 14.6004C179.667 14.9198 179.933 15.3102 180.107 15.7441C180.28 16.1779 180.355 16.6446 180.328 17.1108C180.365 17.7831 180.235 18.4542 179.948 19.0633C179.661 19.6724 179.226 20.2004 178.684 20.5994C177.256 21.4894 175.584 21.9088 173.905 21.7985C172.329 21.8916 170.767 21.4514 169.472 20.5489C168.949 20.1457 168.532 19.6229 168.253 19.0247C167.975 18.4264 167.845 17.77 167.873 17.1108V16.963Z" fill="#17444C"/>
<path d="M82.0145 29.1855H85.8691V40.6145C85.7756 41.7128 86.0799 42.808 86.7265 43.7006C87.0826 44.0491 87.51 44.3163 87.9793 44.4837C88.4485 44.6511 88.9485 44.7148 89.4448 44.6704C89.9458 44.7157 90.4508 44.653 90.9255 44.4865C91.4002 44.3201 91.8337 44.0536 92.1967 43.7053C92.8496 42.8137 93.1566 41.7154 93.0607 40.6145V29.1855H96.8769V41.0226C96.9385 41.9661 96.8003 42.912 96.4714 43.7985C96.1425 44.6849 95.6304 45.492 94.9683 46.1671C93.4369 47.4543 91.466 48.0975 89.47 47.9614C87.4641 48.0977 85.4825 47.4576 83.9353 46.1736C83.269 45.4997 82.7533 44.6922 82.4222 43.8042C82.0911 42.9163 81.9521 41.9682 82.0145 41.0226V29.1855Z" fill="#17444C"/>
<path d="M99.2695 47.4542V34.0099H102.86V35.6058C103.339 34.9803 103.96 34.4778 104.672 34.14C105.403 33.8064 106.199 33.6392 107.002 33.6505C107.617 33.6025 108.235 33.6804 108.818 33.8793C109.402 34.0782 109.939 34.394 110.396 34.8074C111.217 35.7734 111.622 37.0247 111.524 38.2885V47.4542H107.86V39.3281C107.923 38.6034 107.748 37.8779 107.362 37.2613C107.158 37.0414 106.906 36.8713 106.625 36.7642C106.345 36.6571 106.043 36.6158 105.744 36.6435C105.368 36.6237 104.992 36.681 104.639 36.8119C104.286 36.9427 103.964 37.1444 103.691 37.4045C103.432 37.6807 103.231 38.0066 103.1 38.3626C102.97 38.7187 102.914 39.0974 102.934 39.476V47.4538L99.2695 47.4542Z" fill="#17444C"/>
<path d="M113.717 29.2344H117.381V32.5128H113.717V29.2344ZM113.717 34.0091H117.381V47.4533H113.717V34.0091Z" fill="#17444C"/>
<path d="M122.999 47.454L118.074 34.0098H122.129L124.939 43.6565L127.772 34.0098H131.637L126.738 47.454H122.999Z" fill="#17444C"/>
<path d="M140.694 43.3707H144.346C144.026 44.715 143.232 45.8988 142.11 46.7049C140.906 47.5333 139.47 47.9556 138.01 47.9105C137.129 47.9515 136.25 47.7969 135.435 47.4579C134.621 47.1188 133.892 46.6037 133.301 45.9495C132.078 44.4579 131.458 42.5631 131.562 40.6375C131.457 38.7481 132.068 36.8885 133.274 35.4304C133.869 34.79 134.597 34.2876 135.407 33.9585C136.216 33.6294 137.088 33.4817 137.961 33.5255C138.858 33.4702 139.757 33.6089 140.596 33.9323C141.435 34.2557 142.194 34.7561 142.822 35.3995C144.048 36.8976 144.66 38.805 144.534 40.7367C144.534 40.9932 144.531 41.1842 144.527 41.3115C144.523 41.4339 144.513 41.5561 144.496 41.6775H135.354C135.338 42.5391 135.615 43.3806 136.14 44.0643C136.401 44.3401 136.72 44.5551 137.074 44.6939C137.428 44.8326 137.808 44.8919 138.187 44.8675C138.727 44.8896 139.263 44.7637 139.737 44.5033C140.164 44.2316 140.497 43.8366 140.694 43.3707ZM135.354 39.314H140.743C140.765 38.556 140.502 37.8173 140.008 37.2425C139.746 36.9943 139.435 36.8031 139.096 36.6808C138.756 36.5585 138.395 36.5079 138.035 36.5321C137.689 36.5134 137.342 36.5676 137.018 36.6911C136.694 36.8146 136.399 37.0047 136.153 37.2491C135.655 37.8238 135.372 38.5538 135.354 39.314Z" fill="#17444C"/>
<path d="M145.92 47.4544V34.0101H149.321V36.31C149.702 35.5035 150.278 34.8044 150.996 34.275C151.672 33.8315 152.467 33.6052 153.275 33.6264C153.418 33.6264 153.529 33.6282 153.61 33.6329C153.675 33.6356 153.74 33.6415 153.804 33.6507L153.817 37.2994H152.595C152.187 37.2685 151.777 37.3205 151.39 37.4525C151.002 37.5844 150.646 37.7934 150.342 38.0669C150.071 38.3772 149.865 38.7381 149.735 39.1287C149.605 39.5193 149.554 39.9319 149.584 40.3424V47.4544H145.92Z" fill="#17444C"/>
<path d="M154.019 43.0762H157.672C157.668 43.3726 157.734 43.6656 157.866 43.9312C157.997 44.1968 158.19 44.4274 158.428 44.6038C159.066 44.9808 159.804 45.1551 160.544 45.1037C161.117 45.1358 161.689 45.0143 162.2 44.7517C162.38 44.6558 162.53 44.5122 162.633 44.3366C162.736 44.161 162.788 43.9603 162.785 43.7567C162.785 43.1452 162.054 42.6875 160.592 42.3836C159.998 42.26 159.522 42.1524 159.17 42.0616C157.832 41.8151 156.565 41.2745 155.461 40.4787C155.116 40.1689 154.843 39.7863 154.664 39.3585C154.484 38.9307 154.401 38.4683 154.422 38.0048C154.398 37.3782 154.522 36.7548 154.786 36.1859C155.05 35.6171 155.446 35.1192 155.94 34.7334C157.132 33.8728 158.583 33.4469 160.051 33.5268C161.583 33.4398 163.1 33.8621 164.366 34.7277C164.884 35.1255 165.303 35.6366 165.592 36.2217C165.881 36.8068 166.032 37.4505 166.033 38.1031H162.471C162.47 37.8467 162.41 37.5939 162.295 37.3645C162.18 37.1352 162.014 36.9353 161.81 36.7805C161.299 36.4394 160.69 36.2744 160.076 36.3106C159.54 36.2755 159.005 36.3821 158.523 36.6195C158.36 36.7119 158.227 36.8475 158.137 37.0112C158.047 37.175 158.004 37.3604 158.013 37.5471C158.013 38.0834 158.923 38.5577 160.744 38.9699C161.164 39.0606 161.496 39.1346 161.74 39.1917C163.084 39.4071 164.361 39.9278 165.473 40.7137C165.814 41.0331 166.08 41.4235 166.253 41.8574C166.426 42.2912 166.502 42.7578 166.474 43.2241C166.512 43.8964 166.381 44.5675 166.094 45.1766C165.807 45.7857 165.373 46.3137 164.831 46.7127C163.402 47.6027 161.731 48.0221 160.051 47.9118C158.475 48.0049 156.914 47.5647 155.618 46.6622C155.096 46.2589 154.678 45.7362 154.4 45.1379C154.122 44.5397 153.991 43.8833 154.019 43.2241L154.019 43.0762Z" fill="#17444C"/>
<path d="M167.912 29.2344H171.577V32.5128H167.912V29.2344ZM167.912 34.0091H171.577V47.4533H167.912V34.0091Z" fill="#17444C"/>
<path d="M179.901 47.5533C179.566 47.5608 179.165 47.5752 178.699 47.5964C178.234 47.617 177.938 47.6273 177.812 47.6273C176.79 47.7421 175.761 47.4659 174.934 46.8541C174.418 46.3393 174.16 45.3231 174.16 43.8055V36.5334H172.346V34.0099H174.16V30.3359H177.787V34.0099H179.901V36.5334H177.787V43.9786C177.768 44.1056 177.78 44.2352 177.822 44.3566C177.863 44.4781 177.933 44.5879 178.026 44.6769C178.333 44.8189 178.672 44.8767 179.008 44.8445H179.901V47.5533Z" fill="#17444C"/>
<path d="M181.526 52.8474V49.9401C181.643 49.9579 181.765 49.9691 181.89 49.9776C182.016 49.986 182.18 49.9907 182.384 49.9907C182.969 50.0347 183.549 49.8558 184.008 49.4899C184.199 49.2916 184.346 49.0552 184.439 48.7961C184.533 48.5371 184.57 48.2612 184.55 47.9866C184.548 47.924 184.539 47.8618 184.523 47.8013C184.51 47.7386 184.493 47.6768 184.473 47.616L179.537 34.0098H183.567L186.451 43.7061L189.259 34.0098H193.111L187.483 49.8671C187.221 50.8194 186.671 51.6676 185.91 52.2961C185.049 52.7879 184.063 53.0143 183.074 52.9467C182.848 52.9467 182.605 52.9382 182.345 52.9214C182.085 52.9045 181.812 52.8802 181.526 52.8474Z" fill="#17444C"/>
<path d="M216.565 41.1957C216.532 42.1441 216.297 43.0745 215.877 43.9254C215.457 44.7763 214.861 45.5283 214.128 46.1314C212.473 47.4087 210.418 48.0572 208.329 47.9614C207.142 48.03 205.955 47.8399 204.849 47.4044C203.743 46.9688 202.745 46.2981 201.924 45.4388C200.4 43.7567 199.638 41.3982 199.639 38.3633C199.639 35.2632 200.416 32.8884 201.969 31.2392C203.521 29.5899 205.754 28.7652 208.668 28.7652C210.68 28.653 212.668 29.2554 214.279 30.466C214.974 31.0613 215.536 31.7974 215.925 32.6257C216.315 33.4539 216.524 34.3554 216.54 35.2707H212.774C212.673 34.3467 212.211 33.5 211.489 32.9147C210.666 32.3363 209.672 32.0512 208.668 32.105C207.95 32.0577 207.23 32.1772 206.566 32.4541C205.902 32.7309 205.311 33.1577 204.839 33.7009C203.878 35.0573 203.415 36.7046 203.53 38.3633C203.427 39.997 203.887 41.6167 204.833 42.9527C205.656 43.8399 206.77 44.4031 207.972 44.5403C209.175 44.6775 210.387 44.3796 211.389 43.7006C212.156 43.0685 212.667 42.1777 212.824 41.1957H216.565Z" fill="#17444C"/>
<path d="M217.571 40.7142C217.516 39.7573 217.652 38.7991 217.969 37.8948C218.287 36.9905 218.78 36.158 219.421 35.4453C220.827 34.2092 222.634 33.5273 224.506 33.5273C226.378 33.5273 228.186 34.2092 229.591 35.4453C230.234 36.1571 230.728 36.9894 231.047 37.8938C231.366 38.7982 231.502 39.7568 231.447 40.7142C231.502 41.6735 231.366 42.6341 231.048 43.5406C230.729 44.4471 230.234 45.2814 229.591 45.9953C228.185 47.2309 226.378 47.9123 224.506 47.9123C222.634 47.9123 220.827 47.2309 219.421 45.9953C218.78 45.2805 218.286 44.446 217.968 43.5396C217.651 42.6332 217.516 41.673 217.571 40.7142ZM221.287 40.7142C221.217 41.8087 221.511 42.8957 222.122 43.8059C222.403 44.1662 222.767 44.4533 223.183 44.6427C223.599 44.8321 224.054 44.9182 224.51 44.8936C224.962 44.9161 225.413 44.8289 225.824 44.6395C226.235 44.4501 226.594 44.1641 226.87 43.8059C227.418 42.871 227.707 41.8074 227.708 40.724C227.709 39.6406 227.422 38.5763 226.877 37.6403C226.599 37.2823 226.238 36.997 225.826 36.8085C225.414 36.6201 224.963 36.5342 224.51 36.5582C224.055 36.5335 223.6 36.6189 223.184 36.8073C222.768 36.9956 222.404 37.2813 222.122 37.6403C221.511 38.544 221.217 39.6253 221.287 40.7142Z" fill="#17444C"/>
<path d="M236.704 29.2344H233.039V47.4533H236.704V29.2344Z" fill="#17444C"/>
<path d="M242.758 29.2344H239.094V47.4533H242.758V29.2344Z" fill="#17444C"/>
<path d="M253.467 43.3709H257.12C256.801 44.715 256.007 45.8989 254.885 46.7051C253.682 47.5334 252.246 47.9558 250.786 47.9107C249.904 47.9521 249.025 47.7978 248.211 47.4587C247.397 47.1196 246.668 46.6042 246.076 45.9497C244.853 44.4586 244.233 42.5634 244.338 40.6377C244.231 38.7481 244.843 36.8881 246.05 35.4305C246.644 34.7903 247.372 34.2879 248.181 33.9588C248.99 33.6297 249.862 33.4819 250.734 33.5257C251.632 33.4699 252.53 33.6085 253.37 33.9319C254.209 34.2553 254.968 34.7559 255.596 35.3997C256.823 36.8971 257.436 38.8049 257.31 40.7369C257.31 40.9934 257.308 41.1843 257.303 41.3116C257.299 41.4341 257.288 41.5563 257.271 41.6776H248.129C248.111 42.5396 248.389 43.3818 248.915 44.0645C249.177 44.3406 249.495 44.5557 249.849 44.6945C250.203 44.8334 250.583 44.8925 250.962 44.8676C251.502 44.8898 252.037 44.7639 252.511 44.5035C252.938 44.2325 253.272 43.8373 253.467 43.3709ZM248.129 39.3141H253.519C253.54 38.5558 253.277 37.8168 252.781 37.2427C252.52 36.9947 252.209 36.8036 251.87 36.6814C251.531 36.5591 251.17 36.5083 250.811 36.5323C250.464 36.5134 250.118 36.5675 249.794 36.691C249.469 36.8145 249.175 37.0047 248.928 37.2493C248.431 37.824 248.148 38.554 248.129 39.3141Z" fill="#17444C"/>
<path d="M258.378 48.7529L262.381 48.7407C262.428 48.9496 262.517 49.1469 262.641 49.321C262.766 49.4951 262.924 49.6425 263.107 49.7544C263.556 49.9979 264.063 50.1135 264.573 50.0886C264.999 50.1341 265.43 50.0947 265.84 49.9726C266.251 49.8505 266.633 49.6481 266.965 49.3772C267.505 48.6138 267.747 47.6793 267.645 46.7497V45.5497C267.295 46.1668 266.772 46.6677 266.14 46.9903C265.417 47.3227 264.625 47.4817 263.829 47.4546C263.025 47.4857 262.225 47.3344 261.488 47.012C260.751 46.6895 260.097 46.2043 259.574 45.5928C258.453 44.1926 257.884 42.4305 257.974 40.6393C257.875 38.7799 258.429 36.9443 259.541 35.4509C260.047 34.8228 260.692 34.3217 261.426 33.9877C262.16 33.6537 262.962 33.496 263.767 33.5273C264.585 33.5034 265.395 33.6819 266.127 34.0468C266.798 34.4126 267.352 34.9619 267.722 35.6306V34.0103H271.198V46.5644C271.241 47.6551 271.105 48.7454 270.794 49.7918C270.525 50.5336 270.049 51.1822 269.421 51.6602C268.789 52.1158 268.072 52.4413 267.313 52.6177C266.358 52.8486 265.379 52.959 264.396 52.9463C262.878 53.0295 261.37 52.6454 260.077 51.8455C259.569 51.5012 259.15 51.0413 258.855 50.5037C258.56 49.966 258.396 49.366 258.378 48.7529ZM261.688 40.5158C261.622 41.5436 261.895 42.5648 262.464 43.4231C262.738 43.7411 263.077 43.9963 263.459 44.1713C263.84 44.3462 264.255 44.4368 264.674 44.4368C265.094 44.4368 265.509 44.3462 265.89 44.1713C266.272 43.9963 266.611 43.7411 266.884 43.4231C267.448 42.544 267.715 41.5072 267.645 40.4652C267.709 39.4539 267.431 38.4506 266.858 37.615C266.593 37.2809 266.252 37.015 265.863 36.8396C265.475 36.6642 265.05 36.5844 264.624 36.6069C264.206 36.5869 263.79 36.6701 263.412 36.8492C263.035 37.0283 262.707 37.2977 262.458 37.6337C261.897 38.4859 261.627 39.4972 261.688 40.5158Z" fill="#17444C"/>
<path d="M281.829 43.3709H285.481C285.162 44.715 284.369 45.8989 283.247 46.7051C282.043 47.5334 280.607 47.9558 279.147 47.9107C278.266 47.9521 277.386 47.7978 276.572 47.4587C275.758 47.1196 275.029 46.6042 274.438 45.9497C273.215 44.4586 272.594 42.5634 272.699 40.6377C272.593 38.7481 273.204 36.8881 274.411 35.4305C275.006 34.7903 275.733 34.2879 276.542 33.9588C277.351 33.6297 278.223 33.4819 279.095 33.5257C279.993 33.4699 280.892 33.6085 281.731 33.9319C282.57 34.2553 283.329 34.7559 283.957 35.3997C285.185 36.8971 285.797 38.8049 285.671 40.7369C285.671 40.9934 285.669 41.1843 285.664 41.3116C285.66 41.4341 285.65 41.5563 285.633 41.6776H276.49C276.473 42.5396 276.75 43.3818 277.277 44.0645C277.538 44.3406 277.857 44.5557 278.211 44.6945C278.564 44.8334 278.944 44.8925 279.324 44.8676C279.863 44.8898 280.399 44.7639 280.872 44.5035C281.299 44.2325 281.633 43.8373 281.829 43.3709ZM276.49 39.3141H281.88C281.902 38.5558 281.638 37.8168 281.142 37.2427C280.881 36.9947 280.571 36.8036 280.232 36.6814C279.893 36.5591 279.532 36.5083 279.172 36.5323C278.826 36.5134 278.479 36.5675 278.155 36.691C277.831 36.8145 277.536 37.0047 277.29 37.2493C276.792 37.824 276.509 38.554 276.49 39.3141Z" fill="#17444C"/>
<path d="M81.1289 65.6198V57.2676H82.2952V64.5658H86.5317V65.6198H81.1289Z" fill="#17444C"/>
<path d="M91.4954 63.6581H92.5231C92.4389 64.2793 92.1209 64.8451 91.6339 65.24C91.1133 65.6381 90.4701 65.8424 89.8152 65.8175C89.4347 65.8356 89.0551 65.7687 88.7037 65.6217C88.3523 65.4747 88.0382 65.2512 87.784 64.9676C87.2579 64.3133 86.9928 63.4873 87.0398 62.649C86.9872 61.7775 87.2489 60.9159 87.7774 60.2209C88.0285 59.9303 88.3425 59.7007 88.6956 59.5495C89.0487 59.3984 89.4316 59.3296 89.8152 59.3486C90.1969 59.3255 90.579 59.3855 90.9353 59.5243C91.2916 59.6631 91.6136 59.8774 91.8791 60.1526C92.4018 60.791 92.6631 61.6038 92.6102 62.4272C92.6102 62.5517 92.6083 62.6443 92.6083 62.7052C92.6064 62.766 92.5999 62.8241 92.5933 62.8811H88.1294C88.1068 63.4178 88.2794 63.9446 88.6152 64.3638C88.924 64.6615 89.3257 64.8441 89.753 64.8811C90.1803 64.918 90.6074 64.8071 90.9628 64.5669C91.2455 64.3393 91.4349 64.016 91.4954 63.6581ZM88.1247 62.0303H91.5188C91.5466 61.5524 91.3894 61.0821 91.0798 60.717C90.7429 60.421 90.3101 60.2571 89.8617 60.2556C89.4132 60.254 88.9794 60.415 88.6405 60.7086C88.3195 61.0754 88.137 61.543 88.1247 62.0303Z" fill="#17444C"/>
<path d="M97.6226 64.8108C97.3294 65.1225 96.9801 65.3762 96.593 65.5587C96.2298 65.7253 95.8347 65.8108 95.4351 65.8095C94.8987 65.8416 94.3703 65.6682 93.9571 65.3247C93.7771 65.1526 93.6365 64.9436 93.5449 64.7121C93.4533 64.4806 93.4129 64.232 93.4264 63.9833C93.4133 63.7419 93.4533 63.5006 93.5435 63.2763C93.6337 63.052 93.772 62.8502 93.9487 62.6851C94.4057 62.3274 94.9599 62.1157 95.539 62.0776C95.7206 62.0589 95.964 62.0327 96.2728 61.999C96.6004 61.9802 96.9252 61.9288 97.2426 61.8454C97.3409 61.8171 97.4252 61.7534 97.4794 61.6667C97.5299 61.5122 97.5496 61.3494 97.5374 61.1874C97.5455 61.0509 97.5176 60.9146 97.4565 60.7922C97.3954 60.6698 97.3032 60.5656 97.1892 60.4901C96.8706 60.3137 96.5079 60.2331 96.1446 60.2579C95.7611 60.2308 95.3792 60.3304 95.0579 60.5415C94.9339 60.6416 94.8358 60.7701 94.7719 60.916C94.708 61.062 94.6803 61.2212 94.6909 61.3802H93.7081V61.3351C93.6965 61.0584 93.75 60.7829 93.8645 60.5307C93.979 60.2785 94.1511 60.0567 94.3671 59.8833C94.8914 59.5016 95.5318 59.3134 96.1792 59.3507C96.8222 59.3009 97.4639 59.4608 98.0082 59.8066C98.2113 59.9813 98.3701 60.2017 98.4717 60.4497C98.5732 60.6976 98.6145 60.9661 98.5923 61.2331V64.2724C98.574 64.4452 98.6045 64.6196 98.6803 64.776C98.7196 64.8179 98.7682 64.8501 98.8222 64.8699C98.8761 64.8897 98.934 64.8967 98.9911 64.8902C99.029 64.8897 99.0668 64.8869 99.1043 64.8817C99.1493 64.8761 99.2026 64.8677 99.2644 64.8565V65.6437C99.1548 65.6741 99.0435 65.6981 98.9312 65.7158C98.8421 65.7278 98.7524 65.734 98.6625 65.7345C98.3848 65.7554 98.1087 65.6774 97.8828 65.5145C97.7922 65.4293 97.7217 65.3249 97.6767 65.2089C97.6317 65.0929 97.6132 64.9684 97.6226 64.8443V64.8108ZM97.5243 62.5316C97.0716 62.724 96.5903 62.8406 96.0997 62.8769C95.861 62.9078 95.6822 62.9322 95.5633 62.9518C95.265 62.9775 94.9812 63.0915 94.748 63.2794C94.6609 63.3714 94.5937 63.4804 94.5509 63.5996C94.508 63.7189 94.4904 63.8457 94.4991 63.9721C94.4915 64.1026 94.5136 64.2331 94.5639 64.3537C94.6142 64.4744 94.6912 64.582 94.7892 64.6685C95.026 64.8461 95.3186 64.9328 95.6139 64.9128C96.1057 64.9337 96.5903 64.788 96.9889 64.4991C97.1569 64.3785 97.2933 64.219 97.3865 64.0344C97.4797 63.8498 97.527 63.6454 97.5243 63.4386V62.5316Z" fill="#17444C"/>
<path d="M100.223 65.62V59.547H101.227V60.6356C101.36 60.2721 101.593 59.9541 101.901 59.7193C102.208 59.5108 102.572 59.405 102.943 59.4169C103.02 59.4169 103.076 59.4179 103.109 59.4188C103.145 59.4214 103.18 59.4264 103.214 59.4338V60.5102C103.186 60.5074 103.156 60.5046 103.122 60.5018C103.086 60.5009 103.035 60.4999 102.966 60.4999C102.736 60.4838 102.504 60.5149 102.286 60.5913C102.068 60.6678 101.868 60.788 101.698 60.9445C101.544 61.1214 101.426 61.327 101.351 61.5494C101.277 61.7719 101.247 62.0069 101.264 62.2409V65.62H100.223Z" fill="#17444C"/>
<path d="M108.265 65.6203V61.8837C108.308 61.451 108.209 61.0162 107.983 60.6444C107.859 60.5186 107.708 60.4225 107.542 60.363C107.375 60.3035 107.198 60.2823 107.022 60.3009C106.775 60.286 106.528 60.3213 106.296 60.4047C106.063 60.488 105.85 60.6176 105.669 60.7857C105.5 60.9711 105.371 61.1882 105.288 61.4244C105.205 61.6606 105.171 61.911 105.187 62.1608V65.6203H104.148V59.5473H105.142V60.4319C105.353 60.103 105.646 59.8337 105.991 59.6494C106.343 59.473 106.733 59.3853 107.127 59.3938C107.53 59.3821 107.931 59.4528 108.305 59.6016C108.61 59.7269 108.867 59.9438 109.043 60.2222C109.144 60.3808 109.215 60.5566 109.253 60.7408C109.303 61.0527 109.323 61.3686 109.314 61.6843V65.6203H108.265Z" fill="#17444C"/>
<path d="M112.291 64.3574H111.107V65.622H112.291V64.3574Z" fill="#17444C"/>
<path d="M116.527 65.6198L119.685 57.2676H120.959L124.13 65.6198H122.876L121.977 63.1243H118.627L117.721 65.6198H116.527ZM118.985 62.1499H121.635L120.32 58.4638L118.985 62.1499Z" fill="#17444C"/>
<path d="M128.99 61.5647C128.986 61.3812 128.943 61.2006 128.864 61.0349C128.785 60.8693 128.672 60.7222 128.532 60.6034C128.206 60.3624 127.806 60.2432 127.402 60.2664C127.153 60.2535 126.905 60.3008 126.679 60.4043C126.452 60.5077 126.254 60.6644 126.102 60.8608C125.765 61.3618 125.604 61.9602 125.643 62.5625C125.605 63.1654 125.76 63.7648 126.084 64.2745C126.226 64.4705 126.415 64.628 126.633 64.7329C126.851 64.8378 127.092 64.8868 127.333 64.8755C127.753 64.8966 128.167 64.7657 128.498 64.5067C128.804 64.2292 128.997 63.8474 129.037 63.4358H130.031C130.022 63.7658 129.946 64.0904 129.808 64.3901C129.669 64.6899 129.472 64.9585 129.227 65.1797C128.679 65.62 127.988 65.843 127.287 65.8059C126.911 65.8242 126.536 65.7566 126.191 65.6082C125.845 65.4598 125.538 65.2345 125.293 64.9494C124.815 64.2504 124.563 63.4222 124.568 62.5757C124.574 61.7291 124.838 60.9045 125.326 60.2121C125.585 59.9224 125.907 59.6944 126.266 59.5448C126.625 59.3951 127.013 59.3276 127.402 59.3473C128.077 59.3134 128.742 59.5259 129.272 59.9454C129.505 60.1464 129.692 60.3949 129.82 60.6743C129.949 60.9536 130.016 61.2572 130.018 61.5647H128.99Z" fill="#17444C"/>
<path d="M135.21 65.6198V61.8832C135.254 61.4498 135.155 61.0141 134.929 60.642C134.804 60.5167 134.653 60.421 134.487 60.3618C134.321 60.3027 134.143 60.2817 133.967 60.3003C133.477 60.2754 132.997 60.4434 132.629 60.7683C132.462 60.9316 132.331 61.1284 132.245 61.3459C132.159 61.5634 132.121 61.7966 132.132 62.0301V65.6198H131.094V57.2676H132.132V60.4024C132.313 60.0813 132.585 59.8204 132.912 59.6517C133.272 59.4726 133.67 59.3839 134.072 59.3933C134.475 59.3816 134.876 59.4523 135.251 59.6011C135.555 59.7264 135.813 59.9433 135.988 60.2217C136.089 60.3803 136.16 60.556 136.198 60.7403C136.248 61.0521 136.269 61.368 136.26 61.6838V65.6198H135.21Z" fill="#17444C"/>
<path d="M137.82 57.2676H138.858V58.4292H137.82V57.2676ZM137.82 59.5468H138.858V65.6203H137.82V59.5468Z" fill="#17444C"/>
<path d="M144.608 63.658H145.636C145.55 64.2787 145.233 64.8439 144.747 65.2399C144.226 65.6379 143.583 65.8422 142.928 65.8174C142.547 65.8357 142.167 65.769 141.816 65.6219C141.464 65.4749 141.15 65.2513 140.895 64.9675C140.37 64.3128 140.105 63.4871 140.151 62.649C140.099 61.7772 140.361 60.9156 140.891 60.2209C141.142 59.9303 141.456 59.7007 141.809 59.5496C142.162 59.3984 142.545 59.3297 142.928 59.3485C143.31 59.3256 143.692 59.3856 144.048 59.5244C144.405 59.6632 144.727 59.8775 144.992 60.1525C145.513 60.7916 145.774 61.6041 145.721 62.4271C145.721 62.5516 145.721 62.6443 145.719 62.7051C145.718 62.764 145.713 62.8228 145.705 62.8811H141.242C141.218 63.4177 141.39 63.9447 141.726 64.3638C142.035 64.6614 142.437 64.844 142.864 64.881C143.292 64.918 143.719 64.8071 144.074 64.5669C144.358 64.3397 144.548 64.0162 144.608 63.658ZM141.236 62.0302H144.632C144.659 61.5524 144.502 61.0825 144.193 60.717C143.856 60.421 143.423 60.257 142.975 60.2555C142.526 60.254 142.092 60.4149 141.754 60.7086C141.433 61.0758 141.25 61.543 141.236 62.0302Z" fill="#17444C"/>
<path d="M148.41 65.6199L146.131 59.5469H147.244L148.971 64.4124L150.658 59.5469H151.77L149.515 65.6199H148.41Z" fill="#17444C"/>
<path d="M156.763 63.658H157.79C157.705 64.2787 157.387 64.8439 156.901 65.2399C156.381 65.6379 155.737 65.8422 155.083 65.8174C154.702 65.8357 154.322 65.769 153.97 65.6219C153.618 65.4749 153.304 65.2513 153.049 64.9675C152.524 64.3128 152.259 63.4871 152.305 62.649C152.253 61.7772 152.516 60.9156 153.045 60.2209C153.296 59.9303 153.61 59.7007 153.963 59.5496C154.316 59.3984 154.699 59.3297 155.083 59.3485C155.464 59.3256 155.846 59.3856 156.203 59.5244C156.559 59.6632 156.881 59.8775 157.147 60.1525C157.668 60.7916 157.928 61.6041 157.876 62.4271C157.876 62.5516 157.876 62.6443 157.874 62.7051C157.872 62.764 157.867 62.8228 157.859 62.8811H153.397C153.373 63.4177 153.545 63.9447 153.881 64.3638C154.19 64.6614 154.591 64.844 155.019 64.881C155.446 64.918 155.873 64.8071 156.228 64.5669C156.512 64.3397 156.702 64.0162 156.763 63.658ZM153.39 62.0302H156.786C156.813 61.5524 156.656 61.0825 156.347 60.717C156.01 60.421 155.578 60.257 155.129 60.2555C154.681 60.254 154.247 60.4149 153.908 60.7086C153.587 61.0758 153.404 61.543 153.39 62.0302Z" fill="#17444C"/>
<path d="M160.484 64.3574H159.301V65.622H160.484V64.3574Z" fill="#17444C"/>
<path d="M165.27 62.8685H166.385C166.379 63.1395 166.431 63.4087 166.537 63.6581C166.643 63.9075 166.802 64.1313 167.001 64.3146C167.445 64.6906 168.015 64.8834 168.596 64.8538C169.144 64.884 169.689 64.7409 170.152 64.4447C170.333 64.3225 170.48 64.1565 170.579 63.9623C170.679 63.768 170.728 63.5518 170.721 63.3337C170.721 62.6944 170.009 62.2086 168.585 61.8763C168.5 61.8575 168.434 61.8416 168.389 61.8313C167.569 61.7033 166.787 61.3965 166.099 60.9327C165.909 60.7527 165.761 60.5332 165.665 60.2896C165.569 60.0461 165.527 59.7844 165.543 59.5231C165.532 59.1797 165.601 58.8385 165.746 58.5268C165.89 58.215 166.105 57.9414 166.374 57.7278C167.009 57.25 167.792 57.0101 168.585 57.0501C169.387 57.0048 170.177 57.2586 170.803 57.7624C171.074 58.0081 171.288 58.3105 171.429 58.6481C171.571 58.9857 171.636 59.3502 171.621 59.7159L170.519 59.7215C170.515 59.4786 170.462 59.239 170.362 59.0175C170.262 58.796 170.118 58.5972 169.939 58.4335C169.533 58.1162 169.025 57.9572 168.51 57.9861C168.03 57.9619 167.555 58.09 167.152 58.3521C166.993 58.4585 166.863 58.6033 166.774 58.7733C166.685 58.9433 166.641 59.133 166.645 59.3246C166.645 59.9714 167.346 60.4535 168.747 60.7708C168.954 60.8195 169.114 60.8579 169.225 60.8831C169.248 60.8878 169.288 60.8972 169.346 60.9122C169.995 61.0192 170.616 61.2564 171.171 61.6095C171.396 61.7956 171.574 62.0319 171.691 62.2994C171.814 62.5847 171.875 62.8929 171.871 63.2036C171.884 63.5704 171.811 63.9353 171.659 64.269C171.506 64.6027 171.277 64.8959 170.99 65.1252C170.303 65.6328 169.461 65.8853 168.609 65.8394C167.737 65.893 166.877 65.6193 166.197 65.0719C165.899 64.7883 165.663 64.4462 165.504 64.067C165.344 63.6879 165.264 63.2798 165.27 62.8685Z" fill="#17444C"/>
<path d="M174.207 59.5469V63.2723C174.165 63.707 174.265 64.1437 174.493 64.5163C174.617 64.6436 174.768 64.7412 174.936 64.8019C175.103 64.8625 175.282 64.8845 175.459 64.8664C175.71 64.8839 175.963 64.8466 176.198 64.7569C176.434 64.6672 176.647 64.5273 176.824 64.3469C177.16 63.9113 177.324 63.3671 177.284 62.8183V59.5469H178.324V65.6201H177.331V64.7131C177.131 65.0503 176.841 65.3251 176.493 65.5069C176.118 65.6916 175.704 65.7831 175.287 65.7736C174.9 65.7824 174.516 65.7087 174.161 65.5574C173.861 65.4304 173.605 65.2174 173.427 64.9453C173.327 64.7863 173.257 64.6106 173.22 64.4267C173.169 64.1149 173.148 63.799 173.156 63.4832V59.5472L174.207 59.5469Z" fill="#17444C"/>
<path d="M184.01 61.5648C184.005 61.3812 183.961 61.2007 183.882 61.0351C183.802 60.8695 183.689 60.7224 183.549 60.6035C183.224 60.3625 182.825 60.2432 182.421 60.2665C182.172 60.2537 181.924 60.301 181.697 60.4044C181.47 60.5079 181.272 60.6645 181.118 60.8609C180.783 61.3626 180.622 61.9605 180.661 62.5626C180.623 63.1655 180.777 63.7649 181.101 64.2746C181.244 64.4704 181.432 64.6278 181.65 64.7327C181.869 64.8376 182.109 64.8867 182.351 64.8756C182.771 64.8973 183.185 64.7663 183.515 64.5068C183.822 64.2296 184.015 63.8476 184.055 63.4359H185.048C185.039 63.7657 184.964 64.0902 184.826 64.39C184.688 64.6897 184.491 64.9584 184.246 65.1798C183.699 65.6198 183.008 65.8427 182.306 65.806C181.93 65.8242 181.555 65.7565 181.209 65.6081C180.864 65.4597 180.556 65.2345 180.31 64.9495C179.833 64.2504 179.58 63.4224 179.586 62.5759C179.592 61.7294 179.856 60.9048 180.342 60.2122C180.603 59.9227 180.925 59.6948 181.284 59.5452C181.644 59.3955 182.032 59.328 182.421 59.3473C183.096 59.313 183.76 59.5256 184.289 59.9455C184.522 60.1465 184.709 60.3949 184.838 60.6742C184.967 60.9535 185.035 61.2571 185.037 61.5648H184.01Z" fill="#17444C"/>
<path d="M190.221 61.5647C190.216 61.3812 190.173 61.2006 190.094 61.0349C190.015 60.8693 189.902 60.7222 189.762 60.6034C189.436 60.3624 189.037 60.2432 188.632 60.2664C188.384 60.2535 188.136 60.3008 187.909 60.4043C187.683 60.5077 187.485 60.6644 187.332 60.8608C186.995 61.3618 186.834 61.9602 186.873 62.5625C186.836 63.1654 186.99 63.7648 187.314 64.2745C187.456 64.4705 187.645 64.628 187.863 64.7329C188.081 64.8378 188.322 64.8868 188.564 64.8755C188.984 64.8966 189.397 64.7657 189.728 64.5067C190.035 64.2292 190.227 63.8474 190.267 63.4358H191.262C191.252 63.7658 191.176 64.0904 191.038 64.3901C190.9 64.6899 190.702 64.9585 190.457 65.1797C189.91 65.62 189.219 65.843 188.517 65.8059C188.141 65.8242 187.767 65.7566 187.421 65.6082C187.076 65.4598 186.769 65.2345 186.523 64.9494C186.046 64.2504 185.793 63.4222 185.799 62.5757C185.805 61.7291 186.069 60.9045 186.556 60.2121C186.816 59.9224 187.137 59.6944 187.496 59.5448C187.855 59.3951 188.244 59.3276 188.632 59.3473C189.307 59.3134 189.972 59.5259 190.502 59.9454C190.735 60.1464 190.922 60.3949 191.051 60.6743C191.179 60.9536 191.247 61.2572 191.248 61.5647H190.221Z" fill="#17444C"/>
<path d="M196.486 63.6581H197.513C197.429 64.2793 197.111 64.8451 196.624 65.24C196.104 65.6381 195.46 65.8424 194.805 65.8175C194.425 65.8356 194.045 65.7687 193.694 65.6217C193.343 65.4747 193.028 65.2512 192.774 64.9676C192.248 64.3133 191.983 63.4873 192.03 62.649C191.977 61.7775 192.239 60.9159 192.768 60.2209C193.019 59.9303 193.333 59.7007 193.686 59.5495C194.039 59.3984 194.422 59.3296 194.805 59.3486C195.187 59.3255 195.569 59.3855 195.926 59.5243C196.282 59.6631 196.604 59.8774 196.869 60.1526C197.392 60.791 197.653 61.6038 197.6 62.4272C197.6 62.5517 197.599 62.6443 197.599 62.7052C197.597 62.766 197.59 62.8241 197.584 62.8811H193.12C193.097 63.4178 193.27 63.9446 193.605 64.3638C193.914 64.6615 194.316 64.8441 194.743 64.8811C195.171 64.918 195.598 64.8071 195.953 64.5669C196.236 64.3393 196.425 64.016 196.486 63.6581ZM193.115 62.0303H196.509C196.537 61.5524 196.38 61.0821 196.07 60.717C195.733 60.421 195.3 60.2571 194.852 60.2556C194.403 60.254 193.97 60.415 193.631 60.7086C193.31 61.0754 193.127 61.543 193.115 62.0303Z" fill="#17444C"/>
<path d="M202.948 63.6581H203.976C203.892 64.2793 203.574 64.8451 203.087 65.24C202.566 65.6381 201.923 65.8424 201.268 65.8175C200.888 65.8356 200.508 65.7687 200.157 65.6217C199.805 65.4747 199.491 65.2512 199.237 64.9676C198.711 64.3133 198.446 63.4873 198.493 62.649C198.44 61.7775 198.702 60.9159 199.231 60.2209C199.482 59.9303 199.796 59.7007 200.149 59.5495C200.502 59.3984 200.885 59.3296 201.268 59.3486C201.65 59.3255 202.032 59.3855 202.388 59.5243C202.745 59.6631 203.067 59.8774 203.332 60.1526C203.855 60.791 204.116 61.6038 204.063 62.4272C204.063 62.5517 204.061 62.6443 204.061 62.7052C204.06 62.766 204.053 62.8241 204.046 62.8811H199.583C199.56 63.4178 199.732 63.9446 200.068 64.3638C200.377 64.6615 200.779 64.8441 201.206 64.8811C201.633 64.918 202.061 64.8071 202.416 64.5669C202.699 64.3393 202.888 64.016 202.948 63.6581ZM199.578 62.0303H202.972C203 61.5524 202.843 61.0821 202.533 60.717C202.196 60.421 201.763 60.2571 201.315 60.2556C200.866 60.254 200.433 60.415 200.094 60.7086C199.773 61.0754 199.59 61.543 199.578 62.0303Z" fill="#17444C"/>
<path d="M210.657 57.2676V65.6201H209.652V64.8544C209.409 65.156 209.102 65.3999 208.753 65.5686C208.406 65.7302 208.027 65.8117 207.645 65.8073C207.271 65.8221 206.9 65.7513 206.558 65.6005C206.216 65.4496 205.913 65.2226 205.672 64.9368C205.154 64.2729 204.893 63.4443 204.937 62.6032C204.891 61.7496 205.153 60.9077 205.674 60.2304C205.913 59.9424 206.215 59.7131 206.557 59.5602C206.899 59.4074 207.271 59.335 207.645 59.3487C208.039 59.3407 208.43 59.4213 208.789 59.5845C209.13 59.7462 209.426 59.9885 209.652 60.2903V57.2679L210.657 57.2676ZM209.689 62.5412C209.732 61.9375 209.568 61.3371 209.224 60.8395C209.054 60.6442 208.841 60.4909 208.603 60.3916C208.364 60.2924 208.105 60.2499 207.847 60.2676C207.587 60.2544 207.327 60.3044 207.091 60.4133C206.854 60.5221 206.648 60.6867 206.489 60.8928C206.139 61.4174 205.972 62.0422 206.011 62.6713C205.978 63.2568 206.152 63.8353 206.504 64.3047C206.668 64.5012 206.876 64.6571 207.111 64.7602C207.346 64.8633 207.601 64.9108 207.857 64.8991C208.115 64.9125 208.373 64.8639 208.608 64.7574C208.843 64.6509 209.05 64.4896 209.21 64.2869C209.56 63.7748 209.728 63.1603 209.689 62.5412Z" fill="#17444C"/>
<path d="M213.699 64.3574H212.516V65.622H213.699V64.3574Z" fill="#17444C"/>
</g>
<defs>
<clipPath id="clip0_1286_31141">
<rect width="285.671" height="71.2584" fill="white"/>
</clipPath>
</defs>
</svg>
