<svg width="375" height="103" viewBox="0 0 375 103" fill="none" xmlns="http://www.w3.org/2000/svg">
<g clip-path="url(#clip0_1075_91)">
<g filter="url(#filter0_d_1075_91)">
<path d="M459.449 103L356.311 103L356.311 0.0230026L459.449 0.0229981L459.449 103Z" fill="#0B434B"/>
<path d="M460 103C446.343 103 432.819 100.336 420.201 95.1596C407.583 89.9834 396.118 82.3964 386.461 72.832C376.804 63.2676 369.143 51.9129 363.917 39.4164C358.69 26.9199 356 13.5262 356 0L460 3.31229e-06V103Z" fill="#EDE6D8"/>
<mask id="mask0_1075_91" style="mask-type:luminance" maskUnits="userSpaceOnUse" x="257" y="52" width="105" height="52">
<path d="M361.279 103.04H257.623L257.734 52.659H361.39L361.279 103.04Z" fill="white"/>
</mask>
<g mask="url(#mask0_1075_91)">
<path d="M309.127 102.927L309.127 51.1322L257.737 51.2451L257.737 103.04L309.127 102.927Z" fill="#259D4A"/>
<path d="M257.786 51.1887L257.674 102.579L309.177 51.1887H257.786Z" fill="#259D4A"/>
<path d="M309.237 52.8643L309.127 103.04H361.278L361.389 52.8643H309.237Z" fill="white"/>
<path d="M335.259 77.8067C349.66 77.8067 361.36 66.6393 361.39 52.8636H309.238C309.208 66.6393 320.858 77.8067 335.259 77.8067Z" fill="#0C434B"/>
<path d="M335.258 77.8069C349.659 77.8069 361.309 89.0675 361.279 102.958H309.127C309.158 89.0675 320.857 77.8069 335.258 77.8069Z" fill="#EDE6D8"/>
</g>
<mask id="mask1_1075_91" style="mask-type:luminance" maskUnits="userSpaceOnUse" x="258" y="0" width="103" height="54">
<path d="M360.781 53.3665H258L258.117 0.021562H360.898L360.781 53.3665Z" fill="white"/>
</mask>
<g mask="url(#mask1_1075_91)">
<path d="M258 53.3665L258.117 0.0631104H309.507L309.39 53.3665H258Z" fill="#259D4A"/>
<path d="M259.035 -0.978394C259.02 6.12232 260.307 13.1535 262.824 19.7137C265.342 26.2739 269.039 32.2346 273.706 37.2556C278.373 42.2766 283.918 46.2594 290.024 48.9767C296.13 51.6941 302.677 53.0927 309.293 53.0927L309.412 -0.978394H259.035Z" fill="#EE9B4E"/>
<path d="M309.39 53.3665L309.512 -1.97839H360.902L360.78 53.3665H309.39Z" fill="#EDE6D8"/>
<path d="M309.451 25.6941L309.512 -1.97839H360.902L360.841 25.6941H309.451Z" fill="#259D4A"/>
<path d="M309.451 25.6941L309.512 -1.97839H360.902L360.841 25.6941H309.451Z" fill="#259D4A"/>
</g>
<path d="M21.5895 0.0216686L21.4766 51.4119H72.8669L72.9798 0.0216686H21.5895Z" fill="#259D4A"/>
<path d="M72.8669 51.4119L72.9798 0.0217285L21.4766 51.4119H72.8669Z" fill="#259D4A"/>
<path d="M21.4769 51.412L21.5898 0.0218506H-29.8005L-29.9134 51.412H21.4769Z" fill="white"/>
<path d="M-4.16243 25.717C-18.3535 25.717 -29.8829 37.2211 -29.9141 51.4121H21.4762C21.5074 37.2211 10.0286 25.717 -4.16243 25.717Z" fill="#0C434B"/>
<path d="M-4.16199 25.717C-18.353 25.717 -29.8318 14.213 -29.8007 0.0219727H21.5896C21.5585 14.213 10.0291 25.717 -4.16199 25.717Z" fill="#EDE6D8"/>
<path d="M72.8673 51.4114L72.7539 103.021H21.3636L21.477 51.4114H72.8673Z" fill="#259D4A"/>
<path d="M72.7536 103.022C72.7685 96.2442 71.454 89.5331 68.8851 83.2715C66.3163 77.01 62.5434 71.3206 57.7819 66.5282C53.0204 61.7358 47.3635 57.9343 41.1343 55.3407C34.905 52.747 28.2253 51.4121 21.4767 51.4121L21.3633 103.022H72.7536Z" fill="#EE9B4E"/>
<path d="M21.4767 51.4112L21.3633 103.021H-30.027L-29.9136 51.4112H21.4767Z" fill="#EDE6D8"/>
<path d="M21.42 77.216L21.3633 103.021H-30.027L-29.9703 77.216H21.42Z" fill="#259D4A"/>
<path d="M21.42 77.216L21.3633 103.021H-30.027L-29.9703 77.216H21.42Z" fill="#259D4A"/>
<path d="M259 103L155 103L155 0L259 -4.54599e-06L259 103Z" fill="#0B434B"/>
<path d="M259 103C245.343 103 231.819 100.336 219.201 95.1596C206.583 89.9834 195.118 82.3964 185.461 72.832C175.804 63.2676 168.143 51.9129 162.917 39.4164C157.69 26.9199 155 13.5262 155 0L259 3.31229e-06V103Z" fill="#EE9B4E"/>
<path d="M259 52C252.171 52 245.409 50.655 239.1 48.0417C232.792 45.4285 227.059 41.5982 222.23 36.7696C217.402 31.9409 213.572 26.2085 210.958 19.8995C208.345 13.5906 207 6.82874 207 0L259 1.69429e-06V52Z" fill="#259D4A"/>
<path d="M70.0007 0.0218551L173.139 0.0218506L173.139 103.02L70.0007 103.02L70.0007 0.0218551Z" fill="#0B434B"/>
<path d="M70 0.0238037C83.5442 0.0238032 96.9558 2.68792 109.469 7.86404C121.982 13.0402 133.352 20.6269 142.929 30.1912C152.507 39.7554 160.104 51.1098 165.287 63.6061C170.47 76.1023 173.138 89.4957 173.138 103.022H70V0.0238037Z" fill="white"/>
<path d="M70.002 51.5229C76.7741 51.5229 83.4798 52.855 89.7365 55.4431C95.9931 58.0311 101.678 61.8244 106.466 66.6065C111.255 71.3886 115.053 77.0659 117.645 83.3141C120.236 89.5622 121.57 96.2589 121.57 103.022H70.002V51.5229Z" fill="#259D4A"/>
</g>
</g>
<defs>
<filter id="filter0_d_1075_91" x="-34.0273" y="0" width="498.027" height="111.04" filterUnits="userSpaceOnUse" color-interpolation-filters="sRGB">
<feFlood flood-opacity="0" result="BackgroundImageFix"/>
<feColorMatrix in="SourceAlpha" type="matrix" values="0 0 0 0 0 0 0 0 0 0 0 0 0 0 0 0 0 0 127 0" result="hardAlpha"/>
<feOffset dy="4"/>
<feGaussianBlur stdDeviation="2"/>
<feComposite in2="hardAlpha" operator="out"/>
<feColorMatrix type="matrix" values="0 0 0 0 0 0 0 0 0 0 0 0 0 0 0 0 0 0 0.25 0"/>
<feBlend mode="normal" in2="BackgroundImageFix" result="effect1_dropShadow_1075_91"/>
<feBlend mode="normal" in="SourceGraphic" in2="effect1_dropShadow_1075_91" result="shape"/>
</filter>
<clipPath id="clip0_1075_91">
<rect width="375" height="103" fill="white"/>
</clipPath>
</defs>
</svg>
