<svg width="2232" height="159" viewBox="0 0 2232 159" fill="none" xmlns="http://www.w3.org/2000/svg">
<g clip-path="url(#clip0_1075_1323)">
<rect width="2232" height="159" fill="#259D4A"/>
<path d="M1035.9 -0.453558L1036.08 79.4258H956.201L956.025 -0.453558H1035.9Z" fill="#259D4A"/>
<path d="M956.202 79.4262L956.026 -0.453125L1036.08 79.4262H956.202Z" fill="#259D4A"/>
<path d="M1036.09 79.4262L1035.91 -0.453125H1115.79L1115.97 79.4262H1036.09Z" fill="#EDE6D8"/>
<path d="M1075.93 39.4863C1097.99 39.4863 1115.91 57.3679 1115.96 79.426H1036.08C1036.03 57.3679 1053.87 39.4863 1075.93 39.4863Z" fill="#0C434B"/>
<path d="M1075.93 39.4865C1097.99 39.4865 1115.83 21.6049 1115.78 -0.453125H1035.9C1035.95 21.6049 1053.87 39.4865 1075.93 39.4865Z" fill="#EDE6D8"/>
<path d="M956.202 79.4292L956.378 159.547H1036.26L1036.08 79.4292H956.202Z" fill="#259D4A"/>
<path d="M956.377 159.543C956.353 149.022 958.397 138.604 962.39 128.884C966.383 119.163 972.247 110.331 979.648 102.892C987.049 95.4521 995.842 89.5507 1005.52 85.5244C1015.21 81.4981 1025.59 79.4258 1036.08 79.4258L1036.26 159.543H956.377Z" fill="#77E298"/>
<path d="M1036.08 79.4253L1036.26 159.547H1116.14L1115.96 79.4253H1036.08Z" fill="#EDE6D8"/>
<path d="M1036.17 119.486L1036.26 159.547H1116.14L1116.05 119.486H1036.17Z" fill="#259D4A"/>
<path d="M1036.17 119.486L1036.26 159.547H1116.14L1116.05 119.486H1036.17Z" fill="#259D4A"/>
<path d="M956.339 -0.453125H797.025V159.546H956.339V-0.453125Z" fill="#0B434B"/>
<path d="M956.339 -0.453125C935.418 -0.453125 914.701 3.68536 895.372 11.7261C876.044 19.7668 858.481 31.5523 843.687 46.4096C828.894 61.2669 817.159 78.9051 809.152 98.3172C801.146 117.729 797.025 138.534 797.025 159.546H956.339V-0.453125Z" fill="#EDE6D8"/>
<path d="M956.34 79.5449C945.88 79.5449 935.522 81.6142 925.857 85.6345C916.193 89.6549 907.411 95.5476 900.015 102.977C892.618 110.405 886.75 119.224 882.747 128.93C878.744 138.636 876.684 149.039 876.684 159.545H956.34V79.5449Z" fill="#259D4A"/>
<path d="M716.906 -0.453558L717.081 79.4258H637.202L637.026 -0.453558H716.906Z" fill="#77E298"/>
<path d="M637.202 79.4262L637.026 -0.453125L717.081 79.4262H637.202Z" fill="#77E298"/>
<path d="M717.081 79.4262L716.905 -0.453125H796.785L796.96 79.4262H717.081Z" fill="#EDE6D8"/>
<path d="M756.933 39.4863C778.991 39.4863 796.912 57.3679 796.961 79.426H717.081C717.033 57.3679 734.875 39.4863 756.933 39.4863Z" fill="#0C434B"/>
<path d="M756.933 39.4865C778.991 39.4865 796.834 21.6049 796.785 -0.453125H716.906C716.954 21.6049 734.875 39.4865 756.933 39.4865Z" fill="#EDE6D8"/>
<path d="M637.201 79.4273L637.377 159.547H717.256L717.08 79.4273H637.201Z" fill="#259D4A"/>
<path d="M637.378 159.545C637.354 149.024 639.398 138.605 643.391 128.885C647.384 119.164 653.248 110.332 660.649 102.892C668.05 95.4525 676.843 89.5509 686.526 85.5245C696.208 81.4981 706.591 79.4258 717.081 79.4258L717.257 159.545H637.378Z" fill="#C9F7D7"/>
<path d="M717.081 79.4253L717.257 159.547H797.136L796.96 79.4253H717.081Z" fill="#EDE6D8"/>
<path d="M717.169 119.486L717.257 159.547H797.136L797.048 119.486H717.169Z" fill="#259D4A"/>
<path d="M717.169 119.486L717.257 159.547H797.136L797.048 119.486H717.169Z" fill="#259D4A"/>
<mask id="mask0_1075_1323" style="mask-type:luminance" maskUnits="userSpaceOnUse" x="1115" y="78" width="161" height="82">
<path d="M1115.73 159.547H1275.49L1275.31 78.9468H1115.56L1115.73 159.547Z" fill="white"/>
</mask>
<g mask="url(#mask0_1075_1323)">
<path d="M1195.61 159.547L1195.43 78.5469H1275.31L1275.49 159.547H1195.61Z" fill="#259D4A"/>
<path d="M1275.31 78.5469L1275.49 159.547L1195.43 78.5469H1275.31Z" fill="#259D4A"/>
<path d="M1195.43 79.187L1195.61 159.547H1115.73L1115.55 79.187H1195.43Z" fill="#EDE6D8"/>
<path d="M1155.58 119.367C1133.52 119.367 1115.6 101.091 1115.55 78.5469H1195.43C1195.48 101.091 1177.64 119.367 1155.58 119.367Z" fill="#0C434B"/>
<path d="M1155.58 119.127C1133.52 119.127 1115.68 137.116 1115.73 159.307H1195.61C1195.56 137.116 1177.64 119.127 1155.58 119.127Z" fill="#EDE6D8"/>
</g>
<path d="M1275.31 78.9457L1275.14 -0.453125H1195.26L1195.43 78.9457H1275.31Z" fill="#259D4A"/>
<path d="M1275.14 -0.453125C1275.16 9.9739 1273.12 20.2988 1269.12 29.9321C1265.13 39.5654 1259.27 48.3184 1251.86 55.6914C1244.46 63.0644 1235.67 68.913 1225.99 72.9033C1216.31 76.8935 1205.92 78.9473 1195.43 78.9473L1195.26 -0.453125H1275.14Z" fill="#C9F7D7"/>
<path d="M1195.43 78.9477L1195.26 -0.453125H1115.38L1115.55 78.9477H1195.43Z" fill="#EDE6D8"/>
<path d="M1195.35 38.8869L1195.26 -0.453125H1115.38L1115.47 38.8869H1195.35Z" fill="#259D4A"/>
<path d="M1195.35 38.8869L1195.26 -0.453125H1115.38L1115.47 38.8869H1195.35Z" fill="#259D4A"/>
<path d="M1354.9 -0.453564L1355.08 80.5469H1275.2L1275.02 -0.453564H1354.9Z" fill="#259D4A"/>
<path d="M1275.2 80.5473L1275.03 -0.453125L1355.08 80.5473H1275.2Z" fill="#259D4A"/>
<path d="M1355.09 79.9067L1354.91 -0.453125H1434.79L1434.97 79.9067H1355.09Z" fill="#EDE6D8"/>
<path d="M1394.93 39.7266C1416.99 39.7266 1434.91 58.0024 1434.96 80.5469H1355.08C1355.03 58.0024 1372.88 39.7266 1394.93 39.7266Z" fill="#0C434B"/>
<path d="M1394.93 39.9668C1416.99 39.9668 1434.83 21.9777 1434.79 -0.212891H1354.91C1354.96 21.9777 1372.88 39.9668 1394.93 39.9668Z" fill="#EDE6D8"/>
<mask id="mask1_1075_1323" style="mask-type:luminance" maskUnits="userSpaceOnUse" x="1275" y="80" width="167" height="80">
<path d="M1440.86 80.1465H1275.2L1275.37 159.547H1441.04L1440.86 80.1465Z" fill="white"/>
</mask>
<g mask="url(#mask1_1075_1323)">
<path d="M1275.21 80.148L1275.38 160.027H1355.26L1355.08 80.148H1275.21Z" fill="#259D4A"/>
<path d="M1275.38 160.026C1275.35 149.536 1277.4 139.149 1281.39 129.457C1285.38 119.766 1291.25 110.96 1298.65 103.543C1306.05 96.1251 1314.84 90.2412 1324.53 86.2269C1334.21 82.2126 1344.59 80.1465 1355.08 80.1465L1355.26 160.026H1275.38Z" fill="#C9F7D7"/>
<path d="M1355.09 80.146L1355.26 160.027H1435.14L1434.96 80.146H1355.09Z" fill="#EDE6D8"/>
<path d="M1355.17 120.207L1355.26 160.027H1435.14L1435.05 120.207H1355.17Z" fill="#259D4A"/>
<path d="M1355.17 120.207L1355.26 160.027H1435.14L1435.05 120.207H1355.17Z" fill="#259D4A"/>
</g>
<path d="M638.021 -0.453125H477.021V159.547H638.021V-0.453125Z" fill="#0B434B"/>
<path d="M638.025 -0.453125C616.883 -0.453125 595.947 3.68538 576.413 11.7261C556.88 19.7669 539.131 31.5524 524.181 46.4098C509.231 61.2672 497.372 78.9054 489.281 98.3175C481.19 117.73 477.025 138.535 477.025 159.547H638.025V-0.453125Z" fill="#77E298"/>
<path d="M638.038 79.418C627.491 79.4538 616.782 81.5162 607.051 85.5609C597.32 89.6055 588.486 95.5154 581.053 102.954C573.62 110.391 567.733 119.211 563.73 128.91C559.726 138.608 557.684 148.995 557.72 159.478L638.038 159.467V79.418Z" fill="#259D4A"/>
<path d="M239.533 159.547L239.356 79.3496H319.236L319.412 159.547H239.533Z" fill="#259D4A"/>
<path d="M319.236 79.3496L319.411 159.229L239.356 79.3496H319.236Z" fill="#259D4A"/>
<path d="M239.358 79.6636L239.533 159.543H159.654L159.478 79.6636H239.358Z" fill="#EDE6D8"/>
<path d="M199.505 119.547C177.447 119.547 159.526 101.638 159.478 79.5469H239.357C239.406 101.638 221.563 119.547 199.505 119.547Z" fill="#0C434B"/>
<path d="M199.505 119.547C177.447 119.547 159.605 137.455 159.653 159.547H239.533C239.484 137.455 221.563 119.547 199.505 119.547Z" fill="#EDE6D8"/>
<path d="M319.236 79.3481L319.061 -0.453125H239.181L239.356 79.3481H319.236Z" fill="#259D4A"/>
<path d="M319.061 -0.453125C319.084 10.0267 317.04 20.404 313.047 30.0861C309.054 39.7682 303.19 48.5656 295.788 55.9759C288.387 63.3863 279.594 69.2645 269.912 73.275C260.229 77.2855 249.846 79.3496 239.356 79.3496L239.181 -0.453125H319.061Z" fill="#77E298"/>
<path d="M239.356 79.3488L239.184 0.78125H159.304L159.477 79.3488H239.356Z" fill="#EDE6D8"/>
<path d="M239.27 39.9669L239.184 0.78125H159.304L159.39 39.9669H239.27Z" fill="#259D4A"/>
<path d="M239.266 39.9677L239.177 -0.453125H159.297L159.386 39.9677H239.266Z" fill="#259D4A"/>
<path d="M80.6589 -0.453558L80.4834 79.4258L160.363 79.4258L160.538 -0.453558L80.6589 -0.453558Z" fill="#259D4A"/>
<path d="M160.363 79.4262L160.538 -0.453125L80.4834 79.4262H160.363Z" fill="#259D4A"/>
<path d="M80.4847 79.4282L80.6602 -0.451172L0.780655 -0.451172L0.605161 79.4282L80.4847 79.4282Z" fill="#EDE6D8"/>
<path d="M40.632 39.4863C18.5739 39.4863 0.652953 57.3679 0.604492 79.426H80.484C80.5325 57.3679 62.6902 39.4863 40.632 39.4863Z" fill="#0C434B"/>
<path d="M40.6323 39.4865C18.5742 39.4865 0.73191 21.6049 0.780372 -0.453125H80.6598C80.6114 21.6049 62.6905 39.4865 40.6323 39.4865Z" fill="#EDE6D8"/>
<path d="M160.363 79.4292L160.187 159.547L80.307 159.547L80.483 79.4292L160.363 79.4292Z" fill="#259D4A"/>
<path d="M160.188 159.545C160.211 149.024 158.168 138.606 154.175 128.886C150.182 119.165 144.317 110.333 136.916 102.894C129.515 95.454 120.722 89.5526 111.04 85.5263C101.357 81.5 90.9745 79.4277 80.4846 79.4277L80.3086 159.545H160.188Z" fill="#77E298"/>
<path d="M80.4821 79.4273L80.3066 159.307L0.427139 159.307L0.602633 79.4273L80.4821 79.4273Z" fill="#EDE6D8"/>
<path d="M80.3944 119.367L80.3066 159.307L0.427139 159.307L0.514886 119.367L80.3944 119.367Z" fill="#259D4A"/>
<path d="M80.3939 119.367L80.3057 159.547L0.426163 159.547L0.514437 119.367L80.3939 119.367Z" fill="#259D4A"/>
<mask id="mask2_1075_1323" style="mask-type:luminance" maskUnits="userSpaceOnUse" x="319" y="-1" width="160" height="161">
<path d="M478.025 -0.453125H319.025V159.547H478.025V-0.453125Z" fill="white"/>
</mask>
<g mask="url(#mask2_1075_1323)">
<path d="M478.025 -0.453125H319.025V159.547H478.025V-0.453125Z" fill="white"/>
<path d="M319.027 159.858L479.337 160.994L480.473 0.684153L320.163 -0.451829L319.027 159.858Z" fill="#0B434B"/>
<path d="M317.594 159.429C338.647 159.429 359.494 155.282 378.944 147.226C398.394 139.169 416.067 127.361 430.953 112.474C445.84 97.5877 457.649 79.9149 465.705 60.4647C473.762 41.0145 477.908 20.1679 477.908 -0.884766L317.594 -0.884753V159.429Z" fill="#EDE6D8"/>
<path d="M317.595 78.7038C328.121 78.7784 338.559 76.7791 348.312 72.8199C358.066 68.8607 366.944 63.0192 374.44 55.6289C381.935 48.2387 387.902 39.4443 391.999 29.7481C396.097 20.0518 398.244 9.64346 398.318 -0.882653L318.164 -1.45117L317.595 78.7038Z" fill="#C9F6D7"/>
</g>
<path d="M2071.34 159.545H1912.03V0.545929H2071.34V159.545Z" fill="#0B434B"/>
<path d="M2071.03 159.547C2050.15 159.547 2029.47 155.408 2010.18 147.368C1990.89 139.327 1973.36 127.541 1958.6 112.684C1943.83 97.8266 1932.12 80.1883 1924.13 60.7762C1916.14 41.3641 1912.03 20.5584 1912.03 -0.453125L2071.03 -0.453113V159.547Z" fill="#EDE6D8"/>
<path d="M2072 80C2061.49 80 2051.09 77.9307 2041.38 73.9103C2031.68 69.89 2022.86 63.9972 2015.42 56.5685C2008 49.1398 2002.11 40.3207 1998.09 30.6147C1994.07 20.9086 1992 10.5057 1992 0L2072 6.02007e-06V80Z" fill="#259D4A"/>
<path d="M1831.9 159.549L1832.08 79.6699H1752.2L1752.03 159.549H1831.9Z" fill="#77E298"/>
<path d="M1752.2 79.6699L1752.03 159.549L1832.08 79.6699H1752.2Z" fill="#77E298"/>
<path d="M1832.09 79.6695L1831.91 159.549H1911.79L1911.97 79.6695H1832.09Z" fill="#EDE6D8"/>
<path d="M1871.93 119.609C1893.99 119.609 1911.91 101.728 1911.96 79.6699H1832.08C1832.03 101.728 1849.88 119.609 1871.93 119.609Z" fill="#0C434B"/>
<path d="M1871.93 119.609C1893.99 119.609 1911.83 137.491 1911.79 159.549H1831.91C1831.95 137.491 1849.88 119.609 1871.93 119.609Z" fill="#EDE6D8"/>
<path d="M1752.18 80.5453L1752.36 0.546875H1832.24L1832.06 80.5453H1752.18Z" fill="#259D4A"/>
<path d="M1752.36 -0.544922C1752.34 10.1042 1754.38 20.6491 1758.37 30.4876C1762.37 40.3261 1768.23 49.2656 1775.63 56.7956C1783.03 64.3257 1791.82 70.2989 1801.51 74.3741C1811.19 78.4494 1821.57 80.5469 1832.06 80.5469L1832.24 -0.544922H1752.36Z" fill="#C9F7D7"/>
<path d="M1832.06 80.5473L1832.24 -0.371094H1912.12L1911.94 80.5473H1832.06Z" fill="#EDE6D8"/>
<path d="M1832.15 40.0881L1832.24 -0.371094H1912.12L1912.03 40.0881H1832.15Z" fill="#259D4A"/>
<path d="M1832.15 40.0881L1832.24 -0.371094H1912.12L1912.03 40.0881H1832.15Z" fill="#259D4A"/>
<path d="M1753.03 159.541H1592.03V0.541016H1753.03V159.541Z" fill="#0B434B"/>
<path d="M1753.03 159.547C1731.88 159.547 1710.95 155.408 1691.41 147.368C1671.88 139.327 1654.13 127.541 1639.18 112.684C1624.23 97.8266 1612.37 80.1883 1604.28 60.7762C1596.19 41.3641 1592.03 20.5584 1592.03 -0.453125L1753.03 -0.453113V159.547Z" fill="#77E298"/>
<path d="M1753.04 80.4123C1742.49 80.3765 1731.79 78.2955 1722.06 74.2142C1712.32 70.1329 1703.49 64.1692 1696.06 56.6637C1688.62 49.1582 1682.74 40.2578 1678.74 30.4708C1674.73 20.6837 1672.69 10.2016 1672.73 -0.376953L1753.04 -0.368014V80.4123Z" fill="#259D4A"/>
<mask id="mask3_1075_1323" style="mask-type:luminance" maskUnits="userSpaceOnUse" x="1434" y="-1" width="160" height="161">
<path d="M1593.03 159.547H1434.03V-0.453125H1593.03V159.547Z" fill="white"/>
</mask>
<g mask="url(#mask3_1075_1323)">
<path d="M1593.03 159.547H1434.03V-0.453125H1593.03V159.547Z" fill="white"/>
<path d="M1434.03 -0.763338L1594.34 -1.90039L1595.48 158.41L1435.17 159.547L1434.03 -0.763338Z" fill="#0B434B"/>
<path d="M1432.59 -0.335938C1453.65 -0.335938 1474.49 3.8107 1493.94 11.8672C1513.39 19.9238 1531.07 31.7324 1545.95 46.6189C1560.84 61.5054 1572.65 79.1783 1580.7 98.6285C1588.76 118.078 1592.91 138.925 1592.91 159.978H1432.59V-0.335938Z" fill="#EDE6D8"/>
<path d="M1432.59 80.3907C1443.12 80.316 1453.56 82.3154 1463.31 86.2745C1473.06 90.2337 1481.94 96.0752 1489.44 103.465C1496.93 110.855 1502.9 119.65 1507 129.346C1511.1 139.042 1513.24 149.451 1513.32 159.978L1433.16 160.545L1432.59 80.3907Z" fill="#C9F6D7"/>
</g>
<path d="M2150.91 159.544L2151.09 79.6719H2071.22L2071.05 159.544H2150.91Z" fill="#259D4A"/>
<path d="M2071.22 79.6719L2071.05 159.544L2151.09 79.6719H2071.22Z" fill="#259D4A"/>
<path d="M2151.1 79.6729L2150.92 159.545H2230.79L2230.96 79.6729H2151.1Z" fill="#EDE6D8"/>
<path d="M2190.94 119.609C2212.99 119.609 2230.91 101.729 2230.96 79.6738H2151.09C2151.04 101.729 2168.88 119.609 2190.94 119.609Z" fill="#0C434B"/>
<path d="M2190.94 119.609C2212.99 119.609 2230.83 137.489 2230.79 159.545H2150.92C2150.97 137.489 2168.88 119.609 2190.94 119.609Z" fill="#EDE6D8"/>
<path d="M2071.02 79.6645L2071.2 -0.453125H2151.08L2150.9 79.6645H2071.02Z" fill="#259D4A"/>
<path d="M2071.2 -0.449219C2071.18 10.072 2073.22 20.4901 2077.21 30.2105C2081.21 39.9308 2087.07 48.7629 2094.47 56.2025C2101.87 63.6421 2110.67 69.5435 2120.35 73.5698C2130.03 77.5961 2140.41 79.6684 2150.9 79.6684L2151.08 -0.449219H2071.2Z" fill="#77E298"/>
<path d="M2150.9 79.6684L2151.08 -0.453125H2230.96L2230.78 79.6684H2150.9Z" fill="#EDE6D8"/>
<path d="M2150.99 39.6076L2151.08 -0.453125H2230.96L2230.87 39.6076H2150.99Z" fill="#259D4A"/>
<path d="M2150.99 39.6076L2151.08 -0.453125H2230.96L2230.87 39.6076H2150.99Z" fill="#259D4A"/>
<rect x="1746.5" y="82.3184" width="15" height="78" transform="rotate(-2.2145 1746.5 82.3184)" fill="#77E298"/>
<rect x="625" width="10" height="79" fill="#77E298"/>
<path d="M956 79.5V158" stroke="#259D4A"/>
</g>
<defs>
<clipPath id="clip0_1075_1323">
<rect width="2232" height="159" fill="white"/>
</clipPath>
</defs>
</svg>
