<svg width="1440" height="245" viewBox="0 0 1440 245" fill="none" xmlns="http://www.w3.org/2000/svg">
<rect width="120.584" height="120.584" transform="matrix(0.00219698 0.999998 1 0 601.033 123.59)" fill="#259D4A"/>
<path d="M721.618 123.59L721.883 244.174L601.033 123.59H721.618Z" fill="#259D4A"/>
<rect width="120.584" height="120.584" transform="matrix(-0.00219698 -0.999998 -1 0 601.297 244.173)" fill="#EDE6D8"/>
<path d="M540.872 183.882C507.574 183.882 480.521 156.888 480.448 123.59H601.032C601.105 156.888 574.171 183.882 540.872 183.882Z" fill="#0C434B"/>
<path d="M540.872 183.882C507.574 183.882 480.639 210.876 480.713 244.174H601.297C601.224 210.876 574.171 183.882 540.872 183.882Z" fill="#EDE6D8"/>
<rect width="120.944" height="120.584" transform="matrix(0.00219698 0.999998 -1 0 721.348 2.63965)" fill="#259D4A"/>
<path d="M721.352 2.64502C721.387 18.5276 718.302 34.2546 712.275 48.9282C706.247 63.6018 697.394 76.9346 686.221 88.1652C675.049 99.3959 661.775 108.305 647.159 114.383C632.542 120.461 616.869 123.589 601.033 123.589L600.768 2.64502H721.352Z" fill="#77E298"/>
<rect width="120.95" height="120.584" transform="matrix(0.00219698 0.999998 -1 0 600.764 2.63867)" fill="#EDE6D8"/>
<rect width="60.475" height="120.584" transform="matrix(0.00219698 0.999998 -1 0 600.764 2.63867)" fill="#259D4A"/>
<rect width="60.475" height="120.584" transform="matrix(0.00219698 0.999998 -1 0 600.764 2.63867)" fill="#259D4A"/>
<rect x="961.908" y="244.174" width="240.497" height="241.532" transform="rotate(180 961.908 244.174)" fill="#0B434B"/>
<path d="M721.411 244.173C752.994 244.173 784.267 237.926 813.446 225.788C842.624 213.65 869.136 195.859 891.468 173.43C913.801 151.002 931.515 124.376 943.601 95.0718C955.688 65.7678 961.908 34.36 961.908 2.6416L721.411 2.64162V244.173Z" fill="#EDE6D8"/>
<path d="M721.41 123.41C737.201 123.41 752.838 120.287 767.427 114.218C782.016 108.149 795.272 99.2531 806.438 88.0389C817.604 76.8248 826.462 63.5116 832.505 48.8596C838.548 34.2076 841.658 18.5037 841.658 2.64453L721.41 2.64454V123.41Z" fill="#259D4A"/>
<rect width="120.584" height="120.584" transform="matrix(0.00219698 0.999998 1 0 1082.59 123.59)" fill="#77E298"/>
<path d="M1203.18 123.59L1203.44 244.174L1082.59 123.59H1203.18Z" fill="#77E298"/>
<rect width="120.584" height="120.584" transform="matrix(-0.00219698 -0.999998 -1 0 1082.86 244.174)" fill="#EDE6D8"/>
<path d="M1022.43 183.882C989.13 183.882 962.077 156.888 962.004 123.59H1082.59C1082.66 156.888 1055.73 183.882 1022.43 183.882Z" fill="#0C434B"/>
<path d="M1022.43 183.882C989.13 183.882 962.196 210.876 962.269 244.174H1082.85C1082.78 210.876 1055.73 183.882 1022.43 183.882Z" fill="#EDE6D8"/>
<rect width="120.947" height="120.584" transform="matrix(0.00219698 0.999998 -1 0 1202.91 2.6416)" fill="#259D4A"/>
<path d="M1202.91 2.64305C1202.94 18.526 1199.86 34.2534 1193.83 48.9274C1187.8 63.6013 1178.95 76.9344 1167.78 88.1654C1156.61 99.3963 1143.33 108.305 1128.72 114.383C1114.1 120.461 1098.43 123.59 1082.59 123.59L1082.32 2.64305H1202.91Z" fill="#C9F7D7"/>
<rect width="120.95" height="120.584" transform="matrix(0.00219698 0.999998 -1 0 1082.32 2.63965)" fill="#EDE6D8"/>
<rect width="60.475" height="120.584" transform="matrix(0.00219698 0.999998 -1 0 1082.32 2.63965)" fill="#259D4A"/>
<rect width="60.475" height="120.584" transform="matrix(0.00219698 0.999998 -1 0 1082.32 2.63965)" fill="#259D4A"/>
<g clip-path="url(#clip0_1073_8440)">
<rect width="122.277" height="120.584" transform="matrix(-0.00219698 -0.999998 -1 0 360.484 124.918)" fill="#259D4A"/>
<path d="M239.9 124.918L239.631 2.64145L360.484 124.918H239.9Z" fill="#259D4A"/>
<rect width="121.31" height="120.584" transform="matrix(0.00219698 0.999998 1 0 360.215 2.6416)" fill="#EDE6D8"/>
<path d="M420.641 63.2959C453.94 63.2959 480.994 90.8848 481.069 124.917H360.485C360.41 90.8848 387.343 63.2959 420.641 63.2959Z" fill="#0C434B"/>
<path d="M420.641 63.6582C453.94 63.6582 480.874 36.5023 480.8 3.00378H360.216C360.289 36.5023 387.343 63.6582 420.641 63.6582Z" fill="#EDE6D8"/>
</g>
<rect width="119.859" height="120.584" transform="matrix(-0.00219698 -0.999998 1 0 240.161 244.175)" fill="#259D4A"/>
<path d="M240.163 244.175C240.129 228.434 243.213 212.848 249.241 198.306C255.269 183.764 264.123 170.55 275.295 159.42C286.468 148.29 299.742 139.461 314.359 133.437C328.975 127.414 344.649 124.313 360.484 124.313L360.748 244.175H240.163Z" fill="#C9F7D7"/>
<rect width="119.862" height="120.584" transform="matrix(-0.00219698 -0.999998 1 0 360.748 244.175)" fill="#EDE6D8"/>
<rect width="59.3871" height="120.584" transform="matrix(-0.00219698 -0.999998 1 0 360.752 244.175)" fill="#259D4A"/>
<rect width="59.3871" height="120.584" transform="matrix(-0.00219698 -0.999998 1 0 360.748 244.175)" fill="#259D4A"/>
<rect width="122.277" height="120.584" transform="matrix(0.00219698 0.999998 1 0 119.475 121.897)" fill="#259D4A"/>
<path d="M240.059 121.897L240.328 244.174L119.475 121.897H240.059Z" fill="#259D4A"/>
<rect width="121.31" height="120.584" transform="matrix(-0.00219698 -0.999998 -1 0 119.743 244.174)" fill="#EDE6D8"/>
<path d="M59.3147 183.52C26.0162 183.52 -1.03815 155.931 -1.11292 121.898H119.472C119.546 155.931 92.6132 183.52 59.3147 183.52Z" fill="#0C434B"/>
<path d="M59.3147 183.157C26.0162 183.157 -0.917878 210.313 -0.844282 243.812H119.74C119.667 210.313 92.6132 183.157 59.3147 183.157Z" fill="#EDE6D8"/>
<g clip-path="url(#clip1_1073_8440)">
<rect width="120.584" height="120.584" transform="matrix(0.00219698 0.999998 -1 0 239.792 1.91504)" fill="#259D4A"/>
<path d="M239.795 1.9178C239.83 17.7531 236.745 33.4334 230.718 48.0634C224.69 62.6933 215.837 75.9864 204.664 87.1837C193.491 98.3809 180.218 107.263 165.601 113.323C150.984 119.383 135.311 122.502 119.476 122.502L119.211 1.9178H239.795Z" fill="#C9F7D7"/>
<rect width="120.587" height="120.584" transform="matrix(0.00219698 0.999998 -1 0 119.204 1.91504)" fill="#EDE6D8"/>
<rect width="60.1124" height="120.584" transform="matrix(0.00219698 0.999998 -1 0 119.204 1.91504)" fill="#259D4A"/>
<rect width="60.1124" height="120.584" transform="matrix(0.00219698 0.999998 -1 0 119.207 1.91504)" fill="#259D4A"/>
</g>
<rect x="1444.98" y="244.175" width="243.042" height="241.533" transform="rotate(180 1444.98 244.175)" fill="#0B434B"/>
<path d="M1201.93 244.175C1233.85 244.175 1265.45 237.928 1294.94 225.79C1324.43 213.652 1351.22 195.86 1373.79 173.432C1396.36 151.004 1414.26 124.377 1426.47 95.0731C1438.69 65.769 1444.97 34.3611 1444.97 2.64258L1201.93 2.6426L1201.93 244.175Z" fill="#77E298"/>
<path d="M1201.91 123.604C1217.83 123.55 1234 120.437 1248.69 114.331C1263.38 108.225 1276.71 99.3039 1287.93 88.0761C1299.16 76.8483 1308.04 63.5339 1314.08 48.8933C1320.13 34.2527 1323.21 18.5724 1323.16 2.7479L1201.91 2.765L1201.91 123.604Z" fill="#259D4A"/>
<g clip-path="url(#clip2_1073_8440)">
<rect width="240.023" height="241.533" transform="matrix(-1 0 0 1 0.305664 2.64062)" fill="white"/>
<rect width="242.006" height="242.006" transform="matrix(0.999975 -0.00709266 -0.00709266 -0.999975 -241.693 246.358)" fill="#0B434B"/>
<path d="M2.46925 243.996C-29.3115 243.996 -60.781 237.736 -90.1426 225.574C-119.504 213.412 -146.183 195.586 -168.655 173.114C-191.127 150.641 -208.954 123.963 -221.115 94.6011C-233.277 65.2395 -239.537 33.77 -239.537 1.98926L2.46925 1.98928L2.46925 243.996Z" fill="#EDE6D8"/>
<path d="M2.46873 122.134C-13.4212 122.247 -29.1778 119.229 -43.9013 113.252C-58.6249 107.275 -72.0271 98.4571 -83.3427 87.3009C-94.6583 76.1446 -103.666 62.8689 -109.851 48.2316C-116.036 33.5943 -119.277 17.8822 -119.39 1.99219L1.6105 1.13396L2.46873 122.134Z" fill="#C9F6D7"/>
</g>
<defs>
<clipPath id="clip0_1073_8440">
<rect width="241.17" height="121.672" fill="white" transform="matrix(1 0 0.00219698 0.999998 239.631 2.6416)"/>
</clipPath>
<clipPath id="clip1_1073_8440">
<rect width="250.081" height="119.861" fill="white" transform="matrix(-1 0 -0.00219698 -0.999998 240.06 122.502)"/>
</clipPath>
<clipPath id="clip2_1073_8440">
<rect width="240.023" height="241.533" fill="white" transform="matrix(-1 0 0 1 0.305664 2.64062)"/>
</clipPath>
</defs>
</svg>
