<svg width="108" height="108" viewBox="0 0 108 108" fill="none" xmlns="http://www.w3.org/2000/svg">
<g filter="url(#filter0_d_1308_2268)">
<g filter="url(#filter1_b_1308_2268)">
<circle cx="54" cy="50" r="50" fill="white"/>
</g>
<path fill-rule="evenodd" clip-rule="evenodd" d="M62.8443 18.4354C61.8839 18.5981 60.8134 18.9104 59.8577 19.3066C55.938 20.9316 52.9656 24.6184 52.1969 28.8087C51.9871 29.9524 51.9618 31.9927 52.1429 33.155C52.6722 36.5511 54.6396 39.7071 57.4647 41.6916C63.8362 46.1674 72.6604 44.0276 76.2774 37.1295C77.2553 35.2646 77.7044 33.4983 77.7286 31.4223C77.7534 29.2909 77.3842 27.5748 76.4895 25.662C74.7463 21.9357 71.2681 19.2513 67.2007 18.4932C66.184 18.3036 63.8078 18.2721 62.8443 18.4354ZM66.9502 23.3376C72.418 24.7994 74.7305 31.2476 71.4478 35.8792C69.4931 38.6373 65.9024 39.871 62.5935 38.9215C61.1033 38.4938 59.3267 37.2851 58.4318 36.09C56.6189 33.6689 56.2752 30.3303 57.566 27.6781C58.7716 25.2009 61.0977 23.509 63.8386 23.1159C64.6387 23.0011 66.0745 23.1034 66.9502 23.3376ZM63.3328 26.4495C59.8515 27.6323 58.7944 31.9876 61.349 34.623C63.2506 36.5846 66.3716 36.6212 68.3185 34.7046C69.8609 33.1862 70.25 30.9882 69.331 28.9854C68.8337 27.9017 67.5905 26.8171 66.4105 26.4374C65.5169 26.1499 64.1996 26.1551 63.3328 26.4495ZM49.5405 42.6346C48.9134 42.7562 48.3792 43.0429 47.8908 43.5199C47.3176 44.0799 47.0328 44.6645 46.9717 45.4072C46.9279 45.9388 46.8927 46.021 46.6255 46.2141C46.3323 46.4262 37.2279 52.4653 37.0052 52.5955C36.9421 52.6323 36.6759 52.5895 36.4136 52.5003C35.7661 52.2801 34.743 52.3375 34.1044 52.6298C33.5207 52.8971 32.8303 53.5719 32.5244 54.1743C32.3312 54.5548 32.2924 54.7711 32.2824 55.5222C32.2711 56.364 32.2891 56.4524 32.5865 57.0165C32.9334 57.6747 33.4172 58.1521 34.0758 58.4863C34.4294 58.6658 34.6608 58.7056 35.399 58.7142C36.1587 58.7231 36.3653 58.6906 36.7674 58.4988C37.7889 58.0115 38.5377 56.9679 38.6173 55.9205L38.6607 55.3502L43.6451 52.0415L48.6295 48.7326L49.2531 48.8971C50.4732 49.219 51.577 48.9174 52.4268 48.0298C53.2464 47.1739 53.5317 46.0842 53.2249 44.9809C52.7715 43.3503 51.1559 42.3215 49.5405 42.6346ZM61.2522 48.4384L57.8008 52.2886L59.0236 52.3292L60.2464 52.3698L60.1368 61.7382L60.0271 71.1065L57.1546 71.0729L54.282 71.0393L54.3614 64.2582L54.4408 57.4771L50.0143 57.4253L45.5877 57.3735L45.5083 64.1546L45.429 70.9356L42.5564 70.902L39.6839 70.8684L39.7351 66.4889L39.7864 62.1095L35.3599 62.0577L30.9333 62.0059L30.8821 66.3799L30.8309 70.754L28.9162 70.7605C27.0547 70.7668 26.9919 70.7734 26.6577 70.9969C25.6692 71.6579 25.6661 73.1496 26.652 73.7189L27.0046 73.9226L49.8404 74.1899L72.6763 74.4572L72.9901 74.2489C73.4789 73.9245 73.683 73.5908 73.7311 73.0369C73.7829 72.4397 73.5933 72.0232 73.0725 71.5913L72.724 71.3022L70.7552 71.2489L68.7862 71.1954L68.8958 61.8339L69.0053 52.4724L70.2329 52.4604L71.4605 52.4485L68.3362 48.7855C66.6178 46.7708 65.0975 45.0022 64.9578 44.8553L64.7037 44.5881L61.2522 48.4384Z" fill="#044D57"/>
<path fill-rule="evenodd" clip-rule="evenodd" d="M59.6879 18.7075C60.691 18.2916 61.8145 17.9639 62.8225 17.7931C63.8337 17.6217 66.3276 17.6548 67.3948 17.8537C71.6637 18.6494 75.3142 21.4668 77.1438 25.3778C78.0829 27.3854 78.4703 29.1865 78.4443 31.4236C78.4189 33.6024 77.9476 35.4562 76.9212 37.4136C73.125 44.6535 63.8635 46.8992 57.1763 42.2016C54.2112 40.1188 52.1463 36.8065 51.5908 33.2421C51.4008 32.0221 51.4273 29.8808 51.6475 28.6804C52.4543 24.2825 55.574 20.413 59.6879 18.7075ZM71.8523 36.1012C75.2976 31.2402 72.8706 24.4725 67.1318 22.9382C66.2127 22.6924 64.7058 22.585 63.8661 22.7055C60.9894 23.1181 58.548 24.8938 57.2827 27.4938C55.9279 30.2774 56.2886 33.7815 58.1914 36.3225C59.1306 37.5768 60.9952 38.8454 62.5593 39.2942C66.0321 40.2909 69.8007 38.996 71.8523 36.1012ZM61.2531 34.7828C58.572 32.0168 59.6814 27.4457 63.3352 26.2043C64.2449 25.8954 65.6275 25.8899 66.5654 26.1916C67.8038 26.5901 69.1086 27.7285 69.6306 28.8658C70.5952 30.9679 70.1867 33.2749 68.5679 34.8684C66.5245 36.88 63.2489 36.8417 61.2531 34.7828ZM65.1406 45.6335C65.0907 45.5769 65.0569 45.5392 65.0407 45.5221L64.7741 45.2417L64.3288 45.7384C64.5457 45.6471 64.744 45.569 64.9018 45.5102L65.1406 45.6335Z" fill="#299E4D"/>
</g>
<defs>
<filter id="filter0_d_1308_2268" x="0" y="0" width="108" height="108" filterUnits="userSpaceOnUse" color-interpolation-filters="sRGB">
<feFlood flood-opacity="0" result="BackgroundImageFix"/>
<feColorMatrix in="SourceAlpha" type="matrix" values="0 0 0 0 0 0 0 0 0 0 0 0 0 0 0 0 0 0 127 0" result="hardAlpha"/>
<feOffset dy="4"/>
<feGaussianBlur stdDeviation="2"/>
<feComposite in2="hardAlpha" operator="out"/>
<feColorMatrix type="matrix" values="0 0 0 0 0 0 0 0 0 0 0 0 0 0 0 0 0 0 0.25 0"/>
<feBlend mode="normal" in2="BackgroundImageFix" result="effect1_dropShadow_1308_2268"/>
<feBlend mode="normal" in="SourceGraphic" in2="effect1_dropShadow_1308_2268" result="shape"/>
</filter>
<filter id="filter1_b_1308_2268" x="1.6" y="-2.4" width="104.8" height="104.8" filterUnits="userSpaceOnUse" color-interpolation-filters="sRGB">
<feFlood flood-opacity="0" result="BackgroundImageFix"/>
<feGaussianBlur in="BackgroundImageFix" stdDeviation="1.2"/>
<feComposite in2="SourceAlpha" operator="in" result="effect1_backgroundBlur_1308_2268"/>
<feBlend mode="normal" in="SourceGraphic" in2="effect1_backgroundBlur_1308_2268" result="shape"/>
</filter>
</defs>
</svg>
