<svg width="1440" height="240" viewBox="0 0 1440 240" fill="none" xmlns="http://www.w3.org/2000/svg">
<g filter="url(#filter0_d_1075_603)">
<rect width="116.009" height="114.403" transform="matrix(-0.00219698 0.999998 -1 0 290.315 115.65)" fill="#5EBE7C"/>
<path d="M175.912 115.65L175.657 231.659L290.315 115.65H175.912Z" fill="#5EBE7C"/>
<rect width="115.091" height="114.403" transform="matrix(0.00219698 -0.999998 1 0 290.062 231.658)" fill="#C9F6D7"/>
<path d="M347.39 174.113C378.982 174.113 404.649 147.939 404.72 115.65H290.317C290.246 147.939 315.799 174.113 347.39 174.113Z" fill="#0C434B"/>
<path d="M347.39 173.77C378.982 173.77 404.535 199.533 404.465 231.315H290.062C290.132 199.533 315.799 173.77 347.39 173.77Z" fill="#C9F6D7"/>
<g clip-path="url(#clip0_1075_603)">
<rect width="114.403" height="114.403" transform="matrix(-0.00219698 0.999998 1 0 176.166 1.81641)" fill="#5EBE7C"/>
<path d="M176.163 1.81963C176.129 16.8432 179.056 31.7198 184.775 45.5998C190.494 59.4798 198.893 72.0915 209.493 82.7148C220.093 93.3381 232.686 101.765 246.553 107.514C260.421 113.264 275.291 116.223 290.314 116.223L290.566 1.81963H176.163Z" fill="#C9F7D7"/>
<rect width="114.406" height="114.403" transform="matrix(-0.00219698 0.999998 1 0 290.571 1.81641)" fill="#C9F6D7"/>
<rect width="57.031" height="114.403" transform="matrix(-0.00219698 0.999998 1 0 290.571 1.81641)" fill="#5EBE7C"/>
<rect width="57.031" height="114.403" transform="matrix(-0.00219698 0.999998 1 0 290.568 1.81641)" fill="#5EBE7C"/>
</g>
<rect x="1087.97" y="2.51172" width="228.169" height="227.719" fill="#0B434B"/>
<path d="M1315.69 2.50645C1285.78 2.50645 1256.17 8.43362 1228.54 19.9496C1200.91 31.4655 1175.81 48.3447 1154.66 69.6234C1133.52 90.9021 1116.74 116.164 1105.3 143.966C1093.86 171.768 1087.97 201.566 1087.97 231.658L1315.69 231.658V2.50645Z" fill="#EDE6D8"/>
<path d="M1315.69 117.082C1300.83 117.082 1286.12 120.046 1272.39 125.804C1258.66 131.562 1246.19 140.001 1235.68 150.641C1225.18 161.28 1216.84 173.911 1211.16 187.812C1205.47 201.713 1202.54 216.612 1202.54 231.658L1315.69 231.658V117.082Z" fill="#5EBE7C"/>
<rect width="114.403" height="114.403" transform="matrix(-0.00219698 -0.999998 -1 0 973.469 116.906)" fill="#5EBE7C"/>
<path d="M859.065 116.906L858.814 2.50323L973.469 116.906H859.065Z" fill="#5EBE7C"/>
<rect width="114.403" height="114.403" transform="matrix(0.00219698 0.999998 1 0 973.219 2.50586)" fill="#EDE6D8"/>
<path d="M1030.55 59.707C1062.14 59.707 1087.8 85.317 1087.87 116.909H973.47C973.401 85.317 998.955 59.707 1030.55 59.707Z" fill="#0C434B"/>
<path d="M1030.55 59.707C1062.14 59.707 1087.69 34.097 1087.62 2.50552H973.219C973.288 34.097 998.955 59.707 1030.55 59.707Z" fill="#EDE6D8"/>
<rect width="114.574" height="114.403" transform="matrix(-0.00219698 -0.999998 1 0 859.293 230.225)" fill="#5EBE7C"/>
<path d="M859.293 231.79C859.26 216.538 862.186 201.436 867.904 187.345C873.622 173.255 882.021 160.451 892.621 149.667C903.22 138.882 915.813 130.328 929.681 124.491C943.548 118.654 958.418 115.65 973.441 115.65L973.697 231.79H859.293Z" fill="#C9F7D7"/>
<rect width="115.891" height="114.403" transform="matrix(-0.00219698 -0.999998 1 0 973.699 231.541)" fill="#EDE6D8"/>
<rect width="57.9457" height="114.403" transform="matrix(-0.00219698 -0.999998 1 0 973.699 231.541)" fill="#5EBE7C"/>
<rect width="57.9457" height="114.403" transform="matrix(-0.00219698 -0.999998 1 0 973.699 231.541)" fill="#5EBE7C"/>
<rect x="629.666" y="2.51562" width="230.584" height="227.72" fill="#0B434B"/>
<path d="M860.248 2.5045C829.967 2.5045 799.983 8.43167 772.007 19.9476C744.032 31.4636 718.612 48.3428 697.201 69.6215C675.789 90.9002 658.804 116.162 647.216 143.964C635.628 171.766 629.664 201.564 629.664 231.656L860.248 231.656L860.248 2.5045Z" fill="#CAFFDA"/>
<path d="M860.273 115.842C845.167 115.893 829.83 118.874 815.893 124.719C801.957 130.564 789.305 139.105 778.66 149.855C768.014 160.604 759.584 173.351 753.851 187.368C748.118 201.385 745.193 216.398 745.245 231.548L860.276 231.535L860.273 115.842Z" fill="#5EBE7C"/>
<g clip-path="url(#clip1_1075_603)">
<rect width="227.72" height="229.152" transform="matrix(-1 0 0 -1 631.094 231.658)" fill="white"/>
<rect x="401.5" y="0.433594" width="229.601" height="229.601" transform="rotate(0.406383 401.5 0.433594)" fill="#0B434B"/>
<path d="M633.146 2.67615C602.994 2.67615 573.138 8.61496 545.282 20.1535C517.425 31.692 492.114 48.6043 470.794 69.9248C449.473 91.2452 432.561 116.556 421.022 144.413C409.484 172.269 403.545 202.126 403.545 232.277L633.146 232.277V2.67615Z" fill="white"/>
<path d="M633.145 118.29C618.07 118.183 603.121 121.046 589.152 126.717C575.183 132.387 562.468 140.753 551.732 151.338C540.997 161.922 532.451 174.517 526.583 188.404C520.715 202.291 517.64 217.198 517.533 232.273L632.331 233.088L633.145 118.29Z" fill="#5EBE7C"/>
</g>
<rect width="114.393" height="114.388" transform="matrix(-0.00219689 -0.999998 -1 0 1430.36 116.902)" fill="#5EBE7C"/>
<path d="M1315.97 116.902L1315.72 2.50976L1430.36 116.902H1315.97Z" fill="#5EBE7C"/>
<rect width="114.393" height="114.388" transform="matrix(0.00219689 0.999998 1 0 1430.11 2.50586)" fill="#EDE6D8"/>
<path d="M1487.43 59.7031C1519.02 59.7031 1544.68 85.3108 1544.75 116.899H1430.36C1430.29 85.3108 1455.84 59.7031 1487.43 59.7031Z" fill="#0C434B"/>
<path d="M1487.43 59.7031C1519.02 59.7031 1544.57 34.0955 1544.5 2.50683H1430.11C1430.18 34.0955 1455.84 59.7031 1487.43 59.7031Z" fill="#EDE6D8"/>
<rect width="114.745" height="114.403" transform="matrix(-0.00219689 -0.999998 1 0 1315.94 231.656)" fill="#5EBE7C"/>
<path d="M1315.94 231.651C1315.91 216.582 1318.83 201.661 1324.55 187.74C1330.27 173.818 1338.67 161.169 1349.27 150.514C1359.87 139.859 1372.46 131.407 1386.33 125.641C1400.2 119.874 1415.07 116.906 1430.09 116.906L1430.34 231.651H1315.94Z" fill="#77E298"/>
<rect width="114.75" height="114.403" transform="matrix(-0.00219689 -0.999998 1 0 1430.35 231.656)" fill="#EDE6D8"/>
<rect width="57.3751" height="114.403" transform="matrix(-0.00219689 -0.999998 1 0 1430.35 231.656)" fill="#5EBE7C"/>
<rect width="57.3751" height="114.403" transform="matrix(-0.00219689 -0.999998 1 0 1430.35 231.656)" fill="#5EBE7C"/>
<rect width="116.009" height="114.403" transform="matrix(0.00219698 0.999998 1 0 175.684 115.65)" fill="#5EBE7C"/>
<path d="M290.087 115.65L290.342 231.659L175.684 115.65H290.087Z" fill="#5EBE7C"/>
<rect width="115.091" height="114.403" transform="matrix(-0.00219698 -0.999998 -1 0 175.938 231.658)" fill="#EDE6D8"/>
<path d="M118.607 174.113C87.0153 174.113 61.3478 147.939 61.2768 115.65H175.68C175.751 147.939 150.199 174.113 118.607 174.113Z" fill="#0C434B"/>
<path d="M118.607 173.77C87.0153 173.77 61.4619 199.533 61.5317 231.315H175.935C175.865 199.533 150.199 173.77 118.607 173.77Z" fill="#EDE6D8"/>
<g clip-path="url(#clip2_1075_603)">
<rect width="114.403" height="114.403" transform="matrix(0.00219698 0.999998 -1 0 289.833 1.81641)" fill="#5EBE7C"/>
<path d="M289.837 1.81963C289.87 16.8432 286.943 31.7198 281.224 45.5998C275.505 59.4798 267.106 72.0915 256.506 82.7148C245.906 93.3381 233.313 101.765 219.446 107.514C205.578 113.264 190.708 116.223 175.685 116.223L175.433 1.81963H289.837Z" fill="#C9F7D7"/>
<rect width="114.406" height="114.403" transform="matrix(0.00219698 0.999998 -1 0 175.428 1.81641)" fill="#EDE6D8"/>
<rect width="57.031" height="114.403" transform="matrix(0.00219698 0.999998 -1 0 175.428 1.81641)" fill="#5EBE7C"/>
<rect width="57.031" height="114.403" transform="matrix(0.00219698 0.999998 -1 0 175.431 1.81641)" fill="#5EBE7C"/>
</g>
<g clip-path="url(#clip3_1075_603)">
<rect width="227.72" height="229.152" transform="matrix(-1 0 0 1 62.624 2.50586)" fill="white"/>
<rect width="229.601" height="229.601" transform="matrix(0.999975 -0.00709266 -0.00709266 -0.999975 -166.97 233.73)" fill="#0B434B"/>
<path d="M64.6763 231.488C34.5247 231.488 4.66827 225.549 -23.1882 214.011C-51.0447 202.472 -76.3558 185.56 -97.6762 164.239C-118.997 142.919 -135.909 117.608 -147.447 89.7513C-158.986 61.8948 -164.925 32.0384 -164.925 1.88672L64.6763 1.88674L64.6763 231.488Z" fill="white"/>
<path d="M64.6764 115.874C49.6009 115.981 34.652 113.118 20.6832 107.447C6.71441 101.777 -6.00077 93.4107 -16.7363 82.8264C-27.4719 72.242 -36.0176 59.6468 -41.8855 45.7598C-47.7534 31.8728 -50.8286 16.9661 -50.9355 1.89062L63.8621 1.07639L64.6764 115.874Z" fill="#5EBE7C"/>
</g>
</g>
<defs>
<filter id="filter0_d_1075_603" x="-1083" y="0" width="2632" height="239.789" filterUnits="userSpaceOnUse" color-interpolation-filters="sRGB">
<feFlood flood-opacity="0" result="BackgroundImageFix"/>
<feColorMatrix in="SourceAlpha" type="matrix" values="0 0 0 0 0 0 0 0 0 0 0 0 0 0 0 0 0 0 127 0" result="hardAlpha"/>
<feOffset dy="4"/>
<feGaussianBlur stdDeviation="2"/>
<feComposite in2="hardAlpha" operator="out"/>
<feColorMatrix type="matrix" values="0 0 0 0 0 0 0 0 0 0 0 0 0 0 0 0 0 0 0.25 0"/>
<feBlend mode="normal" in2="BackgroundImageFix" result="effect1_dropShadow_1075_603"/>
<feBlend mode="normal" in="SourceGraphic" in2="effect1_dropShadow_1075_603" result="shape"/>
</filter>
<clipPath id="clip0_1075_603">
<rect width="237.261" height="113.717" fill="white" transform="matrix(1 0 0.00219698 -0.999998 175.911 116.223)"/>
</clipPath>
<clipPath id="clip1_1075_603">
<rect width="227.72" height="229.152" fill="white" transform="matrix(-1 0 0 -1 631.094 231.658)"/>
</clipPath>
<clipPath id="clip2_1075_603">
<rect width="237.261" height="113.717" fill="white" transform="matrix(-1 0 -0.00219698 -0.999998 290.088 116.223)"/>
</clipPath>
<clipPath id="clip3_1075_603">
<rect width="227.72" height="229.152" fill="white" transform="matrix(-1 0 0 1 62.624 2.50586)"/>
</clipPath>
</defs>
</svg>
