<svg width="1960" height="214" viewBox="0 0 1960 214" fill="none" xmlns="http://www.w3.org/2000/svg">
<g clip-path="url(#clip0_484_168)">
<rect width="1960" height="214" fill="white"/>
<rect width="106.772" height="106.772" transform="matrix(-0.00219698 0.999998 -1 0 1345.62 106.775)" fill="#259D4A"/>
<path d="M1238.84 106.775L1238.61 213.546L1345.62 106.775H1238.84Z" fill="#259D4A"/>
<rect width="106.772" height="106.772" transform="matrix(0.00219698 -0.999998 1 0 1345.38 213.546)" fill="white"/>
<path d="M1398.89 160.16C1428.37 160.16 1452.32 136.258 1452.39 106.774H1345.62C1345.55 136.258 1369.4 160.16 1398.89 160.16Z" fill="#0C434B"/>
<path d="M1398.89 160.16C1428.37 160.16 1452.22 184.062 1452.15 213.546H1345.38C1345.45 184.062 1369.4 160.16 1398.89 160.16Z" fill="#EDE6D8"/>
<rect width="106.772" height="106.772" transform="matrix(-0.00219698 0.999998 1 0 1239.08 0.00201416)" fill="#259D4A"/>
<path d="M1239.08 0.00235138C1239.05 14.0238 1241.78 27.908 1247.12 40.8622C1252.45 53.8163 1260.29 65.5868 1270.19 75.5014C1280.08 85.4161 1291.83 93.2809 1304.78 98.6467C1317.72 104.012 1331.6 106.774 1345.62 106.774L1345.85 0.00235138H1239.08Z" fill="#EE9B4E"/>
<rect width="106.772" height="106.772" transform="matrix(-0.00219698 0.999998 1 0 1345.85 0.00250244)" fill="#EDE6D8"/>
<rect width="53.386" height="106.772" transform="matrix(-0.00219698 0.999998 1 0 1345.85 0.00250244)" fill="#259D4A"/>
<rect width="53.386" height="106.772" transform="matrix(-0.00219698 0.999998 1 0 1345.85 0.00250244)" fill="#259D4A"/>
<rect width="214.286" height="214.286" transform="matrix(1 0 0 -1 1025 214.286)" fill="#0B434B"/>
<path d="M1239.29 214.286C1211.15 214.286 1183.28 208.743 1157.28 197.974C1131.29 187.205 1107.66 171.421 1087.76 151.523C1067.87 131.625 1052.08 108.002 1041.31 82.0036C1030.54 56.0053 1025 28.1404 1025 0L1239.29 1.63487e-05V214.286Z" fill="#EDE6D8"/>
<path d="M1239.29 107.143C1225.22 107.143 1211.28 104.372 1198.28 98.9871C1185.28 93.6027 1173.47 85.7106 1163.52 75.7615C1153.57 65.8123 1145.68 54.001 1140.3 41.0018C1134.91 28.0026 1132.14 14.0702 1132.14 0L1239.29 8.17435e-06V107.143Z" fill="#259D4A"/>
<rect width="106.772" height="106.772" transform="matrix(-0.00219698 0.999998 -1 0 918.008 107.228)" fill="#259D4A"/>
<path d="M811.24 105L811 214L918.012 105H811.24Z" fill="#259D4A"/>
<rect width="106.772" height="106.772" transform="matrix(0.00219698 -0.999998 1 0 917.773 213.999)" fill="white"/>
<path d="M971.276 160.614C1000.76 160.614 1024.71 136.712 1024.78 107.228H918.007C917.943 136.712 941.792 160.614 971.276 160.614Z" fill="#0C434B"/>
<path d="M971.276 160.614C1000.76 160.614 1024.61 184.516 1024.54 214H917.773C917.838 184.516 941.792 160.614 971.276 160.614Z" fill="#EDE6D8"/>
<rect width="106.772" height="106.772" transform="matrix(-0.00219698 0.999998 1 0 811.506 0)" fill="#259D4A"/>
<path d="M811.507 0.000886539C811.477 14.0224 814.208 27.9065 819.545 40.8607C824.883 53.8148 832.721 65.5853 842.614 75.5C852.507 85.4146 864.26 93.2794 877.203 98.6452C890.145 104.011 904.023 106.773 918.045 106.773L918.279 0.000886539H811.507Z" fill="#EE9B4E"/>
<rect width="106.772" height="106.772" transform="matrix(-0.00219698 0.999998 1 0 918.279 0.000915527)" fill="#EDE6D8"/>
<rect width="53.386" height="106.772" transform="matrix(-0.00219698 0.999998 1 0 918.279 0.000915527)" fill="#259D4A"/>
<rect width="53.386" height="106.772" transform="matrix(-0.00219698 0.999998 1 0 918.279 0.000915527)" fill="#259D4A"/>
<rect width="106.772" height="106.772" transform="matrix(0.00219698 -0.999998 1 0 319.422 106.772)" fill="#259D4A"/>
<path d="M426.194 106.772L426.429 0.000642398L319.422 106.772L426.194 106.772Z" fill="#259D4A"/>
<rect width="106.772" height="106.772" transform="matrix(-0.00219698 0.999998 -1 0 319.654 0.000976562)" fill="white"/>
<path d="M266.152 53.3873C236.667 53.3873 212.713 77.289 212.648 106.773L319.42 106.773C319.485 77.289 295.636 53.3873 266.152 53.3873Z" fill="#0C434B"/>
<path d="M266.152 53.3873C236.667 53.3873 212.818 29.4856 212.883 0.0013588L319.655 0.0013588C319.59 29.4856 295.636 53.3873 266.152 53.3873Z" fill="#EDE6D8"/>
<rect width="106.772" height="106.772" transform="matrix(0.00219698 -0.999998 -1 0 425.957 213.545)" fill="#259D4A"/>
<path d="M425.957 213.545C425.988 199.523 423.257 185.639 417.92 172.685C412.582 159.731 404.743 147.96 394.85 138.046C384.958 128.131 373.204 120.266 360.262 114.901C347.32 109.535 333.441 106.773 319.42 106.773L319.185 213.545L425.957 213.545Z" fill="#EE9B4E"/>
<rect width="106.772" height="106.772" transform="matrix(0.00219698 -0.999998 -1 0 319.186 213.545)" fill="#EDE6D8"/>
<rect width="53.386" height="106.772" transform="matrix(0.00219698 -0.999998 -1 0 319.186 213.545)" fill="#259D4A"/>
<rect width="53.386" height="106.772" transform="matrix(0.00219698 -0.999998 -1 0 319.186 213.545)" fill="#259D4A"/>
<rect width="106.772" height="106.772" transform="matrix(0.00219698 0.999998 1 0 106.875 106.774)" fill="#259D4A"/>
<path d="M213.647 106.774L213.882 213.546L106.875 106.774L213.647 106.774Z" fill="#259D4A"/>
<rect width="106.772" height="106.772" transform="matrix(-0.00219698 -0.999998 -1 0 107.107 213.546)" fill="white"/>
<path d="M53.6048 160.16C24.1205 160.16 0.166238 136.259 0.101462 106.774L106.874 106.774C106.938 136.259 83.0891 160.16 53.6048 160.16Z" fill="#0C434B"/>
<path d="M53.6048 160.16C24.1205 160.16 0.271262 184.062 0.336038 213.546L107.108 213.546C107.043 184.062 83.0891 160.16 53.6048 160.16Z" fill="#EDE6D8"/>
<rect width="106.772" height="106.772" transform="matrix(0.00219698 0.999998 -1 0 213.412 -0.000244141)" fill="#259D4A"/>
<path d="M213.413 0.00198517C213.443 14.0235 210.712 27.9076 205.375 40.8618C200.037 53.8159 192.198 65.5864 182.306 75.5011C172.413 85.4157 160.659 93.2805 147.717 98.6463C134.775 104.012 120.897 106.774 106.875 106.774L106.64 0.00198517L213.413 0.00198517Z" fill="#EE9B4E"/>
<rect width="106.772" height="106.772" transform="matrix(0.00219698 0.999998 -1 0 106.639 0.00201416)" fill="#EDE6D8"/>
<rect width="53.386" height="106.772" transform="matrix(0.00219698 0.999998 -1 0 106.639 0.00201416)" fill="#259D4A"/>
<rect width="53.386" height="106.772" transform="matrix(0.00219698 0.999998 -1 0 106.639 0.00201416)" fill="#259D4A"/>
<rect width="214.286" height="214.286" transform="matrix(1 0 0 -1 597.164 214.286)" fill="#0B434B"/>
<path d="M811.45 214.286C783.309 214.286 755.445 208.743 729.446 197.974C703.448 187.205 679.825 171.421 659.927 151.523C640.029 131.625 624.244 108.002 613.476 82.0036C602.707 56.0053 597.164 28.1404 597.164 0L811.45 1.63487e-05V214.286Z" fill="#EE9B4E"/>
<path d="M811.45 107.143C797.379 107.143 783.447 104.372 770.448 98.9871C757.449 93.6027 745.637 85.7106 735.688 75.7615C725.739 65.8123 717.847 54.001 712.462 41.0018C707.078 28.0026 704.307 14.0702 704.307 0L811.45 8.17435e-06V107.143Z" fill="#259D4A"/>
<rect width="214.286" height="214.286" transform="matrix(-1 0 0 1 640.287 0)" fill="#0B434B"/>
<path d="M426.003 1.52588e-05C454.144 1.52588e-05 482.009 5.54268 508.007 16.3115C534.005 27.0804 557.628 42.8646 577.526 62.7629C597.424 82.6611 613.209 106.284 623.978 132.282C634.746 158.28 640.289 186.145 640.289 214.286L426.003 214.286V1.52588e-05Z" fill="white"/>
<path d="M426 107C440.07 107 454.002 109.771 467.002 115.156C480.001 120.54 491.812 128.432 501.761 138.381C511.71 148.331 519.602 160.142 524.987 173.141C530.371 186.14 533.143 200.073 533.143 214.143L426 214.143V107Z" fill="#259D4A"/>
<rect width="106.772" height="106.772" transform="matrix(0.00219698 -0.999998 1 0 1770.42 106.772)" fill="#259D4A"/>
<path d="M1877.19 106.772L1877.43 0.000642398L1770.42 106.772L1877.19 106.772Z" fill="#259D4A"/>
<rect width="106.772" height="106.772" transform="matrix(-0.00219698 0.999998 -1 0 1770.65 0.000976562)" fill="white"/>
<path d="M1717.15 53.3873C1687.67 53.3873 1663.71 77.289 1663.65 106.773L1770.42 106.773C1770.49 77.289 1746.64 53.3873 1717.15 53.3873Z" fill="#0C434B"/>
<path d="M1717.15 53.3873C1687.67 53.3873 1663.82 29.4856 1663.88 0.0013588L1770.65 0.0013588C1770.59 29.4856 1746.64 53.3873 1717.15 53.3873Z" fill="#EDE6D8"/>
<rect width="106.772" height="106.772" transform="matrix(0.00219698 -0.999998 -1 0 1876.96 213.545)" fill="#259D4A"/>
<path d="M1876.96 213.545C1876.99 199.523 1874.26 185.639 1868.92 172.685C1863.58 159.731 1855.74 147.96 1845.85 138.046C1835.96 128.131 1824.2 120.266 1811.26 114.901C1798.32 109.535 1784.44 106.773 1770.42 106.773L1770.19 213.545L1876.96 213.545Z" fill="#EE9B4E"/>
<rect width="106.772" height="106.772" transform="matrix(0.00219698 -0.999998 -1 0 1770.19 213.545)" fill="#EDE6D8"/>
<rect width="53.386" height="106.772" transform="matrix(0.00219698 -0.999998 -1 0 1770.19 213.545)" fill="#259D4A"/>
<rect width="53.386" height="106.772" transform="matrix(0.00219698 -0.999998 -1 0 1770.19 213.545)" fill="#259D4A"/>
<rect width="106.772" height="106.772" transform="matrix(0.00219698 0.999998 1 0 1557.88 106.774)" fill="#259D4A"/>
<path d="M1664.65 106.774L1664.88 213.546L1557.88 106.774L1664.65 106.774Z" fill="#259D4A"/>
<rect width="106.772" height="106.772" transform="matrix(-0.00219698 -0.999998 -1 0 1558.11 213.546)" fill="white"/>
<path d="M1504.6 160.16C1475.12 160.16 1451.17 136.259 1451.1 106.774L1557.87 106.774C1557.94 136.259 1534.09 160.16 1504.6 160.16Z" fill="#0C434B"/>
<path d="M1504.6 160.16C1475.12 160.16 1451.27 184.062 1451.34 213.546L1558.11 213.546C1558.04 184.062 1534.09 160.16 1504.6 160.16Z" fill="#EDE6D8"/>
<rect width="106.772" height="106.772" transform="matrix(0.00219698 0.999998 -1 0 1664.41 -0.000244141)" fill="#259D4A"/>
<path d="M1664.41 0.00198517C1664.44 14.0235 1661.71 27.9076 1656.37 40.8618C1651.04 53.8159 1643.2 65.5864 1633.31 75.5011C1623.41 85.4157 1611.66 93.2805 1598.72 98.6463C1585.77 104.012 1571.9 106.774 1557.88 106.774L1557.64 0.00198517L1664.41 0.00198517Z" fill="#EE9B4E"/>
<rect width="106.772" height="106.772" transform="matrix(0.00219698 0.999998 -1 0 1557.64 0.00201416)" fill="#EDE6D8"/>
<rect width="53.386" height="106.772" transform="matrix(0.00219698 0.999998 -1 0 1557.64 0.00201416)" fill="#259D4A"/>
<rect width="53.386" height="106.772" transform="matrix(0.00219698 0.999998 -1 0 1557.64 0.00201416)" fill="#259D4A"/>
<rect width="214.286" height="214.286" transform="matrix(-1 0 0 1 2091.29 0)" fill="#0B434B"/>
<path d="M1877 1.52588e-05C1905.14 1.52588e-05 1933.01 5.54268 1959.01 16.3115C1985.01 27.0804 2008.63 42.8646 2028.53 62.7629C2048.42 82.6611 2064.21 106.284 2074.98 132.282C2085.75 158.28 2091.29 186.145 2091.29 214.286L1877 214.286V1.52588e-05Z" fill="white"/>
<path d="M1877 107C1891.07 107 1905 109.771 1918 115.156C1931 120.54 1942.81 128.432 1952.76 138.381C1962.71 148.331 1970.6 160.142 1975.99 173.141C1981.37 186.14 1984.14 200.073 1984.14 214.143L1877 214.143V107Z" fill="#259D4A"/>
</g>
<defs>
<clipPath id="clip0_484_168">
<rect width="1960" height="214" fill="white"/>
</clipPath>
</defs>
</svg>
