<svg width="103" height="128" viewBox="0 0 103 128" fill="none" xmlns="http://www.w3.org/2000/svg">
<circle cx="51.0846" cy="76.0592" r="51.0846" fill="white"/>
<path d="M62.3853 60.642C62.3853 67.0157 57.2179 72.1831 50.8441 72.1831C44.4703 72.1831 39.3029 67.0157 39.3029 60.642C39.3029 54.2682 44.4703 49.1008 50.8441 49.1008C57.2179 49.1008 62.3853 54.2682 62.3853 60.642Z" fill="#24B974" stroke="#24B974" stroke-width="0.574648"/>
<path d="M50.8455 87.0271L49.2752 85.4568L50.3678 76.6953C50.5298 76.7007 50.6914 76.7007 50.8396 76.7007H50.8455H50.8513C50.9995 76.7007 51.1611 76.7007 51.3231 76.6953L52.4158 85.4568L50.8455 87.0271Z" fill="#24B974" stroke="#24B974" stroke-width="0.574648"/>
<path d="M62.0129 72.1532C64.7348 74.563 66.305 78.0198 66.3255 81.6607V81.757L66.3255 102.042C66.3255 102.042 66.3255 102.042 66.3255 102.042C66.3242 102.488 66.146 102.916 65.8306 103.231C65.5152 103.547 65.0874 103.725 64.6415 103.726C64.6412 103.726 64.641 103.726 64.6408 103.726H37.0424C37.0422 103.726 37.042 103.726 37.0417 103.726C36.5957 103.725 36.168 103.547 35.8526 103.231C35.5371 102.916 35.3589 102.488 35.3577 102.042L35.3577 81.757L35.3577 81.7565C35.3509 78.0806 36.9247 74.5842 39.6704 72.1532C41.4358 73.8714 43.5716 75.1621 45.9141 75.9259L44.6624 85.9967C44.6624 85.9971 44.6623 85.9976 44.6622 85.998C44.5708 86.6876 44.8051 87.3805 45.2953 87.8737L45.2959 87.8743L49.2387 91.8171L49.2408 91.8192C49.6685 92.2384 50.2432 92.4729 50.8417 92.4729C51.4401 92.4729 52.0148 92.2384 52.4426 91.8192L52.4447 91.8171L56.3875 87.8743L56.3881 87.8737C56.8783 87.3804 57.1126 86.6875 57.0211 85.9978C57.021 85.9974 57.021 85.9971 57.021 85.9967L55.7693 75.9259C58.1117 75.1621 60.2475 73.8714 62.0129 72.1532Z" fill="#24B974" stroke="#24B974" stroke-width="0.574648"/>
<path d="M29.1595 55.8536C27.1428 55.8536 25.2088 56.6545 23.7826 58.0808C22.3564 59.5065 21.5551 61.4405 21.5547 63.4573C21.5547 65.4745 22.3556 67.4085 23.7818 68.8347C25.2075 70.2608 27.142 71.0621 29.1587 71.0621C31.1754 71.0621 33.1094 70.2612 34.5356 68.835C35.9618 67.4093 36.7631 65.4753 36.7631 63.4584C36.7609 61.4422 35.9591 59.5094 34.5338 58.0837C33.1085 56.658 31.1754 55.8563 29.1595 55.8536Z" fill="#0B434B"/>
<path d="M32.7853 74.4228C31.6913 76.7128 31.1254 79.2189 31.1294 81.7567V89.0906L21.2723 89.0902C20.75 89.0888 20.2492 88.8807 19.88 88.5111C19.5109 88.1419 19.3023 87.6415 19.301 87.1188V76.9858C19.2895 75.0553 19.8598 73.1663 20.937 71.5645C23.1016 73.7734 26.0653 75.0175 29.158 75.0144C30.3914 75.0201 31.6174 74.8204 32.7853 74.423L32.7853 74.4228Z" fill="#0B434B"/>
<path d="M72.5294 55.8537C70.5127 55.8542 68.5786 56.6551 67.1525 58.0812C65.7267 59.5074 64.9258 61.4414 64.9258 63.4581C64.9258 65.4748 65.7267 67.4088 67.1529 68.835C68.5791 70.2607 70.5131 71.0621 72.5298 71.0621C74.5465 71.0621 76.4805 70.2612 77.9064 68.835C79.3325 67.4093 80.1338 65.4748 80.1338 63.4584C80.1316 61.4422 79.3299 59.509 77.9041 58.0837C76.4784 56.658 74.5457 55.8562 72.5294 55.8535V55.8537Z" fill="#0B434B"/>
<path d="M82.3867 76.984V87.117C82.3853 87.6398 82.1767 88.1401 81.8075 88.5093C81.4384 88.8789 80.9376 89.087 80.4153 89.0884H70.5582V81.7549C70.5622 79.2172 69.9963 76.7112 68.9023 74.421C70.0702 74.8184 71.2962 75.0182 72.5296 75.0125C75.6223 75.0156 78.586 73.7715 80.7507 71.5625C81.8279 73.1643 82.3981 75.0535 82.3867 76.984Z" fill="#0B434B"/>
<circle cx="50.3418" cy="18.5527" r="18.5527" fill="#259D4A"/>
<path d="M50.3356 19.6666C49.8827 20.1187 49.149 20.1184 48.6965 19.6658L43.1604 14.1297C42.7097 13.679 41.9797 13.6766 41.526 14.1243L40.7332 14.9067C40.2752 15.3586 40.2728 16.097 40.7277 16.552L48.6958 24.52C49.1486 24.9729 49.8828 24.9729 50.3356 24.52L69.305 5.55063C69.7578 5.0978 69.7578 4.36362 69.305 3.91079L68.5328 3.13853C68.0802 2.68599 67.3466 2.68566 66.8936 3.13781L50.3356 19.6666Z" fill="white"/>
</svg>
