<svg width="375" height="121" viewBox="0 0 375 121" fill="none" xmlns="http://www.w3.org/2000/svg">
<rect width="118.21" height="118.21" transform="matrix(-1 -4.37114e-08 -4.37114e-08 1 27.1816 0.576172)" fill="#0B434B"/>
<path d="M-91.0284 0.573161C-75.5048 0.573161 -60.1333 3.63075 -45.7914 9.57135C-31.4495 15.512 -18.4181 24.2193 -7.44127 35.1961C3.53555 46.1729 12.2428 59.2043 18.1834 73.5462C24.1241 87.8881 27.1816 103.26 27.1816 118.783L-91.0284 118.783L-91.0284 0.573161Z" fill="#EDE6D8"/>
<rect width="58.9005" height="58.9005" transform="matrix(0.00922462 -0.999957 0.999975 0.00702771 81.0586 60.3105)" fill="#5EBE7C"/>
<path d="M139.958 60.7245L140.501 1.82653L81.0586 60.3105L139.958 60.7245Z" fill="#5EBE7C"/>
<rect width="58.9005" height="58.9005" transform="matrix(-0.00922462 0.999957 -0.999975 -0.00702771 81.6016 1.41602)" fill="white"/>
<path d="M51.8792 30.6542C35.6147 30.5399 22.3081 43.632 22.158 59.8962L81.057 60.3102C81.2071 44.046 68.1437 30.7685 51.8792 30.6542Z" fill="#0C434B"/>
<path d="M51.8792 30.6542C35.6147 30.5399 22.5513 17.2625 22.7014 0.998289L81.6004 1.41222C81.4503 17.6764 68.1437 30.7685 51.8792 30.6542Z" fill="#EDE6D8"/>
<rect width="58.9005" height="58.9005" transform="matrix(0.00922462 -0.999957 -0.999975 -0.00702771 139.412 119.627)" fill="#5EBE7C"/>
<path d="M139.412 119.626C139.484 111.892 138.031 104.222 135.137 97.0556C132.243 89.8889 127.964 83.3656 122.545 77.858C117.127 72.3503 110.674 67.9663 103.555 64.9562C96.4363 61.9461 88.7914 60.3688 81.0566 60.3145L80.5133 119.212L139.412 119.626Z" fill="#CAFFDA"/>
<rect width="58.9005" height="58.9005" transform="matrix(0.00922462 -0.999957 -0.999975 -0.00702771 80.5137 119.213)" fill="#EDE6D8"/>
<rect width="29.4502" height="58.9005" transform="matrix(0.00922462 -0.999957 -0.999975 -0.00702771 80.5137 119.213)" fill="#5EBE7C"/>
<rect width="29.4502" height="58.9005" transform="matrix(0.00922462 -0.999957 -0.999975 -0.00702771 80.5137 119.213)" fill="#5EBE7C"/>
<rect width="58.9005" height="58.9005" transform="matrix(-0.00922462 0.999957 -0.999975 -0.00702771 407.926 61.1621)" fill="#5EBE7C"/>
<path d="M349.027 60.7482L348.483 119.646L407.926 61.1621L349.027 60.7482Z" fill="#5EBE7C"/>
<rect width="58.9005" height="58.9005" transform="matrix(-0.00922462 0.999957 0.999975 0.00702771 349.57 1.84766)" fill="#5EBE7C"/>
<path d="M349.572 1.84827C349.501 9.58286 350.954 17.2524 353.848 24.4191C356.742 31.5857 361.02 38.109 366.439 43.6167C371.858 49.1243 378.311 53.5083 385.429 56.5184C392.548 59.5285 400.193 61.1058 407.928 61.1602L408.471 2.2622L349.572 1.84827Z" fill="#CAFFDA"/>
<rect width="118.21" height="118.21" transform="matrix(-1 -4.37114e-08 -4.37114e-08 1 254.635 1.47656)" fill="#0B434B"/>
<path d="M136.423 1.47746C151.946 1.47746 167.318 4.53505 181.66 10.4757C196.002 16.4163 209.033 25.1236 220.01 36.1004C230.987 47.0772 239.694 60.1086 245.635 74.4505C251.575 88.7924 254.633 104.164 254.633 119.688L136.423 119.687L136.423 1.47746Z" fill="#CAFFDA"/>
<path d="M136.424 60.5825C144.186 60.5825 151.872 62.1113 159.043 65.0816C166.214 68.0519 172.729 72.4055 178.218 77.8939C183.706 83.3823 188.06 89.898 191.03 97.069C194.001 104.24 195.529 111.926 195.529 119.688L136.424 119.687L136.424 60.5825Z" fill="#5EBE7C"/>
<rect width="118.21" height="118.21" transform="matrix(1 4.37114e-08 4.37114e-08 -1 234.354 119.65)" fill="#0B434B"/>
<path d="M352.564 119.649C337.04 119.649 321.668 116.592 307.327 110.651C292.985 104.711 279.953 96.0034 268.976 85.0266C258 74.0498 249.292 61.0184 243.352 46.6765C237.411 32.3346 234.354 16.963 234.354 1.43945L352.564 1.43947L352.564 119.649Z" fill="white"/>
<path d="M352.566 60.5445C344.804 60.5445 337.118 59.0157 329.947 56.0454C322.776 53.0751 316.261 48.7214 310.772 43.233C305.284 37.7446 300.93 31.2289 297.96 24.058C294.99 16.887 293.461 9.20123 293.461 1.43945L352.566 1.43946L352.566 60.5445Z" fill="#5EBE7C"/>
</svg>
