<svg width="397" height="87" viewBox="0 0 397 87" fill="none" xmlns="http://www.w3.org/2000/svg">
<g clip-path="url(#clip0_1073_7656)">
<rect width="397" height="87" fill="white"/>
<rect width="43.3236" height="43.3236" transform="matrix(-0.00219698 0.999998 -1 0 360.419 43.6582)" fill="#5EBE7C"/>
<path d="M317.095 43.6582L317 86.9817L360.419 43.6582H317.095Z" fill="#5EBE7C"/>
<rect width="43.3236" height="43.3236" transform="matrix(0.00219698 -0.999998 1 0 360.324 86.9805)" fill="white"/>
<path d="M382.034 65.3203C393.998 65.3203 403.718 55.622 403.744 43.6586H360.42C360.394 55.622 370.071 65.3203 382.034 65.3203Z" fill="#0C434B"/>
<path d="M382.034 65.3203C393.998 65.3203 403.675 75.0186 403.649 86.9821H360.325C360.351 75.0186 370.071 65.3203 382.034 65.3203Z" fill="#EDE6D8"/>
<rect width="43.3236" height="43.3236" transform="matrix(-0.00219698 0.999998 1 0 317.191 0.333984)" fill="#5EBE7C"/>
<path d="M317.192 0.0585935C317.18 5.78418 318.288 11.4537 320.453 16.7434C322.619 22.0332 325.799 26.8396 329.814 30.8882C333.828 34.9368 338.597 38.1483 343.848 40.3394C349.099 42.5305 354.731 43.6582 360.42 43.6582L360.516 0.0585935H317.192Z" fill="#CAFFDA"/>
<rect width="43.3236" height="43.3236" transform="matrix(-0.00219698 0.999998 1 0 360.518 0.333984)" fill="#EDE6D8"/>
<rect width="21.6618" height="43.3236" transform="matrix(-0.00219698 0.999998 1 0 360.518 0.333984)" fill="#5EBE7C"/>
<rect width="22.029" height="43.3236" transform="matrix(-0.00219698 0.999998 1 0 360.516 -0.0332031)" fill="#5EBE7C"/>
<rect width="87.9989" height="86.997" transform="matrix(-1 -4.37114e-08 -4.37114e-08 1 81.001 0.00390625)" fill="#0B434B"/>
<path d="M-6.99791 0.00106427C4.55827 0.00106477 16.0013 2.2513 26.6778 6.62331C37.3543 10.9953 47.0553 17.4035 55.2267 25.4819C63.3982 33.5603 69.8801 43.1508 74.3025 53.7057C78.7248 64.2607 81.001 75.5734 81.001 86.998L-6.99791 86.998L-6.99791 0.00106427Z" fill="#EDE6D8"/>
<path d="M-7.00042 43.4996C-1.22233 43.4996 4.49918 44.6247 9.83744 46.8107C15.1757 48.9967 20.0262 52.2008 24.1119 56.24C28.1976 60.2792 31.4386 65.0744 33.6498 70.3519C35.8609 75.6294 36.999 81.2857 36.999 86.998L-7.00042 86.998L-7.00042 43.4996Z" fill="#5EBE7C"/>
<g clip-path="url(#clip1_1073_7656)">
<rect width="43.3236" height="43.3236" transform="matrix(0.00219698 -0.999998 1 0 123.345 43.3242)" fill="#5EBE7C"/>
<path d="M166.668 43.3242L166.764 0.000712411L123.345 43.3242L166.668 43.3242Z" fill="#5EBE7C"/>
<rect width="43.3236" height="43.3236" transform="matrix(-0.00219698 0.999998 -1 0 123.438 0.00390625)" fill="white"/>
<path d="M101.728 21.6621C89.7647 21.6621 80.0451 31.3604 80.0188 43.3239L123.342 43.3239C123.369 31.3604 113.692 21.6621 101.728 21.6621Z" fill="#0C434B"/>
<path d="M101.728 21.6621C89.7647 21.6621 80.0877 11.9638 80.114 0.000356205L123.438 0.000356205C123.411 11.9638 113.692 21.6621 101.728 21.6621Z" fill="#EDE6D8"/>
<rect width="43.3236" height="43.3236" transform="matrix(0.00219698 -0.999998 -1 0 166.572 86.6504)" fill="#5EBE7C"/>
<path d="M166.57 87.0156C166.583 81.2782 165.475 75.597 163.309 70.2964C161.144 64.9957 157.963 60.1795 153.949 56.1225C149.935 52.0656 145.166 48.8474 139.915 46.6518C134.663 44.4562 129.032 43.3262 123.343 43.3262L123.247 87.0156L166.57 87.0156Z" fill="#CAFFDA"/>
<rect width="43.6732" height="43.3236" transform="matrix(0.00219698 -0.999998 -1 0 123.247 87)" fill="#EDE6D8"/>
<rect width="21.8366" height="43.3236" transform="matrix(0.00219698 -0.999998 -1 0 123.247 87)" fill="#5EBE7C"/>
<rect width="21.8366" height="43.3236" transform="matrix(0.00219698 -0.999998 -1 0 123.247 87)" fill="#5EBE7C"/>
</g>
<rect width="86.9481" height="86.9482" transform="matrix(-1 -4.37114e-08 -4.37114e-08 1 252.95 0.00195312)" fill="#0B434B"/>
<path d="M166.002 0.00106431C177.42 0.00106481 188.727 2.25004 199.276 6.6196C209.825 10.9891 219.41 17.3937 227.484 25.4676C235.558 33.5415 241.962 43.1266 246.332 53.6756C250.701 64.2246 252.95 75.531 252.95 86.9492L166.002 86.9492L166.002 0.00106431Z" fill="#CAFFDA"/>
<path d="M166.002 43.4751C171.711 43.4751 177.364 44.5996 182.638 46.7844C187.913 48.9692 192.705 52.1715 196.742 56.2084C200.779 60.2453 203.982 65.0379 206.166 70.3124C208.351 75.5869 209.476 81.2401 209.476 86.9492L166.002 86.9492L166.002 43.4751Z" fill="#5EBE7C"/>
<rect width="86.9481" height="86.9989" transform="matrix(1 4.37114e-08 4.37114e-08 -1 230.401 87)" fill="#0B434B"/>
<path d="M317.349 86.9989C305.931 86.9989 294.625 84.7486 284.076 80.3765C273.527 76.0044 263.942 69.5961 255.868 61.5175C247.794 53.4389 241.389 43.8482 237.02 33.293C232.65 22.7379 230.401 11.4249 230.401 0L317.35 1.04381e-05L317.349 86.9989Z" fill="white"/>
<path d="M317.352 43.4995C311.643 43.4995 305.99 42.3743 300.715 40.1883C295.441 38.0022 290.648 34.7981 286.611 30.7588C282.574 26.7195 279.372 21.9241 277.187 16.6465C275.002 11.3689 273.878 5.71243 273.878 0L317.352 5.21906e-06L317.352 43.4995Z" fill="#5EBE7C"/>
</g>
<defs>
<clipPath id="clip0_1073_7656">
<rect width="397" height="87" fill="white"/>
</clipPath>
<clipPath id="clip1_1073_7656">
<rect width="86.5708" height="87.0002" fill="white" transform="matrix(-1 0 -0.00219698 0.999998 166.763 0)"/>
</clipPath>
</defs>
</svg>
