<svg width="30" height="30" viewBox="0 0 30 30" fill="none" xmlns="http://www.w3.org/2000/svg">
<g clip-path="url(#clip0_1273_106)">
<path fill-rule="evenodd" clip-rule="evenodd" d="M21.5065 2.11646C19.5677 1.18229 17.443 0.697754 15.2908 0.698977C12.7041 0.699839 10.1657 1.40228 7.94664 2.73151C5.72746 4.06077 3.91039 5.96707 2.68895 8.24738C1.46752 10.5277 0.88747 13.0966 1.01059 15.6805C1.12522 18.0864 1.8455 20.4215 3.10076 22.4705L1.056 27.9107C0.925781 28.2571 0.991783 28.6468 1.22882 28.931C1.46585 29.2153 1.83734 29.3502 2.20154 29.2844L9.32977 27.9955C11.1793 28.8451 13.1902 29.2905 15.2282 29.3006C17.3804 29.3113 19.5073 28.836 21.4503 27.9103C23.3932 26.9844 25.1023 25.6322 26.4498 23.954C27.7973 22.2758 28.7487 20.3151 29.233 18.218C29.7174 16.121 29.7221 13.9417 29.247 11.8425C28.7717 9.74337 27.829 7.77855 26.4887 6.09452C25.1486 4.4105 23.4455 3.05067 21.5065 2.11646ZM7.87995 11.7215C7.87995 11.0117 8.45543 10.4361 9.16534 10.4361H21.417C22.1268 10.4361 22.7024 11.0117 22.7024 11.7215C22.7024 12.4314 22.1268 13.0069 21.417 13.0069H9.16534C8.45543 13.0069 7.87995 12.4314 7.87995 11.7215ZM9.16534 16.9928C8.45543 16.9928 7.87995 17.5683 7.87995 18.2782C7.87995 18.9881 8.45543 19.5636 9.16534 19.5636H17.3331C18.043 19.5636 18.6185 18.9881 18.6185 18.2782C18.6185 17.5683 18.043 16.9928 17.3331 16.9928H9.16534Z" fill="white"/>
</g>
<defs>
<clipPath id="clip0_1273_106">
<rect width="29.4054" height="29.4054" fill="white" transform="translate(0.59375 0.297241)"/>
</clipPath>
</defs>
</svg>
