<svg width="74" height="73" viewBox="0 0 74 73" fill="none" xmlns="http://www.w3.org/2000/svg">
<g id="Group 40813">
<circle id="Ellipse 203" cx="37.0323" cy="36.4366" r="36.4366" fill="#0B434B" fill-opacity="0.12"/>
<g id="bag-dollar--bag-payment-cash-money-finance">
<path id="Subtract" fill-rule="evenodd" clip-rule="evenodd" d="M53.7745 42.6136C53.7745 50.4702 46.658 54 36.6949 54C26.7318 54 19.6152 50.4702 19.6152 42.6705C19.6152 34.1307 23.8851 29.8036 32.425 25.4767L29.4008 19.8469C29.2204 19.5648 29.12 19.239 29.1102 18.9043C29.1004 18.5695 29.1817 18.2384 29.3453 17.9462C29.5089 17.6541 29.7488 17.4118 30.0393 17.2452C30.3298 17.0786 30.6601 16.994 30.9949 17.0003H43.0645C43.3784 17.0083 43.6851 17.096 43.9557 17.2553C44.2263 17.4145 44.452 17.6399 44.6114 17.9104C44.7708 18.1809 44.8588 18.4875 44.8672 18.8014C44.8754 19.1153 44.8035 19.4261 44.6587 19.7046L40.9648 25.4767C49.5047 29.7466 53.7745 34.0738 53.7745 42.6136ZM38.3466 29.9166C38.3466 29.0044 37.6071 28.2648 36.6948 28.2648C35.7826 28.2648 35.043 29.0044 35.043 29.9166V31.5725C32.5931 31.6752 30.6383 33.6939 30.6383 36.1691C30.6383 38.3312 32.1438 40.2015 34.2559 40.6635L38.1491 41.5152C38.9068 41.6809 39.4479 42.3529 39.4479 43.1298C39.4479 44.0427 38.7076 44.7827 37.7961 44.7827H35.5937C34.8771 44.7827 34.263 44.3255 34.0355 43.6817C33.7315 42.8216 32.7878 42.3708 31.9277 42.6748C31.0675 42.9788 30.6167 43.9224 30.9207 44.7827C31.5417 46.5394 33.1261 47.8442 35.043 48.0562V49.7381C35.043 50.6504 35.7826 51.3899 36.6948 51.3899C37.6071 51.3899 38.3466 50.6504 38.3466 49.7381V48.0562C40.8249 47.7821 42.7515 45.6797 42.7515 43.1298C42.7515 40.8016 41.1306 38.7856 38.855 38.2879L34.9618 37.4362C34.3664 37.306 33.9419 36.7786 33.9419 36.1691C33.9419 35.4527 34.5226 34.872 35.239 34.872H37.7961C38.2852 34.872 38.7229 35.0825 39.0277 35.423C39.1709 35.583 39.2824 35.7696 39.3543 35.9731C39.6583 36.8332 40.602 37.284 41.4622 36.98C42.3223 36.676 42.7731 35.7323 42.4691 34.8722C42.2509 34.2549 41.9149 33.6953 41.4893 33.2198C40.699 32.3368 39.592 31.7367 38.3466 31.5987V29.9166Z" fill="#0C434B"/>
</g>
</g>
</svg>
