<svg width="71" height="71" viewBox="0 0 71 71" fill="none" xmlns="http://www.w3.org/2000/svg">
<circle cx="35.1756" cy="35.1756" r="35.1756" fill="#0B434B"/>
<path d="M32.5112 56.5547V36.4648C31.3697 37.2639 28.9727 37.8726 26.4995 37.9487V34.3721C29.9619 34.258 31.9405 33.0024 32.7015 30.4531H37.0771V56.5547H32.5112Z" fill="white"/>
<path d="M25.3443 25.8736C22.6957 25.8736 20.9201 24.4235 20.9201 22.2335H22.1778C22.1778 23.7132 23.4503 24.6898 25.3443 24.6898C27.0608 24.6898 28.2149 23.95 28.2149 22.8402C28.2149 22.0264 27.3715 21.5233 25.2112 21.0202C22.6217 20.4135 21.6155 19.6441 21.6155 18.268C21.6155 16.5664 23.11 15.427 25.3443 15.427C27.2531 15.427 28.8068 16.5959 29.2359 18.342L28.0226 18.6379C27.7562 17.4246 26.6761 16.6107 25.3443 16.6107C23.909 16.6107 22.9473 17.2766 22.9473 18.268C22.9473 18.9486 23.6575 19.3777 25.4775 19.7921C28.4073 20.4875 29.5466 21.3457 29.5466 22.8402C29.5466 24.6602 27.8598 25.8736 25.3443 25.8736ZM30.6013 25.7256V15.575H31.785V21.5381L34.9811 18.3272H36.6384L33.5458 21.3901L37.0379 25.7256H35.5286L32.7024 22.2187L31.785 23.1213V25.7256H30.6013ZM37.6153 17.2026V15.575H38.799V17.2026H37.6153ZM37.6153 25.7256V18.3272H38.799V25.7256H37.6153ZM40.3521 25.7256V15.575H41.5359V25.7256H40.3521ZM43.2335 25.7256V15.575H44.4172V25.7256H43.2335Z" fill="white"/>
</svg>
