<svg width="71" height="71" viewBox="0 0 71 71" fill="none" xmlns="http://www.w3.org/2000/svg">
<circle cx="35.1756" cy="35.1756" r="35.1756" fill="#0B434B"/>
<path d="M32.2791 57.0874C26.2674 57.0874 22.2722 53.7771 22.2722 48.8307H26.6479C26.6479 51.38 28.8928 53.0542 32.2791 53.0542C35.9318 53.0542 38.367 51.4181 38.367 48.9829C38.367 46.5478 35.9318 44.9117 32.2791 44.9117H29.844V40.8785H32.2791C35.4372 40.8785 37.5679 39.5087 37.5679 37.4541C37.5679 35.3614 35.4372 33.9536 32.2791 33.9536C29.2352 33.9536 27.2186 35.8941 27.2186 38.8239H22.9191C22.9191 33.497 26.6479 29.9204 32.2791 29.9204C38.1767 29.9204 42.0958 32.698 42.0958 36.8834C42.0958 39.0522 40.5357 41.4112 38.2148 42.7429C40.9923 43.9224 42.8187 46.6239 42.8187 49.4776C42.8187 54.0435 38.5952 57.0874 32.2791 57.0874Z" fill="white"/>
<path d="M25.3443 25.8736C22.6957 25.8736 20.9201 24.4235 20.9201 22.2335H22.1778C22.1778 23.7132 23.4503 24.6898 25.3443 24.6898C27.0608 24.6898 28.2149 23.95 28.2149 22.8402C28.2149 22.0264 27.3715 21.5233 25.2112 21.0202C22.6217 20.4135 21.6155 19.6441 21.6155 18.268C21.6155 16.5664 23.11 15.427 25.3443 15.427C27.2531 15.427 28.8068 16.5959 29.2359 18.342L28.0226 18.6379C27.7562 17.4246 26.6761 16.6107 25.3443 16.6107C23.909 16.6107 22.9473 17.2766 22.9473 18.268C22.9473 18.9486 23.6575 19.3777 25.4775 19.7921C28.4073 20.4875 29.5466 21.3457 29.5466 22.8402C29.5466 24.6602 27.8598 25.8736 25.3443 25.8736ZM30.6013 25.7256V15.575H31.785V21.5381L34.9811 18.3272H36.6384L33.5458 21.3901L37.0379 25.7256H35.5286L32.7024 22.2187L31.785 23.1213V25.7256H30.6013ZM37.6153 17.2026V15.575H38.799V17.2026H37.6153ZM37.6153 25.7256V18.3272H38.799V25.7256H37.6153ZM40.3521 25.7256V15.575H41.5359V25.7256H40.3521ZM43.2335 25.7256V15.575H44.4172V25.7256H43.2335Z" fill="white"/>
</svg>
