<svg width="71" height="71" viewBox="0 0 71 71" fill="none" xmlns="http://www.w3.org/2000/svg">
<circle cx="35.1756" cy="35.1756" r="35.1756" fill="#0B434B"/>
<path d="M32.5455 57.0864C26.3815 57.0864 22.2722 51.6454 22.2722 43.5029C22.2722 35.3604 26.3815 29.9194 32.5835 29.9194C37.4918 29.9194 40.9543 32.4687 42.1719 36.9585H37.7962C37.1113 35.018 35.2469 33.9526 32.5835 33.9526C29.4254 33.9526 27.1806 36.7302 26.9523 40.9156C28.2079 38.8609 30.7952 37.4912 33.4586 37.4912C39.0899 37.5292 42.8187 41.4483 42.8187 47.2698C42.8187 53.1674 38.7094 57.0864 32.5455 57.0864ZM32.8118 41.4863C29.6157 41.4863 27.4849 43.8073 27.4849 47.3078C27.4849 50.7703 29.6157 53.0913 32.7738 53.0913C36.046 53.0913 38.2528 50.7703 38.2528 47.2698C38.2528 43.8073 36.084 41.4863 32.8118 41.4863Z" fill="white"/>
<path d="M25.3443 25.8726C22.6957 25.8726 20.9201 24.4225 20.9201 22.2326H22.1778C22.1778 23.7122 23.4503 24.6888 25.3443 24.6888C27.0608 24.6888 28.2149 23.949 28.2149 22.8392C28.2149 22.0254 27.3715 21.5223 25.2112 21.0192C22.6217 20.4125 21.6155 19.6431 21.6155 18.267C21.6155 16.5654 23.11 15.426 25.3443 15.426C27.2531 15.426 28.8068 16.595 29.2359 18.341L28.0226 18.6369C27.7562 17.4236 26.6761 16.6098 25.3443 16.6098C23.909 16.6098 22.9473 17.2756 22.9473 18.267C22.9473 18.9477 23.6575 19.3768 25.4775 19.7911C28.4073 20.4865 29.5466 21.3447 29.5466 22.8392C29.5466 24.6592 27.8598 25.8726 25.3443 25.8726ZM30.6013 25.7246V15.574H31.785V21.5371L34.9811 18.3262H36.6384L33.5458 21.3891L37.0379 25.7246H35.5286L32.7024 22.2178L31.785 23.1204V25.7246H30.6013ZM37.6153 17.2016V15.574H38.799V17.2016H37.6153ZM37.6153 25.7246V18.3262H38.799V25.7246H37.6153ZM40.3521 25.7246V15.574H41.5359V25.7246H40.3521ZM43.2335 25.7246V15.574H44.4172V25.7246H43.2335Z" fill="white"/>
</svg>
