<svg width="42" height="42" viewBox="0 0 42 42" fill="none" xmlns="http://www.w3.org/2000/svg">
<circle cx="21" cy="21" r="21" fill="#FFF4EA"/>
<g clip-path="url(#clip0_575_306)">
<path fill-rule="evenodd" clip-rule="evenodd" d="M12.1924 14.0752C12.1924 13.0422 13.0471 12.1875 14.0801 12.1875H27.9208C28.9538 12.1875 29.8086 13.0422 29.8086 14.0752V17.8499C29.8115 23.0441 26.528 27.8245 21.679 29.6864C21.2421 29.8547 20.7583 29.8545 20.3214 29.6861C15.4724 27.8243 12.1894 23.0441 12.1924 17.8499V14.0752ZM19.9449 15.34C19.84 15.165 20.0616 14.9201 20.3065 15.0251C21.7209 15.706 22.9137 16.7735 23.7469 18.104C24.5066 19.2177 24.9132 20.5345 24.9132 21.8827C24.8966 24.0195 23.0751 25.5493 21.0095 25.5238C18.985 25.499 17.1373 23.9726 17.0993 21.8827C17.0061 20.9391 17.4517 20.0132 18.1839 19.4102C18.4871 19.107 18.6971 19.2936 18.7554 19.4102C18.9513 19.7828 19.2474 20.0892 19.5374 20.3893C19.5489 20.4011 19.5603 20.413 19.5717 20.4248C19.5994 20.4559 19.6337 20.4804 19.672 20.4965C19.7103 20.5126 19.7518 20.52 19.7933 20.5181C19.8338 20.5169 19.8736 20.5069 19.9098 20.4887C19.9461 20.4706 19.978 20.4448 20.0033 20.4132C20.6689 19.5777 20.8196 18.4473 20.668 17.4159C20.5581 16.685 20.3129 15.981 19.9449 15.34Z" fill="#EE9B4E"/>
</g>
<defs>
<clipPath id="clip0_575_306">
<rect width="18" height="18" fill="white" transform="translate(12 12)"/>
</clipPath>
</defs>
</svg>
