<svg width="149" height="194" viewBox="0 0 149 194" fill="none" xmlns="http://www.w3.org/2000/svg">
<g filter="url(#filter0_b_1308_2818)">
<rect y="58" width="149" height="136" rx="21" fill="white" fill-opacity="0.91"/>
</g>
<rect x="7.5" y="64.5" width="134" height="123" rx="20.5" stroke="url(#paint0_linear_1308_2818)" stroke-opacity="0.25"/>
<circle cx="76" cy="56" r="55.5789" stroke="url(#paint1_linear_1308_2818)" stroke-opacity="0.2" stroke-width="0.842105"/>
<circle cx="76.0003" cy="56" r="44.5961" transform="rotate(-106.389 76.0003 56)" stroke="url(#paint2_linear_1308_2818)" stroke-opacity="0.2" stroke-width="0.842105"/>
<circle cx="75.9994" cy="56.0004" r="37.8947" fill="white" fill-opacity="0.99" stroke="url(#paint3_linear_1308_2818)" stroke-width="0.842105"/>
<path fill-rule="evenodd" clip-rule="evenodd" d="M56.6777 51.1894C57.5963 42.3054 64.8247 35.2941 73.805 34.7137C73.7004 34.7977 73.6039 34.8932 73.5178 34.9992C69.7418 39.6425 67.3948 45.2664 66.7387 51.1894H56.6777ZM67.8863 62.0566C67.8863 62.1914 67.8914 62.3255 67.9013 62.4585V70.1189C61.8137 67.5711 57.3835 61.8513 56.6777 55.0259H66.7387C66.9633 57.0531 67.3859 59.0452 67.9961 60.975C67.9239 61.3265 67.8863 61.6885 67.8863 62.0566ZM70.602 55.0259H75.9742L71.1221 57.1282C71.0698 57.1508 71.0181 57.1743 70.9668 57.1984C70.8163 56.4809 70.6945 55.7562 70.602 55.0259ZM93.3461 51.1894H83.2734C82.6173 45.2664 80.2702 39.6425 76.4943 34.9992C76.4078 34.8928 76.3111 34.7971 76.2061 34.7129C85.1922 35.2875 92.4269 42.3012 93.3461 51.1894ZM70.602 51.1894H79.4101C78.8771 46.979 77.3678 42.9528 75.0061 39.432C72.6442 42.9528 71.1351 46.979 70.602 51.1894ZM86.296 55.3073C85.871 55.1232 85.3886 55.1232 84.9636 55.3073L72.768 60.5914C72.6391 60.6473 72.5198 60.7181 72.4117 60.8013C71.7717 61.1598 71.3392 61.8444 71.3392 62.63V71.9251C71.3392 73.0819 72.277 74.0195 73.4338 74.0195C74.5906 74.0195 75.5284 73.0819 75.5284 71.9251V64.8625L84.9636 68.9507C85.3886 69.1349 85.871 69.1349 86.296 68.9507L98.4916 63.6665C99.1045 63.401 99.5011 62.7969 99.5011 62.129C99.5011 61.4611 99.1045 60.857 98.4916 60.5914L86.296 55.3073ZM77.2944 69.1484L83.506 71.8398C84.8604 72.4266 86.3974 72.4266 87.7519 71.8398L93.9633 69.1484L93.9642 73.3182C93.9642 73.6844 93.8445 74.0404 93.6229 74.3323L92.29 73.3194C93.6229 74.3323 93.6217 74.3335 93.6217 74.3335L93.6208 74.335L93.618 74.3384L93.6125 74.3458L93.599 74.363L93.5619 74.409C93.533 74.4446 93.4949 74.4897 93.448 74.5428C93.3544 74.649 93.2239 74.7877 93.0557 74.948C92.7197 75.2684 92.2292 75.6766 91.5733 76.079C90.2511 76.8905 88.2859 77.6587 85.6284 77.6587C82.9707 77.6587 81.0076 76.8905 79.6871 76.078C79.0323 75.6754 78.543 75.2665 78.2077 74.9458C78.04 74.7853 77.91 74.6463 77.8164 74.5401C77.7696 74.4867 77.7318 74.4415 77.7028 74.4059L77.6659 74.3599L77.6523 74.3424L77.6467 74.335L77.6442 74.3317L77.6431 74.3301C77.6431 74.3301 77.6419 74.3286 78.9785 73.3188L77.6419 74.3286C77.4229 74.0389 77.304 73.6856 77.3032 73.3219L77.2944 69.1484Z" fill="#0C434B"/>
<path d="M27.8504 133V121.691H23.8941V119.293H34.4841V121.691H30.5278V133H27.8504ZM38.3816 133.28C35.1246 133.28 32.9667 131.162 32.9667 128.005C32.9667 124.848 35.1246 122.73 38.3816 122.73C41.6385 122.73 43.7965 124.848 43.7965 128.005C43.7965 131.162 41.6385 133.28 38.3816 133.28ZM38.3816 131.162C40.1999 131.162 41.3987 129.903 41.3987 128.005C41.3987 126.106 40.1999 124.848 38.3816 124.848C36.5633 124.848 35.3644 126.106 35.3644 128.005C35.3644 129.903 36.5633 131.162 38.3816 131.162ZM50.9448 122.73C54.1018 122.73 56.2198 124.848 56.2198 128.005C56.2198 131.162 54.1018 133.28 50.9448 133.28C49.7259 133.28 48.3872 132.72 47.6279 131.901V136.717H45.2301V123.009H47.6279V124.108C48.3872 123.289 49.7259 122.73 50.9448 122.73ZM50.705 124.848C48.8667 124.848 47.6279 126.106 47.6279 128.005C47.6279 129.903 48.8667 131.162 50.705 131.162C52.5832 131.162 53.8221 129.903 53.8221 128.005C53.8221 126.106 52.5832 124.848 50.705 124.848ZM62.5047 133V119.293H68.8787C71.5562 119.293 73.3345 120.871 73.3345 123.229C73.3345 125.047 72.2156 126.546 70.5571 126.966L74.2936 133H71.3364L67.7198 127.165H65.1822V133H62.5047ZM65.1822 124.768H68.8787C70.0976 124.768 70.717 123.988 70.717 123.229C70.717 122.45 70.0976 121.691 68.8787 121.691H65.1822V124.768ZM79.7243 133.28C76.6072 133.28 74.5292 131.162 74.5292 128.005C74.5292 124.848 76.6072 122.73 79.7243 122.73C80.9032 122.73 82.202 123.269 82.9613 124.088V123.009H85.359V133H82.9613V131.921C82.202 132.74 80.9032 133.28 79.7243 133.28ZM79.9641 131.162C81.7624 131.162 82.9613 129.903 82.9613 128.005C82.9613 126.106 81.7624 124.848 79.9641 124.848C78.1458 124.848 76.9269 126.106 76.9269 128.005C76.9269 129.903 78.1458 131.162 79.9641 131.162ZM87.2024 133V123.009H89.6002V123.749C90.2596 123.129 91.3386 122.73 92.3176 122.73C95.0551 122.73 96.8734 124.348 96.8734 126.786V133H94.4756V127.066C94.4756 125.727 93.4965 124.848 92.0379 124.848C90.5793 124.848 89.6002 125.727 89.6002 127.066V133H87.2024ZM98.7151 133V119.293H101.113V126.406L104.49 123.009H107.847L103.61 127.165L108.326 133H105.249L101.892 128.844L101.113 129.623V133H98.7151ZM113.701 133.28C110.445 133.28 108.287 131.162 108.287 128.005C108.287 124.848 110.445 122.73 113.701 122.73C116.958 122.73 119.116 124.848 119.116 128.005V128.464L118.917 128.664H110.724C110.944 130.243 112.143 131.282 113.701 131.282C114.88 131.282 115.979 130.602 116.439 129.603H118.877C118.217 131.801 116.139 133.28 113.701 133.28ZM110.884 126.666H116.519C116.059 125.427 115.04 124.728 113.701 124.728C112.363 124.728 111.344 125.427 110.884 126.666ZM125.425 133.28C122.268 133.28 120.15 131.162 120.15 128.005C120.15 124.848 122.268 122.73 125.425 122.73C126.644 122.73 127.983 123.289 128.742 124.108V119.293H131.14V133H128.742V131.901C127.983 132.72 126.644 133.28 125.425 133.28ZM125.665 131.162C127.504 131.162 128.742 129.903 128.742 128.005C128.742 126.106 127.504 124.848 125.665 124.848C123.787 124.848 122.548 126.106 122.548 128.005C122.548 129.903 123.787 131.162 125.665 131.162Z" fill="#0B434B"/>
<path d="M40.2119 170V146.268H45.9547L53.6001 164.153L61.2455 146.268H66.9882V170H62.3526V153.152L55.572 170H51.6282L44.8476 153.152V170H40.2119ZM70.7188 170V146.268H81.7545C86.4248 146.268 89.5383 148.828 89.5383 152.668C89.5383 154.294 88.6389 156.128 87.2551 157.304C89.7459 158.376 91.4065 160.798 91.4065 163.323C91.4065 167.336 88.1545 170 83.3113 170H70.7188ZM75.3545 155.747H81.7545C83.6572 155.747 84.9026 154.675 84.9026 153.083C84.9026 151.492 83.6572 150.419 81.7545 150.419H75.3545V155.747ZM75.3545 165.849H83.3113C85.387 165.849 86.7708 164.672 86.7708 162.908C86.7708 161.109 85.387 159.898 83.3459 159.898H75.3545V165.849ZM110.878 170L108.491 163.911H98.8732L96.5208 170H91.5392L101.329 146.268H106.104L115.825 170H110.878ZM100.499 159.76H106.865L103.682 151.596L100.499 159.76Z" fill="#295F3A"/>
<defs>
<filter id="filter0_b_1308_2818" x="-8.65271" y="49.3473" width="166.305" height="153.305" filterUnits="userSpaceOnUse" color-interpolation-filters="sRGB">
<feFlood flood-opacity="0" result="BackgroundImageFix"/>
<feGaussianBlur in="BackgroundImageFix" stdDeviation="4.32635"/>
<feComposite in2="SourceAlpha" operator="in" result="effect1_backgroundBlur_1308_2818"/>
<feBlend mode="normal" in="SourceGraphic" in2="effect1_backgroundBlur_1308_2818" result="shape"/>
</filter>
<linearGradient id="paint0_linear_1308_2818" x1="30" y1="161.5" x2="74" y2="88" gradientUnits="userSpaceOnUse">
<stop stop-color="#259D4A"/>
<stop offset="1" stop-color="#259D4A" stop-opacity="0"/>
</linearGradient>
<linearGradient id="paint1_linear_1308_2818" x1="120.308" y1="20.9231" x2="55.0769" y2="-10.4615" gradientUnits="userSpaceOnUse">
<stop stop-color="#259D4A"/>
<stop offset="1" stop-color="#259D4A" stop-opacity="0"/>
</linearGradient>
<linearGradient id="paint2_linear_1308_2818" x1="111.618" y1="27.8024" x2="59.1807" y2="2.57301" gradientUnits="userSpaceOnUse">
<stop stop-color="#259D4A"/>
<stop offset="1" stop-color="#259D4A" stop-opacity="0"/>
</linearGradient>
<linearGradient id="paint3_linear_1308_2818" x1="106.315" y1="32.0004" x2="61.6836" y2="10.5267" gradientUnits="userSpaceOnUse">
<stop stop-color="#259D4A"/>
<stop offset="1" stop-color="#259D4A" stop-opacity="0"/>
</linearGradient>
</defs>
</svg>
