<svg width="145" height="145" viewBox="0 0 145 145" fill="none" xmlns="http://www.w3.org/2000/svg">
<circle cx="72.5002" cy="72.5002" r="56.8713" fill="#044D57" fill-opacity="0.08"/>
<circle cx="72.5" cy="72.5" r="72.5" fill="#044D57" fill-opacity="0.04"/>
<circle cx="72.5006" cy="72.5006" r="52.5299" fill="white"/>
<path d="M106.046 71.297C105.866 71.076 105.58 70.9602 105.299 71.0124L92.8356 73.0313C92.551 73.0768 92.3129 73.2746 92.2152 73.5445C92.1165 73.8154 92.1715 74.1195 92.3608 74.3382L94.5006 76.8181L79.6988 87.8912L73.1089 81.575C72.8485 81.3265 72.4533 81.2819 72.1464 81.4678L43.3855 98.8077C43.1995 98.9192 43.0676 99.1018 43.0197 99.3134C42.9718 99.5249 43.0121 99.746 43.1303 99.9277L45.4893 103.527C45.6425 103.76 45.8963 103.887 46.1567 103.887C46.2971 103.887 46.4394 103.85 46.568 103.772L71.8121 88.5511L78.7198 95.1718C79.0016 95.4417 79.437 95.4673 79.7482 95.2344L98.368 81.3057L100.414 83.6784C100.597 83.8909 100.879 83.9929 101.153 83.9441C101.428 83.8962 101.66 83.7069 101.761 83.4469L106.168 72.0879C106.271 71.8213 106.225 71.5196 106.045 71.2971L106.046 71.297Z" fill="#259D4A"/>
<path d="M65.082 66.7051H71.6682V69.9018H65.082V66.7051Z" fill="#00535F"/>
<path d="M86.757 53.2716V51.0989C86.757 49.5627 85.5067 48.3125 83.9706 48.3125H52.7923C51.256 48.3125 50.0059 49.5628 50.0059 51.0989V53.2702L68.3812 61.0773L86.7565 53.2702L86.757 53.2716ZM65.5167 54.4205C65.5167 54.0012 65.8574 53.6606 66.2767 53.6606H70.4849C70.9042 53.6606 71.2449 54.0012 71.2449 54.4205C71.2449 54.8399 70.9042 55.1805 70.4849 55.1805H66.2767C65.8574 55.1805 65.5167 54.8399 65.5167 54.4205Z" fill="#00535F"/>
<path d="M52.7865 75.4981H83.966C85.5022 75.4981 86.7524 74.2478 86.7524 72.7117V54.9258L68.6735 62.6062C68.5781 62.6469 68.4768 62.6668 68.3768 62.6668C68.2764 62.6668 68.1741 62.6464 68.0801 62.6062L50 54.9258V72.7117C50 74.2479 51.2504 75.4981 52.7865 75.4981ZM63.5624 65.9481C63.5624 65.5288 63.903 65.1881 64.3224 65.1881H72.4284C72.8478 65.1881 73.1884 65.5288 73.1884 65.9481V70.6647C73.1884 71.084 72.8478 71.4246 72.4284 71.4246H64.3224C63.903 71.4246 63.5624 71.084 63.5624 70.6647V65.9481Z" fill="#00535F"/>
<path d="M57.9025 45.3313C57.9025 44.6334 58.4711 44.0647 59.1691 44.0647H77.5885C78.2864 44.0647 78.8551 44.6333 78.8551 45.3313V46.7933H80.375V45.3313C80.375 43.7951 79.1247 42.5449 77.5886 42.5449H59.1692C57.633 42.5449 56.3828 43.7952 56.3828 45.3313V46.7933H57.9027L57.9025 45.3313Z" fill="#00535F"/>
</svg>
