<svg width="101" height="101" viewBox="0 0 101 101" fill="none" xmlns="http://www.w3.org/2000/svg">
<circle cx="50.5" cy="50.5" r="50.5" fill="white"/>
<g clip-path="url(#clip0_1084_5)">
<path fill-rule="evenodd" clip-rule="evenodd" d="M23.1113 48.3929C24.355 36.3651 34.1413 26.8729 46.2993 26.087C46.1577 26.2008 46.0272 26.33 45.9105 26.4735C40.7984 32.76 37.6208 40.374 36.7325 48.3929H23.1113ZM38.2863 63.1057C38.2863 63.2882 38.2931 63.4697 38.3065 63.6497V74.0209C30.0647 70.5716 24.0669 62.8277 23.1113 53.587H36.7325C37.0366 56.3316 37.6088 59.0287 38.4349 61.6413C38.3371 62.1172 38.2863 62.6073 38.2863 63.1057ZM41.9629 53.587H49.2362L42.667 56.4333C42.5963 56.4639 42.5262 56.4956 42.4568 56.5283C42.253 55.5569 42.0881 54.5757 41.9629 53.587ZM72.7554 48.3929H59.1183C58.23 40.374 55.0524 32.76 49.9403 26.4735C49.8233 26.3296 49.6923 26.1999 49.5501 26.0859C61.7161 26.8639 71.5109 36.3595 72.7554 48.3929ZM41.9629 48.3929H53.8879C53.1662 42.6927 51.1229 37.2417 47.9254 32.475C44.7278 37.2417 42.6846 42.6927 41.9629 48.3929ZM63.2105 53.9681C62.635 53.7188 61.982 53.7188 61.4066 53.9681L44.8953 61.122C44.7209 61.1976 44.5593 61.2935 44.413 61.4062C43.5466 61.8915 42.961 62.8183 42.961 63.882V76.4663C42.961 78.0324 44.2306 79.3019 45.7968 79.3019C47.363 79.3019 48.6326 78.0324 48.6326 76.4663V66.9045L61.4066 72.4394C61.982 72.6887 62.635 72.6887 63.2105 72.4394L79.7217 65.2853C80.5515 64.9258 81.0884 64.1079 81.0884 63.2037C81.0884 62.2994 80.5515 61.4815 79.7217 61.122L63.2105 53.9681ZM51.0236 72.707L59.4332 76.3508C61.2669 77.1453 63.3478 77.1453 65.1815 76.3508L73.591 72.707L73.5922 78.3524C73.5922 78.8481 73.4302 79.3301 73.1302 79.7253L71.3255 78.354C73.1302 79.7253 73.1293 79.7261 73.1285 79.727L73.1273 79.729L73.1235 79.7336L73.1161 79.7436L73.0978 79.7668L73.0475 79.8292C73.0084 79.8774 72.9569 79.9385 72.8933 80.0103C72.7666 80.1541 72.59 80.3419 72.3623 80.5588C71.9073 80.9927 71.2433 81.5453 70.3553 82.0901C68.5652 83.1887 65.9046 84.2288 62.3066 84.2288C58.7085 84.2288 56.0507 83.1887 54.263 82.0888C53.3764 81.5436 52.714 80.9902 52.2601 80.5559C52.0329 80.3386 51.857 80.1504 51.7303 80.0066C51.6669 79.9343 51.6157 79.8732 51.5765 79.825L51.5265 79.7627L51.5081 79.739L51.5005 79.729L51.4972 79.7245L51.4956 79.7224C51.4948 79.7215 51.4941 79.7203 53.3035 78.3532L51.4941 79.7203C51.1975 79.328 51.0365 78.8498 51.0354 78.3574L51.0236 72.707Z" fill="#259D4A"/>
</g>
<defs>
<clipPath id="clip0_1084_5">
<rect width="59.4118" height="59.4118" fill="white" transform="translate(22.4922 25.4629)"/>
</clipPath>
</defs>
</svg>
