<svg width="156" height="28" viewBox="0 0 156 28" fill="none" xmlns="http://www.w3.org/2000/svg">
<g clip-path="url(#clip0_646_9)">
<path fill-rule="evenodd" clip-rule="evenodd" d="M13.6636 1.26172C13.2844 1.26172 12.913 1.37022 12.5935 1.57441C12.2779 1.77599 12.0259 2.06253 11.8661 2.40093L8.83184 8.52677C8.82587 8.53881 8.82016 8.55097 8.81471 8.56326C8.81335 8.5663 8.81121 8.56895 8.80852 8.57092C8.80582 8.57289 8.80267 8.57413 8.79934 8.5745C8.7877 8.57578 8.77608 8.57729 8.7645 8.57901L2.08345 9.56879C1.71418 9.6047 1.36205 9.74327 1.06711 9.96918C0.761927 10.2029 0.531078 10.5202 0.402525 10.8825C0.273971 11.2448 0.253228 11.6365 0.342808 12.0104C0.432041 12.3828 0.626933 12.7214 0.904004 12.9857L5.79456 17.7043L5.8057 17.7149C5.81267 17.7214 5.81793 17.7296 5.82095 17.7386C5.82397 17.7477 5.82468 17.7574 5.823 17.7668L5.82193 17.773L4.65654 24.5932L4.65625 24.595C4.59222 24.9646 4.63305 25.3448 4.77412 25.6922C4.91538 26.0405 5.15154 26.3419 5.45568 26.5624C5.75985 26.7828 6.11978 26.9135 6.49454 26.9395C6.86856 26.9655 7.24237 26.8862 7.5736 26.7108L7.57561 26.7096L13.5952 23.5283C13.6167 23.5189 13.6401 23.5139 13.6637 23.5139C13.6873 23.5139 13.7106 23.5189 13.7322 23.5283L19.7517 26.7096L19.7528 26.7102C20.0842 26.8862 20.4585 26.9657 20.8327 26.9395C21.2075 26.9135 21.5674 26.7828 21.8717 26.5624C22.1757 26.3419 22.412 26.0405 22.5532 25.6922C22.6943 25.3448 22.735 24.9648 22.6711 24.5953L22.6708 24.5932L21.5055 17.773L21.5043 17.7668C21.5026 17.7574 21.5033 17.7477 21.5064 17.7386C21.5093 17.7296 21.5146 17.7214 21.5215 17.7149L21.5328 17.7043L26.4234 12.9856C26.7003 12.7214 26.8953 12.3828 26.9845 12.0104C27.074 11.6365 27.0533 11.2448 26.9247 10.8825C26.7963 10.5202 26.5654 10.2029 26.2602 9.96918C25.9652 9.74327 25.6132 9.6047 25.2439 9.56879L18.5628 8.57901C18.5512 8.57729 18.5396 8.57578 18.528 8.5745C18.5246 8.57413 18.5215 8.57289 18.5188 8.57092C18.5161 8.56895 18.5139 8.5663 18.5126 8.56326C18.5071 8.55097 18.5014 8.53881 18.4955 8.52677L15.4612 2.40091C15.3014 2.06251 15.0493 1.77599 14.7338 1.57441C14.4142 1.37022 14.0429 1.26172 13.6636 1.26172Z" fill="#FFB73E"/>
</g>
<g clip-path="url(#clip1_646_9)">
<path fill-rule="evenodd" clip-rule="evenodd" d="M45.8326 1.26172C45.4533 1.26172 45.082 1.37022 44.7624 1.57441C44.4469 1.77599 44.1948 2.06253 44.0351 2.40093L41.0008 8.52677C40.9948 8.53881 40.9891 8.55097 40.9837 8.56326C40.9823 8.5663 40.9802 8.56895 40.9775 8.57092C40.9748 8.57289 40.9716 8.57413 40.9683 8.5745C40.9566 8.57578 40.945 8.57729 40.9334 8.57901L34.2524 9.56879C33.8831 9.6047 33.531 9.74327 33.2361 9.96918C32.9309 10.2029 32.7 10.5202 32.5715 10.8825C32.4429 11.2448 32.4222 11.6365 32.5118 12.0104C32.601 12.3828 32.7959 12.7214 33.0729 12.9857L37.9635 17.7043L37.9746 17.7149C37.9816 17.7214 37.9869 17.7296 37.9899 17.7386C37.9929 17.7477 37.9936 17.7574 37.9919 17.7668L37.9909 17.773L36.8255 24.5932L36.8252 24.595C36.7612 24.9646 36.802 25.3448 36.9431 25.6922C37.0843 26.0405 37.3205 26.3419 37.6246 26.5624C37.9288 26.7828 38.2887 26.9135 38.6635 26.9395C39.0375 26.9655 39.4113 26.8862 39.7425 26.7108L39.7446 26.7096L45.7641 23.5283C45.7857 23.5189 45.809 23.5139 45.8326 23.5139C45.8562 23.5139 45.8795 23.5189 45.9011 23.5283L51.9206 26.7096L51.9217 26.7102C52.2532 26.8862 52.6274 26.9657 53.0016 26.9395C53.3764 26.9135 53.7363 26.7828 54.0406 26.5624C54.3447 26.3419 54.5809 26.0405 54.7222 25.6922C54.8632 25.3448 54.9039 24.9648 54.8401 24.5953L54.8397 24.5932L53.6744 17.773L53.6733 17.7668C53.6715 17.7574 53.6723 17.7477 53.6754 17.7386C53.6782 17.7296 53.6836 17.7214 53.6905 17.7149L53.7017 17.7043L58.5923 12.9856C58.8693 12.7214 59.0642 12.3828 59.1535 12.0104C59.2429 11.6365 59.2223 11.2448 59.0937 10.8825C58.9652 10.5202 58.7343 10.2029 58.4291 9.96918C58.1342 9.74327 57.7821 9.6047 57.4129 9.56879L50.7317 8.57901C50.7202 8.57729 50.7085 8.57578 50.6969 8.5745C50.6936 8.57413 50.6904 8.57289 50.6877 8.57092C50.685 8.56895 50.6829 8.5663 50.6815 8.56326C50.6761 8.55097 50.6704 8.53881 50.6644 8.52677L47.6301 2.40091C47.4704 2.06251 47.2183 1.77599 46.9028 1.57441C46.5832 1.37022 46.2118 1.26172 45.8326 1.26172Z" fill="#FFB73E"/>
</g>
<g clip-path="url(#clip2_646_9)">
<path fill-rule="evenodd" clip-rule="evenodd" d="M78.0006 1.26172C77.6213 1.26172 77.25 1.37022 76.9304 1.57441C76.6149 1.77599 76.3628 2.06253 76.203 2.40093L73.1687 8.52677C73.1628 8.53881 73.1571 8.55097 73.1516 8.56326C73.1503 8.5663 73.1481 8.56895 73.1454 8.57092C73.1427 8.57289 73.1396 8.57413 73.1363 8.5745C73.1246 8.57578 73.113 8.57729 73.1014 8.57901L66.4204 9.56879C66.0511 9.6047 65.699 9.74327 65.404 9.96918C65.0988 10.2029 64.868 10.5202 64.7394 10.8825C64.6109 11.2448 64.5901 11.6365 64.6797 12.0104C64.769 12.3828 64.9638 12.7214 65.2409 12.9857L70.1315 17.7043L70.1426 17.7149C70.1496 17.7214 70.1548 17.7296 70.1579 17.7386C70.1609 17.7477 70.1616 17.7574 70.1599 17.7668L70.1588 17.773L68.9935 24.5932L68.9932 24.595C68.9291 24.9646 68.97 25.3448 69.111 25.6922C69.2523 26.0405 69.4885 26.3419 69.7926 26.5624C70.0968 26.7828 70.4567 26.9135 70.8315 26.9395C71.2055 26.9655 71.5793 26.8862 71.9105 26.7108L71.9125 26.7096L77.9321 23.5283C77.9537 23.5189 77.977 23.5139 78.0006 23.5139C78.0242 23.5139 78.0475 23.5189 78.0691 23.5283L84.0886 26.7096L84.0897 26.7102C84.4211 26.8862 84.7954 26.9657 85.1696 26.9395C85.5444 26.9135 85.9043 26.7828 86.2086 26.5624C86.5127 26.3419 86.7489 26.0405 86.8901 25.6922C87.0312 25.3448 87.0719 24.9648 87.0081 24.5953L87.0077 24.5932L85.8424 17.773L85.8412 17.7668C85.8395 17.7574 85.8403 17.7477 85.8433 17.7386C85.8462 17.7296 85.8515 17.7214 85.8584 17.7149L85.8697 17.7043L90.7603 12.9856C91.0372 12.7214 91.2322 12.3828 91.3214 12.0104C91.4109 11.6365 91.3903 11.2448 91.2616 10.8825C91.1332 10.5202 90.9023 10.2029 90.5971 9.96918C90.3022 9.74327 89.9501 9.6047 89.5808 9.56879L82.8997 8.57901C82.8881 8.57729 82.8765 8.57578 82.8649 8.5745C82.8615 8.57413 82.8584 8.57289 82.8557 8.57092C82.853 8.56895 82.8509 8.5663 82.8495 8.56326C82.8441 8.55097 82.8383 8.53881 82.8324 8.52677L79.7981 2.40091C79.6383 2.06251 79.3863 1.77599 79.0708 1.57441C78.7512 1.37022 78.3798 1.26172 78.0006 1.26172Z" fill="#FFB73E"/>
</g>
<g clip-path="url(#clip3_646_9)">
<path fill-rule="evenodd" clip-rule="evenodd" d="M110.169 1.26172C109.789 1.26172 109.418 1.37022 109.098 1.57441C108.783 1.77599 108.531 2.06253 108.371 2.40093L105.337 8.52677C105.331 8.53881 105.325 8.55097 105.32 8.56326C105.318 8.5663 105.316 8.56895 105.313 8.57092C105.311 8.57289 105.308 8.57413 105.304 8.5745C105.293 8.57578 105.281 8.57729 105.269 8.57901L98.5883 9.56879C98.2191 9.6047 97.8669 9.74327 97.572 9.96918C97.2668 10.2029 97.036 10.5202 96.9074 10.8825C96.7789 11.2448 96.7581 11.6365 96.8477 12.0104C96.9369 12.3828 97.1318 12.7214 97.4089 12.9857L102.299 17.7043L102.311 17.7149C102.318 17.7214 102.323 17.7296 102.326 17.7386C102.329 17.7477 102.33 17.7574 102.328 17.7668L102.327 17.773L101.161 24.5932L101.161 24.595C101.097 24.9646 101.138 25.3448 101.279 25.6922C101.42 26.0405 101.656 26.3419 101.961 26.5624C102.265 26.7828 102.625 26.9135 102.999 26.9395C103.373 26.9655 103.747 26.8862 104.078 26.7108L104.08 26.7096L110.1 23.5283C110.122 23.5189 110.145 23.5139 110.169 23.5139C110.192 23.5139 110.215 23.5189 110.237 23.5283L116.257 26.7096L116.258 26.7102C116.589 26.8862 116.963 26.9657 117.338 26.9395C117.712 26.9135 118.072 26.7828 118.377 26.5624C118.681 26.3419 118.917 26.0405 119.058 25.6922C119.199 25.3448 119.24 24.9648 119.176 24.5953L119.176 24.5932L118.01 17.773L118.009 17.7668C118.007 17.7574 118.008 17.7477 118.011 17.7386C118.014 17.7296 118.02 17.7214 118.026 17.7149L118.038 17.7043L122.928 12.9856C123.205 12.7214 123.4 12.3828 123.489 12.0104C123.579 11.6365 123.558 11.2448 123.43 10.8825C123.301 10.5202 123.07 10.2029 122.765 9.96918C122.47 9.74327 122.118 9.6047 121.749 9.56879L115.068 8.57901C115.056 8.57729 115.044 8.57578 115.033 8.5745C115.03 8.57413 115.026 8.57289 115.024 8.57092C115.021 8.56895 115.019 8.5663 115.017 8.56326C115.012 8.55097 115.006 8.53881 115 8.52677L111.966 2.40091C111.806 2.06251 111.554 1.77599 111.239 1.57441C110.919 1.37022 110.548 1.26172 110.169 1.26172Z" fill="#FFB73E"/>
</g>
<g clip-path="url(#clip4_646_9)">
<path fill-rule="evenodd" clip-rule="evenodd" d="M142.336 1.26172C141.957 1.26172 141.586 1.37022 141.266 1.57441C140.951 1.77599 140.699 2.06253 140.539 2.40093L137.505 8.52677C137.499 8.53881 137.493 8.55097 137.488 8.56326C137.486 8.5663 137.484 8.56895 137.481 8.57092C137.479 8.57289 137.476 8.57413 137.472 8.5745C137.461 8.57578 137.449 8.57729 137.437 8.57901L130.756 9.56879C130.387 9.6047 130.035 9.74327 129.74 9.96918C129.435 10.2029 129.204 10.5202 129.075 10.8825C128.947 11.2448 128.926 11.6365 129.016 12.0104C129.105 12.3828 129.3 12.7214 129.577 12.9857L134.467 17.7043L134.479 17.7149C134.486 17.7214 134.491 17.7296 134.494 17.7386C134.497 17.7477 134.498 17.7574 134.496 17.7668L134.495 17.773L133.329 24.5932L133.329 24.595C133.265 24.9646 133.306 25.3448 133.447 25.6922C133.588 26.0405 133.824 26.3419 134.129 26.5624C134.433 26.7828 134.793 26.9135 135.167 26.9395C135.541 26.9655 135.915 26.8862 136.246 26.7108L136.248 26.7096L142.268 23.5283C142.29 23.5189 142.313 23.5139 142.337 23.5139C142.36 23.5139 142.383 23.5189 142.405 23.5283L148.425 26.7096L148.426 26.7102C148.757 26.8862 149.131 26.9657 149.506 26.9395C149.88 26.9135 150.24 26.7828 150.545 26.5624C150.849 26.3419 151.085 26.0405 151.226 25.6922C151.367 25.3448 151.408 24.9648 151.344 24.5953L151.344 24.5932L150.178 17.773L150.177 17.7668C150.175 17.7574 150.176 17.7477 150.179 17.7386C150.182 17.7296 150.187 17.7214 150.194 17.7149L150.206 17.7043L155.096 12.9856C155.373 12.7214 155.568 12.3828 155.657 12.0104C155.747 11.6365 155.726 11.2448 155.598 10.8825C155.469 10.5202 155.238 10.2029 154.933 9.96918C154.638 9.74327 154.286 9.6047 153.917 9.56879L147.236 8.57901C147.224 8.57729 147.212 8.57578 147.201 8.5745C147.197 8.57413 147.194 8.57289 147.192 8.57092C147.189 8.56895 147.187 8.5663 147.185 8.56326C147.18 8.55097 147.174 8.53881 147.168 8.52677L144.134 2.40091C143.974 2.06251 143.722 1.77599 143.407 1.57441C143.087 1.37022 142.716 1.26172 142.336 1.26172Z" fill="#FFB73E"/>
</g>
<defs>
<clipPath id="clip0_646_9">
<rect width="27.3273" height="27.3273" fill="white" transform="translate(0 0.449219)"/>
</clipPath>
<clipPath id="clip1_646_9">
<rect width="27.3273" height="27.3273" fill="white" transform="translate(32.168 0.449219)"/>
</clipPath>
<clipPath id="clip2_646_9">
<rect width="27.3273" height="27.3273" fill="white" transform="translate(64.3359 0.449219)"/>
</clipPath>
<clipPath id="clip3_646_9">
<rect width="27.3273" height="27.3273" fill="white" transform="translate(96.5039 0.449219)"/>
</clipPath>
<clipPath id="clip4_646_9">
<rect width="27.3273" height="27.3273" fill="white" transform="translate(128.672 0.449219)"/>
</clipPath>
</defs>
</svg>
