<svg width="100" height="100" viewBox="0 0 100 100" fill="none" xmlns="http://www.w3.org/2000/svg">
<circle cx="50" cy="50" r="50" fill="#F3EFE6"/>
<path fill-rule="evenodd" clip-rule="evenodd" d="M59.6994 27.3763C60.0436 26.8243 60.6867 26.5341 61.3286 26.6411L69.6015 28.02C70.0223 28.0901 70.3981 28.3245 70.6461 28.6717C70.8942 29.0189 70.9939 29.4503 70.9238 29.8712L69.5452 38.1443C69.438 38.7861 68.9551 39.3002 68.3213 39.447C67.6872 39.5938 67.0273 39.3443 66.6493 38.8148L64.4181 35.6914L52.9189 43.0425C51.9046 43.6908 50.5677 43.4925 49.7854 42.5777L43.3742 35.081L31.3814 41.2428C30.1961 41.8518 28.7415 41.3847 28.1325 40.1993C27.5234 39.014 27.9906 37.5594 29.176 36.9504L42.8655 29.9168C43.86 29.4058 45.0754 29.645 45.8021 30.4947L52.0885 37.8456L61.6095 31.7592L59.755 29.1628C59.3767 28.6334 59.3548 27.9283 59.6994 27.3763ZM38.6411 43.1747L29.3036 48.5104C28.5518 48.94 28.0878 49.7396 28.0878 50.6054V69.1047C28.0878 70.4373 29.1681 71.5176 30.5008 71.5176H38.6411V43.1747ZM42.6627 71.5176H54.4618V49.6006L49.1582 52.2523L43.8562 42.9738C43.5758 42.4831 43.1493 42.1282 42.6627 41.9326V71.5176ZM67.4993 71.5176H58.4833V47.5898L66.4202 43.6214C67.1682 43.2473 68.0565 43.2873 68.7679 43.727C69.4792 44.1666 69.9122 44.9433 69.9122 45.7796V69.1047C69.9122 70.4373 68.8319 71.5176 67.4993 71.5176Z" fill="#0B434B"/>
</svg>
