<svg width="100" height="100" viewBox="0 0 100 100" fill="none" xmlns="http://www.w3.org/2000/svg">
<circle cx="50" cy="50" r="50" fill="#F3EFE6"/>
<g clip-path="url(#clip0_440_2342)">
<path fill-rule="evenodd" clip-rule="evenodd" d="M75.5 33.8929C75.5 38.5281 71.7424 42.2857 67.1071 42.2857C62.4719 42.2857 58.7143 38.5281 58.7143 33.8929C58.7143 29.2576 62.4719 25.5 67.1071 25.5C71.7424 25.5 75.5 29.2576 75.5 33.8929ZM35.2143 33.8929H54.5179C54.5179 40.8457 60.1543 46.4821 67.1071 46.4821V65.7857C67.1071 69.494 64.1012 72.5 60.3929 72.5H35.2143C31.5061 72.5 28.5 69.494 28.5 65.7857V40.6071C28.5 36.8989 31.5061 33.8929 35.2143 33.8929Z" fill="#0B434B"/>
</g>
<defs>
<clipPath id="clip0_440_2342">
<rect width="48" height="48" fill="white" transform="translate(28 25)"/>
</clipPath>
</defs>
</svg>
