<svg width="321" height="204" viewBox="0 0 321 204" fill="none" xmlns="http://www.w3.org/2000/svg">
<mask id="mask0_440_5382" style="mask-type:alpha" maskUnits="userSpaceOnUse" x="0" y="0" width="321" height="204">
<path fill-rule="evenodd" clip-rule="evenodd" d="M55.7477 15.534C55.7101 9.20471 58.1059 4.33496 62.6529 1.49923C64.9935 0.0391036 65.3294 0.18129 65.6847 2.78176C66.3803 7.87021 64.337 13.6022 60.7213 16.7052C59.4512 17.7953 58.2323 18.6941 58.0131 18.7015C57.4234 18.7226 58.0117 16.7172 60.1683 11.3529C61.228 8.71705 61.9988 6.4472 61.8811 6.30901C61.5321 5.9013 58.1034 12.463 56.8899 15.8606L55.7686 19.0013L55.7477 15.534ZM64.5312 15.4957C64.5835 14.0293 68.2738 10.2874 70.7052 9.23611C72.9648 8.25908 79.8056 8.39556 80.695 9.43597C81.5937 10.4872 78.9631 14.5667 76.0084 16.7035C74.0002 18.1556 73.0205 18.4622 69.8447 18.6313C67.7115 18.7443 65.6774 18.5656 65.1693 18.2201C64.3594 17.6697 64.3531 17.6068 65.1068 17.5909C66.9265 17.5532 76.1299 13.2704 75.6355 12.6914C75.4949 12.527 73.7586 13.0249 71.7772 13.7975C67.4713 15.4769 64.5073 16.1718 64.5312 15.4957ZM43.7121 18.384C45.0681 14.9772 47.6831 11.8297 50.525 10.184C53.2791 8.58971 53.7595 8.68735 53.861 10.8641C54.1568 17.2203 53.1805 21.7885 50.8062 25.1587C49.3677 27.1996 45.178 30.5487 44.725 30.0193C44.3984 29.6367 46.6072 23.304 48.594 18.9265C49.5546 16.8103 50.2541 14.9784 50.1487 14.855C49.7928 14.4382 45.8628 21.6737 44.2168 25.7771L42.5825 29.8509L42.5698 25.5681C42.5596 22.2407 42.8144 20.6384 43.7121 18.384ZM30.4688 25.9981C31.16 24.2308 32.8861 21.4767 34.4447 19.6534C35.9599 17.8815 37.2999 16.4317 37.4224 16.4317C37.9984 16.4317 39.7625 21.5133 40.3688 24.9177C41.1869 29.51 40.7144 34.4985 39.1143 38.1673C37.9476 40.8432 34.7786 45.5542 34.1455 45.5542C33.302 45.5542 34.434 31.3567 35.6841 26.2585C35.9311 25.2506 35.9638 24.4261 35.7564 24.4261C34.8484 24.4261 31.9762 38.0588 31.6663 43.8411L31.5286 46.4107L30.6885 44.2774C28.4709 38.6459 28.383 31.3275 30.4688 25.9981ZM55.0067 27.6261C55.9258 25.9844 58.3821 24.0589 61.0391 22.8957C63.0488 22.0163 67.5572 22.2824 69.8383 23.4154L71.2983 24.1406L69.5918 26.8153C67.1365 30.6629 63.8815 32.4376 59.4146 32.3634C57.5206 32.332 55.4221 32.1207 54.7509 31.8934C53.6286 31.5131 53.6091 31.4526 54.5068 31.1437C55.0438 30.9587 56.349 30.6355 57.4078 30.4253C59.0319 30.1027 65.2903 27.5188 65.9376 26.9038C66.0494 26.797 66.0289 26.5789 65.8917 26.4184C65.7545 26.2579 64.6743 26.5338 63.4915 27.0305C61.2012 27.9927 54.6318 29.6162 54.3521 29.289C54.2598 29.1816 54.5546 28.433 55.0067 27.6261ZM22.2393 88.3814C25.3644 67.9471 32.6948 49.9146 43.7023 35.5834C45.5211 33.2159 47.1051 31.2784 47.2223 31.2784C47.3394 31.2784 46.0957 33.1417 44.458 35.4184C35.2077 48.2797 28.7867 63.9265 25.6529 81.2436C24.1035 89.8039 23.5441 105.261 24.4711 113.893C27.3628 140.823 38.1683 164.155 55.4831 180.858C63.9177 188.994 75.6389 196.246 85.2596 199.279C87.486 199.982 87.7135 200.21 87.8526 201.882C88.0015 203.672 87.9673 203.707 86.3882 203.361C85.4993 203.166 82.5685 202.156 79.8764 201.116C49.1617 189.254 27.2252 158.325 21.9928 119.503C21.0824 112.748 21.2225 95.0271 22.2393 88.3814ZM19.4969 57.0307C16.6721 50.4268 17.0792 42.8252 20.5982 36.456C21.6511 34.5504 22.6996 32.9915 22.9285 32.9915C23.465 32.9915 26.0155 37.1703 27.3296 40.2031C29.4067 44.9974 29.6063 51.9571 27.8021 56.6893C26.1757 60.9566 25.3595 62.3276 24.9519 61.4762C24.3661 60.2514 23.0242 48.3671 23.0071 44.25C22.9949 41.4159 22.8851 40.9157 22.4619 41.7677C21.8976 42.9046 22.1485 59.4553 22.7709 62.1141L23.1048 63.5416L22.0831 62.1141C21.5208 61.3289 20.357 59.0413 19.4969 57.0307ZM44.1075 40.2933C45.443 38.2473 48.6482 35.9129 51.04 35.2448C53.8795 34.4511 58.6501 35.0404 59.7441 36.3201C60.8287 37.5889 57.3078 42.1566 53.842 43.9753C51.5223 45.1933 46.1459 45.5125 44.0362 44.5577C42.9784 44.0792 43.2366 43.9119 46.2636 43.1125C49.6039 42.2297 55.5875 39.4899 55.1897 39.025C55.0804 38.8971 53.2342 39.3791 51.0879 40.0963C48.941 40.8135 46.2167 41.5735 45.0335 41.7848L42.8827 42.1703L44.1075 40.2933ZM39.8851 51.3056C40.8506 50.5433 42.7783 49.4595 44.1685 48.8976C45.5592 48.3357 47.6299 47.8674 48.7712 47.8572C51.1582 47.8355 51.3246 48.3905 50.1258 52.3666C48.4378 57.9632 44.5204 61.9901 39.2353 63.5622C35.8525 64.5683 33.5544 64.4616 35.7451 63.4006C38.0438 62.2865 47.4327 52.9776 46.2572 52.9776C46.0561 52.9776 44.3154 54.3458 42.3887 56.0177C40.4625 57.6897 37.8095 59.7791 36.494 60.6608L34.1016 62.2631L34.4277 60.333C34.866 57.7388 37.7226 53.013 39.8851 51.3056ZM9.53936 76.078C6.73499 69.4404 6.69301 62.0535 9.41732 54.645C9.98551 53.0998 10.7543 51.8355 11.1258 51.8355C12.3022 51.8355 18.4435 59.4216 19.7888 62.5372C21.6023 66.7365 22.6703 72.5337 22.2832 76.0729C21.9083 79.5025 20.5445 84.9553 20.0617 84.9553C19.2402 84.9553 14.7307 70.7766 13.2058 63.3989C12.8651 61.7497 12.4287 60.401 12.2363 60.401C12.0435 60.401 11.961 60.8504 12.0523 61.4003C12.1441 61.9502 12.4658 64.4553 12.7669 66.9678C13.4455 72.6199 15.4424 80.9204 16.9918 84.527C17.6327 86.0191 17.951 87.2394 17.6996 87.2394C16.4753 87.2394 11.2156 80.0455 9.53936 76.078ZM27.212 80.403C28.7125 74.4934 32.4897 69.5906 37.8119 66.6452C42.6411 63.9728 42.7016 64.0196 42.4537 70.2512C42.3048 73.9949 41.9401 76.3236 41.2021 78.2462C39.6127 82.3885 35.6138 86.9693 31.6087 89.2357C29.7215 90.3035 28.0853 91.0687 27.972 90.9362C27.8592 90.8043 28.5861 89.7256 29.5877 88.5396C31.7844 85.9386 35.5728 79.5231 37.3858 75.334C38.7335 72.2202 38.8302 70.3814 37.4907 73.3388C36.203 76.182 27.4224 88.3814 26.6633 88.3814C26.1425 88.3814 26.4978 83.2165 27.212 80.403ZM4.54178 99.9608C2.24557 94.6959 1.35764 86.3914 2.55212 81.3589C3.14082 78.8778 3.57282 78.8824 7.4013 81.4143C15.2833 86.6267 19.1874 94.0518 19.2465 103.944C19.2631 106.693 19.1362 109.106 18.9648 109.306C18.793 109.507 18.2107 109.057 17.6698 108.306C15.5879 105.414 10.3394 95.8985 8.58114 91.827C6.16338 86.2304 5.89344 87.5061 8.14181 93.9033C10.3316 100.134 12.6737 105.206 15.2355 109.262C16.3133 110.969 17.0748 112.365 16.9278 112.365C16.7814 112.365 15.419 111.545 13.9009 110.542C10.4663 108.275 5.93151 103.148 4.54178 99.9608ZM26.5842 106.803C27.0201 100.045 29.8284 94.2111 34.9402 89.4447C36.2601 88.2141 37.5781 87.2948 37.869 87.4016C38.16 87.5078 38.8976 89.25 39.5072 91.272C40.4079 94.2556 40.587 95.8796 40.4576 99.894C40.2404 106.644 38.1146 111.817 33.468 116.902C31.6941 118.842 30.1657 120.341 30.072 120.232C29.9783 120.122 30.4381 118.757 31.0932 117.198C32.8441 113.032 34.5473 106.987 35.4308 101.801C35.8589 99.2881 36.3216 96.6545 36.4588 95.9476C36.596 95.2407 36.4847 94.6628 36.2108 94.6628C35.9375 94.6628 35.7134 95.1653 35.7134 95.7791C35.7134 98.8142 28.7345 118.391 27.8744 117.768C27.0724 117.189 26.3245 110.831 26.5842 106.803ZM16.0297 134.447C6.43283 130.372 1.21218 122.659 0.681568 111.772L0.431641 106.651L2.08595 107.019C9.79026 108.73 16.1732 114.227 19.1523 121.716C20.3521 124.734 21.7673 131.681 21.3001 132.261C20.7222 132.976 13.2102 124.943 9.00045 119.107C7.22899 116.651 5.67817 114.761 5.55467 114.906C5.00014 115.554 11.4729 125.707 15.4932 130.495C17.9329 133.4 19.7556 135.777 19.5448 135.777C19.3339 135.777 17.7518 135.178 16.0297 134.447ZM33.0467 125.608C33.9576 121.923 36.5901 116.555 39.0484 113.372C39.9612 112.19 40.8687 111.223 41.0639 111.223C42.1559 111.223 44.8792 117.007 46.1538 122.033C47.7217 128.215 46.8528 135.934 43.9034 142.027C43.0589 143.771 42.232 145.327 42.0656 145.484C41.8996 145.641 41.1406 146.741 40.3791 147.927C39.6176 149.113 38.9063 149.981 38.7994 149.856C38.692 149.73 39.0762 147.732 39.6527 145.415C40.5133 141.956 40.73 139.361 40.8613 130.923C40.9883 122.783 40.9228 121.357 40.546 124.071C38.1937 141.012 36.9235 147.766 36.0893 147.768C35.8935 147.768 35.3097 146.797 34.7918 145.61C32.1998 139.666 31.5144 131.81 33.0467 125.608ZM7.13868 147.966C5.65132 144.997 4.24987 140.446 3.74416 136.945L3.38586 134.466L7.20605 134.871C17.8036 135.994 25.2184 142.405 28.3894 153.186C28.9273 155.016 29.3676 156.754 29.3676 157.049C29.3676 158.301 20.1662 151.355 13.8418 145.33C11.88 143.461 10.1803 142.043 10.0641 142.179C9.69995 142.605 17.7557 151.972 20.8251 154.693C22.436 156.121 24.8508 158.035 26.1913 158.946C29.1216 160.938 28.4206 161.3 23.5119 160.332C16.9127 159.029 10.1061 153.889 7.13868 147.966ZM46.7283 142.159C47.4166 139.748 48.305 137.189 48.7018 136.473L49.4238 135.17L51.5614 137.219C53.9977 139.554 57.1413 144.223 58.3231 147.26C60.6227 153.17 60.6325 161.357 58.349 168.215L56.9597 172.386L56.3481 165.931C55.7394 159.505 53.3304 148.205 51.989 145.484L51.2851 144.057L51.5453 145.77C53.6955 159.952 54.6747 171.181 53.7609 171.181C53.1561 171.181 49.4248 166.038 48.0692 163.337C45.1858 157.589 44.6659 149.38 46.7283 142.159ZM61.5931 164.563C61.5839 161.333 63.0624 153.925 64.255 151.228C64.6796 150.267 65.1356 149.482 65.2683 149.482C66.0508 149.482 69.602 152.683 72.0091 155.559C77.0296 161.557 79.6816 170.227 78.9509 178.255C78.6048 182.058 76.7279 190.228 76.312 189.742C76.1705 189.575 75.9767 188.351 75.882 187.02C75.4431 180.848 72.938 170.927 69.665 162.402C68.1879 158.553 67.5441 158.387 68.6316 162.136C70.6701 169.159 73.7649 188.532 72.9922 189.431C72.4787 190.029 65.528 180.939 64.2598 178.011C62.7647 174.558 61.6053 168.713 61.5931 164.563ZM14.0005 165.783C13.9956 165.484 14.9797 164.931 16.1878 164.555C17.396 164.178 20.503 163.844 23.0926 163.813C28.9058 163.744 32.9188 165.06 36.7961 168.309C39.3232 170.425 44.0118 176.822 44.0118 178.153C44.0118 179.369 33.3767 175.756 25.8242 171.974C23.6691 170.895 21.8146 170.119 21.7028 170.249C21.3787 170.628 26.9928 174.449 31.5164 176.929C36.1547 179.472 41.1161 181.459 42.8261 181.459C43.4465 181.459 44.0709 181.68 44.2129 181.949C44.5297 182.549 38.5983 183.747 35.3751 183.734C27.3433 183.704 19.1323 177.762 15.3004 169.208C14.5906 167.623 14.0058 166.083 14.0005 165.783ZM33.1868 188.633C34.0791 188.102 36.3856 187.184 38.3123 186.593C45.6202 184.353 51.9089 185.726 58.8122 191.07C60.5915 192.448 60.6383 192.556 59.6406 192.988C57.3585 193.976 47.0319 195.166 40.4479 195.2C32.9027 195.239 32.7162 195.789 39.8982 196.82C45.3815 197.606 54.0426 197.62 58.1068 196.849C59.8183 196.524 61.3247 196.383 61.455 196.535C61.8304 196.974 56.3412 200.889 53.0819 202.506C50.4318 203.821 49.459 203.981 44.0118 203.997C37.9877 204.015 37.8632 203.989 34.249 201.95C30.6851 199.94 25.4849 195.853 25.4698 195.05C25.4605 194.546 31.0263 189.917 33.1868 188.633Z" fill="black"/>
<path fill-rule="evenodd" clip-rule="evenodd" d="M258.06 14.0931C255.834 10.9987 255.001 7.2031 255.292 1.48823C255.388 -0.374468 255.789 -0.438994 258.23 1.01713C262.608 3.63017 265.135 8.62839 265.135 14.6762C265.135 18.176 264.813 18.1469 263.643 14.5397C262.78 11.8815 259.292 5.42149 258.941 5.83206C258.822 5.97025 259.424 7.70218 260.277 9.68023C262.049 13.7848 263.298 17.6746 262.969 18.0595C262.583 18.5123 259.374 15.9199 258.06 14.0931ZM241.347 12.5548C239.458 9.65624 239.4 9.18343 240.85 8.50105C242.35 7.79583 247.416 7.79183 249.578 8.4942C251.52 9.12519 254.357 11.5418 255.967 13.9361L256.997 15.4676L254.842 15.0525C253.657 14.8241 251.05 14.0338 249.048 13.2966C247.045 12.5594 245.308 12.0717 245.187 12.2133C244.839 12.6199 250.96 15.6789 253.787 16.5109C257.095 17.4845 256.215 18.1709 251.645 18.1823C247.307 18.1931 243.76 16.2539 241.347 12.5548ZM270.077 24.5618C267.625 20.9392 266.384 15.6247 266.921 11.041C267.086 9.63455 267.418 8.48335 267.658 8.48335C268.683 8.48335 272.952 11.4344 274.432 13.1652C277.325 16.5491 278.513 20.6726 278.349 26.7563L278.28 29.3259L276.669 25.3287C274.9 20.9375 271.811 15.0702 270.935 14.4375C270.756 14.3079 270.625 14.2122 270.574 14.2442C270.438 14.3305 270.889 15.3491 272.573 19.1508C274.593 23.715 276.452 29.1261 276.129 29.5041C275.663 30.0489 271.479 26.6313 270.077 24.5618ZM281.907 37.9702C279.401 32.2822 279.517 24.3888 282.197 18.2434L283.226 15.885L284.929 17.4662C291.71 23.7584 293.825 34.3207 290.192 43.7524L289.37 45.8858L289.022 41.6031C288.616 36.6134 287.564 31.1898 286.142 26.7563C285.708 25.4028 285.436 24.5108 285.343 24.5291C285.189 24.559 285.51 27.0255 286.369 33.8942C287.15 40.1321 287.31 45.027 286.735 45.0327C286.059 45.0395 283.142 40.7722 281.907 37.9702ZM249.52 23.3632L251.836 22.4959C256.736 20.66 263.03 22.7414 265.903 27.1469L267.154 29.0661L265.046 28.6892C263.887 28.482 261.182 27.7259 259.035 27.0087C256.889 26.2915 255.043 25.8095 254.934 25.9375C254.618 26.3058 260.029 28.9645 262.324 29.5692C263.467 29.8701 265.062 30.2967 265.867 30.5171L267.332 30.9174L266.112 31.3497C264.254 32.0075 258.539 31.9715 256.991 31.2926C254.661 30.2704 252.092 27.9109 250.776 25.5846L249.52 23.3632ZM277.297 36.1783C276.144 34.608 274.864 32.8092 274.452 32.1811C274.04 31.553 274.645 32.0669 275.796 33.3232C278.38 36.1423 283.758 44.4445 286.711 50.1731C316.345 107.664 292.601 182.639 238.812 201.427C236.014 202.405 233.568 203.205 233.378 203.205C232.773 203.205 232.544 200.377 233.108 199.875C233.406 199.611 234.968 198.946 236.579 198.398C255.326 192.019 272.937 176.135 283.634 155.96C290.451 143.103 294.362 130.414 296.178 115.266C297.269 106.172 296.916 90.5683 295.423 81.8607C292.528 64.9765 285.575 47.451 277.297 36.1783ZM292.064 52.0764C291.091 46.7681 292.764 39.6879 296.26 34.3225C296.924 33.302 297.667 32.4666 297.911 32.4666C298.721 32.4666 302.177 39.5143 302.759 42.3557C303.673 46.8115 303.107 52.4372 301.326 56.5978C300.488 58.5581 299.342 60.804 298.779 61.5891L297.758 63.0167L298.092 61.5891C298.66 59.1605 298.967 42.3871 298.463 41.3324C298.131 40.638 297.906 42.1478 297.686 46.5465C297.403 52.226 296.74 57.9288 296.043 60.6966C295.768 61.7907 295.757 61.7907 295.046 60.6966C293.932 58.983 292.652 55.2821 292.064 52.0764ZM261.054 35.8699C261.295 35.589 262.366 35.1059 263.435 34.7958C266.13 34.0152 270.188 34.5394 272.616 35.9824C274.576 37.1479 278.088 40.9173 277.669 41.4067C277.397 41.7253 270.263 39.9831 267.839 39.0066C266.776 38.5778 265.808 38.3414 265.689 38.4807C265.309 38.9261 270.132 41.2136 274.166 42.5007C277.874 43.6845 277.985 43.7656 276.362 44.1093C271.201 45.2029 267.988 44.5976 264.666 41.9035C262.442 40.1007 260.381 36.6574 261.054 35.8699ZM276.727 60.7252C273.294 58.1784 270.017 52.1129 270.017 48.3041C270.017 47.2466 270.249 47.1792 272.917 47.4624C276.502 47.8427 280.528 49.9401 282.82 52.6211C284.502 54.5895 287.422 60.8331 286.93 61.4093C286.585 61.8124 281.063 57.9471 277.666 54.9246C276.09 53.5228 274.701 52.4926 274.579 52.636C274.221 53.0545 280.76 59.6688 283.685 61.8455C285.943 63.5266 286.176 63.8453 285.149 63.8521C283.036 63.8653 278.881 62.3223 276.727 60.7252ZM298.764 76.9064C297.554 69.7457 300.086 61.8187 305.709 55.165C307.501 53.0448 309.292 51.3106 309.689 51.3106C310.09 51.3106 310.873 52.5646 311.445 54.1201C314.879 63.4564 313.931 72.3942 308.645 80.5319C306.871 83.2626 303.71 86.7145 302.984 86.7145C302.831 86.7145 303.227 85.4942 303.864 84.0021C305.822 79.4178 307.824 70.2105 308.706 61.7319C308.974 59.1588 308.277 59.3935 307.859 62.0174C306.94 67.7814 301.648 84.4303 300.734 84.4303C300.281 84.4303 299.588 81.7848 298.764 76.9064ZM283.937 84.3892C280.088 80.1305 278.679 76.3914 278.411 69.7263C278.282 66.5141 278.209 64.9734 278.839 64.5902C279.426 64.2333 280.625 64.8813 282.957 66.1185C288.405 69.0085 292.52 74.4933 293.909 80.7186C294.454 83.1649 294.608 87.8565 294.142 87.8565C293.384 87.8565 284.513 75.4012 283.227 72.5324C282.898 71.7991 282.523 71.3235 282.393 71.4754C281.658 72.3354 287.697 83.6406 291.06 87.7001C292.183 89.0557 293.015 90.2634 292.908 90.3839C292.344 91.0252 286.261 86.9606 283.937 84.3892ZM303.539 92.9096C305.461 88.13 309.698 83.0913 313.909 80.5759C315.617 79.5555 317.194 78.72 317.412 78.72C318.118 78.72 318.825 82.8994 318.828 87.0919C318.835 96.8091 314.539 104.961 306.584 110.329C303.6 112.342 303.348 112.239 305.054 109.698C308.424 104.679 314.822 89.4914 314.315 87.7126C314.222 87.3854 313.3 89.0186 312.265 91.3415C309.379 97.825 302.873 108.985 301.98 108.985C301.792 108.985 301.722 106.222 301.824 102.846C301.989 97.4127 302.187 96.2712 303.539 92.9096ZM288.17 117.253C281.021 109.734 278.748 100.981 281.314 90.8544C281.89 88.5772 282.605 86.7145 282.902 86.715C284.147 86.7156 289.254 92.1775 291.053 95.4329C293.757 100.327 294.611 104.118 294.291 109.811C294.149 112.341 293.78 115.169 293.47 116.097L292.907 117.785L291.712 115.322C290.093 111.989 286.233 100.613 285.506 97.0358C285.183 95.4421 284.75 94.1378 284.545 94.1378C284.441 94.1378 284.357 94.1146 284.301 94.1445C284.104 94.2505 284.268 95.0261 285.153 99.8887C286.581 107.731 287.476 111.072 289.339 115.508C290.252 117.683 290.922 119.553 290.827 119.664C290.732 119.775 289.536 118.69 288.17 117.253ZM299.623 129.684C301.023 118.013 307.047 110.146 316.98 107.018C318.401 106.57 319.727 106.188 319.929 106.167C320.537 106.104 320.329 113.07 319.631 116.122C317.636 124.843 312.517 130.856 304.256 134.18C302.791 134.769 301.427 135.252 301.225 135.252C301.023 135.252 302.88 132.875 305.353 129.97C309.382 125.236 315.884 115.054 315.308 114.381C315.184 114.236 313.643 116.111 311.883 118.546C307.762 124.249 300.856 131.826 299.778 131.826C299.552 131.826 299.482 130.863 299.623 129.684ZM274.046 129.703C273.696 123.383 274.988 118.215 278.484 111.957L279.535 110.075L281.783 112.906C284.49 116.314 286.736 120.83 287.789 124.976C288.788 128.91 288.784 135.9 287.78 139.859C286.867 143.462 285.305 147.244 284.731 147.244C283.893 147.244 281.576 134.475 280.432 123.546L280.073 120.12L279.784 123.546C279.393 128.182 280.037 139.325 280.939 143.532C281.343 145.416 281.813 147.601 281.982 148.386C282.285 149.783 282.264 149.777 280.993 148.1C276.751 142.501 274.412 136.307 274.046 129.703ZM293.561 149.579C296.724 141.733 303.085 136.223 310.699 134.736C314.218 134.048 317.366 134.009 317.366 134.653C317.366 136.676 316.042 141.868 314.666 145.245C312.673 150.132 309.037 154.446 304.816 156.93C301.682 158.775 296.43 160.358 293.447 160.357L291.739 160.357L294.376 158.656C295.827 157.721 298.243 155.863 299.745 154.527C302.751 151.854 311.02 142.307 311.02 141.508C311.02 141.232 308.769 143.119 306.017 145.702C301.711 149.744 292.534 156.951 291.694 156.951C291.153 156.951 292.106 153.186 293.561 149.579ZM262.827 146.445C264.211 143.054 265.478 141.019 267.93 138.247C271.143 134.616 271.205 134.578 272.002 135.729C272.448 136.372 273.421 139.09 274.166 141.769C275.374 146.115 275.495 147.228 275.277 152.094C275.067 156.778 274.812 158.058 273.464 161.162C271.9 164.767 267.915 170.656 267.039 170.656C266.207 170.656 267.524 154.46 268.865 148.189C270.133 142.264 269.237 143.346 267.401 149.957C265.811 155.683 264.416 163.814 264.045 169.514C263.919 171.446 263.867 171.378 262.47 167.515C261.171 163.919 261.024 162.887 261.006 157.237C260.987 151.128 261.037 150.831 262.827 146.445ZM243.351 185.648C239.686 172.286 242.605 160.604 251.772 151.955C253.52 150.306 255.163 148.957 255.423 148.957C256.067 148.957 257.729 153.627 258.571 157.803C259.875 164.267 259.136 171.637 256.598 177.496C255.355 180.365 250.119 187.368 248.423 188.43C247.549 188.977 247.511 188.843 247.807 186.259C248.701 178.454 249.781 172.005 251.232 165.815C252.116 162.039 252.76 158.854 252.663 158.736C252.427 158.453 250.254 164.168 248.564 169.514C247.122 174.075 245.37 182.226 244.82 186.93L244.486 189.785L243.351 185.648ZM278.747 174.032C282.556 167.822 288.149 164.075 295.156 163.038C297.854 162.638 306.388 164.031 306.874 164.951C307.28 165.719 304.126 171.783 301.72 174.863C297.809 179.869 291.243 183.219 285.341 183.219C282.41 183.219 276.334 182.022 276.609 181.5C276.731 181.271 277.725 180.917 278.82 180.712C283.149 179.903 290.195 176.419 296.527 171.959C298.086 170.86 299.28 169.865 299.179 169.747C299.078 169.629 297.235 170.4 295.084 171.462C287.48 175.213 276.851 178.829 276.851 177.665C276.851 177.367 277.704 175.732 278.747 174.032ZM262.517 190.204C265.554 187.925 268.981 186.151 271.613 185.497C274.775 184.712 280.629 185.244 284.347 186.655C287.496 187.85 294.939 193.105 295.251 194.354C295.417 195.014 291.002 198.9 287.96 200.772C283.014 203.814 276.101 204.669 270.509 202.928C267.354 201.945 262.568 199.173 260.498 197.128L259.034 195.681L260.742 196.033C264.704 196.848 276.029 197.041 280.577 196.372C288.179 195.252 288.071 194.715 280.236 194.675C273.377 194.64 263.667 193.522 261.287 192.491C260.181 192.012 260.229 191.922 262.517 190.204Z" fill="black"/>
</mask>
<g mask="url(#mask0_440_5382)">
<rect x="-98.6875" y="-83.6895" width="596.198" height="376.616" fill="#259D4A"/>
<path d="M160.376 37.0137L172.803 81.7573H213.02L180.484 109.41L192.912 154.154L160.376 126.501L127.839 154.154L140.267 109.41L107.731 81.7573H147.948L160.376 37.0137Z" fill="#259D4A"/>
<path d="M160.375 51.8945L169.947 86.3567H200.922L175.862 107.655L185.435 142.118L160.375 120.819L135.315 142.118L144.887 107.655L119.827 86.3567H150.803L160.375 51.8945Z" fill="#D9D9D9"/>
<path d="M160.375 51.8945L169.947 86.3567H200.922L175.862 107.655L185.435 142.118L160.375 120.819L135.315 142.118L144.887 107.655L119.827 86.3567H150.803L160.375 51.8945Z" fill="#259D4A"/>
<path d="M160.48 11.6215L177.459 72.7505L177.706 73.6391H178.628H234.055L189.059 111.882L188.468 112.385L188.675 113.132L205.765 174.659L161.266 136.839L160.48 136.171L159.695 136.839L115.196 174.659L132.286 113.132L132.493 112.385L131.902 111.882L86.9057 73.6391H142.333H143.255L143.502 72.7505L160.48 11.6215Z" stroke="#259D4A" stroke-width="2.4266"/>
</g>
<path d="M100.545 84.166V54.8763C98.8808 56.0412 95.386 56.9288 91.7803 57.0397V51.8252C96.8283 51.6588 99.7129 49.8282 100.822 46.1115H107.202V84.166H100.545ZM127.872 84.9426C118.331 84.9426 112.95 77.7866 112.95 65.1388C112.95 52.4909 118.331 45.3349 127.872 45.3349C137.469 45.3349 142.85 52.4909 142.85 65.1388C142.85 77.7866 137.469 84.9426 127.872 84.9426ZM127.872 79.0625C133.531 79.0625 136.193 73.5152 136.193 65.1388C136.193 55.6529 132.865 51.215 127.872 51.215C122.27 51.215 119.607 56.7623 119.607 65.1388C119.607 74.6247 122.935 79.0625 127.872 79.0625ZM161.839 84.9426C152.297 84.9426 146.917 77.7866 146.917 65.1388C146.917 52.4909 152.297 45.3349 161.839 45.3349C171.436 45.3349 176.817 52.4909 176.817 65.1388C176.817 77.7866 171.436 84.9426 161.839 84.9426ZM161.839 79.0625C167.497 79.0625 170.16 73.5152 170.16 65.1388C170.16 55.6529 166.831 51.215 161.839 51.215C156.236 51.215 153.573 56.7623 153.573 65.1388C153.573 74.6247 156.902 79.0625 161.839 79.0625ZM187.928 84.7207L211.227 45.5568H217.329L194.03 84.7207H187.928ZM191.312 65.9709C185.82 65.9709 181.382 61.533 181.382 56.0412C181.382 51.6034 185.82 46.1115 191.312 46.1115C196.804 46.1115 201.242 50.5494 201.242 56.0412C201.242 61.533 196.804 65.9709 191.312 65.9709ZM191.312 59.9798C193.531 59.9798 195.25 58.2601 195.25 56.0412C195.25 53.8223 193.531 52.1026 191.312 52.1026C189.093 52.1026 187.373 53.8223 187.373 56.0412C187.373 58.2601 189.093 59.9798 191.312 59.9798ZM213.945 84.9426C208.453 84.9426 204.015 80.5048 204.015 75.013C204.015 70.5751 208.453 65.0833 213.945 65.0833C219.437 65.0833 223.875 69.5211 223.875 75.013C223.875 80.5048 219.437 84.9426 213.945 84.9426ZM213.945 78.9516C216.164 78.9516 217.883 77.2319 217.883 75.013C217.883 72.794 216.164 71.0744 213.945 71.0744C211.726 71.0744 210.006 72.794 210.006 75.013C210.006 77.2319 211.726 78.9516 213.945 78.9516Z" fill="#096E28"/>
<path d="M72.0555 111.169C67.603 111.169 64.5945 108.762 64.5223 105.152H67.5789C67.6511 107.029 69.4321 108.281 72.0555 108.281C74.5345 108.281 76.1952 107.366 76.1952 106.018C76.1952 102.649 65.4368 104.695 65.4368 98.8462C65.4368 95.9339 68.0843 93.9844 72.0555 93.9844C75.3769 93.9844 78.0966 95.8858 78.8668 98.7258L75.9064 99.4719C75.5213 97.9075 73.981 96.8726 72.0555 96.8726C70.0098 96.8726 68.6379 97.6668 68.6379 98.8462C68.6379 101.397 79.3963 99.9774 79.3963 106.018C79.3963 109.099 76.46 111.169 72.0555 111.169ZM85.8862 111.169C83.4794 111.169 81.8909 109.797 81.8909 107.751V101.205H79.9655V98.798H81.8909V94.3214H84.7791V98.798H87.8116V101.205H84.7791V107.751C84.7791 108.353 85.2123 108.762 85.838 108.762H87.932V110.832C87.4987 111.025 86.6804 111.169 85.8862 111.169ZM101.355 98.798V110.832H98.467V109.942C97.6727 110.688 96.3731 111.169 95.1937 111.169C91.8964 111.169 89.7062 109.219 89.7062 106.283V98.798H92.5944V105.946C92.5944 107.559 93.7737 108.618 95.5307 108.618C97.2876 108.618 98.467 107.559 98.467 105.946V98.798H101.355ZM109.446 111.169C105.643 111.169 103.092 108.618 103.092 104.815C103.092 101.012 105.643 98.4611 109.446 98.4611C110.914 98.4611 112.527 99.135 113.441 100.122V94.3214H116.33V110.832H113.441V109.508C112.527 110.495 110.914 111.169 109.446 111.169ZM109.735 108.618C111.949 108.618 113.441 107.101 113.441 104.815C113.441 102.529 111.949 101.012 109.735 101.012C107.473 101.012 105.98 102.529 105.98 104.815C105.98 107.101 107.473 108.618 109.735 108.618ZM124.587 111.169C120.664 111.169 118.064 108.618 118.064 104.815C118.064 101.012 120.664 98.4611 124.587 98.4611C128.51 98.4611 131.109 101.012 131.109 104.815V105.369L130.868 105.609H121C121.265 107.511 122.709 108.762 124.587 108.762C126.007 108.762 127.33 107.944 127.884 106.74H130.82C130.026 109.388 127.523 111.169 124.587 111.169ZM121.193 103.202H127.98C127.427 101.71 126.199 100.868 124.587 100.868C122.974 100.868 121.747 101.71 121.193 103.202ZM132.836 110.832V98.798H135.724V99.6885C136.518 98.9424 137.818 98.4611 138.997 98.4611C142.295 98.4611 144.485 100.411 144.485 103.347V110.832H141.597V103.684C141.597 102.071 140.417 101.012 138.66 101.012C136.903 101.012 135.724 102.071 135.724 103.684V110.832H132.836ZM151.721 111.169C149.314 111.169 147.725 109.797 147.725 107.751V101.205H145.8V98.798H147.725V94.3214H150.614V98.798H153.646V101.205H150.614V107.751C150.614 108.353 151.047 108.762 151.673 108.762H153.766V110.832C153.333 111.025 152.515 111.169 151.721 111.169ZM167.176 111.169C162.723 111.169 159.715 108.762 159.643 105.152H162.699C162.771 107.029 164.552 108.281 167.176 108.281C169.655 108.281 171.316 107.366 171.316 106.018C171.316 102.649 160.557 104.695 160.557 98.8462C160.557 95.9339 163.205 93.9844 167.176 93.9844C170.497 93.9844 173.217 95.8858 173.987 98.7258L171.027 99.4719C170.642 97.9075 169.101 96.8726 167.176 96.8726C165.13 96.8726 163.758 97.6668 163.758 98.8462C163.758 101.397 174.517 99.9774 174.517 106.018C174.517 109.099 171.58 111.169 167.176 111.169ZM187.897 98.798V110.832H185.008V109.942C184.214 110.688 182.914 111.169 181.735 111.169C178.438 111.169 176.248 109.219 176.248 106.283V98.798H179.136V105.946C179.136 107.559 180.315 108.618 182.072 108.618C183.829 108.618 185.008 107.559 185.008 105.946V98.798H187.897ZM196.998 98.4611C200.801 98.4611 203.352 101.012 203.352 104.815C203.352 108.618 200.801 111.169 196.998 111.169C195.53 111.169 193.918 110.495 193.003 109.508V115.309H190.115V98.798H193.003V100.122C193.918 99.135 195.53 98.4611 196.998 98.4611ZM196.71 101.012C194.495 101.012 193.003 102.529 193.003 104.815C193.003 107.101 194.495 108.618 196.71 108.618C198.972 108.618 200.464 107.101 200.464 104.815C200.464 102.529 198.972 101.012 196.71 101.012ZM211.97 98.4611C215.773 98.4611 218.324 101.012 218.324 104.815C218.324 108.618 215.773 111.169 211.97 111.169C210.502 111.169 208.89 110.495 207.975 109.508V115.309H205.087V98.798H207.975V100.122C208.89 99.135 210.502 98.4611 211.97 98.4611ZM211.682 101.012C209.467 101.012 207.975 102.529 207.975 104.815C207.975 107.101 209.467 108.618 211.682 108.618C213.944 108.618 215.436 107.101 215.436 104.815C215.436 102.529 213.944 101.012 211.682 101.012ZM226.1 111.169C222.177 111.169 219.578 108.618 219.578 104.815C219.578 101.012 222.177 98.4611 226.1 98.4611C230.023 98.4611 232.622 101.012 232.622 104.815C232.622 108.618 230.023 111.169 226.1 111.169ZM226.1 108.618C228.29 108.618 229.734 107.101 229.734 104.815C229.734 102.529 228.29 101.012 226.1 101.012C223.91 101.012 222.466 102.529 222.466 104.815C222.466 107.101 223.91 108.618 226.1 108.618ZM246.341 108.762H248.435V110.832C248.002 111.025 247.183 111.169 246.389 111.169C243.982 111.169 242.394 109.797 242.394 107.751V101.205H240.468H240.131C238.254 101.205 237.002 102.288 237.002 103.9V110.832H234.114V98.798H237.002V100.266C237.532 99.3757 238.735 98.798 239.963 98.798H241.118H242.394V94.3214H245.282V98.798H248.314V101.205H245.282V107.751C245.282 108.353 245.715 108.762 246.341 108.762Z" fill="#0B434B"/>
<path d="M89.0501 143.368C82.1349 143.368 77.514 138.747 77.514 131.8C77.514 124.885 82.1349 120.296 89.0501 120.296C92.8309 120.296 96.6439 122.817 98.5828 126.565L94.5435 127.567C93.3802 125.531 91.1829 124.174 89.0501 124.174C84.72 124.174 81.8441 127.211 81.8441 131.8C81.8441 136.421 84.72 139.491 89.0501 139.491C92.023 139.491 94.5758 137.39 95.3837 134.224H88.0807V130.346H99.8754V131.8C99.8754 138.747 95.5453 143.368 89.0501 143.368ZM117.531 126.759V142.916H113.653V141.72C112.587 142.722 110.842 143.368 109.259 143.368C104.832 143.368 101.891 140.751 101.891 136.809V126.759H105.769V136.356C105.769 138.521 107.352 139.943 109.711 139.943C112.07 139.943 113.653 138.521 113.653 136.356V126.759H117.531ZM128.265 143.368C123.224 143.368 119.863 139.943 119.863 134.837C119.863 129.732 123.224 126.307 128.265 126.307C130.171 126.307 132.272 127.179 133.5 128.504V126.759H137.377V142.916H133.5V141.171C132.272 142.496 130.171 143.368 128.265 143.368ZM128.653 139.943C131.561 139.943 133.5 137.907 133.5 134.837C133.5 131.768 131.561 129.732 128.653 129.732C125.712 129.732 123.741 131.768 123.741 134.837C123.741 137.907 125.712 139.943 128.653 139.943ZM140.359 142.916V126.759H144.236V128.665C145.076 127.341 146.66 126.436 148.146 126.436C148.728 126.436 149.407 126.565 149.859 126.759V129.732H148.534C145.949 129.732 144.236 131.186 144.236 133.351V142.916H140.359ZM158.401 143.368C153.36 143.368 150 139.943 150 134.837C150 129.732 153.36 126.307 158.401 126.307C160.308 126.307 162.408 127.179 163.636 128.504V126.759H167.514V142.916H163.636V141.171C162.408 142.496 160.308 143.368 158.401 143.368ZM158.789 139.943C161.698 139.943 163.636 137.907 163.636 134.837C163.636 131.768 161.698 129.732 158.789 129.732C155.849 129.732 153.878 131.768 153.878 134.837C153.878 137.907 155.849 139.943 158.789 139.943ZM170.495 142.916V126.759H174.373V127.955C175.439 126.953 177.184 126.307 178.768 126.307C183.195 126.307 186.135 128.924 186.135 132.866V142.916H182.258V133.319C182.258 131.154 180.674 129.732 178.315 129.732C175.956 129.732 174.373 131.154 174.373 133.319V142.916H170.495ZM195.85 143.368C192.619 143.368 190.486 141.527 190.486 138.78V129.99H187.901V126.759H190.486V120.749H194.364V126.759H198.435V129.99H194.364V138.78C194.364 139.588 194.945 140.137 195.786 140.137H198.597V142.916C198.015 143.175 196.917 143.368 195.85 143.368ZM208.459 143.368C203.192 143.368 199.702 139.943 199.702 134.837C199.702 129.732 203.192 126.307 208.459 126.307C213.726 126.307 217.216 129.732 217.216 134.837V135.581L216.893 135.904H203.644C203.999 138.457 205.938 140.137 208.459 140.137C210.365 140.137 212.143 139.038 212.886 137.423H216.828C215.762 140.977 212.401 143.368 208.459 143.368ZM203.903 132.672H213.015C212.272 130.669 210.624 129.538 208.459 129.538C206.294 129.538 204.646 130.669 203.903 132.672ZM227.645 143.368C222.378 143.368 218.888 139.943 218.888 134.837C218.888 129.732 222.378 126.307 227.645 126.307C232.913 126.307 236.402 129.732 236.402 134.837V135.581L236.079 135.904H222.831C223.186 138.457 225.125 140.137 227.645 140.137C229.552 140.137 231.329 139.038 232.072 137.423H236.015C234.948 140.977 231.588 143.368 227.645 143.368ZM223.089 132.672H232.202C231.458 130.669 229.81 129.538 227.645 129.538C225.48 129.538 223.832 130.669 223.089 132.672Z" fill="#0B434B"/>
<path d="M153.994 161.87C154.169 161.317 154.951 161.317 155.126 161.87L157.997 170.927C158.076 171.174 158.305 171.341 158.564 171.341H167.886C168.458 171.341 168.699 172.07 168.24 172.412L160.674 178.046C160.471 178.197 160.386 178.46 160.462 178.702L163.347 187.8C163.521 188.349 162.888 188.8 162.426 188.455L154.915 182.863C154.704 182.706 154.416 182.706 154.205 182.863L146.694 188.455C146.232 188.8 145.599 188.349 145.773 187.8L148.658 178.702C148.734 178.46 148.649 178.197 148.446 178.046L140.88 172.412C140.421 172.07 140.662 171.341 141.234 171.341H150.556C150.815 171.341 151.044 171.174 151.123 170.927L153.994 161.87Z" fill="#FFB73E"/>
<path d="M123.024 162.338C123.245 161.64 124.232 161.64 124.453 162.338L126.275 168.084C126.374 168.396 126.663 168.607 126.989 168.607H132.923C133.645 168.607 133.95 169.527 133.371 169.958L128.539 173.556C128.283 173.747 128.176 174.079 128.272 174.384L130.11 180.182C130.33 180.876 129.532 181.445 128.948 181.01L124.186 177.464C123.921 177.266 123.557 177.266 123.291 177.464L118.529 181.01C117.945 181.445 117.147 180.876 117.367 180.182L119.205 174.384C119.302 174.079 119.195 173.747 118.938 173.556L114.106 169.958C113.527 169.527 113.832 168.607 114.554 168.607H120.488C120.814 168.607 121.104 168.396 121.202 168.084L123.024 162.338Z" fill="#FFB73E"/>
<path d="M183.842 162.338C184.064 161.64 185.05 161.64 185.271 162.338L187.093 168.084C187.192 168.396 187.481 168.607 187.808 168.607H193.742C194.463 168.607 194.768 169.527 194.189 169.958L189.357 173.556C189.101 173.747 188.994 174.079 189.09 174.384L190.929 180.182C191.149 180.876 190.35 181.445 189.766 181.01L185.005 177.464C184.739 177.266 184.375 177.266 184.109 177.464L179.347 181.01C178.764 181.445 177.965 180.876 178.185 180.182L180.023 174.384C180.12 174.079 180.013 173.747 179.757 173.556L174.925 169.958C174.346 169.527 174.651 168.607 175.372 168.607H181.306C181.633 168.607 181.922 168.396 182.021 168.084L183.842 162.338Z" fill="#FFB73E"/>
</svg>
