<svg width="422" height="269" viewBox="0 0 422 269" fill="none" xmlns="http://www.w3.org/2000/svg">
<mask id="mask0_440_2732" style="mask-type:alpha" maskUnits="userSpaceOnUse" x="0" y="0" width="422" height="269">
<path fill-rule="evenodd" clip-rule="evenodd" d="M72.9413 20.4835C72.8918 12.1375 76.0509 5.71613 82.0468 1.97685C85.1332 0.0514855 85.576 0.238976 86.0446 3.66803C86.9619 10.3778 84.2674 17.9362 79.4997 22.0279C77.8249 23.4653 76.2176 24.6505 75.9286 24.6603C75.1511 24.6881 75.9267 22.0437 78.7705 14.9702C80.1679 11.4945 81.1842 8.50139 81.0291 8.31917C80.5689 7.78155 76.0477 16.434 74.4475 20.9142L72.969 25.0556L72.9413 20.4835ZM84.5236 20.4331C84.5925 18.4994 89.4587 13.5652 92.6648 12.1789C95.6444 10.8906 104.665 11.0705 105.838 12.4425C107.023 13.8287 103.554 19.208 99.6577 22.0256C97.0097 23.9404 95.7178 24.3448 91.53 24.5677C88.7172 24.7168 86.035 24.4811 85.3649 24.0255C84.2971 23.2996 84.2887 23.2168 85.2825 23.1957C87.6821 23.146 99.818 17.4987 99.166 16.7352C98.9806 16.5183 96.691 17.1749 94.0784 18.1937C88.4005 20.4082 84.4921 21.3246 84.5236 20.4331ZM57.0709 24.2416C58.859 19.7494 62.3072 15.599 66.0546 13.4289C69.6863 11.3266 70.3196 11.4553 70.4535 14.3257C70.8436 22.7071 69.5562 28.7309 66.4254 33.1749C64.5285 35.8661 59.0038 40.2823 58.4065 39.5843C57.9759 39.0798 60.8885 30.7293 63.5083 24.9569C64.775 22.1664 65.6974 19.7509 65.5584 19.5882C65.0891 19.0385 59.9069 28.5795 57.7364 33.9904L55.5814 39.3622L55.5647 33.7148C55.5511 29.3272 55.8871 27.2144 57.0709 24.2416ZM39.6079 34.2818C40.5194 31.9514 42.7954 28.3197 44.8507 25.9155C46.8486 23.579 48.6155 21.6672 48.7771 21.6672C49.5366 21.6672 51.8629 28.3679 52.6623 32.8572C53.7411 38.9126 53.118 45.4906 51.0081 50.3285C49.4697 53.857 45.291 60.069 44.4561 60.069C43.3438 60.069 44.8365 41.3478 46.485 34.6252C46.8107 33.2962 46.8538 32.2089 46.5802 32.2089C45.383 32.2089 41.5956 50.1854 41.1869 57.8101L41.0054 61.1985L39.8976 58.3854C36.9734 50.9595 36.8575 41.3093 39.6079 34.2818ZM71.9642 36.4286C73.1763 34.2637 76.4152 31.7247 79.9188 30.1909C82.5688 29.0313 88.5138 29.3822 91.5217 30.8761L93.4469 31.8324L91.1966 35.3593C87.9589 40.4329 83.6669 42.7731 77.7766 42.6753C75.2792 42.6338 72.512 42.3552 71.6269 42.0555C70.1471 41.5541 70.1214 41.4743 71.3051 41.0669C72.0131 40.8229 73.7343 40.3967 75.1305 40.1196C77.272 39.6942 85.5246 36.287 86.3781 35.476C86.5255 35.3352 86.4984 35.0476 86.3176 34.836C86.1367 34.6244 84.7122 34.9881 83.1526 35.6432C80.1325 36.912 71.4699 39.0527 71.1011 38.6212C70.9794 38.4797 71.3682 37.4925 71.9642 36.4286ZM28.7562 116.542C32.877 89.597 42.5431 65.8187 57.058 46.9213C59.4563 43.7994 61.5451 41.2446 61.6995 41.2446C61.854 41.2446 60.2139 43.7016 58.0544 46.7037C45.8567 63.663 37.3898 84.2953 33.2574 107.13C31.2144 118.418 30.4768 138.8 31.6991 150.182C35.5122 185.693 49.7606 216.46 72.5925 238.485C83.7145 249.213 99.1705 258.775 111.857 262.776C114.792 263.702 115.092 264.003 115.276 266.208C115.472 268.568 115.427 268.614 113.345 268.157C112.173 267.9 108.308 266.568 104.758 265.197C64.2569 249.556 35.3307 208.772 28.4312 157.58C27.2307 148.673 27.4154 125.305 28.7562 116.542ZM25.14 75.2023C21.4151 66.4942 21.9519 56.4705 26.5922 48.0718C27.9806 45.5592 29.3632 43.5035 29.6651 43.5035C30.3725 43.5035 33.7357 49.0138 35.4685 53.0129C38.2073 59.3349 38.4706 68.5121 36.0915 74.7521C33.9468 80.3791 32.8706 82.187 32.3331 81.0643C31.5607 79.4491 29.7912 63.7782 29.7687 58.3492C29.7526 54.6122 29.6078 53.9526 29.0497 55.076C28.3056 56.5752 28.6365 78.3995 29.4572 81.9053L29.8974 83.7878L28.5502 81.9053C27.8087 80.87 26.2742 77.8536 25.14 75.2023ZM57.5922 53.1318C59.3533 50.4339 63.5797 47.3558 66.7337 46.4748C70.478 45.4281 76.7686 46.2052 78.2111 47.8926C79.6413 49.5657 74.9985 55.5888 70.4284 57.987C67.3697 59.5931 60.2802 60.014 57.4983 58.7551C56.1034 58.1241 56.4439 57.9035 60.4354 56.8493C64.84 55.6852 72.7302 52.0724 72.2056 51.4595C72.0614 51.2908 69.627 51.9263 66.7968 52.8721C63.9659 53.8178 60.3736 54.82 58.8133 55.0986L55.9773 55.6069L57.5922 53.1318ZM52.0244 67.653C53.2976 66.6478 55.8395 65.2186 57.6727 64.4777C59.5065 63.7368 62.237 63.1193 63.7419 63.1058C66.8895 63.0772 67.109 63.8091 65.5281 69.052C63.3023 76.432 58.1368 81.742 51.1677 83.8149C46.707 85.1416 43.6766 85.0008 46.5654 83.6018C49.5965 82.1327 61.977 69.8577 60.427 69.8577C60.1618 69.8577 57.8664 71.6618 55.3259 73.8666C52.7859 76.0713 49.2875 78.8264 47.5528 79.989L44.3982 82.1019L44.8281 79.5568C45.4062 76.136 49.173 69.9044 52.0244 67.653ZM12.0097 100.319C8.31178 91.566 8.25643 81.8255 11.8488 72.0564C12.598 70.0189 13.6118 68.3518 14.1016 68.3518C15.6529 68.3518 23.751 78.3551 25.525 82.4633C27.9162 88.0007 29.3246 95.6449 28.8141 100.312C28.3198 104.834 26.5214 112.024 25.8848 112.024C24.8015 112.024 18.8552 93.328 16.8443 83.5995C16.3951 81.4249 15.8196 79.6464 15.566 79.6464C15.3118 79.6464 15.203 80.239 15.3233 80.9641C15.4444 81.6892 15.8685 84.9926 16.2657 88.3056C17.1604 95.7586 19.7937 106.704 21.8367 111.46C22.6818 113.427 23.1015 115.036 22.77 115.036C21.1557 115.036 14.2201 105.55 12.0097 100.319ZM35.3133 106.022C37.292 98.2291 42.2728 91.7641 49.2908 87.8802C55.6586 84.3563 55.7385 84.418 55.4115 92.6353C55.2151 97.5718 54.7343 100.642 53.7611 103.178C51.6653 108.64 46.3923 114.68 41.1109 117.669C38.6225 119.077 36.4649 120.086 36.3155 119.911C36.1668 119.737 37.1253 118.315 38.4461 116.751C41.3426 113.321 46.3382 104.861 48.7288 99.3375C50.506 95.2315 50.6335 92.8069 48.8672 96.7066C47.1692 100.456 35.5908 116.542 34.5898 116.542C33.903 116.542 34.3716 109.732 35.3133 106.022ZM5.41975 131.811C2.3919 124.869 1.22105 113.918 2.79613 107.282C3.5724 104.01 4.14205 104.017 9.1904 107.355C19.5838 114.228 24.732 124.019 24.8098 137.063C24.8317 140.688 24.6644 143.87 24.4384 144.134C24.2119 144.399 23.444 143.805 22.7308 142.815C19.9855 139.002 13.0647 126.454 10.7462 121.086C7.55804 113.706 7.20209 115.388 10.1669 123.824C13.0544 132.04 16.1427 138.727 19.5208 144.076C20.942 146.326 21.9461 148.167 21.7524 148.167C21.5593 148.167 19.7628 147.086 17.7609 145.764C13.232 142.774 7.25229 136.014 5.41975 131.811ZM34.4856 140.833C35.0604 131.923 38.7634 124.229 45.504 117.944C47.2445 116.322 48.9824 115.109 49.3661 115.25C49.7497 115.39 50.7223 117.688 51.5262 120.354C52.7138 124.288 52.9501 126.43 52.7795 131.723C52.493 140.624 49.6898 147.444 43.5627 154.15C41.2236 156.709 39.2082 158.686 39.0846 158.541C38.961 158.396 39.5674 156.596 40.4312 154.541C42.7401 149.047 44.9858 141.076 46.1509 134.237C46.7154 130.924 47.3256 127.451 47.5065 126.519C47.6874 125.587 47.5406 124.825 47.1795 124.825C46.819 124.825 46.5236 125.488 46.5236 126.297C46.5236 130.299 37.321 156.113 36.1868 155.293C35.1292 154.528 34.1431 146.145 34.4856 140.833ZM20.568 177.286C7.91335 171.912 1.02924 161.742 0.329562 147.386L0 140.633L2.18142 141.118C12.3406 143.374 20.7573 150.623 24.6856 160.499C26.2678 164.478 28.1338 173.638 27.5178 174.403C26.7557 175.346 16.8501 164.753 11.2991 157.058C8.96318 153.82 6.91823 151.327 6.75538 151.518C6.02416 152.373 14.5593 165.761 19.8606 172.074C23.0777 175.905 25.4812 179.039 25.2031 179.039C24.9251 179.039 22.8389 178.25 20.568 177.286ZM43.0072 165.63C44.2083 160.771 47.6796 153.693 50.9212 149.496C52.1249 147.937 53.3214 146.661 53.5789 146.661C55.0188 146.661 58.6099 154.289 60.2905 160.917C62.358 169.068 61.2123 179.246 57.3232 187.281C56.2096 189.581 55.1192 191.633 54.8997 191.84C54.6809 192.047 53.68 193.497 52.6758 195.06C51.6717 196.625 50.7339 197.77 50.5929 197.604C50.4513 197.438 50.9579 194.804 51.7181 191.748C52.8529 187.187 53.1386 183.766 53.3118 172.639C53.4791 161.905 53.3929 160.025 52.896 163.603C49.7941 185.942 48.1193 194.848 47.0192 194.851C46.7611 194.851 45.9913 193.571 45.3083 192.006C41.8904 184.168 40.9867 173.808 43.0072 165.63ZM8.8441 195.112C6.88282 191.197 5.03483 185.196 4.36798 180.58L3.89553 177.311L8.93293 177.844C22.9071 179.325 32.6846 187.779 36.8659 201.995C37.5752 204.408 38.1558 206.701 38.1558 207.089C38.1558 208.74 26.0225 199.581 17.6831 191.637C15.0961 189.172 12.8548 187.303 12.7017 187.482C12.2215 188.043 22.844 200.395 26.8915 203.983C29.0156 205.866 32.1999 208.389 33.9674 209.591C37.8314 212.217 36.9071 212.695 30.4343 211.418C21.7324 209.701 12.757 202.922 8.8441 195.112ZM61.0481 187.455C61.9557 184.276 63.1272 180.901 63.6505 179.957L64.6025 178.239L67.4212 180.941C70.6338 184.02 74.779 190.177 76.3374 194.182C79.3697 201.975 79.3826 212.77 76.3715 221.813L74.5396 227.313L73.7331 218.801C72.9304 210.328 69.7538 195.427 67.985 191.84L67.0568 189.958L67.3999 192.216C70.2353 210.917 71.5265 225.724 70.3216 225.724C69.5241 225.724 64.6038 218.943 62.8163 215.381C59.0141 207.802 58.3286 196.977 61.0481 187.455ZM80.6493 216.997C80.6371 212.738 82.5868 202.97 84.1593 199.413C84.7193 198.147 85.3205 197.111 85.4956 197.111C86.5274 197.111 91.2101 201.333 94.3841 205.124C101.004 213.033 104.501 224.466 103.538 235.052C103.081 240.067 100.607 250.84 100.058 250.199C99.8714 249.98 99.6159 248.364 99.491 246.61C98.9124 238.471 95.609 225.389 91.2932 214.148C89.3454 209.073 88.4964 208.854 89.9305 213.797C92.6185 223.058 96.6994 248.604 95.6805 249.79C95.0033 250.578 85.838 238.591 84.1657 234.73C82.1942 230.178 80.6654 222.47 80.6493 216.997ZM17.8923 218.607C17.8858 218.212 19.1835 217.483 20.7766 216.986C22.3697 216.489 26.4667 216.05 29.8814 216.009C37.5469 215.918 42.8386 217.654 47.9513 221.936C51.2836 224.728 57.4661 233.163 57.4661 234.918C57.4661 236.521 43.4423 231.757 33.4834 226.77C30.6415 225.347 28.1962 224.323 28.0488 224.496C27.6214 224.995 35.0243 230.034 40.9893 233.304C47.1055 236.657 53.6478 239.278 55.9026 239.278C56.7207 239.278 57.544 239.568 57.7313 239.924C58.149 240.714 50.3277 242.294 46.0775 242.277C35.4865 242.237 24.6592 234.403 19.6064 223.122C18.6705 221.033 17.8993 219.001 17.8923 218.607ZM43.1919 248.736C44.3686 248.036 47.4099 246.827 49.9505 246.048C59.587 243.093 67.8795 244.904 76.9823 251.95C79.3285 253.767 79.3903 253.91 78.0746 254.479C75.0655 255.782 61.4485 257.351 52.7666 257.396C42.8173 257.448 42.5714 258.173 52.0418 259.533C59.2722 260.569 70.693 260.588 76.0522 259.571C78.3089 259.143 80.2953 258.956 80.4672 259.157C80.9622 259.735 73.724 264.898 69.4262 267.03C65.9317 268.765 64.6489 268.976 57.4661 268.997C49.5225 269.02 49.3583 268.985 44.5926 266.297C39.8931 263.647 33.036 258.258 33.0161 257.199C33.0038 256.533 40.343 250.43 43.1919 248.736Z" fill="black"/>
<path fill-rule="evenodd" clip-rule="evenodd" d="M339.716 18.5836C336.782 14.5033 335.682 9.49822 336.067 1.96243C336.193 -0.493784 336.723 -0.57887 339.94 1.34122C345.714 4.78684 349.046 11.3777 349.046 19.3524C349.046 23.9674 348.621 23.929 347.078 19.1725C345.941 15.6674 341.341 7.14893 340.878 7.69032C340.722 7.87254 341.515 10.1563 342.641 12.7646C344.977 18.177 346.624 23.3063 346.19 23.8138C345.681 24.4109 341.449 20.9924 339.716 18.5836ZM317.679 16.5551C315.187 12.733 315.111 12.1095 317.024 11.2097C319.002 10.2798 325.681 10.2745 328.533 11.2007C331.092 12.0327 334.833 15.2193 336.956 18.3766L338.315 20.3961L335.473 19.8486C333.911 19.5475 330.473 18.5053 327.833 17.5332C325.193 16.5611 322.902 15.9181 322.743 16.1048C322.284 16.641 330.354 20.6747 334.082 21.7717C338.444 23.0556 337.284 23.9606 331.258 23.9757C325.538 23.99 320.86 21.4329 317.679 16.5551ZM355.563 32.388C352.329 27.6111 350.693 20.6031 351.401 14.559C351.619 12.7044 352.056 11.1864 352.374 11.1864C353.725 11.1864 359.354 15.0778 361.305 17.3601C365.12 21.8222 366.687 27.2594 366.471 35.2817L366.379 38.6701L364.255 33.3992C361.922 27.6088 357.849 19.872 356.695 19.0377C356.458 18.8669 356.285 18.7407 356.219 18.7828C356.038 18.8966 356.634 20.2397 358.854 25.2528C361.518 31.2713 363.969 38.4065 363.543 38.905C362.929 39.6233 357.411 35.1168 355.563 32.388ZM371.163 50.0686C367.858 42.5682 368.011 32.1598 371.545 24.0563L372.901 20.9465L375.148 23.0315C384.089 31.3285 386.878 45.2563 382.088 57.6933L381.004 60.5064L380.545 54.8591C380.009 48.2795 378.621 41.1278 376.746 35.2817C376.174 33.4969 375.816 32.3207 375.693 32.3448C375.49 32.3842 375.914 35.6366 377.046 44.6939C378.076 52.9194 378.287 59.3739 377.529 59.3814C376.637 59.3905 372.79 53.7635 371.163 50.0686ZM328.455 30.8075L331.51 29.6637C337.971 27.2429 346.271 29.9875 350.059 35.7967L351.709 38.3274L348.929 37.8305C347.401 37.5571 343.834 36.5602 341.003 35.6145C338.173 34.6687 335.739 34.0332 335.594 34.2019C335.179 34.6876 342.313 38.1934 345.34 38.9908C346.847 39.3876 348.95 39.9501 350.012 40.2408L351.943 40.7686L350.334 41.3386C347.884 42.206 340.348 42.1586 338.307 41.2633C335.235 39.9155 331.847 36.8042 330.112 33.7365L328.455 30.8075ZM365.084 47.7058C363.563 45.6351 361.875 43.2632 361.332 42.4349C360.788 41.6067 361.586 42.2843 363.104 43.9409C366.512 47.6583 373.603 58.6059 377.497 66.1597C416.573 141.969 385.264 240.834 314.336 265.607C310.646 266.897 307.421 267.952 307.17 267.952C306.372 267.952 306.071 264.223 306.815 263.562C307.208 263.213 309.267 262.337 311.391 261.614C336.111 253.202 359.334 232.257 373.44 205.653C382.428 188.699 387.586 171.967 389.98 151.993C391.418 140.001 390.953 119.426 388.985 107.944C385.168 85.6799 375.998 62.5703 365.084 47.7058ZM384.556 68.6694C383.273 61.6697 385.479 52.3336 390.088 45.2586C390.965 43.913 391.944 42.8114 392.265 42.8114C393.334 42.8114 397.891 52.1047 398.658 55.8515C399.863 61.727 399.117 69.1453 396.769 74.6315C395.663 77.2164 394.152 80.1779 393.411 81.2132L392.063 83.0957L392.504 81.2132C393.253 78.0108 393.658 55.8929 392.993 54.5021C392.555 53.5865 392.258 55.5774 391.969 61.3776C391.595 68.8667 390.722 76.3867 389.803 80.0363C389.439 81.479 389.425 81.479 388.487 80.0363C387.019 77.7767 385.331 72.8966 384.556 68.6694ZM343.665 47.2992C343.982 46.9287 345.395 46.2917 346.805 45.8828C350.358 44.8535 355.71 45.5447 358.91 47.4475C361.495 48.9843 366.126 53.9547 365.574 54.6C365.216 55.0202 355.808 52.7229 352.612 51.4353C351.21 50.8698 349.933 50.558 349.777 50.7418C349.275 51.3291 355.635 54.3455 360.954 56.0427C365.844 57.6037 365.991 57.7106 363.851 58.1639C357.045 59.6058 352.809 58.8077 348.427 55.2551C345.495 52.878 342.778 48.3375 343.665 47.2992ZM364.331 80.074C359.805 76.7157 355.483 68.7176 355.483 63.6952C355.483 62.3007 355.789 62.2119 359.307 62.5854C364.034 63.0868 369.344 65.8525 372.366 69.3877C374.584 71.9833 378.435 80.2163 377.785 80.9761C377.331 81.5077 370.05 76.4108 365.57 72.4253C363.492 70.5767 361.66 69.2183 361.499 69.4073C361.027 69.9593 369.649 78.681 373.506 81.5513C376.484 83.7681 376.791 84.1883 375.437 84.1973C372.651 84.2146 367.172 82.1801 364.331 80.074ZM393.39 101.411C391.794 91.9688 395.134 81.5159 402.549 72.7423C404.911 69.9464 407.273 67.6597 407.797 67.6597C408.325 67.6597 409.358 69.3132 410.112 71.3643C414.64 83.6755 413.39 95.4611 406.419 106.192C404.081 109.792 399.912 114.344 398.955 114.344C398.753 114.344 399.275 112.735 400.115 110.768C402.697 104.723 405.337 92.5817 406.5 81.4015C406.853 78.0086 405.935 78.318 405.383 81.778C404.171 89.3785 397.193 111.332 395.988 111.332C395.39 111.332 394.476 107.844 393.39 101.411ZM373.84 111.278C368.764 105.662 366.905 100.732 366.552 91.9432C366.382 87.7074 366.285 85.6758 367.117 85.1706C367.891 84.6999 369.471 85.5544 372.547 87.1859C379.731 90.9967 385.157 98.229 386.988 106.438C387.708 109.664 387.91 115.85 387.295 115.85C386.297 115.85 374.598 99.4263 372.903 95.6433C372.469 94.6765 371.974 94.0492 371.803 94.2495C370.834 95.3835 378.797 110.291 383.232 115.644C384.713 117.431 385.809 119.024 385.669 119.183C384.925 120.028 376.903 114.669 373.84 111.278ZM399.686 122.513C402.221 116.211 407.808 109.567 413.361 106.25C415.613 104.904 417.693 103.803 417.98 103.803C418.911 103.803 419.844 109.314 419.847 114.842C419.856 127.655 414.192 138.404 403.702 145.483C399.767 148.138 399.435 148.002 401.684 144.652C406.129 138.033 414.565 118.006 413.896 115.66C413.773 115.229 412.557 117.382 411.193 120.446C407.387 128.995 398.808 143.71 397.63 143.71C397.383 143.71 397.291 140.067 397.426 135.616C397.643 128.451 397.903 126.946 399.686 122.513ZM379.421 154.613C369.994 144.699 366.996 133.157 370.38 119.803C371.14 116.8 372.082 114.344 372.474 114.345C374.116 114.346 380.85 121.548 383.222 125.841C386.788 132.294 387.914 137.293 387.493 144.801C387.305 148.136 386.818 151.865 386.41 153.089L385.667 155.314L384.091 152.067C381.956 147.672 376.866 132.671 375.908 127.954C375.482 125.853 374.911 124.133 374.641 124.133C374.503 124.133 374.392 124.102 374.319 124.142C374.059 124.281 374.275 125.304 375.443 131.716C377.326 142.058 378.506 146.462 380.962 152.312C382.166 155.18 383.049 157.646 382.924 157.793C382.799 157.939 381.223 156.509 379.421 154.613ZM394.523 171.006C396.369 155.616 404.313 145.241 417.411 141.117C419.284 140.527 421.033 140.022 421.299 139.995C422.101 139.912 421.826 149.098 420.906 153.123C418.276 164.621 411.526 172.55 400.632 176.934C398.7 177.711 396.902 178.347 396.635 178.347C396.369 178.347 398.818 175.213 402.078 171.382C407.391 165.14 415.965 151.714 415.205 150.826C415.042 150.635 413.01 153.107 410.689 156.318C405.255 163.839 396.149 173.829 394.727 173.829C394.429 173.829 394.337 172.559 394.523 171.006ZM360.796 171.03C360.335 162.696 362.039 155.882 366.649 147.63L368.035 145.149L370.999 148.881C374.568 153.375 377.53 159.329 378.919 164.797C380.236 169.985 380.23 179.201 378.907 184.422C377.702 189.173 375.643 194.16 374.886 194.16C373.781 194.16 370.726 177.322 369.217 162.911L368.744 158.393L368.363 162.911C367.848 169.025 368.697 183.717 369.885 189.265C370.418 191.75 371.038 194.63 371.262 195.666C371.66 197.508 371.632 197.5 369.957 195.289C364.363 187.906 361.279 179.739 360.796 171.03ZM386.529 197.239C390.701 186.893 399.088 179.628 409.128 177.667C413.768 176.759 417.92 176.708 417.92 177.557C417.92 180.225 416.174 187.071 414.359 191.524C411.731 197.969 406.937 203.657 401.371 206.933C397.238 209.365 390.313 211.453 386.38 211.452L384.127 211.451L387.604 209.209C389.517 207.975 392.703 205.525 394.684 203.763C398.648 200.239 409.552 187.65 409.552 186.597C409.552 186.232 406.583 188.721 402.954 192.127C397.276 197.456 385.175 206.96 384.068 206.96C383.354 206.96 384.611 201.995 386.529 197.239ZM346.003 193.106C347.828 188.635 349.498 185.952 352.732 182.297C356.969 177.508 357.051 177.458 358.102 178.976C358.689 179.824 359.972 183.408 360.955 186.941C362.548 192.672 362.707 194.139 362.419 200.556C362.143 206.731 361.806 208.42 360.03 212.514C357.967 217.267 352.712 225.032 351.556 225.032C350.459 225.032 352.196 203.675 353.965 195.407C355.636 187.594 354.455 189.02 352.034 197.738C349.938 205.289 348.098 216.01 347.609 223.526C347.443 226.073 347.374 225.984 345.532 220.89C343.819 216.149 343.625 214.788 343.601 207.337C343.576 199.282 343.642 198.89 346.003 193.106ZM320.321 244.8C315.488 227.181 319.338 211.777 331.426 200.372C333.73 198.198 335.896 196.419 336.239 196.419C337.089 196.419 339.281 202.577 340.391 208.083C342.11 216.607 341.136 226.325 337.789 234.052C336.15 237.834 329.246 247.069 327.01 248.469C325.857 249.191 325.807 249.014 326.197 245.606C327.375 235.314 328.8 226.811 330.713 218.649C331.879 213.669 332.729 209.469 332.6 209.314C332.289 208.941 329.423 216.477 327.195 223.526C325.294 229.54 322.983 240.289 322.258 246.492L321.818 250.257L320.321 244.8ZM366.995 229.484C372.017 221.296 379.393 216.354 388.633 214.986C392.191 214.459 403.444 216.297 404.085 217.509C404.62 218.522 400.461 226.517 397.289 230.579C392.131 237.18 383.473 241.597 375.69 241.597C371.825 241.597 363.813 240.02 364.177 239.331C364.336 239.03 365.648 238.562 367.091 238.293C372.799 237.225 382.092 232.631 390.441 226.75C392.497 225.301 394.07 223.989 393.937 223.833C393.804 223.677 391.374 224.695 388.537 226.094C378.511 231.041 364.495 235.809 364.495 234.274C364.495 233.881 365.62 231.726 366.995 229.484ZM345.594 250.809C349.598 247.803 354.118 245.464 357.588 244.602C361.758 243.566 369.477 244.268 374.379 246.129C378.531 247.705 388.346 254.634 388.758 256.28C388.976 257.152 383.156 262.275 379.143 264.744C372.622 268.756 363.507 269.882 356.132 267.586C351.973 266.291 345.661 262.635 342.932 259.939L341.001 258.031L343.253 258.495C348.478 259.569 363.411 259.825 369.409 258.941C379.433 257.466 379.291 256.757 368.959 256.704C359.914 256.658 347.111 255.183 343.972 253.825C342.513 253.193 342.578 253.073 345.594 250.809Z" fill="black"/>
</mask>
<g mask="url(#mask0_440_2732)">
<rect x="-130.699" y="-110.357" width="786.164" height="496.617" fill="#259D4A"/>
<path d="M210.909 48.8086L227.297 107.809L280.329 107.809L237.425 144.273L253.813 203.273L210.909 166.809L168.006 203.273L184.394 144.273L141.49 107.809L194.522 107.809L210.909 48.8086Z" fill="#259D4A"/>
<path d="M210.906 68.4316L223.528 113.874H264.374L231.329 141.96L243.951 187.402L210.906 159.317L177.862 187.402L190.484 141.96L157.439 113.874H198.285L210.906 68.4316Z" fill="#D9D9D9"/>
<path d="M210.906 68.4316L223.528 113.874H264.374L231.329 141.96L243.951 187.402L210.906 159.317L177.862 187.402L190.484 141.96L157.439 113.874H198.285L210.906 68.4316Z" fill="#259D4A"/>
<path d="M211.046 15.3258L233.435 95.9323L233.761 97.1041H234.977H308.064L248.731 147.533L247.951 148.195L248.225 149.18L270.76 230.312L212.083 180.442L211.046 179.561L210.01 180.442L151.333 230.312L173.868 149.18L174.141 148.195L173.362 147.533L114.029 97.1041H187.116H188.332L188.658 95.9323L211.046 15.3258Z" stroke="#259D4A" stroke-width="3.19979"/>
</g>
<path d="M132.012 111.098V72.4753C129.818 74.0114 125.209 75.1818 120.455 75.3281V68.4522C127.111 68.2327 130.915 65.8188 132.378 60.9179H140.79V111.098H132.012ZM168.047 112.122C155.465 112.122 148.37 102.686 148.37 86.0078C148.37 69.3299 155.465 59.8938 168.047 59.8938C180.701 59.8938 187.797 69.3299 187.797 86.0078C187.797 102.686 180.701 112.122 168.047 112.122ZM168.047 104.368C175.508 104.368 179.019 97.0532 179.019 86.0078C179.019 73.4994 174.63 67.6475 168.047 67.6475C160.659 67.6475 157.148 74.9624 157.148 86.0078C157.148 98.5161 161.537 104.368 168.047 104.368ZM212.836 112.122C200.254 112.122 193.159 102.686 193.159 86.0078C193.159 69.3299 200.254 59.8938 212.836 59.8938C225.491 59.8938 232.586 69.3299 232.586 86.0078C232.586 102.686 225.491 112.122 212.836 112.122ZM212.836 104.368C220.297 104.368 223.808 97.0532 223.808 86.0078C223.808 73.4994 219.419 67.6475 212.836 67.6475C205.448 67.6475 201.937 74.9624 201.937 86.0078C201.937 98.5161 206.326 104.368 212.836 104.368ZM247.238 111.829L277.96 60.1864H286.007L255.284 111.829H247.238ZM251.7 87.105C244.458 87.105 238.606 81.2531 238.606 74.0114C238.606 68.1596 244.458 60.9179 251.7 60.9179C258.942 60.9179 264.794 66.7697 264.794 74.0114C264.794 81.2531 258.942 87.105 251.7 87.105ZM251.7 79.205C254.626 79.205 256.894 76.9374 256.894 74.0114C256.894 71.0855 254.626 68.8179 251.7 68.8179C248.774 68.8179 246.506 71.0855 246.506 74.0114C246.506 76.9374 248.774 79.205 251.7 79.205ZM281.545 112.122C274.303 112.122 268.451 106.27 268.451 99.0282C268.451 93.1763 274.303 85.9346 281.545 85.9346C288.786 85.9346 294.638 91.7865 294.638 99.0282C294.638 106.27 288.786 112.122 281.545 112.122ZM281.545 104.222C284.47 104.222 286.738 101.954 286.738 99.0282C286.738 96.1022 284.47 93.8346 281.545 93.8346C278.619 93.8346 276.351 96.1022 276.351 99.0282C276.351 101.954 278.619 104.222 281.545 104.222Z" fill="#096E28"/>
<path d="M94.4463 146.263C88.575 146.263 84.6079 143.089 84.5127 138.328H88.5432C88.6384 140.804 90.987 142.454 94.4463 142.454C97.7152 142.454 99.905 141.248 99.905 139.471C99.905 135.028 85.7187 137.725 85.7187 130.013C85.7187 126.173 89.2097 123.603 94.4463 123.603C98.8259 123.603 102.412 126.11 103.428 129.855L99.5242 130.839C99.0164 128.776 96.9852 127.411 94.4463 127.411C91.7486 127.411 89.9396 128.458 89.9396 130.013C89.9396 133.378 104.126 131.505 104.126 139.471C104.126 143.533 100.254 146.263 94.4463 146.263ZM112.684 146.263C109.51 146.263 107.415 144.454 107.415 141.756V133.124H104.877V129.95H107.415V124.047H111.224V129.95H115.223V133.124H111.224V141.756C111.224 142.549 111.795 143.089 112.62 143.089H115.381V145.818C114.81 146.072 113.731 146.263 112.684 146.263ZM133.082 129.95V145.818H129.273V144.644C128.226 145.628 126.512 146.263 124.957 146.263C120.609 146.263 117.721 143.692 117.721 139.82V129.95H121.529V139.376C121.529 141.502 123.085 142.899 125.401 142.899C127.718 142.899 129.273 141.502 129.273 139.376V129.95H133.082ZM143.751 146.263C138.736 146.263 135.372 142.899 135.372 137.884C135.372 132.87 138.736 129.506 143.751 129.506C145.687 129.506 147.813 130.394 149.019 131.695V124.047H152.827V145.818H149.019V144.073C147.813 145.374 145.687 146.263 143.751 146.263ZM144.131 142.899C147.051 142.899 149.019 140.899 149.019 137.884C149.019 134.869 147.051 132.87 144.131 132.87C141.148 132.87 139.181 134.869 139.181 137.884C139.181 140.899 141.148 142.899 144.131 142.899ZM163.715 146.263C158.542 146.263 155.115 142.899 155.115 137.884C155.115 132.87 158.542 129.506 163.715 129.506C168.888 129.506 172.316 132.87 172.316 137.884V138.614L171.999 138.931H158.986C159.336 141.439 161.24 143.089 163.715 143.089C165.588 143.089 167.333 142.01 168.063 140.423H171.935C170.888 143.914 167.587 146.263 163.715 146.263ZM159.24 135.758H168.19C167.46 133.79 165.842 132.679 163.715 132.679C161.589 132.679 159.97 133.79 159.24 135.758ZM174.593 145.818V129.95H178.401V131.124C179.449 130.14 181.163 129.506 182.718 129.506C187.066 129.506 189.954 132.076 189.954 135.948V145.818H186.145V136.393C186.145 134.266 184.59 132.87 182.273 132.87C179.957 132.87 178.401 134.266 178.401 136.393V145.818H174.593ZM199.495 146.263C196.321 146.263 194.227 144.454 194.227 141.756V133.124H191.688V129.95H194.227V124.047H198.035V129.95H202.034V133.124H198.035V141.756C198.035 142.549 198.606 143.089 199.432 143.089H202.193V145.818C201.621 146.072 200.542 146.263 199.495 146.263ZM219.875 146.263C214.003 146.263 210.036 143.089 209.941 138.328H213.972C214.067 140.804 216.415 142.454 219.875 142.454C223.144 142.454 225.333 141.248 225.333 139.471C225.333 135.028 211.147 137.725 211.147 130.013C211.147 126.173 214.638 123.603 219.875 123.603C224.254 123.603 227.841 126.11 228.856 129.855L224.953 130.839C224.445 128.776 222.414 127.411 219.875 127.411C217.177 127.411 215.368 128.458 215.368 130.013C215.368 133.378 229.554 131.505 229.554 139.471C229.554 143.533 225.683 146.263 219.875 146.263ZM247.198 129.95V145.818H243.389V144.644C242.342 145.628 240.628 146.263 239.073 146.263C234.725 146.263 231.837 143.692 231.837 139.82V129.95H235.645V139.376C235.645 141.502 237.201 142.899 239.517 142.899C241.834 142.899 243.389 141.502 243.389 139.376V129.95H247.198ZM259.2 129.506C264.214 129.506 267.578 132.87 267.578 137.884C267.578 142.899 264.214 146.263 259.2 146.263C257.264 146.263 255.137 145.374 253.931 144.073V151.721H250.123V129.95H253.931V131.695C255.137 130.394 257.264 129.506 259.2 129.506ZM258.819 132.87C255.899 132.87 253.931 134.869 253.931 137.884C253.931 140.899 255.899 142.899 258.819 142.899C261.802 142.899 263.77 140.899 263.77 137.884C263.77 134.869 261.802 132.87 258.819 132.87ZM278.942 129.506C283.957 129.506 287.321 132.87 287.321 137.884C287.321 142.899 283.957 146.263 278.942 146.263C277.006 146.263 274.88 145.374 273.674 144.073V151.721H269.865V129.95H273.674V131.695C274.88 130.394 277.006 129.506 278.942 129.506ZM278.561 132.87C275.641 132.87 273.674 134.869 273.674 137.884C273.674 140.899 275.641 142.899 278.561 142.899C281.545 142.899 283.512 140.899 283.512 137.884C283.512 134.869 281.545 132.87 278.561 132.87ZM297.574 146.263C292.401 146.263 288.973 142.899 288.973 137.884C288.973 132.87 292.401 129.506 297.574 129.506C302.747 129.506 306.175 132.87 306.175 137.884C306.175 142.899 302.747 146.263 297.574 146.263ZM297.574 142.899C300.462 142.899 302.366 140.899 302.366 137.884C302.366 134.869 300.462 132.87 297.574 132.87C294.686 132.87 292.782 134.869 292.782 137.884C292.782 140.899 294.686 142.899 297.574 142.899ZM324.264 143.089H327.025V145.818C326.454 146.072 325.375 146.263 324.327 146.263C321.154 146.263 319.059 144.454 319.059 141.756V133.124H316.52H316.076C313.6 133.124 311.95 134.552 311.95 136.678V145.818H308.142V129.95H311.95V131.886C312.648 130.712 314.235 129.95 315.854 129.95H317.377H319.059V124.047H322.868V129.95H326.866V133.124H322.868V141.756C322.868 142.549 323.439 143.089 324.264 143.089Z" fill="#0B434B"/>
<path d="M116.855 189.173C107.736 189.173 101.643 183.079 101.643 173.918C101.643 164.8 107.736 158.749 116.855 158.749C121.84 158.749 126.868 162.073 129.425 167.015L124.099 168.336C122.565 165.652 119.667 163.862 116.855 163.862C111.145 163.862 107.353 167.868 107.353 173.918C107.353 180.011 111.145 184.059 116.855 184.059C120.775 184.059 124.141 181.29 125.207 177.114H115.577V172.001H131.129V173.918C131.129 183.079 125.42 189.173 116.855 189.173ZM154.411 167.271V188.576H149.297V187C147.891 188.321 145.59 189.173 143.502 189.173C137.665 189.173 133.787 185.721 133.787 180.523V167.271H138.9V179.926C138.9 182.781 140.988 184.656 144.099 184.656C147.209 184.656 149.297 182.781 149.297 179.926V167.271H154.411ZM168.565 189.173C161.917 189.173 157.486 184.656 157.486 177.924C157.486 171.191 161.917 166.674 168.565 166.674C171.079 166.674 173.848 167.825 175.467 169.572V167.271H180.581V188.576H175.467V186.275C173.848 188.022 171.079 189.173 168.565 189.173ZM169.076 184.656C172.911 184.656 175.467 181.972 175.467 177.924C175.467 173.876 172.911 171.191 169.076 171.191C165.198 171.191 162.599 173.876 162.599 177.924C162.599 181.972 165.198 184.656 169.076 184.656ZM184.512 188.576V167.271H189.625V169.785C190.733 168.038 192.821 166.845 194.781 166.845C195.548 166.845 196.443 167.015 197.039 167.271V171.191H195.292C191.883 171.191 189.625 173.109 189.625 175.964V188.576H184.512ZM208.304 189.173C201.656 189.173 197.225 184.656 197.225 177.924C197.225 171.191 201.656 166.674 208.304 166.674C210.818 166.674 213.587 167.825 215.207 169.572V167.271H220.32V188.576H215.207V186.275C213.587 188.022 210.818 189.173 208.304 189.173ZM208.815 184.656C212.65 184.656 215.207 181.972 215.207 177.924C215.207 173.876 212.65 171.191 208.815 171.191C204.937 171.191 202.338 173.876 202.338 177.924C202.338 181.972 204.937 184.656 208.815 184.656ZM224.251 188.576V167.271H229.364V168.848C230.77 167.527 233.071 166.674 235.159 166.674C240.997 166.674 244.874 170.126 244.874 175.324V188.576H239.761V175.921C239.761 173.066 237.673 171.191 234.563 171.191C231.452 171.191 229.364 173.066 229.364 175.921V188.576H224.251ZM257.685 189.173C253.424 189.173 250.611 186.744 250.611 183.122V171.532H247.203V167.271H250.611V159.345H255.725V167.271H261.094V171.532H255.725V183.122C255.725 184.187 256.492 184.912 257.599 184.912H261.307V188.576C260.54 188.917 259.091 189.173 257.685 189.173ZM274.311 189.173C267.365 189.173 262.763 184.656 262.763 177.924C262.763 171.191 267.365 166.674 274.311 166.674C281.256 166.674 285.858 171.191 285.858 177.924V178.904L285.432 179.33H267.962C268.43 182.696 270.987 184.912 274.311 184.912C276.825 184.912 279.168 183.463 280.148 181.332H285.347C283.941 186.02 279.509 189.173 274.311 189.173ZM268.303 175.069H280.319C279.339 172.427 277.166 170.935 274.311 170.935C271.456 170.935 269.283 172.427 268.303 175.069ZM299.611 189.173C292.665 189.173 288.063 184.656 288.063 177.924C288.063 171.191 292.665 166.674 299.611 166.674C306.556 166.674 311.158 171.191 311.158 177.924V178.904L310.732 179.33H293.262C293.73 182.696 296.287 184.912 299.611 184.912C302.125 184.912 304.468 183.463 305.448 181.332H310.647C309.241 186.02 304.809 189.173 299.611 189.173ZM293.603 175.069H305.619C304.639 172.427 302.465 170.935 299.611 170.935C296.756 170.935 294.583 172.427 293.603 175.069Z" fill="#0B434B"/>
<path d="M202.492 213.445C202.723 212.716 203.754 212.716 203.985 213.445L207.771 225.387C207.874 225.713 208.176 225.934 208.518 225.934H220.81C221.564 225.934 221.882 226.895 221.278 227.345L211.3 234.775C211.032 234.974 210.92 235.322 211.021 235.64L214.824 247.636C215.054 248.361 214.22 248.956 213.61 248.501L203.706 241.126C203.428 240.92 203.048 240.92 202.77 241.126L192.866 248.501C192.256 248.956 191.422 248.361 191.652 247.636L195.455 235.64C195.556 235.322 195.444 234.974 195.176 234.775L185.199 227.345C184.594 226.895 184.912 225.934 185.667 225.934H197.959C198.3 225.934 198.602 225.713 198.705 225.387L202.492 213.445Z" fill="#FFB73E"/>
<path d="M161.655 214.062C161.946 213.142 163.248 213.142 163.539 214.062L165.941 221.639C166.072 222.05 166.453 222.329 166.884 222.329H174.708C175.66 222.329 176.062 223.542 175.299 224.11L168.927 228.855C168.589 229.106 168.448 229.545 168.575 229.946L170.999 237.592C171.289 238.507 170.236 239.256 169.466 238.683L163.187 234.008C162.837 233.747 162.357 233.747 162.007 234.008L155.728 238.683C154.958 239.256 153.905 238.507 154.195 237.592L156.619 229.946C156.746 229.545 156.605 229.106 156.267 228.855L149.895 224.11C149.132 223.542 149.534 222.329 150.486 222.329H158.31C158.741 222.329 159.122 222.05 159.252 221.639L161.655 214.062Z" fill="#FFB73E"/>
<path d="M241.852 214.062C242.144 213.142 243.445 213.142 243.736 214.062L246.139 221.639C246.269 222.05 246.65 222.329 247.081 222.329H254.906C255.857 222.329 256.259 223.542 255.496 224.11L249.124 228.855C248.786 229.106 248.645 229.545 248.772 229.946L251.196 237.592C251.486 238.507 250.433 239.256 249.664 238.683L243.384 234.008C243.034 233.747 242.554 233.747 242.204 234.008L235.925 238.683C235.155 239.256 234.102 238.507 234.392 237.592L236.816 229.946C236.944 229.545 236.802 229.106 236.464 228.855L230.093 224.11C229.329 223.542 229.731 222.329 230.683 222.329H238.508C238.938 222.329 239.32 222.05 239.45 221.639L241.852 214.062Z" fill="#FFB73E"/>
</svg>
