<svg width="67" height="67" viewBox="0 0 67 67" fill="none" xmlns="http://www.w3.org/2000/svg">
<path fill-rule="evenodd" clip-rule="evenodd" d="M9.07182 49.7251C8.97697 50.3797 9.24144 51.0347 9.76429 51.4398C10.2871 51.8449 10.9876 51.9375 11.5978 51.6821L21.1773 47.6719C21.7721 47.4229 22.1927 46.8801 22.2852 46.2419L23.0689 40.8361C23.0917 40.8273 23.1144 40.8181 23.1371 40.8086L34.595 36.0122C35.9979 35.4249 36.6591 33.8116 36.0718 32.4087C35.4846 31.0058 33.8712 30.3446 32.4683 30.9319L21.0104 35.7283C20.9872 35.738 20.9642 35.748 20.9414 35.7583L16.5432 32.5249C16.0236 32.1429 15.3418 32.0616 14.747 32.3106L5.16737 36.3208C4.55719 36.5761 4.13167 37.14 4.05337 37.7967C3.97475 38.4533 4.25589 39.1015 4.78859 39.4932L9.99992 43.3243L9.07182 49.7251ZM23.7602 54.2396C24.2381 52.7958 25.7959 52.0126 27.2397 52.4904C30.8899 53.6984 34.8101 53.8332 38.5345 52.8787C42.259 51.9243 45.6312 49.9208 48.2505 47.1062C50.8698 44.2916 52.6262 40.7843 53.3109 37.0009C53.9955 33.2175 53.5798 29.3171 52.1128 25.7633C50.6461 22.2091 48.1898 19.151 45.0361 16.9518C41.8823 14.7526 38.1636 13.5047 34.3215 13.3571C30.4796 13.2091 26.676 14.1672 23.3626 16.1174C20.0488 18.0677 17.365 20.9282 15.6293 24.3589C14.9426 25.716 13.2861 26.2596 11.9291 25.5731C10.572 24.8866 10.0284 23.2298 10.7148 21.8727C12.9266 17.5011 16.3465 13.8563 20.5688 11.371C24.791 8.88613 29.6376 7.66504 34.5333 7.85368C39.429 8.0419 44.1676 9.63193 48.1863 12.434C52.2049 15.2364 55.3348 19.1333 57.2039 23.6618C59.0729 28.1907 59.6027 33.1607 58.7303 37.9817C57.8579 42.8026 55.6199 47.2718 52.2823 50.8582C48.9446 54.4447 44.6476 56.9976 39.9017 58.2138C35.1558 59.43 30.1606 59.2583 25.5094 57.7191C24.0656 57.2413 23.2824 55.6834 23.7602 54.2396ZM30.637 43.9638C30.6611 42.4432 31.9133 41.2299 33.434 41.2539C34.728 41.2744 36.0067 40.972 37.1544 40.3741C38.3022 39.7761 39.2828 38.9015 40.0076 37.8293C40.7323 36.7572 41.1784 35.5212 41.3055 34.2333C41.4326 32.9454 41.2366 31.6461 40.7353 30.453C40.2341 29.2599 39.4433 28.2105 38.4345 27.3998C37.4258 26.5891 36.2309 26.0426 34.9578 25.8097C33.6847 25.5769 32.3738 25.6651 31.1434 26.0663C29.9129 26.4675 28.802 27.169 27.9108 28.1075C26.8636 29.2104 25.1206 29.2555 24.0177 28.2083C22.915 27.1611 22.8698 25.4181 23.917 24.3152C25.4384 22.7129 27.3353 21.5151 29.436 20.8301C31.5368 20.1452 33.7751 19.9947 35.9486 20.3922C38.1221 20.7898 40.1624 21.7227 41.8847 23.1067C43.6069 24.4911 44.9571 26.2827 45.813 28.3198C46.6688 30.3569 47.0033 32.5752 46.7864 34.7741C46.5694 36.973 45.8078 39.0832 44.5703 40.9137C43.3329 42.7443 41.6587 44.2376 39.699 45.2585C37.7394 46.2794 35.5562 46.7957 33.3469 46.7608C31.8263 46.7367 30.613 45.4845 30.637 43.9638Z" fill="#044D57"/>
</svg>
