<svg width="32" height="32" viewBox="0 0 32 32" fill="none" xmlns="http://www.w3.org/2000/svg">
<g id="download (54) 1" clip-path="url(#clip0_440_404)">
<g id="target--shop-bullseye-arrow-target">
<path id="Union" fill-rule="evenodd" clip-rule="evenodd" d="M4.86261 22.5226C4.83388 22.6559 4.84107 22.7944 4.88344 22.924C4.92581 23.0535 5.00184 23.1695 5.10375 23.2601C5.20567 23.3506 5.32981 23.4125 5.46348 23.4393C5.59714 23.4661 5.73553 23.457 5.86449 23.4128L9.98308 22.0026C10.1088 21.9595 10.2211 21.8845 10.3092 21.7849C10.3973 21.6854 10.4582 21.5648 10.4858 21.4348L10.966 19.1952C10.9756 19.192 10.9852 19.1887 10.9948 19.1853L15.9186 17.4995C16.1979 17.3927 16.425 17.1816 16.5518 16.9108C16.6786 16.6399 16.6953 16.3303 16.5985 16.0474C16.5016 15.7644 16.2986 15.5301 16.0324 15.3938C15.7662 15.2575 15.4574 15.2298 15.1712 15.3167L10.2453 16.9997C10.2355 17.0033 10.2256 17.0071 10.2158 17.011L8.46579 15.5349C8.36428 15.4491 8.24228 15.3911 8.11168 15.3665C7.98109 15.3418 7.84633 15.3514 7.72055 15.3944L3.60196 16.8045C3.47262 16.8484 3.35729 16.9259 3.26781 17.0291C3.17834 17.1323 3.11794 17.2574 3.09282 17.3917C3.0677 17.526 3.07877 17.6645 3.12489 17.7931C3.171 17.9216 3.2505 18.0356 3.35523 18.1233L5.42892 19.8693L4.86261 22.5226ZM10.8808 24.8196C10.9962 24.5361 11.2193 24.31 11.5013 24.1911C11.7833 24.0721 12.101 24.07 12.3845 24.1851C13.8777 24.7925 15.5138 24.9585 17.0984 24.6633C18.6831 24.3681 20.1498 23.6242 21.3241 22.52C22.4984 21.4158 23.331 19.9977 23.723 18.4341C24.1151 16.8706 24.05 15.2274 23.5355 13.6997C23.0211 12.1721 22.0789 10.8242 20.8209 9.81635C19.5629 8.80847 18.042 8.1829 16.439 8.014C14.8359 7.8451 13.218 8.13995 11.7776 8.86352C10.3372 9.5871 9.13481 10.709 8.31328 12.0958C8.23597 12.2263 8.13371 12.3403 8.01235 12.4313C7.89099 12.5222 7.7529 12.5884 7.60597 12.626C7.45904 12.6636 7.30615 12.6719 7.15601 12.6504C7.00588 12.6289 6.86145 12.578 6.73097 12.5007C6.60049 12.4234 6.48652 12.3211 6.39556 12.1998C6.3046 12.0784 6.23843 11.9403 6.20084 11.7934C6.16325 11.6465 6.15496 11.4936 6.17645 11.3434C6.19795 11.1933 6.2488 11.0489 6.32612 10.9184C7.3731 9.15146 8.9053 7.72221 10.7407 6.80044C12.5761 5.87868 14.6375 5.50315 16.68 5.71848C18.7225 5.93381 20.6603 6.73094 22.2631 8.01516C23.8659 9.29939 25.0664 11.0167 25.7219 12.9632C26.3774 14.9096 26.4604 17.0033 25.961 18.9955C25.4616 20.9877 24.4009 22.7946 22.9047 24.2017C21.4086 25.6088 19.54 26.5568 17.5209 26.9331C15.5019 27.3094 13.4172 27.0983 11.5146 26.3247C11.2311 26.2094 11.0051 25.9862 10.8861 25.7042C10.7671 25.4222 10.7656 25.1032 10.8808 24.8196ZM14.0435 20.7148C14.0559 20.5637 14.098 20.4165 14.1673 20.2817C14.2367 20.1468 14.3319 20.027 14.4476 19.9289C14.5632 19.8309 14.6971 19.7566 14.8415 19.7103C14.9859 19.664 15.1379 19.6466 15.2891 19.6591C15.8295 19.7034 16.3724 19.6123 16.8687 19.394C17.3651 19.1758 17.7992 18.8373 18.1319 18.4092C18.4646 17.981 18.6853 17.4767 18.7742 16.9418C18.8631 16.407 18.8172 15.8584 18.6409 15.3457C18.4645 14.8329 18.1631 14.3722 17.764 14.0052C17.3649 13.6382 16.8806 13.3765 16.3549 13.2436C15.8292 13.1107 15.2787 13.111 14.7532 13.2443C14.2276 13.3776 13.7435 13.6398 13.3447 14.0071C13.2332 14.1098 13.1025 14.1895 12.9602 14.2417C12.8179 14.2939 12.6666 14.3176 12.5152 14.3113C12.3637 14.3051 12.2149 14.269 12.0774 14.2053C11.9398 14.1416 11.8162 14.0514 11.7135 13.9398C11.6108 13.8283 11.5311 13.6977 11.4789 13.5553C11.4267 13.413 11.4031 13.2618 11.4093 13.1103C11.4156 12.9588 11.4516 12.8101 11.5153 12.6725C11.5791 12.535 11.6693 12.4113 11.7808 12.3086C12.4619 11.6813 13.2886 11.2337 14.1861 11.0061C15.0837 10.7786 16.0238 10.7783 16.9215 11.0054C17.8192 11.2324 18.6461 11.6796 19.3275 12.3065C20.009 12.9335 20.5234 13.7203 20.8244 14.596C21.1254 15.4717 21.2033 16.4085 21.0513 17.3219C20.8992 18.2353 20.5219 19.0964 19.9535 19.8273C19.3851 20.5582 18.6434 21.136 17.7956 21.5083C16.9478 21.8806 16.0206 22.0358 15.0978 21.9597C14.793 21.9343 14.5107 21.7888 14.313 21.5554C14.1154 21.322 14.0184 21.0197 14.0435 20.7148Z" fill="#0B434B"/>
</g>
</g>
<defs>
<clipPath id="clip0_440_404">
<rect width="23.2052" height="23.2052" fill="white" transform="translate(20.8594 31.9316) rotate(-153.9)"/>
</clipPath>
</defs>
</svg>
