<svg width="74" height="73" viewBox="0 0 74 73" fill="none" xmlns="http://www.w3.org/2000/svg">
<g id="Group 40813">
<circle id="Ellipse 203" cx="37.0323" cy="36.4366" r="36.4366" fill="#EE9B4E" fill-opacity="0.23"/>
<g id="hourglass--hourglass-loading-measure-clock-time">
<path id="Union" fill-rule="evenodd" clip-rule="evenodd" d="M24.1077 20C23.1313 20 22.3398 20.7915 22.3398 21.7679C22.3398 22.7442 23.1313 23.5357 24.1077 23.5357H27.6436V28.7356C27.6436 31.956 29.2582 34.7993 31.722 36.5001C29.2583 38.201 27.6438 41.0442 27.6438 44.2644V49.4643H24.1099C23.1335 49.4643 22.342 50.2558 22.342 51.2321C22.342 52.2085 23.1335 53 24.1099 53H50.0384C51.0147 53 51.8062 52.2085 51.8062 51.2321C51.8062 50.2558 51.0147 49.4643 50.0384 49.4643H46.5005V44.2644C46.5005 41.0441 44.8859 38.2009 42.4222 36.5C44.8859 34.7991 46.5003 31.9559 46.5003 28.7356V23.5357H50.0363C51.0126 23.5357 51.8041 22.7442 51.8041 21.7679C51.8041 20.7915 51.0126 20 50.0363 20H24.1077Z" fill="#0C434B"/>
</g>
</g>
</svg>
