<svg width="94" height="180" viewBox="0 0 94 180" fill="none" xmlns="http://www.w3.org/2000/svg">
<circle cx="47" cy="133" r="47" fill="#259D4A" fill-opacity="0.16"/>
<path d="M41.769 136.911C19.656 136.911 4.914 124.626 4.914 102.786H19.929C20.475 114.525 28.938 122.442 41.3595 122.442C51.87 122.442 62.3805 115.89 62.3805 102.376C62.3805 89.955 53.235 81.765 39.4485 81.765C31.668 81.765 24.4335 85.86 21.1575 92.139L6.279 90.228L12.285 41.361H73.437V55.83H25.662L23.3415 74.121C28.8015 70.026 36.855 67.296 43.407 67.296C64.5645 67.296 78.624 81.219 78.624 102.24C78.624 122.988 63.882 136.911 41.769 136.911Z" fill="#0B434B"/>
</svg>
