<svg width="94" height="180" viewBox="0 0 94 180" fill="none" xmlns="http://www.w3.org/2000/svg">
<circle cx="47" cy="133" r="47" fill="#259D4A" fill-opacity="0.16"/>
<path d="M40.8135 136.911C19.2465 136.911 4.914 125.035 4.914 107.29H20.6115C20.6115 116.436 28.665 122.442 40.8135 122.442C53.9175 122.442 62.6535 116.572 62.6535 107.836C62.6535 99.1005 53.9175 93.231 40.8135 93.231H32.0775V78.762H40.8135C52.143 78.762 59.787 73.848 59.787 66.477C59.787 58.9695 52.143 53.919 40.8135 53.919C29.8935 53.919 22.659 60.8805 22.659 71.391H7.2345C7.2345 52.281 20.6115 39.45 40.8135 39.45C61.971 39.45 76.0305 49.4145 76.0305 64.4295C76.0305 72.21 70.434 80.673 62.1075 85.4505C72.072 89.682 78.624 99.3735 78.624 109.611C78.624 125.991 63.4725 136.911 40.8135 136.911Z" fill="#0B434B"/>
</svg>
