<svg width="112" height="112" viewBox="0 0 112 112" fill="none" xmlns="http://www.w3.org/2000/svg">
<circle cx="55.5511" cy="55.5511" r="55.5511" fill="#259D4A"/>
<path d="M48.9641 66.8203H26.5913C26.0225 66.8203 25.5801 67.2627 25.5801 67.8315V71.6867C25.5801 72.2555 26.0225 72.6979 26.5913 72.6979H53.0089V68.3371L50.4177 67.5787C49.8489 67.3891 49.4065 67.1363 48.9641 66.8203Z" fill="white"/>
<path d="M64.8905 54.433C65.4593 54.2434 66.0281 54.117 66.6601 54.0538V45.585H60.8457V55.6338L64.8905 54.433Z" fill="white"/>
<path d="M56.4843 56.961V45.585H50.6699V58.6674L56.4843 56.961Z" fill="white"/>
<path d="M46.3095 45.585H40.4951V64.2922H46.3095V45.585Z" fill="white"/>
<path d="M36.0712 45.585H30.2568V64.2922H36.0712V45.585Z" fill="white"/>
<path d="M26.591 43.0571H70.3886C70.9574 43.0571 71.3998 42.6147 71.3998 42.0459V37.8115C71.3998 37.4323 71.2102 37.1163 70.831 36.9267L48.9006 26.1827C48.6478 26.0563 48.3318 26.0563 48.0158 26.1827L26.0854 36.9267C25.7694 37.1163 25.5166 37.4323 25.5166 37.8115V42.0459C25.5798 42.6147 26.0222 43.0571 26.591 43.0571ZM48.4582 31.8707C50.2278 31.8707 51.6182 33.2611 51.6182 35.0307C51.6182 36.8003 50.2278 38.1907 48.4582 38.1907C46.6886 38.1907 45.2982 36.8003 45.2982 35.0307C45.2982 33.2611 46.6886 31.8707 48.4582 31.8707Z" fill="white"/>
<path d="M68.1135 71.9398C67.1023 71.9398 66.0279 71.8134 65.0799 71.4974L56.5479 68.9694V74.7838C56.5479 75.8582 57.2431 76.8062 58.2543 77.059L61.9831 78.1334C66.0911 79.3342 70.4519 79.3342 74.5599 78.1334L78.2887 77.059C79.2999 76.743 79.995 75.8582 79.995 74.7838V68.9062L71.147 71.5606C70.199 71.8134 69.1879 71.9398 68.1135 71.9398Z" fill="white"/>
<path d="M84.8614 62.1431L70.3886 57.8455C68.935 57.4031 67.4182 57.4031 65.9646 57.8455L51.4918 62.1431C50.4806 62.4591 50.4806 63.8495 51.4918 64.1655L65.9646 68.4631C67.4182 68.9055 68.935 68.9055 70.3886 68.4631L82.7758 64.7975V68.0839C82.523 68.2103 82.3334 68.4631 82.3334 68.7791V69.6639C82.3334 69.9799 82.523 70.2959 82.839 70.4223L82.0806 72.1919C81.9542 72.4447 82.1438 72.6975 82.3966 72.7607L83.2182 72.8239C83.4078 72.8239 83.5342 72.8239 83.7238 72.8239L84.5454 72.7607C84.7982 72.7607 84.9878 72.4447 84.8614 72.1919L84.103 70.3591C84.3558 70.2327 84.6086 69.9167 84.6086 69.6007V68.7159C84.6086 68.3999 84.419 68.1471 84.1662 68.0207V64.3551L84.9878 64.1023C85.8726 63.8495 85.8726 62.4591 84.8614 62.1431Z" fill="white"/>
</svg>
