<svg width="316" height="316" viewBox="0 0 316 316" fill="none" xmlns="http://www.w3.org/2000/svg">
<circle cx="158" cy="158" r="158" fill="white"/>
<path fill-rule="evenodd" clip-rule="evenodd" d="M85.3935 185.701V74.6367H66.8828V185.701C66.8828 236.249 107.86 277.226 158.408 277.226C208.956 277.226 249.933 236.249 249.933 185.701V152.793H231.422V185.701C231.422 226.025 198.732 258.715 158.408 258.715C118.083 258.715 85.3935 226.025 85.3935 185.701ZM106.988 74.6367H248.903V130.169H106.988V74.6367ZM125.498 93.1463H248.903V113.714H125.498V93.1463ZM126.509 152.797V185.705C126.509 203.311 140.782 217.584 158.388 217.584C175.995 217.584 190.268 203.311 190.268 185.705V152.797H208.779V185.705C208.779 213.535 186.218 236.095 158.388 236.095C130.559 236.095 107.998 213.535 107.998 185.705V152.797H126.509ZM148.119 152.795H168.686V193.655L158.409 186.733L148.119 193.664V152.795Z" fill="#259D4A"/>
</svg>
