<svg width="297" height="269" viewBox="0 0 297 269" fill="none" xmlns="http://www.w3.org/2000/svg">
<path d="M294.148 0.0366521L229.521 5.50113C228.096 5.73872 227.383 7.40191 228.571 8.3523L244.965 23.7964L241.401 27.598L239.025 29.9739L226.67 42.8042C221.918 47.7938 217.166 52.7833 212.652 57.7726C209.326 61.3366 205.999 64.9005 202.673 68.7021C194.832 77.4935 186.754 86.2843 179.151 95.0751L167.747 108.618C166.796 109.806 165.846 110.994 164.658 112.182L160.619 109.806L97.415 74.1668L87.4359 68.4645L80.308 76.3055L71.2793 86.0473L3.29039 160.154C1.459 162.15 1.55045 165.242 3.49661 167.126L11.4998 174.875C13.4348 176.749 16.5061 176.753 18.4462 174.885L91.95 104.104L136.856 133.328L159.903 148.296L168.219 153.761L170.12 154.949L181.049 145.445C185.564 141.643 189.841 137.604 194.117 133.565L206.947 121.448C215.501 113.369 223.816 104.816 232.133 96.4996C240.449 88.1835 248.527 79.6305 256.605 71.077L268.722 58.2467L270.385 56.5835L274.662 51.8316L290.343 66.5626C291.294 67.513 293.194 66.8002 293.194 65.3746L296.521 1.93743C296.046 0.749445 295.333 -0.200945 294.145 0.0366521H294.148Z" fill="#259D4A"/>
<path d="M15.2017 263.533C15.2017 266.622 17.5777 268.998 20.6662 268.998H59.157C62.2458 268.998 64.6215 266.622 64.6215 263.533V151.148L15.2012 199.143L15.2017 263.533Z" fill="#044D57"/>
<path d="M84.1074 132.613V263.528C84.1074 266.617 86.4834 268.993 89.5719 268.993H128.063C131.151 268.993 133.527 266.617 133.527 263.528V149.481L93.6108 123.346L84.1074 132.613Z" fill="#044D57"/>
<path d="M171.551 173.952L152.781 161.835V263.527C152.781 266.616 155.157 268.991 158.246 268.991H196.737C199.825 268.991 202.201 266.615 202.201 263.527V146.629C198.399 149.955 194.598 153.52 190.796 157.083L171.551 173.952Z" fill="#044D57"/>
<path d="M242.822 107.195C235.219 115.036 228.329 121.926 221.676 128.341V263.536C221.676 266.624 224.052 269 227.14 269H265.631C268.72 269 271.096 266.624 271.096 263.536V77.498L267.294 81.5372C259.691 89.6155 251.375 98.4064 242.822 107.198L242.822 107.195Z" fill="#044D57"/>
</svg>
