<svg width="158" height="29" viewBox="0 0 158 29" fill="none" xmlns="http://www.w3.org/2000/svg">
<path d="M38.6846 20L33.5916 7.61073H35.3254L39.5154 18.1398L43.7053 7.61073H45.4391L40.3461 20H38.6846ZM48.8883 20.1806C46.1612 20.1806 44.3552 18.3023 44.3552 15.485C44.3552 12.6676 46.1612 10.7893 48.8883 10.7893C51.6154 10.7893 53.4214 12.7218 53.4214 15.6294L53.2769 15.7739H45.8181C45.8903 17.6522 47.1184 18.9164 48.8883 18.9164C50.2248 18.9164 51.3806 18.1217 51.7779 16.9298H53.2228C52.6448 18.8803 50.9111 20.1806 48.8883 20.1806ZM45.8903 14.5097H51.8863C51.5432 12.9385 50.4596 12.0535 48.8883 12.0535C47.3171 12.0535 46.2335 12.9385 45.8903 14.5097ZM55.1591 20V10.9699H56.604V12.2161C57.3444 11.2408 58.1752 10.7893 59.1866 10.7893C59.4575 10.7893 59.7464 10.8616 59.927 10.9699V12.0535H59.313C57.6876 12.0535 56.604 13.1191 56.604 14.7264V20H55.1591ZM61.3673 9.59735V7.61073H62.8121V9.59735H61.3673ZM61.3673 20V10.9699H62.8121V20H61.3673ZM72.1708 10.9699V20H70.726V12.2341H67.3307V20H65.8859V12.2341H64.4411V10.9699H65.8859V9.95855C65.8859 8.4415 66.8792 7.43013 68.3782 7.43013C68.613 7.43013 68.9019 7.50237 69.1006 7.61073V8.74852H68.4866C67.8003 8.74852 67.3307 9.23615 67.3307 9.95855V10.9699H72.1708ZM70.726 7.61073H72.1708V9.59735H70.726V7.61073ZM78.4301 20.1806C75.703 20.1806 73.897 18.3023 73.897 15.485C73.897 12.6676 75.703 10.7893 78.4301 10.7893C81.1572 10.7893 82.9632 12.7218 82.9632 15.6294L82.8187 15.7739H75.3599C75.4321 17.6522 76.6602 18.9164 78.4301 18.9164C79.7665 18.9164 80.9224 18.1217 81.3197 16.9298H82.7645C82.1866 18.8803 80.4528 20.1806 78.4301 20.1806ZM75.4321 14.5097H81.4281C81.0849 12.9385 80.0013 12.0535 78.4301 12.0535C76.8588 12.0535 75.7752 12.9385 75.4321 14.5097ZM88.7464 20.1806C86.0554 20.1806 84.2675 18.3023 84.2675 15.485C84.2675 12.6676 86.0554 10.7893 88.7464 10.7893C90.0106 10.7893 91.329 11.4756 92.0333 12.505V7.61073H93.4781V20H92.0333V18.4649C91.329 19.4943 90.0106 20.1806 88.7464 20.1806ZM88.8909 18.9164C90.7691 18.9164 92.0333 17.5438 92.0333 15.485C92.0333 13.4261 90.7691 12.0535 88.8909 12.0535C86.9765 12.0535 85.7123 13.4261 85.7123 15.485C85.7123 17.5438 86.9765 18.9164 88.8909 18.9164ZM100.137 20V7.61073H105.501C107.687 7.61073 109.131 8.91106 109.131 10.8435C109.131 12.5412 107.976 13.8234 106.224 14.0401L109.926 20H108.012L104.327 14.0763H101.763V20H100.137ZM101.763 12.6315H105.501C106.711 12.6315 107.506 11.909 107.506 10.8435C107.506 9.77795 106.711 9.05554 105.501 9.05554H101.763V12.6315ZM115.044 20.1806C112.317 20.1806 110.511 18.3023 110.511 15.485C110.511 12.6676 112.317 10.7893 115.044 10.7893C117.771 10.7893 119.577 12.7218 119.577 15.6294L119.433 15.7739H111.974C112.046 17.6522 113.274 18.9164 115.044 18.9164C116.381 18.9164 117.537 18.1217 117.934 16.9298H119.379C118.801 18.8803 117.067 20.1806 115.044 20.1806ZM112.046 14.5097H118.042C117.699 12.9385 116.615 12.0535 115.044 12.0535C113.473 12.0535 112.389 12.9385 112.046 14.5097ZM123.73 20L120.118 10.9699H121.671L124.398 18.3926L127.144 10.9699H128.697L125.085 20H123.73ZM130.045 9.59735V7.61073H131.49V9.59735H130.045ZM130.045 20V10.9699H131.49V20H130.045ZM137.761 20.1806C135.033 20.1806 133.227 18.3023 133.227 15.485C133.227 12.6676 135.033 10.7893 137.761 10.7893C140.488 10.7893 142.294 12.7218 142.294 15.6294L142.149 15.7739H134.69C134.763 17.6522 135.991 18.9164 137.761 18.9164C139.097 18.9164 140.253 18.1217 140.65 16.9298H142.095C141.517 18.8803 139.783 20.1806 137.761 20.1806ZM134.763 14.5097H140.759C140.415 12.9385 139.332 12.0535 137.761 12.0535C136.189 12.0535 135.106 12.9385 134.763 14.5097ZM145.941 20L142.834 10.9699H144.351L146.645 18.3565L148.668 10.9699H149.986L151.991 18.3565L154.285 10.9699H155.802L152.695 20H151.214L149.318 12.9746L147.422 20H145.941Z" fill="#1F5E67" fill-opacity="0.81"/>
<g clip-path="url(#clip0_646_23)">
<path fill-rule="evenodd" clip-rule="evenodd" d="M14.24 28.183C21.9405 28.183 28.183 21.9405 28.183 14.24C28.183 6.53941 21.9405 0.296875 14.24 0.296875C6.53941 0.296875 0.296875 6.53941 0.296875 14.24C0.296875 21.9405 6.53941 28.183 14.24 28.183ZM21.2171 10.6915C21.7324 10.0472 21.628 9.10713 20.9836 8.59171C20.3395 8.0763 19.3993 8.18075 18.8839 8.82502L11.821 17.6537L8.99558 15.5347C8.33554 15.0396 7.39916 15.1734 6.90412 15.8335C6.4091 16.4935 6.54286 17.4299 7.2029 17.9249L11.1866 20.9127C11.8322 21.3969 12.7455 21.2808 13.2495 20.6508L21.2171 10.6915Z" fill="#06C168"/>
</g>
<defs>
<clipPath id="clip0_646_23">
<rect width="28.4795" height="28.4795" fill="white"/>
</clipPath>
</defs>
</svg>
