<svg width="224" height="9" viewBox="0 0 224 9" fill="none" xmlns="http://www.w3.org/2000/svg">
<path fill-rule="evenodd" clip-rule="evenodd" d="M0 4.48926V1.78516C1.3396 1.4707 2.71558 1.17578 4.15271 0.913086C5.65076 0.652344 7.14893 0.391602 8.83435 0.260742L9.31836 0.222656C10.8112 0.106445 12.1807 0 13.7031 0C15.3885 0 17.0739 0 18.572 0.130859C18.9882 0.166992 19.3899 0.198242 19.7811 0.228516C20.7983 0.307617 21.7451 0.380859 22.6918 0.521484C26.0625 0.913086 29.246 1.49902 32.4294 2.08594C35.2384 2.60742 38.0474 3.06348 40.8563 3.51953C43.6653 3.91113 46.6615 4.2373 49.6577 4.49805C53.0284 4.75879 56.2119 4.9541 59.5826 5.14941C62.2043 5.2793 64.826 5.34473 67.4478 5.34473C68.2134 5.32227 69.0007 5.30762 69.795 5.29297C71.332 5.26465 72.895 5.23535 74.3765 5.14941C76.8109 5.01855 79.0581 4.88867 81.4926 4.62793L82.507 4.5127C83.908 4.35352 85.3823 4.18555 86.7358 3.97656C89.7321 3.51953 92.3538 3.06348 95.1627 2.54199C96.3588 2.33398 97.5018 2.12598 98.6483 1.91797C99.6558 1.73535 100.666 1.55176 101.717 1.36914L101.767 1.36035C102.874 1.16797 103.981 0.975586 105.088 0.847656L107.335 0.652344C107.709 0.586914 108.271 0.586914 108.833 0.586914C109.305 0.620117 109.73 0.636719 110.155 0.65332C110.572 0.668945 110.99 0.68457 111.455 0.716797C112.391 0.782227 113.327 0.847656 114.076 0.977539L114.117 0.983398C115.414 1.17773 116.71 1.37207 117.822 1.62988L122.316 2.60742C123.627 2.93359 124.75 3.19434 126.061 3.45508C128.87 3.97656 131.679 4.49805 134.488 4.9541C136.173 5.21484 137.859 5.41016 139.544 5.60547C141.229 5.80078 142.915 5.93164 144.6 5.99707C145.911 5.99707 147.035 6.06152 148.346 6.06152C149.087 6.06152 149.829 6.06152 150.57 6.0498C151.14 6.04102 151.709 6.02539 152.278 5.99707C153.776 5.93164 155.274 5.80078 156.772 5.6709C158.083 5.54004 159.207 5.41016 160.518 5.21484C161.454 5.08398 162.203 4.9541 163.139 4.82324C163.812 4.77734 164.387 4.66309 164.936 4.55469C165.151 4.51172 165.362 4.46973 165.574 4.43262C169.506 3.71582 173.626 3.19434 177.933 2.80273C181.866 2.47656 185.985 2.21582 190.105 2.08594C191.487 2.05176 192.817 1.99902 194.122 1.94727C195.293 1.90137 196.444 1.85645 197.596 1.8252C198.54 1.79199 199.436 1.77539 200.332 1.75879C201.215 1.74316 202.098 1.72754 203.026 1.69531C204.899 1.62988 206.772 1.56445 208.832 1.36914C212.577 1.30371 216.51 1.17383 220.442 1.17383C222.315 1.17383 224 1.75977 224 2.41211C224 3.06348 222.502 3.65039 220.442 3.65039C215.386 3.58496 210.142 3.71582 205.086 3.8457C202.652 3.91113 200.03 3.97656 197.596 4.04102C194.6 4.17188 191.603 4.2373 188.794 4.36719C183.364 4.62793 178.12 5.01855 173.064 5.73633C172.128 5.93164 171.004 6.06152 170.068 6.25781C169.694 6.32227 169.366 6.3877 169.038 6.45215C168.711 6.51758 168.383 6.58301 168.008 6.64844C167.446 6.74609 166.931 6.82812 166.416 6.91016C165.901 6.99121 165.386 7.07227 164.825 7.16992C162.39 7.56055 159.769 7.95215 157.147 8.14746C154.151 8.4082 150.967 8.53906 147.784 8.47363C144.226 8.4082 140.668 8.21289 137.297 7.82129C134.301 7.43066 131.305 7.04004 128.496 6.51855C125.687 5.99707 122.878 5.47559 120.256 4.82324C119.523 4.65918 118.804 4.49023 118.088 4.32129C116.243 3.8877 114.414 3.45703 112.391 3.12891C111.455 2.99805 110.706 2.93359 109.769 2.86816H108.646C108.365 2.90039 108.037 2.93262 107.71 2.96484C107.382 2.99805 107.054 3.03027 106.773 3.06348C104.851 3.37793 102.998 3.7168 101.172 4.05078C99.9724 4.26953 98.7848 4.48633 97.5972 4.69336C96.9323 4.80859 96.2794 4.92383 95.6324 5.03809C93.7285 5.37598 91.8761 5.70508 89.9193 5.99707C85.7996 6.58301 81.4926 7.04004 77.1854 7.23535C74.751 7.36523 72.3167 7.49609 69.8822 7.49609C67.4478 7.49609 64.826 7.49609 62.3916 7.36523C57.5228 7.16992 52.6539 6.90918 47.785 6.45312C45.538 6.25781 43.2908 6.06152 41.0436 5.73633L34.8639 4.75879C33.7404 4.5625 32.6167 4.36719 31.6804 4.17188C30.5569 3.97656 29.6205 3.78027 28.4969 3.58496C27.6545 3.45508 26.7654 3.30859 25.8761 3.16211C24.9863 3.01465 24.0966 2.86816 23.2535 2.7373C21.1937 2.47656 19.1338 2.28125 16.8866 2.15137C16.1376 2.08594 15.5758 2.08594 15.0139 2.08594C14.6394 2.08594 14.3118 2.10254 13.984 2.11816C13.6562 2.13477 13.3286 2.15137 12.9541 2.15137C11.4559 2.21582 10.1451 2.34668 8.83435 2.54199C6.02539 2.99805 3.59094 3.51953 1.15649 4.17188C0.770996 4.28418 0.385498 4.3877 0 4.48926Z" fill="#EE9B4E"/>
</svg>
