<svg width="304" height="15" viewBox="0 0 304 15" fill="none" xmlns="http://www.w3.org/2000/svg">
<path d="M291.274 2.16189C290.137 2.2274 289.115 2.2274 287.978 2.29291C286.501 2.35842 285.024 2.48944 283.433 2.55496C280.933 2.68598 278.433 2.94803 276.047 3.27559C273.434 3.66866 270.934 4.19275 268.548 4.91338C268.093 5.0444 267.639 5.24094 267.071 5.30645C266.502 5.43747 266.048 5.5685 265.48 5.69952C264.684 5.89605 264.003 6.02708 263.207 6.1581C262.298 6.28912 261.389 6.42015 260.48 6.48566C259.685 6.55117 258.889 6.55117 258.094 6.55117C257.299 6.55117 256.617 6.48566 255.821 6.48566C254.799 6.42015 253.776 6.28912 252.753 6.09259C251.731 5.89605 250.708 5.69952 249.685 5.43747C247.981 4.97889 246.276 4.4548 244.572 3.9307C243.777 3.66866 243.095 3.40661 242.299 3.07905C241.39 2.75149 240.481 2.42393 239.572 2.09637C238.891 1.83433 238.095 1.63779 237.3 1.44126C236.845 1.31023 236.277 1.24472 235.709 1.17921C235.141 1.1137 234.686 1.1137 234.118 1.04819C233.777 1.04819 233.436 1.04819 233.209 1.1137C232.755 1.17921 232.3 1.24472 231.846 1.31023C231.164 1.44126 230.482 1.63779 229.8 1.83433C228.437 2.2274 227.187 2.62047 225.823 3.01354C224.119 3.53763 222.528 3.99621 220.71 4.4548C219.687 4.71684 218.551 4.91338 217.528 5.10991C216.051 5.37196 214.688 5.50298 213.21 5.63401C211.847 5.76503 210.37 5.76503 209.006 5.83054C207.415 5.83054 205.825 5.76503 204.234 5.63401C202.188 5.43747 200.257 5.24094 198.211 4.97889C196.393 4.71684 194.575 4.38928 192.871 3.99621C191.166 3.53763 189.462 3.07905 187.758 2.55496C185.826 1.96535 183.894 1.37575 181.849 0.982676C181.053 0.786141 180.258 0.720629 179.349 0.589605C178.44 0.458582 177.417 0.458582 176.395 0.458582C175.372 0.458582 174.463 0.589605 173.44 0.720629C172.418 0.851652 171.509 1.1137 170.6 1.37575C168.441 2.03086 166.509 2.88252 164.577 3.73417C163.441 4.25826 162.305 4.78235 161.168 5.30645C160.259 5.69952 159.237 6.1581 158.214 6.55117C157.191 6.94424 156.055 7.2718 154.919 7.59936C154.351 7.73038 153.896 7.8614 153.328 7.92692C152.646 8.05794 151.851 8.12345 151.169 8.18896C150.828 8.18896 150.601 8.18896 150.26 8.18896C150.033 8.18896 149.806 8.18896 149.578 8.18896C149.01 8.12345 148.442 7.99243 147.874 7.86141C145.829 7.2718 143.897 6.55117 142.079 5.76503C141.17 5.37196 140.374 4.97889 139.579 4.52031C139.011 4.19275 138.443 3.9307 137.874 3.60314C136.397 2.817 135.034 1.89984 133.443 1.17921C132.761 0.917164 132.079 0.655117 131.284 0.39307C130.829 0.262047 130.375 0.196535 129.92 0.131023C129.807 0.131023 129.58 0.0655117 129.466 0.0655117C129.125 0.0655117 128.784 0 128.557 0C128.443 0 128.216 0 128.102 0H127.989C127.762 0 127.421 0 127.193 0.0655117C126.625 0.131023 126.171 0.196535 125.603 0.262047C124.58 0.458582 123.557 0.655117 122.535 0.917164C121.739 1.1137 120.944 1.31023 120.148 1.57228C119.58 1.7033 119.012 1.89984 118.444 2.03086C117.535 2.29291 116.74 2.55496 115.83 2.817C115.376 2.94803 114.921 3.07905 114.581 3.21007C113.785 3.47212 112.99 3.79968 112.308 4.06173C111.74 4.25826 111.172 4.4548 110.604 4.71684C109.126 5.24094 107.763 5.83054 106.286 6.35464C103.218 7.53385 100.036 8.71306 96.6272 9.56471C95.8318 9.76124 95.15 9.89227 94.3546 10.0888C93.4456 10.2853 92.4229 10.4164 91.4003 10.4819C90.9457 10.4819 90.6049 10.5474 90.1504 10.5474C89.4686 10.5474 88.9004 10.5474 88.2187 10.4819C87.3096 10.4164 86.4006 10.2853 85.6052 10.0888C84.6962 9.82676 83.7871 9.4992 82.9917 9.17164C81.6282 8.58203 80.4919 7.8614 79.3556 7.14078C78.7875 6.81322 78.2193 6.42015 77.6512 6.09259C76.9694 5.69952 76.174 5.30645 75.4922 4.91338C74.8104 4.58582 74.2423 4.32377 73.4469 4.12724C72.7651 4.25826 72.3106 4.12724 71.8561 4.06173C71.4016 3.99621 70.9471 3.9307 70.4925 3.9307C70.1517 3.9307 69.9244 3.9307 69.5835 3.99621C69.129 4.06173 68.7881 4.12724 68.3336 4.25826C67.9927 4.38928 67.5382 4.52031 67.1973 4.65133C66.8564 4.84787 66.5155 5.0444 66.2883 5.24094C65.7201 5.63401 65.152 6.02708 64.6975 6.42015C64.243 6.74771 63.7884 7.00975 63.4475 7.33731C62.993 7.66487 62.4249 8.05794 61.9704 8.3855C60.9477 9.10613 59.8114 9.69573 58.5615 10.2853C57.6525 10.6784 56.6298 11.006 55.6072 11.3335C54.5845 11.5301 53.6755 11.6611 52.6528 11.7921C51.1756 11.8576 49.8121 11.8576 48.3349 11.7921C46.0623 11.5956 43.9034 11.2025 41.7444 10.6784C39.8127 10.1543 37.9947 9.63022 36.1766 8.9751C35.2676 8.64755 34.3585 8.31999 33.4495 7.92692C32.5405 7.59936 31.6315 7.20629 30.7224 6.87873C29.8134 6.48566 28.9044 6.1581 27.9953 5.83054C27.0863 5.50298 26.0636 5.17543 25.041 4.91338C23.1093 4.38928 21.064 4.06173 19.0186 4.12724C18.5641 4.12724 17.996 4.19275 17.5415 4.19275C16.9733 4.25826 16.5188 4.32377 16.0643 4.38928C15.6098 4.4548 15.1553 4.58582 14.8144 4.65133C14.3599 4.78235 13.9053 4.91338 13.4508 4.97889C11.0646 5.43747 9.13293 6.09259 7.31486 6.81322C5.72406 7.46833 4.13325 8.18896 2.76971 9.04062C2.08793 9.43369 1.51979 9.82676 0.951642 10.2198C0.724384 10.4164 0.497127 10.6129 0.383498 10.8749C0.383498 10.9405 0.269869 11.0715 0.269869 11.137C0.15624 11.3335 0.15624 11.5301 0.0426108 11.7266C-0.0710181 11.9886 0.0426108 12.2507 0.383498 12.4472C0.724384 12.5782 1.1789 12.6438 1.63342 12.5782C1.9743 12.5127 2.20156 12.4472 2.54245 12.4472C2.99696 12.3817 3.33785 12.2507 3.79237 12.1197C4.36051 11.9231 4.58777 11.4645 4.24688 11.137C4.01962 10.9405 3.79237 10.8749 3.45148 10.8094C4.58777 10.0888 5.83769 9.43369 7.0876 8.77857C9.24655 7.8614 11.5191 7.14078 13.9053 6.48566C14.4735 6.35464 15.0416 6.22361 15.6098 6.09259C16.2915 6.02708 17.087 5.89605 17.7687 5.83054C18.4505 5.76503 19.0186 5.76503 19.7004 5.83054C20.1549 5.89605 20.4958 5.89605 20.9503 5.96157C21.6321 6.09259 22.2003 6.22361 22.7684 6.35464C23.9047 6.68219 25.041 7.00975 26.0636 7.40282C27.3136 7.86141 28.4498 8.3855 29.6998 8.90959C30.8361 9.36817 32.086 9.89227 33.3359 10.3509C34.5858 10.8094 35.8357 11.268 37.0856 11.6611C39.5855 12.4472 42.1989 13.1023 44.8124 13.5609C47.5395 14.0195 50.4939 14.216 53.4482 13.954C54.8118 13.823 56.0617 13.6264 57.3116 13.3644C58.5615 13.0368 59.6978 12.7093 60.7205 12.2507C61.8567 11.7921 62.8794 11.2025 63.9021 10.6129C64.4702 10.2853 64.9247 9.95778 65.3792 9.63022C66.061 9.10613 66.7428 8.64755 67.4246 8.12345C68.22 7.53385 69.0154 6.87873 70.038 6.28912C70.1517 6.28912 70.1517 6.22361 70.2653 6.22361C70.3789 6.22361 70.4925 6.1581 70.6062 6.1581H70.7198C70.9471 6.1581 71.0607 6.22361 71.2879 6.22361C71.7425 6.35464 72.197 6.48566 72.6515 6.68219C73.9014 7.20629 74.9241 7.86141 75.9467 8.51652C77.3103 9.30266 78.6738 10.1543 80.151 10.8749C80.8328 11.2025 81.5145 11.4646 82.1963 11.7266C82.9917 12.0542 83.9008 12.2507 84.8098 12.4472C85.6052 12.6438 86.5142 12.7093 87.4233 12.8403C88.4459 12.9058 89.5822 12.9713 90.6049 12.9058C91.5139 12.9058 92.4229 12.7748 93.2183 12.7093C94.241 12.5782 95.2636 12.3817 96.2863 12.1852C98.218 11.7921 100.036 11.268 101.74 10.7439C104.354 9.95778 106.74 8.9751 109.126 8.05794C110.263 7.59936 111.399 7.14078 112.649 6.68219C114.012 6.1581 115.376 5.69952 116.74 5.17542C116.853 5.10991 117.08 5.0444 117.194 5.0444C117.649 4.91338 118.103 4.78235 118.558 4.58582C119.239 4.38928 119.921 4.12724 120.717 3.9307C120.83 3.86519 121.057 3.86519 121.171 3.79968C121.626 3.66866 122.194 3.53763 122.648 3.40661C123.444 3.21007 124.353 2.94803 125.148 2.75149C125.943 2.55496 126.852 2.42393 127.762 2.29291C127.989 2.29291 128.102 2.29291 128.33 2.29291C128.443 2.29291 128.671 2.29291 128.784 2.29291C129.125 2.35842 129.466 2.42393 129.92 2.48944C130.489 2.68598 131.057 2.88251 131.625 3.14456C133.329 3.99621 134.807 4.91338 136.397 5.76503C137.42 6.28912 138.443 6.81322 139.465 7.33731C140.488 7.79589 141.511 8.18896 142.533 8.64755C143.67 9.10613 144.806 9.43369 145.942 9.82676C146.965 10.1543 148.215 10.3509 149.351 10.4819C149.919 10.5474 150.374 10.5474 150.942 10.4819C151.624 10.4819 152.305 10.4164 152.987 10.2853C154.123 10.1543 155.26 9.95778 156.282 9.69573C157.532 9.36817 158.669 9.04062 159.805 8.64755C161.396 8.05794 162.759 7.40282 164.236 6.74771C165.032 6.35464 165.941 5.96157 166.736 5.5685C167.418 5.24094 168.1 4.97889 168.782 4.65133C170.259 3.99621 171.736 3.47212 173.44 3.01354C174.236 2.817 175.031 2.68598 175.94 2.62047C176.395 2.62047 176.736 2.55496 177.19 2.55496C177.531 2.55496 177.872 2.55496 178.326 2.62047C179.69 2.75149 180.94 2.94803 182.19 3.21007C183.212 3.47212 184.349 3.79968 185.371 4.06173C186.053 4.25826 186.621 4.4548 187.303 4.65133C187.871 4.84787 188.553 5.0444 189.235 5.24094C190.485 5.5685 191.735 5.89605 192.985 6.22361C194.348 6.55117 195.712 6.74771 197.075 6.94424C200.03 7.40282 202.984 7.66487 205.938 7.86141C207.415 7.99243 209.006 7.99243 210.483 7.99243C211.961 7.99243 213.438 7.86141 214.915 7.73038C217.528 7.53385 220.142 7.07526 222.642 6.48566C224.232 6.09259 225.71 5.63401 227.3 5.17542C229.119 4.65133 230.937 4.06173 232.868 3.53763C233.209 3.47212 233.664 3.40661 234.005 3.3411C234.232 3.3411 234.459 3.3411 234.686 3.3411C235.254 3.40661 235.709 3.47212 236.277 3.60314C237.982 4.06173 239.459 4.71684 241.05 5.30645C242.64 5.96157 244.345 6.48566 246.049 7.00975C247.754 7.53385 249.572 7.92692 251.39 8.31999C253.435 8.71306 255.594 8.90959 257.753 8.9751C259.685 9.04062 261.616 8.90959 263.434 8.64755C265.025 8.45101 266.616 8.05794 268.093 7.66487C268.775 7.46833 269.343 7.33731 270.025 7.14078C270.479 7.00975 270.82 6.87873 271.275 6.74771C271.843 6.55117 272.525 6.42015 273.093 6.22361C276.161 5.50298 279.342 5.10991 282.638 4.84787C284.342 4.71684 286.16 4.65133 287.978 4.52031C289.455 4.4548 291.046 4.38928 292.523 4.32377C295.591 4.19275 298.773 4.06173 301.841 4.12724C303.091 4.12724 304 3.53763 304 2.88251C304 2.2274 302.977 1.63779 301.841 1.63779C299.455 1.63779 297.069 1.76882 294.796 1.83433C293.546 2.03086 292.41 2.09637 291.274 2.16189ZM233.664 3.40661C233.777 3.40661 233.777 3.40661 233.891 3.40661C233.777 3.40661 233.664 3.40661 233.664 3.40661Z" fill="#EE9B4E"/>
</svg>
