<svg width="501" height="14" viewBox="0 0 501 14" fill="none" xmlns="http://www.w3.org/2000/svg">
<path d="M480.026 2.15092C478.154 2.2161 476.468 2.2161 474.596 2.28128C472.161 2.34646 469.727 2.47682 467.105 2.542C462.986 2.67236 458.866 2.93308 454.933 3.25897C450.626 3.65005 446.506 4.17148 442.574 4.88846C441.825 5.01882 441.076 5.21436 440.139 5.27954C439.203 5.40989 438.454 5.54025 437.518 5.67061C436.207 5.86615 435.083 5.99651 433.772 6.12687C432.274 6.25723 430.776 6.38759 429.278 6.45277C427.967 6.51795 426.656 6.51795 425.346 6.51795C424.035 6.51795 422.911 6.45277 421.6 6.45277C419.915 6.38759 418.23 6.25723 416.544 6.06169C414.859 5.86615 413.173 5.67061 411.488 5.40989C408.679 4.95364 405.87 4.4322 403.061 3.91077C401.75 3.65005 400.627 3.38933 399.316 3.06343C397.818 2.73754 396.32 2.41164 394.822 2.08574C393.698 1.82502 392.387 1.62949 391.076 1.43395C390.327 1.30359 389.391 1.23841 388.455 1.17323C387.518 1.10805 386.769 1.10805 385.833 1.04287C385.271 1.04287 384.709 1.04287 384.335 1.10805C383.586 1.17323 382.837 1.23841 382.088 1.30359C380.964 1.43395 379.841 1.62949 378.717 1.82502C376.47 2.2161 374.41 2.60718 372.163 2.99825C369.354 3.51969 366.732 3.97595 363.736 4.4322C362.051 4.69292 360.178 4.88846 358.492 5.084C356.058 5.34472 353.811 5.47507 351.376 5.60543C349.129 5.73579 346.695 5.73579 344.448 5.80097C341.826 5.80097 339.204 5.73579 336.583 5.60543C333.212 5.40989 330.028 5.21436 326.658 4.95364C323.661 4.69292 320.665 4.36702 317.856 3.97595C315.047 3.51969 312.238 3.06343 309.429 2.542C306.246 1.95538 303.063 1.36877 299.692 0.977692C298.381 0.782153 297.07 0.716974 295.572 0.586615C294.074 0.456256 292.388 0.456256 290.703 0.456256C289.018 0.456256 287.52 0.586615 285.834 0.716974C284.149 0.847333 282.651 1.10805 281.153 1.36877C277.595 2.02056 274.411 2.8679 271.228 3.71523C269.355 4.23666 267.482 4.7581 265.61 5.27954C264.112 5.67061 262.426 6.12687 260.741 6.51795C259.056 6.90902 257.183 7.23492 255.31 7.56082C254.374 7.69118 253.625 7.82153 252.689 7.88671C251.565 8.01707 250.254 8.08225 249.131 8.14743C248.569 8.14743 248.194 8.14743 247.633 8.14743C247.258 8.14743 246.883 8.14743 246.509 8.14743C245.573 8.08225 244.636 7.95189 243.7 7.82153C240.329 7.23492 237.146 6.51795 234.15 5.73579C232.651 5.34472 231.341 4.95364 230.03 4.49738C229.093 4.17148 228.157 3.91077 227.221 3.58487C224.786 2.80272 222.539 1.8902 219.918 1.17323C218.794 0.912512 217.67 0.651795 216.36 0.391077C215.61 0.260718 214.861 0.195538 214.112 0.130359C213.925 0.130359 213.551 0.0651795 213.363 0.0651795C212.802 0.0651795 212.24 0 211.865 0C211.678 0 211.303 0 211.116 0H210.929C210.554 0 209.993 0 209.618 0.0651795C208.682 0.130359 207.933 0.195538 206.996 0.260718C205.311 0.456256 203.626 0.651795 201.94 0.912512C200.629 1.10805 199.319 1.30359 198.008 1.56431C197.071 1.69467 196.135 1.8902 195.199 2.02056C193.701 2.28128 192.39 2.542 190.892 2.80272C190.143 2.93308 189.394 3.06343 188.832 3.19379C187.521 3.45451 186.21 3.78041 185.087 4.04113C184.15 4.23666 183.214 4.4322 182.278 4.69292C179.843 5.21436 177.596 5.80097 175.162 6.32241C170.105 7.49564 164.862 8.66887 159.244 9.5162C157.933 9.71174 156.81 9.8421 155.499 10.0376C154.001 10.2332 152.315 10.3635 150.63 10.4287C149.881 10.4287 149.319 10.4939 148.57 10.4939C147.447 10.4939 146.51 10.4939 145.387 10.4287C143.889 10.3635 142.39 10.2332 141.08 10.0376C139.582 9.77692 138.083 9.45102 136.773 9.12512C134.525 8.53851 132.653 7.82153 130.78 7.10456C129.844 6.77866 128.907 6.38759 127.971 6.06169C126.848 5.67061 125.537 5.27954 124.413 4.88846C123.29 4.56256 122.353 4.30184 121.042 4.10631C119.919 4.23666 119.17 4.10631 118.421 4.04113C117.672 3.97595 116.923 3.91077 116.174 3.91077C115.612 3.91077 115.237 3.91077 114.675 3.97595C113.926 4.04113 113.365 4.10631 112.616 4.23666C112.054 4.36702 111.305 4.49738 110.743 4.62774C110.181 4.82328 109.619 5.01882 109.245 5.21436C108.309 5.60543 107.372 5.99651 106.623 6.38759C105.874 6.71348 105.125 6.9742 104.563 7.3001C103.814 7.626 102.878 8.01707 102.129 8.34297C100.443 9.05994 98.5708 9.64656 96.5109 10.2332C95.0128 10.6243 93.3274 10.9501 91.6421 11.276C89.9567 11.4716 88.4586 11.6019 86.7732 11.7323C84.3388 11.7975 82.0916 11.7975 79.6572 11.7323C75.9119 11.5368 72.3539 11.1457 68.7959 10.6243C65.6124 10.1028 62.6162 9.58138 59.62 8.92959C58.1219 8.60369 56.6238 8.27779 55.1257 7.88671C53.6276 7.56082 52.1295 7.16974 50.6314 6.84384C49.1333 6.45277 47.6351 6.12687 46.137 5.80097C44.6389 5.47507 42.9536 5.14918 41.2682 4.88846C38.0847 4.36702 34.714 4.04113 31.3432 4.10631C30.5942 4.10631 29.6579 4.17148 28.9088 4.17148C27.9725 4.23666 27.2234 4.30184 26.4744 4.36702C25.7253 4.4322 24.9763 4.56256 24.4145 4.62774C23.6654 4.7581 22.9164 4.88846 22.1673 4.95364C18.2348 5.40989 15.0513 6.06169 12.0551 6.77866C9.4334 7.43046 6.81171 8.14743 4.56455 8.99477C3.44097 9.38584 2.50465 9.77692 1.56833 10.168C1.1938 10.3635 0.819278 10.5591 0.632014 10.8198C0.632014 10.885 0.444751 11.0153 0.444751 11.0805C0.257487 11.276 0.257487 11.4716 0.0702238 11.6671C-0.11704 11.9278 0.0702238 12.1886 0.632014 12.3841C1.1938 12.5145 1.94286 12.5796 2.69191 12.5145C3.2537 12.4493 3.62823 12.3841 4.19002 12.3841C4.93907 12.3189 5.50086 12.1886 6.24992 12.0582C7.18624 11.8627 7.56076 11.4064 6.99897 11.0805C6.62444 10.885 6.24992 10.8198 5.68813 10.7546C7.56076 10.0376 9.62066 9.38584 11.6806 8.73405C15.2386 7.82153 18.9838 7.10456 22.9164 6.45277C23.8527 6.32241 24.789 6.19205 25.7253 6.06169C26.8489 5.99651 28.1597 5.86615 29.2833 5.80097C30.4069 5.73579 31.3432 5.73579 32.4668 5.80097C33.2159 5.86615 33.7776 5.86615 34.5267 5.93133C35.6503 6.06169 36.5866 6.19205 37.5229 6.32241C39.3956 6.6483 41.2682 6.9742 42.9536 7.36528C45.0135 7.82153 46.8861 8.34297 48.946 8.86441C50.8186 9.32066 52.8785 9.8421 54.9384 10.2984C56.9983 10.7546 59.0582 11.2109 61.1181 11.6019C65.2379 12.3841 69.545 13.0359 73.852 13.4921C78.3464 13.9484 83.2152 14.1439 88.0841 13.8832C90.3312 13.7529 92.3911 13.5573 94.451 13.2966C96.5109 12.9707 98.3835 12.6448 100.069 12.1886C101.942 11.7323 103.627 11.1457 105.312 10.5591C106.249 10.2332 106.998 9.90728 107.747 9.58138C108.87 9.05994 109.994 8.60369 111.117 8.08225C112.428 7.49564 113.739 6.84384 115.425 6.25723C115.612 6.25723 115.612 6.19205 115.799 6.19205C115.986 6.19205 116.174 6.12687 116.361 6.12687H116.548C116.923 6.12687 117.11 6.19205 117.484 6.19205C118.233 6.32241 118.983 6.45277 119.732 6.6483C121.791 7.16974 123.477 7.82153 125.162 8.47333C127.409 9.25548 129.657 10.1028 132.091 10.8198C133.215 11.1457 134.338 11.4064 135.462 11.6671C136.773 11.993 138.271 12.1886 139.769 12.3841C141.08 12.5796 142.578 12.6448 144.076 12.7752C145.761 12.8404 147.634 12.9055 149.319 12.8404C150.817 12.8404 152.315 12.71 153.626 12.6448C155.312 12.5145 156.997 12.3189 158.682 12.1234C161.866 11.7323 164.862 11.2109 167.671 10.6894C171.978 9.90728 175.911 8.92959 179.843 8.01707C181.716 7.56082 183.588 7.10456 185.648 6.6483C187.895 6.12687 190.143 5.67061 192.39 5.14918C192.577 5.084 192.952 5.01882 193.139 5.01882C193.888 4.88846 194.637 4.7581 195.386 4.56256C196.51 4.36702 197.633 4.10631 198.944 3.91077C199.131 3.84559 199.506 3.84559 199.693 3.78041C200.442 3.65005 201.378 3.51969 202.128 3.38933C203.438 3.19379 204.936 2.93308 206.247 2.73754C207.558 2.542 209.056 2.41164 210.554 2.28128C210.929 2.28128 211.116 2.28128 211.491 2.28128C211.678 2.28128 212.052 2.28128 212.24 2.28128C212.802 2.34646 213.363 2.41164 214.112 2.47682C215.049 2.67236 215.985 2.8679 216.921 3.12861C219.73 3.97595 222.165 4.88846 224.786 5.73579C226.472 6.25723 228.157 6.77866 229.842 7.3001C231.528 7.75635 233.213 8.14743 234.899 8.60369C236.771 9.05994 238.644 9.38584 240.517 9.77692C242.202 10.1028 244.262 10.2984 246.134 10.4287C247.071 10.4939 247.82 10.4939 248.756 10.4287C249.88 10.4287 251.003 10.3635 252.127 10.2332C254 10.1028 255.872 9.90728 257.557 9.64656C259.617 9.32066 261.49 8.99476 263.363 8.60369C265.984 8.01707 268.232 7.36528 270.666 6.71348C271.977 6.32241 273.475 5.93133 274.786 5.54025C275.909 5.21436 277.033 4.95364 278.156 4.62774C280.591 3.97595 283.025 3.45451 285.834 2.99825C287.145 2.80272 288.456 2.67236 289.954 2.60718C290.703 2.60718 291.265 2.542 292.014 2.542C292.576 2.542 293.138 2.542 293.887 2.60718C296.134 2.73754 298.194 2.93308 300.254 3.19379C301.939 3.45451 303.812 3.78041 305.497 4.04113C306.621 4.23666 307.557 4.4322 308.68 4.62774C309.617 4.82328 310.74 5.01882 311.864 5.21436C313.924 5.54025 315.984 5.86615 318.044 6.19205C320.291 6.51795 322.538 6.71348 324.785 6.90902C329.654 7.36528 334.523 7.626 339.392 7.82153C341.826 7.95189 344.448 7.95189 346.882 7.95189C349.317 7.95189 351.751 7.82153 354.185 7.69118C358.493 7.49564 362.8 7.03938 366.919 6.45277C369.541 6.06169 371.975 5.60543 374.597 5.14918C377.593 4.62774 380.59 4.04113 383.773 3.51969C384.335 3.45451 385.084 3.38933 385.646 3.32415C386.02 3.32415 386.395 3.32415 386.769 3.32415C387.706 3.38933 388.455 3.45451 389.391 3.58487C392.2 4.04113 394.634 4.69292 397.256 5.27954C399.878 5.93133 402.687 6.45277 405.496 6.9742C408.305 7.49564 411.301 7.88671 414.297 8.27779C417.668 8.66887 421.226 8.86441 424.784 8.92959C427.967 8.99476 431.151 8.86441 434.147 8.60369C436.769 8.40815 439.39 8.01707 441.825 7.626C442.948 7.43046 443.885 7.3001 445.008 7.10456C445.757 6.9742 446.319 6.84384 447.068 6.71348C448.004 6.51795 449.128 6.38759 450.064 6.19205C455.12 5.47507 460.364 5.084 465.794 4.82328C468.603 4.69292 471.6 4.62774 474.596 4.49738C477.03 4.4322 479.652 4.36702 482.086 4.30184C487.142 4.17148 492.386 4.04113 497.442 4.10631C499.502 4.10631 501 3.51969 501 2.8679C501 2.2161 499.315 1.62949 497.442 1.62949C493.509 1.62949 489.577 1.75985 485.832 1.82502C483.772 2.02056 481.899 2.08574 480.026 2.15092ZM385.084 3.38933C385.271 3.38933 385.271 3.38933 385.458 3.38933C385.271 3.38933 385.084 3.38933 385.084 3.38933Z" fill="#EE9B4E"/>
</svg>
