<svg width="162" height="15" viewBox="0 0 162 15" fill="none" xmlns="http://www.w3.org/2000/svg">
<path fill-rule="evenodd" clip-rule="evenodd" d="M162 4.68552C161.023 4.48398 160.059 4.25421 159.136 3.99621L159.136 3.99611C157.73 3.53756 156.324 3.07901 154.917 2.55496L154.917 2.55491C153.323 1.96532 151.73 1.37574 150.042 0.982676C149.569 0.841138 149.097 0.767554 148.589 0.688516C148.392 0.657805 148.189 0.62627 147.979 0.589605C147.229 0.458582 146.386 0.458582 145.542 0.458582C144.775 0.458582 144.086 0.566685 143.334 0.684697C143.258 0.696607 143.182 0.708618 143.104 0.720629C142.26 0.851652 141.51 1.1137 140.76 1.37575C138.979 2.03086 137.385 2.88252 135.791 3.73417L132.979 5.30645C132.832 5.38353 132.681 5.46312 132.527 5.54425C131.898 5.87685 131.219 6.23518 130.541 6.55117C129.697 6.94423 128.76 7.27178 127.822 7.59933L127.822 7.59936C127.715 7.62923 127.613 7.6591 127.514 7.6882C127.178 7.78672 126.872 7.87634 126.51 7.92692C126.016 8.04181 125.451 8.10633 124.94 8.16465C124.868 8.17284 124.798 8.1809 124.728 8.18896H123.978H123.416C122.947 8.12345 122.478 7.99243 122.01 7.86141C120.322 7.2718 118.728 6.55117 117.228 5.76503C116.478 5.37196 115.822 4.97889 115.165 4.52031C114.931 4.35653 114.697 4.20913 114.462 4.06173C114.228 3.91433 113.994 3.76692 113.759 3.60314C113.302 3.30846 112.859 2.99538 112.413 2.68113C111.671 2.15703 110.923 1.62972 110.103 1.17921C109.54 0.917164 108.978 0.655117 108.321 0.39307C107.946 0.262047 107.571 0.196535 107.196 0.131023C107.149 0.131023 107.079 0.114645 107.009 0.0982676C106.939 0.0818896 106.868 0.0655117 106.821 0.0655117C106.666 0.0655117 106.512 0.0456575 106.372 0.0278091C106.259 0.013236 106.156 0 106.071 0H105.696H105.603C105.415 0 105.134 0 104.946 0.0655117C104.712 0.0982689 104.501 0.131026 104.29 0.163783C104.079 0.196538 103.868 0.229292 103.634 0.262047C102.79 0.458582 101.946 0.655117 101.102 0.917164L101.102 0.917185C100.446 1.11371 99.7897 1.31024 99.1335 1.57228C98.8991 1.63779 98.6647 1.71969 98.4303 1.80158C98.1959 1.88347 97.9615 1.96535 97.7272 2.03086C97.3521 2.16189 97.0006 2.29291 96.649 2.42393C96.2974 2.55496 95.9458 2.68598 95.5708 2.817C95.1958 2.94803 94.8208 3.07905 94.5395 3.21007C94.0425 3.40854 93.5454 3.64459 93.0891 3.86129C92.9429 3.93071 92.8009 3.99815 92.6644 4.06173C92.1957 4.25826 91.7269 4.4548 91.2581 4.71684C90.6487 4.97889 90.0628 5.25731 89.4768 5.53573C88.8908 5.81416 88.3049 6.09258 87.6954 6.35464C85.1641 7.53385 82.539 8.71306 79.7263 9.56471C79.3982 9.66298 79.0935 9.74487 78.7888 9.82676C78.4841 9.90865 78.1794 9.99054 77.8512 10.0888C77.1012 10.2853 76.2574 10.4164 75.4136 10.4819C75.2261 10.4819 75.0621 10.4983 74.898 10.5146C74.7339 10.531 74.5698 10.5474 74.3823 10.5474C73.8198 10.5474 73.351 10.5474 72.7885 10.4819C72.0385 10.4164 71.2884 10.2853 70.6322 10.0888C69.8821 9.82676 69.1321 9.4992 68.4758 9.17164C67.3508 8.58203 66.4132 7.8614 65.4757 7.14078C65.2413 6.977 65.0069 6.79684 64.7725 6.61668C64.5381 6.43653 64.3037 6.25637 64.0694 6.09259C63.7881 5.89605 63.4834 5.69952 63.1787 5.50298C62.874 5.30645 62.5693 5.10991 62.288 4.91338C61.7255 4.58582 61.2567 4.32377 60.6004 4.12724C60.1386 4.23482 59.8031 4.16573 59.4902 4.1013C59.4221 4.08726 59.355 4.07345 59.2879 4.06173C58.9129 3.99621 58.5379 3.9307 58.1628 3.9307C57.8816 3.9307 57.6941 3.9307 57.4128 3.99621C57.0378 4.06173 56.7565 4.12724 56.3815 4.25826C56.2409 4.32377 56.0768 4.38928 55.9127 4.4548C55.7487 4.52031 55.5846 4.58582 55.444 4.65133C55.1627 4.84787 54.8814 5.0444 54.6939 5.24094C54.2252 5.63401 53.7564 6.02708 53.3814 6.42015C53.2631 6.52344 53.1448 6.62023 53.0295 6.7146C52.7791 6.9195 52.5426 7.11305 52.3501 7.33731C52.1626 7.50109 51.9516 7.68125 51.7407 7.86141C51.5297 8.04156 51.3188 8.22172 51.1313 8.3855C50.2875 9.10613 49.3499 9.69573 48.3186 10.2853C47.5686 10.6784 46.7248 11.006 45.881 11.3335C45.0372 11.5301 44.2872 11.6611 43.4434 11.7921C42.2246 11.8576 41.0996 11.8576 39.8807 11.7921C38.0057 11.5956 36.2243 11.2025 34.443 10.6784C32.8492 10.1543 31.3491 9.63022 29.849 8.9751C29.099 8.64755 28.349 8.31999 27.5989 7.92692C27.2239 7.76314 26.8489 7.58298 26.4739 7.40282C26.0989 7.22267 25.7238 7.04251 25.3488 6.87873C24.5988 6.48566 23.8488 6.1581 23.0987 5.83054C22.3487 5.50298 21.5049 5.17543 20.6611 4.91338C19.0673 4.38928 17.3797 4.06173 15.6921 4.12724C15.5046 4.12724 15.2937 4.14362 15.0827 4.15999C14.8718 4.17637 14.6608 4.19275 14.4733 4.19275C14.0046 4.25826 13.6296 4.32377 13.2545 4.38928L13.2545 4.38928C13.0191 4.43041 12.7837 4.49734 12.5715 4.55769C12.4456 4.59347 12.3279 4.62694 12.2232 4.65133C11.8482 4.78235 11.4732 4.91338 11.0982 4.97889C9.12933 5.43747 7.5355 6.09259 6.03543 6.81322C4.72287 7.46833 3.41031 8.18896 2.28526 9.04062C1.72274 9.43369 1.25396 9.82676 0.785192 10.2198C0.597684 10.4164 0.410175 10.6129 0.316421 10.8749C0.316421 10.9077 0.292982 10.9568 0.269544 11.006C0.246105 11.0551 0.222667 11.1042 0.222667 11.137C0.175789 11.2353 0.152351 11.3335 0.128912 11.4318C0.105474 11.5301 0.082035 11.6283 0.0351579 11.7266C-0.0585965 11.9886 0.0351579 12.2507 0.316421 12.4472C0.597684 12.5782 0.972701 12.6438 1.34772 12.5782C1.40642 12.5646 1.46104 12.5509 1.51328 12.5378C1.71134 12.4882 1.87519 12.4472 2.09775 12.4472C2.37589 12.3986 2.60245 12.314 2.85394 12.2201C2.94154 12.1874 3.03217 12.1535 3.12905 12.1197C3.59782 11.9231 3.78533 11.4645 3.50407 11.137C3.31656 10.9405 3.12905 10.8749 2.84779 10.8094C3.78533 10.0888 4.81663 9.43369 5.84793 8.77857C7.62926 7.8614 9.50434 7.14078 11.4732 6.48566L12.8795 6.09259C13.1608 6.05983 13.4655 6.0107 13.7702 5.96157C14.0749 5.91243 14.3796 5.8633 14.6608 5.83054C15.2234 5.76503 15.6921 5.76503 16.2547 5.83054C16.4422 5.8633 16.6062 5.87968 16.7703 5.89605C16.9344 5.91243 17.0984 5.92881 17.286 5.96157C17.8485 6.09259 18.3173 6.22361 18.786 6.35464C19.7236 6.68219 20.6611 7.00975 21.5049 7.40282C22.2272 7.72401 22.9035 8.07732 23.5983 8.44027C23.8955 8.59554 24.196 8.75256 24.505 8.90959C24.7177 9.0136 24.9352 9.12099 25.1564 9.23021C25.9104 9.60255 26.7078 9.99628 27.5052 10.3509L27.5053 10.3509C28.5365 10.8095 29.5678 11.268 30.5991 11.6611C32.6617 12.4472 34.818 13.1023 36.9744 13.5609C39.2245 14.0195 41.6621 14.216 44.0997 13.954C45.2247 13.823 46.256 13.6264 47.2873 13.3644C48.3186 13.0368 49.2562 12.7093 50.1 12.2507C51.0375 11.7921 51.8813 11.2025 52.7251 10.6129C53.1938 10.2854 53.5688 9.95781 53.9438 9.63027L53.9439 9.63022C54.2252 9.36817 54.5064 9.12251 54.7877 8.87684C55.0689 8.63117 55.3502 8.3855 55.6315 8.12345C55.7731 7.99619 55.9148 7.86588 56.0583 7.73383C56.5798 7.2541 57.1262 6.75147 57.7878 6.28912C57.8347 6.28912 57.8581 6.27275 57.8816 6.25637C57.905 6.23999 57.9284 6.22361 57.9753 6.22361C58.0222 6.22361 58.0691 6.20723 58.116 6.19086C58.1628 6.17448 58.2097 6.1581 58.2566 6.1581H58.3503C58.4441 6.1581 58.5144 6.17448 58.5847 6.19086C58.6551 6.20723 58.7254 6.22361 58.8191 6.22361C59.1941 6.35464 59.5692 6.48566 59.9442 6.68219C60.9755 7.20629 61.8193 7.86141 62.663 8.51652C62.9429 8.71205 63.2227 8.91163 63.504 9.11224C64.3535 9.7182 65.2163 10.3335 66.132 10.8749C66.6945 11.2025 67.257 11.4646 67.8195 11.7266C68.4758 12.0542 69.2258 12.2507 69.9759 12.4472C70.4278 12.5826 70.9241 12.6558 71.4343 12.731C71.6651 12.765 71.8987 12.7995 72.1322 12.8403C72.976 12.9058 73.9136 12.9713 74.7573 12.9058C75.2887 12.9058 75.8201 12.84 76.3182 12.7784C76.5231 12.753 76.7224 12.7284 76.9137 12.7093C77.7575 12.5782 78.6013 12.3817 79.4451 12.1852C81.0389 11.7921 82.539 11.268 83.9453 10.7439C85.6986 10.1047 87.328 9.33552 88.9343 8.57729C89.3034 8.40302 89.6714 8.22934 90.0393 8.05794C90.9768 7.59936 91.9144 7.14078 92.9457 6.68219C93.5082 6.42015 94.0707 6.17448 94.6333 5.92881C95.1958 5.68314 95.7583 5.43747 96.3208 5.17542C96.4146 5.10991 96.6021 5.0444 96.6959 5.0444C97.0709 4.91338 97.4459 4.78235 97.8209 4.58582C98.0402 4.5092 98.2595 4.42262 98.4844 4.33385C98.8363 4.19492 99.2018 4.05062 99.6022 3.9307C99.6491 3.89795 99.7194 3.88157 99.7898 3.86519C99.8601 3.84881 99.9304 3.83243 99.9773 3.79968C100.165 3.73417 100.376 3.66866 100.587 3.60315C100.798 3.53764 101.009 3.47212 101.196 3.40661C101.524 3.30834 101.876 3.1937 102.227 3.07905C102.579 2.9644 102.931 2.84976 103.259 2.75149C103.915 2.55496 104.665 2.42393 105.415 2.29291H105.884H106.259L106.259 2.29293C106.54 2.35843 106.821 2.42394 107.196 2.48944L107.196 2.48948C107.665 2.686 108.134 2.88253 108.603 3.14456C109.446 3.65506 110.221 4.1891 110.99 4.71845C111.504 5.07221 112.015 5.42388 112.54 5.76503L115.072 7.33731C115.494 7.5666 115.915 7.77952 116.337 7.99243C116.759 8.20534 117.181 8.41825 117.603 8.64755C118.228 8.95326 118.853 9.20075 119.478 9.44823C119.791 9.57198 120.103 9.69573 120.416 9.82676C121.259 10.1543 122.291 10.3509 123.228 10.4819C123.697 10.5474 124.072 10.5474 124.541 10.4819C125.103 10.4819 125.666 10.4164 126.228 10.2853C127.166 10.1543 128.104 9.95778 128.947 9.69573C129.979 9.36817 130.916 9.04062 131.854 8.64755C132.859 8.19582 133.755 7.70563 134.667 7.20646C134.945 7.0541 135.225 6.9009 135.51 6.74771C135.838 6.55117 136.19 6.35463 136.541 6.1581C136.893 5.96156 137.245 5.76503 137.573 5.5685C137.854 5.40471 138.135 5.2573 138.417 5.10989C138.698 4.96249 138.979 4.8151 139.26 4.65133C140.479 3.99621 141.698 3.47212 143.104 3.01354C143.761 2.817 144.417 2.68598 145.167 2.62047C145.354 2.62047 145.518 2.60409 145.682 2.58771C145.847 2.57133 146.011 2.55496 146.198 2.55496C146.479 2.55496 146.761 2.55496 147.136 2.62047C148.261 2.75149 149.292 2.94803 150.323 3.21007C150.745 3.34109 151.191 3.48848 151.636 3.63587C152.081 3.78328 152.527 3.93069 152.948 4.06173C153.23 4.15999 153.488 4.25826 153.745 4.35653C154.003 4.4548 154.261 4.55306 154.542 4.65133C155.011 4.84787 155.574 5.0444 156.136 5.24094L159.23 6.22361C160.153 6.49244 161.077 6.67302 162 6.83777V4.68552Z" fill="#EE9B4E"/>
</svg>
