<svg width="277" height="14" viewBox="0 0 277 14" fill="none" xmlns="http://www.w3.org/2000/svg">
<path fill-rule="evenodd" clip-rule="evenodd" d="M277 2.24138C275.023 2.70505 273.125 3.21014 271.228 3.71523L265.61 5.27954C265.316 5.35623 265.015 5.43543 264.708 5.51616C263.451 5.84706 262.096 6.20356 260.741 6.51795C259.056 6.90902 257.183 7.23492 255.31 7.56082C255.097 7.59054 254.893 7.62026 254.695 7.64921C254.023 7.74723 253.412 7.83639 252.689 7.88671C251.703 8.00103 250.574 8.06522 249.553 8.12324C249.41 8.13138 249.269 8.13941 249.131 8.14743H247.633H246.509C245.573 8.08225 244.636 7.95189 243.7 7.82153C240.329 7.23492 237.146 6.51795 234.15 5.73579C232.651 5.34472 231.341 4.95364 230.03 4.49738C229.562 4.33443 229.093 4.18778 228.625 4.04113C228.157 3.89447 227.689 3.74782 227.221 3.58487C226.308 3.29169 225.422 2.98019 224.533 2.66754C223.049 2.1461 221.557 1.62145 219.918 1.17323C218.794 0.912512 217.67 0.651795 216.36 0.391077C215.611 0.260718 214.861 0.195538 214.112 0.130359C214.019 0.130359 213.878 0.114064 213.738 0.0977692C213.597 0.0814743 213.457 0.0651795 213.363 0.0651795C213.054 0.0651795 212.745 0.045426 212.467 0.027668C212.24 0.0131688 212.034 0 211.865 0H211.116H210.929C210.554 0 209.993 0 209.618 0.0651795C209.15 0.0977705 208.729 0.130362 208.307 0.162953C207.886 0.195541 207.465 0.228129 206.996 0.260718C205.311 0.456256 203.626 0.651795 201.94 0.912512C200.629 1.10805 199.319 1.30359 198.008 1.56431C197.54 1.62949 197.071 1.71096 196.603 1.79243C196.135 1.87391 195.667 1.95538 195.199 2.02056C194.45 2.15092 193.747 2.28128 193.045 2.41164C192.343 2.542 191.641 2.67236 190.892 2.80272C190.143 2.93308 189.394 3.06343 188.832 3.19379C187.839 3.39125 186.846 3.62609 185.935 3.84169C185.643 3.91076 185.359 3.97786 185.087 4.04113C184.15 4.23666 183.214 4.4322 182.278 4.69292C181.06 4.95363 179.89 5.23064 178.72 5.50765C177.549 5.78467 176.379 6.06169 175.162 6.32241C170.105 7.49564 164.862 8.66887 159.244 9.5162C158.589 9.61397 157.98 9.69544 157.372 9.77691C156.763 9.85839 156.154 9.93986 155.499 10.0376C154.001 10.2332 152.315 10.3635 150.63 10.4287C150.256 10.4287 149.928 10.445 149.6 10.4613C149.272 10.4776 148.945 10.4939 148.57 10.4939C147.447 10.4939 146.51 10.4939 145.387 10.4287C143.889 10.3635 142.39 10.2332 141.08 10.0376C139.582 9.77692 138.083 9.45102 136.773 9.12512C134.525 8.53851 132.653 7.82153 130.78 7.10456C130.312 6.94161 129.844 6.76237 129.376 6.58313C128.908 6.40388 128.439 6.22464 127.971 6.06169C127.409 5.86615 126.801 5.67061 126.192 5.47507C125.584 5.27954 124.975 5.084 124.413 4.88846C123.29 4.56256 122.353 4.30184 121.042 4.10631C120.12 4.21334 119.45 4.1446 118.825 4.0805C118.689 4.06653 118.555 4.05279 118.421 4.04113C117.672 3.97595 116.923 3.91077 116.174 3.91077C115.612 3.91077 115.237 3.91077 114.675 3.97595C113.926 4.04113 113.365 4.10631 112.616 4.23666C112.335 4.30184 112.007 4.36702 111.679 4.4322C111.352 4.49738 111.024 4.56256 110.743 4.62774C110.181 4.82328 109.619 5.01882 109.245 5.21436C108.309 5.60543 107.372 5.99651 106.623 6.38759C106.387 6.49036 106.151 6.58665 105.92 6.68054C105.42 6.8844 104.948 7.07697 104.563 7.3001C104.189 7.46304 103.767 7.64228 103.346 7.82152C102.925 8.00077 102.503 8.18002 102.129 8.34297C100.443 9.05994 98.5708 9.64656 96.5109 10.2332C95.0128 10.6243 93.3275 10.9501 91.6421 11.276C89.9567 11.4716 88.4586 11.6019 86.7732 11.7323C84.3388 11.7975 82.0917 11.7975 79.6572 11.7323C75.912 11.5368 72.354 11.1457 68.7959 10.6243C65.6125 10.1028 62.6162 9.58138 59.62 8.92959C58.1219 8.60369 56.6238 8.27779 55.1257 7.88671C54.3767 7.72376 53.6276 7.54452 52.8786 7.36528C52.1295 7.18604 51.3804 7.00679 50.6314 6.84384C49.1333 6.45277 47.6352 6.12687 46.1371 5.80097C44.639 5.47507 42.9536 5.14918 41.2682 4.88846C38.0847 4.36702 34.714 4.04113 31.3433 4.10631C30.9687 4.10631 30.5474 4.1226 30.126 4.1389C29.7047 4.15519 29.2834 4.17148 28.9088 4.17148C27.9725 4.23666 27.2235 4.30184 26.4745 4.36702L26.4744 4.36702C26.0042 4.40794 25.534 4.47453 25.1101 4.53457C24.8587 4.57018 24.6236 4.60348 24.4145 4.62774L24.4145 4.62775C23.6654 4.7581 22.9164 4.88846 22.1673 4.95364C18.2348 5.40989 15.0513 6.06169 12.0551 6.77866C9.43343 7.43046 6.81174 8.14743 4.56458 8.99477C3.441 9.38584 2.50468 9.77692 1.56836 10.168C1.19384 10.3635 0.819308 10.5591 0.632045 10.8198C0.632045 10.8524 0.585229 10.9013 0.538412 10.9501C0.491597 10.999 0.444781 11.0479 0.444781 11.0805C0.351149 11.1783 0.304334 11.276 0.257518 11.3738C0.210702 11.4716 0.163886 11.5694 0.0702543 11.6671C-0.117009 11.9278 0.0702543 12.1886 0.632045 12.3841C1.19384 12.5145 1.94289 12.5796 2.69194 12.5145C2.8092 12.5009 2.9183 12.4872 3.02265 12.4742C3.41824 12.4249 3.74552 12.3841 4.19005 12.3841C4.7456 12.3358 5.19813 12.2516 5.70046 12.1581C5.87543 12.1256 6.05644 12.0919 6.24995 12.0582C7.18627 11.8627 7.56079 11.4064 6.999 11.0805C6.62448 10.885 6.24995 10.8198 5.68816 10.7546C7.56079 10.0376 9.62069 9.38584 11.6806 8.73405C15.2386 7.82153 18.9839 7.10456 22.9164 6.45277L25.7253 6.06169C26.2871 6.0291 26.8957 5.98022 27.5044 5.93133C28.113 5.88245 28.7216 5.83356 29.2834 5.80097C30.4069 5.73579 31.3433 5.73579 32.4668 5.80097C32.8414 5.83356 33.1691 5.84986 33.4968 5.86615C33.8245 5.88245 34.1522 5.89874 34.5267 5.93133C35.6503 6.06169 36.5866 6.19205 37.5229 6.32241C39.3956 6.6483 41.2682 6.9742 42.9536 7.36528C44.3963 7.68483 45.7472 8.03636 47.1349 8.39747C47.7285 8.55195 48.3288 8.70818 48.946 8.86441C49.3708 8.96789 49.8052 9.07474 50.247 9.18341C51.7531 9.55385 53.3458 9.94559 54.9384 10.2984L54.9387 10.2984C56.9985 10.7546 59.0583 11.2109 61.1181 11.6019C65.2379 12.3841 69.545 13.0359 73.8521 13.4921C78.3464 13.9484 83.2152 14.1439 88.0841 13.8832C90.3312 13.7529 92.3911 13.5573 94.451 13.2966C96.5109 12.9707 98.3836 12.6448 100.069 12.1886C101.942 11.7323 103.627 11.1457 105.312 10.5591L105.312 10.5591C106.249 10.2332 106.998 9.90728 107.747 9.58138C108.309 9.32066 108.87 9.07624 109.432 8.83182C109.994 8.58739 110.556 8.34297 111.117 8.08225C111.4 7.95564 111.683 7.82599 111.97 7.69461C113.012 7.21731 114.103 6.71723 115.425 6.25723C115.518 6.25723 115.565 6.24093 115.612 6.22464C115.659 6.20834 115.705 6.19205 115.799 6.19205C115.893 6.19205 115.986 6.17575 116.08 6.15946C116.174 6.14316 116.267 6.12687 116.361 6.12687H116.548C116.735 6.12687 116.876 6.14316 117.016 6.15946C117.157 6.17575 117.297 6.19205 117.484 6.19205C118.233 6.32241 118.983 6.45277 119.732 6.6483C121.792 7.16974 123.477 7.82153 125.162 8.47333C125.721 8.66787 126.28 8.86644 126.842 9.06603C128.539 9.66892 130.262 10.2811 132.091 10.8198C133.215 11.1457 134.338 11.4064 135.462 11.6671L135.462 11.6671C136.773 11.993 138.271 12.1886 139.769 12.3841C140.671 12.5187 141.663 12.5916 142.682 12.6664C143.143 12.7003 143.609 12.7346 144.076 12.7752C145.761 12.8404 147.634 12.9055 149.319 12.8404C150.381 12.8404 151.442 12.7749 152.437 12.7136C152.846 12.6884 153.244 12.6638 153.626 12.6448C155.312 12.5145 156.997 12.3189 158.682 12.1234L158.682 12.1234C161.866 11.7323 164.862 11.2109 167.671 10.6894C171.173 10.0534 174.428 9.28817 177.636 8.53378C178.373 8.3604 179.108 8.1876 179.843 8.01707C181.716 7.56082 183.588 7.10456 185.648 6.6483C186.772 6.38759 187.896 6.14316 189.019 5.89874C190.143 5.65432 191.266 5.40989 192.39 5.14918C192.577 5.084 192.952 5.01882 193.139 5.01882C193.888 4.88846 194.637 4.7581 195.386 4.56256C195.824 4.48633 196.262 4.40019 196.711 4.31186C197.414 4.17364 198.144 4.03007 198.944 3.91077C199.038 3.87818 199.178 3.86188 199.319 3.84559C199.459 3.82929 199.599 3.813 199.693 3.78041C200.068 3.71523 200.489 3.65005 200.91 3.58487C201.332 3.51969 201.753 3.45451 202.128 3.38933C202.783 3.29157 203.485 3.17751 204.187 3.06345C204.89 2.94938 205.592 2.83531 206.247 2.73754C207.558 2.542 209.056 2.41164 210.554 2.28128H211.491H212.24L212.24 2.2813C212.802 2.34647 213.363 2.41165 214.112 2.47682C215.049 2.67236 215.985 2.8679 216.921 3.12861C218.605 3.63651 220.154 4.16782 221.69 4.69448C222.716 5.04646 223.736 5.39636 224.786 5.73579L229.843 7.3001C230.685 7.52822 231.528 7.74004 232.37 7.95187C233.213 8.16371 234.056 8.37555 234.899 8.60369C236.147 8.90786 237.395 9.15409 238.644 9.40032C239.268 9.52344 239.892 9.64656 240.517 9.77692C242.202 10.1028 244.262 10.2984 246.134 10.4287C247.071 10.4939 247.82 10.4939 248.756 10.4287C249.88 10.4287 251.003 10.3635 252.127 10.2332C254 10.1028 255.872 9.90728 257.558 9.64656C259.617 9.32066 261.49 8.99476 263.363 8.60369C265.371 8.15426 267.16 7.66658 268.982 7.16995C269.538 7.01835 270.097 6.86592 270.666 6.71348C271.321 6.51793 272.024 6.32238 272.726 6.12682C273.428 5.9313 274.13 5.73578 274.786 5.54025C275.348 5.3773 275.909 5.23063 276.471 5.08397C276.648 5.03796 276.824 4.99194 277 4.94543V2.24138Z" fill="#EE9B4E"/>
</svg>
