<svg width="344" height="15" viewBox="0 0 344 15" fill="none" xmlns="http://www.w3.org/2000/svg">
<path d="M329.599 2.30456C328.313 2.37439 327.156 2.37439 325.87 2.44423C324.199 2.51406 322.527 2.65374 320.727 2.72357C317.898 2.86324 315.069 3.14258 312.369 3.49176C309.412 3.91077 306.583 4.46945 303.883 5.23764C303.369 5.37731 302.854 5.58681 302.211 5.65665C301.569 5.79632 301.054 5.93599 300.411 6.07566C299.511 6.28516 298.74 6.42483 297.84 6.5645C296.811 6.70417 295.782 6.84384 294.754 6.91368C293.854 6.98351 292.954 6.98351 292.054 6.98351C291.154 6.98351 290.382 6.91368 289.482 6.91368C288.325 6.84384 287.168 6.70417 286.01 6.49467C284.853 6.28516 283.696 6.07566 282.539 5.79632C280.61 5.30747 278.681 4.74879 276.753 4.19011C275.853 3.91077 275.081 3.63143 274.181 3.28225C273.152 2.93308 272.124 2.5839 271.095 2.23472C270.324 1.95538 269.424 1.74588 268.523 1.53637C268.009 1.3967 267.366 1.32687 266.723 1.25703C266.08 1.1872 265.566 1.1872 264.923 1.11736C264.538 1.11736 264.152 1.11736 263.895 1.1872C263.38 1.25703 262.866 1.32687 262.352 1.3967C261.58 1.53637 260.809 1.74588 260.037 1.95538C258.494 2.37439 257.08 2.79341 255.537 3.21242C253.608 3.7711 251.808 4.25994 249.751 4.74879C248.594 5.02813 247.308 5.23763 246.151 5.44714C244.479 5.72648 242.936 5.86615 241.265 6.00582C239.722 6.14549 238.05 6.14549 236.507 6.21533C234.707 6.21533 232.907 6.14549 231.107 6.00582C228.792 5.79632 226.606 5.58681 224.292 5.30747C222.235 5.02813 220.177 4.67895 218.249 4.25994C216.32 3.7711 214.391 3.28225 212.463 2.72357C210.277 2.09505 208.091 1.46654 205.776 1.04753C204.876 0.838022 203.976 0.768186 202.948 0.628516C201.919 0.488846 200.762 0.488846 199.605 0.488846C198.447 0.488846 197.419 0.628516 196.261 0.768186C195.104 0.907857 194.076 1.1872 193.047 1.46654C190.604 2.16489 188.418 3.07275 186.232 3.9806C184.946 4.53928 183.661 5.09796 182.375 5.65665C181.346 6.07566 180.189 6.5645 179.032 6.98351C177.875 7.40252 176.589 7.7517 175.303 8.10087C174.66 8.24055 174.146 8.38022 173.503 8.45005C172.731 8.58972 171.831 8.65956 171.06 8.72939C170.674 8.72939 170.417 8.72939 170.031 8.72939C169.774 8.72939 169.517 8.72939 169.26 8.72939C168.617 8.65956 167.974 8.51989 167.331 8.38022C165.017 7.7517 162.831 6.98351 160.773 6.14549C159.745 5.72648 158.845 5.30747 157.945 4.81862C157.302 4.46945 156.659 4.19011 156.016 3.84093C154.344 3.00291 152.801 2.02522 151.001 1.25703C150.23 0.977692 149.458 0.698351 148.558 0.419011C148.044 0.279341 147.53 0.209505 147.015 0.13967C146.887 0.13967 146.63 0.0698351 146.501 0.0698351C146.115 0.0698351 145.729 0 145.472 0C145.344 0 145.087 0 144.958 0H144.829C144.572 0 144.187 0 143.929 0.0698351C143.286 0.13967 142.772 0.209505 142.129 0.279341C140.972 0.488846 139.815 0.698351 138.658 0.977692C137.758 1.1872 136.857 1.3967 135.957 1.67604C135.314 1.81571 134.672 2.02522 134.029 2.16489C133 2.44423 132.1 2.72357 131.071 3.00291C130.557 3.14258 130.043 3.28225 129.657 3.42192C128.757 3.70126 127.857 4.05044 127.085 4.32978C126.442 4.53928 125.8 4.74879 125.157 5.02813C123.485 5.58681 121.942 6.21533 120.271 6.77401C116.799 8.03104 113.199 9.28807 109.341 10.1959C108.441 10.4054 107.67 10.5451 106.77 10.7546C105.741 10.9641 104.584 11.1038 103.427 11.1736C102.912 11.1736 102.527 11.2435 102.012 11.2435C101.241 11.2435 100.598 11.2435 99.8264 11.1736C98.7977 11.1038 97.7691 10.9641 96.869 10.7546C95.8404 10.4753 94.8118 10.1261 93.9117 9.77692C92.3687 9.1484 91.0829 8.38022 89.7971 7.61203C89.1542 7.26285 88.5113 6.84384 87.8684 6.49467C87.097 6.07566 86.1969 5.65665 85.4254 5.23764C84.6539 4.88846 84.011 4.60912 83.111 4.39961C82.3395 4.53928 81.8252 4.39961 81.3108 4.32978C80.7965 4.25994 80.2822 4.19011 79.7679 4.19011C79.3821 4.19011 79.125 4.19011 78.7392 4.25994C78.2249 4.32978 77.8392 4.39961 77.3249 4.53928C76.9391 4.67895 76.4248 4.81862 76.0391 4.95829C75.6533 5.1678 75.2676 5.37731 75.0104 5.58681C74.3675 6.00582 73.7246 6.42483 73.2103 6.84384C72.696 7.19302 72.1817 7.47236 71.7959 7.82153C71.2816 8.17071 70.6387 8.58972 70.1244 8.9389C68.9672 9.70708 67.6814 10.3356 66.267 10.9641C65.2383 11.3831 64.0811 11.7323 62.9239 12.0815C61.7667 12.291 60.738 12.4307 59.5808 12.5703C57.9093 12.6402 56.3663 12.6402 54.6948 12.5703C52.1232 12.3608 49.6801 11.9418 47.2371 11.3831C45.0513 10.8244 42.994 10.2658 40.9367 9.56741C39.9081 9.21824 38.8794 8.86906 37.8508 8.45005C36.8221 8.10087 35.7935 7.68186 34.7648 7.33269C33.7362 6.91368 32.7076 6.5645 31.6789 6.21533C30.6503 5.86615 29.4931 5.51698 28.3358 5.23764C26.15 4.67895 23.8355 4.32978 21.5211 4.39961C21.0068 4.39961 20.3639 4.46945 19.8496 4.46945C19.2067 4.53928 18.6923 4.60912 18.178 4.67895C17.6637 4.74879 17.1494 4.88846 16.7636 4.95829C16.2493 5.09796 15.735 5.23763 15.2207 5.30747C12.5205 5.79632 10.3346 6.49467 8.27734 7.26285C6.47722 7.96121 4.6771 8.72939 3.13414 9.63725C2.36266 10.0563 1.71976 10.4753 1.07686 10.8943C0.819698 11.1038 0.562538 11.3133 0.433958 11.5926C0.433958 11.6625 0.305378 11.8021 0.305378 11.872C0.176798 12.0815 0.176798 12.291 0.0482175 12.5005C-0.0803626 12.7798 0.0482175 13.0592 0.433958 13.2687C0.819698 13.4083 1.33402 13.4782 1.84834 13.4083C2.23408 13.3385 2.49124 13.2687 2.87698 13.2687C3.3913 13.1988 3.77704 13.0592 4.29136 12.9195C4.93426 12.71 5.19142 12.2211 4.80568 11.872C4.54852 11.6625 4.29136 11.5926 3.90562 11.5228C5.19142 10.7546 6.6058 10.0563 8.02018 9.35791C10.4632 8.38022 13.0348 7.61203 15.735 6.91368C16.3779 6.77401 17.0208 6.63434 17.6637 6.49467C18.4352 6.42483 19.3352 6.28516 20.1067 6.21533C20.8782 6.14549 21.5211 6.14549 22.2926 6.21533C22.8069 6.28516 23.1926 6.28516 23.707 6.355C24.4784 6.49467 25.1213 6.63434 25.7642 6.77401C27.05 7.12318 28.3358 7.47236 29.4931 7.89137C30.9074 8.38022 32.1932 8.9389 33.6076 9.49758C34.8934 9.98642 36.3078 10.5451 37.7222 11.034C39.1366 11.5228 40.5509 12.0116 41.9653 12.4307C44.7941 13.2687 47.7514 13.967 50.7088 14.4559C53.7947 14.9447 57.1378 15.1542 60.4809 14.8749C62.0238 14.7352 63.4382 14.5257 64.8526 14.2464C66.267 13.8972 67.5528 13.548 68.71 13.0592C69.9958 12.5703 71.153 11.9418 72.3102 11.3133C72.9531 10.9641 73.4675 10.6149 73.9818 10.2658C74.7533 9.70708 75.5247 9.21824 76.2962 8.65956C77.1963 8.03104 78.0963 7.33269 79.2536 6.70417C79.3821 6.70417 79.3821 6.63434 79.5107 6.63434C79.6393 6.63434 79.7679 6.5645 79.8965 6.5645H80.025C80.2822 6.5645 80.4108 6.63434 80.6679 6.63434C81.1823 6.77401 81.6966 6.91368 82.2109 7.12318C83.6253 7.68186 84.7825 8.38022 85.9397 9.07857C87.4827 9.91659 89.0257 10.8244 90.6972 11.5926C91.4687 11.9418 92.2402 12.2211 93.0116 12.5005C93.9117 12.8497 94.9403 13.0592 95.969 13.2687C96.869 13.4782 97.8977 13.548 98.9263 13.6877C100.084 13.7575 101.369 13.8274 102.527 13.7575C103.555 13.7575 104.584 13.6179 105.484 13.548C106.641 13.4083 107.798 13.1988 108.956 12.9893C111.141 12.5703 113.199 12.0116 115.127 11.453C118.085 10.6149 120.785 9.56741 123.485 8.58972C124.771 8.10088 126.057 7.61203 127.471 7.12318C129.014 6.5645 130.557 6.07566 132.1 5.51698C132.229 5.44714 132.486 5.37731 132.614 5.37731C133.129 5.23763 133.643 5.09796 134.157 4.88846C134.929 4.67895 135.7 4.39961 136.6 4.19011C136.729 4.12027 136.986 4.12027 137.115 4.05044C137.629 3.91077 138.272 3.7711 138.786 3.63143C139.686 3.42192 140.715 3.14258 141.615 2.93308C142.515 2.72357 143.544 2.5839 144.572 2.44423C144.829 2.44423 144.958 2.44423 145.215 2.44423C145.344 2.44423 145.601 2.44423 145.729 2.44423C146.115 2.51406 146.501 2.5839 147.015 2.65373C147.658 2.86324 148.301 3.07275 148.944 3.35209C150.873 4.25994 152.544 5.23764 154.344 6.14549C155.502 6.70417 156.659 7.26285 157.816 7.82153C158.973 8.31038 160.13 8.72939 161.288 9.21824C162.573 9.70708 163.859 10.0563 165.145 10.4753C166.302 10.8244 167.717 11.034 169.002 11.1736C169.645 11.2435 170.16 11.2435 170.803 11.1736C171.574 11.1736 172.346 11.1038 173.117 10.9641C174.403 10.8244 175.689 10.6149 176.846 10.3356C178.26 9.98642 179.546 9.63725 180.832 9.21824C182.632 8.58972 184.175 7.89137 185.846 7.19302C186.747 6.77401 187.775 6.355 188.675 5.93599C189.447 5.58681 190.218 5.30747 190.99 4.95829C192.661 4.25994 194.333 3.70126 196.261 3.21242C197.162 3.00291 198.062 2.86324 199.09 2.79341C199.605 2.79341 199.99 2.72357 200.505 2.72357C200.89 2.72357 201.276 2.72357 201.79 2.79341C203.333 2.93308 204.748 3.14258 206.162 3.42192C207.319 3.70126 208.605 4.05044 209.762 4.32978C210.534 4.53928 211.177 4.74879 211.948 4.95829C212.591 5.1678 213.363 5.37731 214.134 5.58681C215.548 5.93599 216.963 6.28516 218.377 6.63434C219.92 6.98351 221.463 7.19302 223.006 7.40252C226.349 7.89137 229.692 8.17071 233.035 8.38022C234.707 8.51989 236.507 8.51989 238.179 8.51989C239.85 8.51989 241.522 8.38022 243.193 8.24055C246.151 8.03104 249.108 7.54219 251.937 6.91368C253.737 6.49467 255.408 6.00582 257.208 5.51698C259.266 4.95829 261.323 4.32978 263.509 3.7711C263.895 3.70126 264.409 3.63143 264.795 3.56159C265.052 3.56159 265.309 3.56159 265.566 3.56159C266.209 3.63143 266.723 3.70126 267.366 3.84093C269.295 4.32978 270.967 5.02813 272.767 5.65665C274.567 6.355 276.495 6.91368 278.424 7.47236C280.353 8.03104 282.41 8.45005 284.467 8.86906C286.782 9.28807 289.225 9.49758 291.668 9.56741C293.854 9.63725 296.04 9.49758 298.097 9.21824C299.897 9.00873 301.697 8.58972 303.369 8.17071C304.14 7.96121 304.783 7.82153 305.555 7.61203C306.069 7.47236 306.455 7.33269 306.969 7.19302C307.612 6.98351 308.383 6.84384 309.026 6.63434C312.498 5.86615 316.098 5.44714 319.827 5.1678C321.756 5.02813 323.813 4.95829 325.87 4.81862C327.542 4.74879 329.342 4.67895 331.013 4.60912C334.485 4.46945 338.085 4.32978 341.557 4.39961C342.971 4.39961 344 3.7711 344 3.07275C344 2.37439 342.843 1.74588 341.557 1.74588C338.857 1.74588 336.157 1.88555 333.585 1.95538C332.171 2.16489 330.885 2.23472 329.599 2.30456ZM264.409 3.63143C264.538 3.63143 264.538 3.63143 264.666 3.63143C264.538 3.63143 264.409 3.63143 264.409 3.63143Z" fill="#259D4A"/>
</svg>
