<svg width="353" height="14" viewBox="0 0 353 14" fill="none" xmlns="http://www.w3.org/2000/svg">
<path d="M338.222 2.15092C336.903 2.2161 335.715 2.2161 334.396 2.28128C332.681 2.34646 330.965 2.47682 329.118 2.542C326.215 2.67236 323.313 2.93308 320.542 3.25897C317.507 3.65005 314.604 4.17148 311.833 4.88846C311.306 5.01882 310.778 5.21436 310.118 5.27954C309.458 5.40989 308.931 5.54025 308.271 5.67061C307.347 5.86615 306.556 5.99651 305.632 6.12687C304.577 6.25723 303.521 6.38759 302.465 6.45277C301.542 6.51795 300.618 6.51795 299.695 6.51795C298.771 6.51795 297.979 6.45277 297.056 6.45277C295.868 6.38759 294.681 6.25723 293.493 6.06169C292.306 5.86615 291.118 5.67061 289.931 5.40989C287.952 4.95364 285.972 4.4322 283.993 3.91077C283.07 3.65005 282.278 3.38933 281.354 3.06343C280.299 2.73754 279.243 2.41164 278.188 2.08574C277.396 1.82502 276.472 1.62949 275.549 1.43395C275.021 1.30359 274.361 1.23841 273.702 1.17323C273.042 1.10805 272.514 1.10805 271.854 1.04287C271.459 1.04287 271.063 1.04287 270.799 1.10805C270.271 1.17323 269.743 1.23841 269.215 1.30359C268.424 1.43395 267.632 1.62949 266.84 1.82502C265.257 2.2161 263.806 2.60718 262.222 2.99825C260.243 3.51969 258.396 3.97595 256.285 4.4322C255.097 4.69292 253.778 4.88846 252.591 5.084C250.875 5.34472 249.292 5.47507 247.577 5.60543C245.993 5.73579 244.278 5.73579 242.695 5.80097C240.848 5.80097 239 5.73579 237.153 5.60543C234.778 5.40989 232.535 5.21436 230.16 4.95364C228.049 4.69292 225.938 4.36702 223.959 3.97595C221.979 3.51969 220 3.06343 218.021 2.542C215.778 1.95538 213.535 1.36877 211.16 0.977692C210.236 0.782153 209.313 0.716974 208.257 0.586615C207.202 0.456256 206.014 0.456256 204.827 0.456256C203.639 0.456256 202.584 0.586615 201.396 0.716974C200.209 0.847333 199.153 1.10805 198.098 1.36877C195.591 2.02056 193.348 2.8679 191.105 3.71523C189.785 4.23666 188.466 4.7581 187.146 5.27954C186.091 5.67061 184.903 6.12687 183.716 6.51795C182.528 6.90902 181.209 7.23492 179.889 7.56082C179.23 7.69118 178.702 7.82153 178.042 7.88671C177.25 8.01707 176.327 8.08225 175.535 8.14743C175.139 8.14743 174.875 8.14743 174.48 8.14743C174.216 8.14743 173.952 8.14743 173.688 8.14743C173.028 8.08225 172.369 7.95189 171.709 7.82153C169.334 7.23492 167.091 6.51795 164.98 5.73579C163.924 5.34472 163 4.95364 162.077 4.49738C161.417 4.17148 160.757 3.91077 160.098 3.58487C158.382 2.80272 156.799 1.8902 154.952 1.17323C154.16 0.912512 153.369 0.651795 152.445 0.391077C151.917 0.260718 151.389 0.195538 150.862 0.130359C150.73 0.130359 150.466 0.0651795 150.334 0.0651795C149.938 0.0651795 149.542 0 149.278 0C149.146 0 148.882 0 148.751 0H148.619C148.355 0 147.959 0 147.695 0.0651795C147.035 0.130359 146.507 0.195538 145.848 0.260718C144.66 0.456256 143.473 0.651795 142.285 0.912512C141.362 1.10805 140.438 1.30359 139.514 1.56431C138.855 1.69467 138.195 1.8902 137.535 2.02056C136.48 2.28128 135.556 2.542 134.501 2.80272C133.973 2.93308 133.445 3.06343 133.049 3.19379C132.126 3.45451 131.202 3.78041 130.41 4.04113C129.751 4.23666 129.091 4.4322 128.431 4.69292C126.716 5.21436 125.132 5.80097 123.417 6.32241C119.855 7.49564 116.16 8.66887 112.202 9.5162C111.278 9.71174 110.487 9.8421 109.563 10.0376C108.508 10.2332 107.32 10.3635 106.133 10.4287C105.605 10.4287 105.209 10.4939 104.681 10.4939C103.89 10.4939 103.23 10.4939 102.438 10.4287C101.383 10.3635 100.327 10.2332 99.4034 10.0376C98.3478 9.77692 97.2923 9.45102 96.3687 9.12512C94.7854 8.53851 93.4659 7.82153 92.1465 7.10456C91.4868 6.77866 90.827 6.38759 90.1673 6.06169C89.3756 5.67061 88.452 5.27954 87.6604 4.88846C86.8687 4.56256 86.209 4.30184 85.2854 4.10631C84.4937 4.23666 83.9659 4.10631 83.4382 4.04113C82.9104 3.97595 82.3826 3.91077 81.8548 3.91077C81.459 3.91077 81.1951 3.91077 80.7993 3.97595C80.2715 4.04113 79.8757 4.10631 79.3479 4.23666C78.9521 4.36702 78.4243 4.49738 78.0285 4.62774C77.6326 4.82328 77.2368 5.01882 76.9729 5.21436C76.3132 5.60543 75.6535 5.99651 75.1257 6.38759C74.5979 6.71348 74.0701 6.9742 73.6743 7.3001C73.1465 7.626 72.4868 8.01707 71.959 8.34297C70.7715 9.05994 69.4521 9.64656 68.0007 10.2332C66.9451 10.6243 65.7577 10.9501 64.5702 11.276C63.3827 11.4716 62.3271 11.6019 61.1396 11.7323C59.4243 11.7975 57.841 11.7975 56.1257 11.7323C53.4868 11.5368 50.9799 11.1457 48.473 10.6243C46.2299 10.1028 44.1188 9.58138 42.0077 8.92959C40.9522 8.60369 39.8966 8.27779 38.841 7.88671C37.7855 7.56082 36.7299 7.16974 35.6744 6.84384C34.6188 6.45277 33.5633 6.12687 32.5077 5.80097C31.4522 5.47507 30.2647 5.14918 29.0772 4.88846C26.8341 4.36702 24.4591 4.04113 22.0841 4.10631C21.5564 4.10631 20.8967 4.17148 20.3689 4.17148C19.7092 4.23666 19.1814 4.30184 18.6536 4.36702C18.1258 4.4322 17.598 4.56256 17.2022 4.62774C16.6744 4.7581 16.1467 4.88846 15.6189 4.95364C12.8481 5.40989 10.605 6.06169 8.4939 6.77866C6.64669 7.43046 4.79947 8.14743 3.21614 8.99477C2.42447 9.38584 1.76475 9.77692 1.10503 10.168C0.841144 10.3635 0.577256 10.5591 0.445311 10.8198C0.445311 10.885 0.313367 11.0153 0.313367 11.0805C0.181423 11.276 0.181423 11.4716 0.049479 11.6671C-0.0824651 11.9278 0.049479 12.1886 0.445311 12.3841C0.841144 12.5145 1.36892 12.5796 1.8967 12.5145C2.29253 12.4493 2.55642 12.3841 2.95225 12.3841C3.48003 12.3189 3.87586 12.1886 4.40364 12.0582C5.06336 11.8627 5.32724 11.4064 4.93141 11.0805C4.66752 10.885 4.40364 10.8198 4.0078 10.7546C5.32724 10.0376 6.77863 9.38584 8.23001 8.73405C10.737 7.82153 13.3758 7.10456 16.1467 6.45277C16.8064 6.32241 17.4661 6.19205 18.1258 6.06169C18.9175 5.99651 19.8411 5.86615 20.6328 5.80097C21.4244 5.73579 22.0841 5.73579 22.8758 5.80097C23.4036 5.86615 23.7994 5.86615 24.3272 5.93133C25.1189 6.06169 25.7786 6.19205 26.4383 6.32241C27.7577 6.6483 29.0772 6.9742 30.2647 7.36528C31.7161 7.82153 33.0355 8.34297 34.4869 8.86441C35.8063 9.32066 37.2577 9.8421 38.7091 10.2984C40.1605 10.7546 41.6119 11.2109 43.0633 11.6019C45.966 12.3841 49.0007 13.0359 52.0355 13.4921C55.2021 13.9484 58.6327 14.1439 62.0632 13.8832C63.6465 13.7529 65.0979 13.5573 66.5493 13.2966C68.0007 12.9707 69.3201 12.6448 70.5076 12.1886C71.8271 11.7323 73.0146 11.1457 74.2021 10.5591C74.8618 10.2332 75.3896 9.90728 75.9173 9.58138C76.709 9.05994 77.5007 8.60369 78.2923 8.08225C79.216 7.49564 80.1396 6.84384 81.327 6.25723C81.459 6.25723 81.459 6.19205 81.5909 6.19205C81.7229 6.19205 81.8548 6.12687 81.9868 6.12687H82.1187C82.3826 6.12687 82.5145 6.19205 82.7784 6.19205C83.3062 6.32241 83.834 6.45277 84.3618 6.6483C85.8132 7.16974 87.0007 7.82153 88.1882 8.47333C89.7715 9.25548 91.3548 10.1028 93.0701 10.8198C93.8617 11.1457 94.6534 11.4064 95.4451 11.6671C96.3687 11.993 97.4242 12.1886 98.4798 12.3841C99.4034 12.5796 100.459 12.6448 101.515 12.7752C102.702 12.8404 104.021 12.9055 105.209 12.8404C106.264 12.8404 107.32 12.71 108.244 12.6448C109.431 12.5145 110.619 12.3189 111.806 12.1234C114.049 11.7323 116.16 11.2109 118.139 10.6894C121.174 9.90728 123.945 8.92959 126.716 8.01707C128.035 7.56082 129.355 7.10456 130.806 6.6483C132.389 6.12687 133.973 5.67061 135.556 5.14918C135.688 5.084 135.952 5.01882 136.084 5.01882C136.612 4.88846 137.139 4.7581 137.667 4.56256C138.459 4.36702 139.251 4.10631 140.174 3.91077C140.306 3.84559 140.57 3.84559 140.702 3.78041C141.23 3.65005 141.889 3.51969 142.417 3.38933C143.341 3.19379 144.396 2.93308 145.32 2.73754C146.244 2.542 147.299 2.41164 148.355 2.28128C148.619 2.28128 148.751 2.28128 149.014 2.28128C149.146 2.28128 149.41 2.28128 149.542 2.28128C149.938 2.34646 150.334 2.41164 150.862 2.47682C151.521 2.67236 152.181 2.8679 152.841 3.12861C154.82 3.97595 156.535 4.88846 158.382 5.73579C159.57 6.25723 160.757 6.77866 161.945 7.3001C163.132 7.75635 164.32 8.14743 165.507 8.60369C166.827 9.05994 168.146 9.38584 169.466 9.77692C170.653 10.1028 172.105 10.2984 173.424 10.4287C174.084 10.4939 174.612 10.4939 175.271 10.4287C176.063 10.4287 176.855 10.3635 177.646 10.2332C178.966 10.1028 180.285 9.90728 181.473 9.64656C182.924 9.32066 184.243 8.99476 185.563 8.60369C187.41 8.01707 188.993 7.36528 190.709 6.71348C191.632 6.32241 192.688 5.93133 193.612 5.54025C194.403 5.21436 195.195 4.95364 195.987 4.62774C197.702 3.97595 199.417 3.45451 201.396 2.99825C202.32 2.80272 203.243 2.67236 204.299 2.60718C204.827 2.60718 205.223 2.542 205.75 2.542C206.146 2.542 206.542 2.542 207.07 2.60718C208.653 2.73754 210.105 2.93308 211.556 3.19379C212.743 3.45451 214.063 3.78041 215.25 4.04113C216.042 4.23666 216.702 4.4322 217.493 4.62774C218.153 4.82328 218.945 5.01882 219.736 5.21436C221.188 5.54025 222.639 5.86615 224.091 6.19205C225.674 6.51795 227.257 6.71348 228.841 6.90902C232.271 7.36528 235.702 7.626 239.132 7.82153C240.848 7.95189 242.695 7.95189 244.41 7.95189C246.125 7.95189 247.841 7.82153 249.556 7.69118C252.591 7.49564 255.625 7.03938 258.528 6.45277C260.375 6.06169 262.091 5.60543 263.938 5.14918C266.049 4.62774 268.16 4.04113 270.403 3.51969C270.799 3.45451 271.327 3.38933 271.722 3.32415C271.986 3.32415 272.25 3.32415 272.514 3.32415C273.174 3.38933 273.702 3.45451 274.361 3.58487C276.34 4.04113 278.056 4.69292 279.903 5.27954C281.75 5.93133 283.729 6.45277 285.708 6.9742C287.688 7.49564 289.799 7.88671 291.91 8.27779C294.285 8.66887 296.792 8.86441 299.299 8.92959C301.542 8.99476 303.785 8.86441 305.896 8.60369C307.743 8.40815 309.59 8.01707 311.306 7.626C312.097 7.43046 312.757 7.3001 313.549 7.10456C314.077 6.9742 314.472 6.84384 315 6.71348C315.66 6.51795 316.451 6.38759 317.111 6.19205C320.674 5.47507 324.368 5.084 328.195 4.82328C330.174 4.69292 332.285 4.62774 334.396 4.49738C336.111 4.4322 337.958 4.36702 339.674 4.30184C343.236 4.17148 346.931 4.04113 350.493 4.10631C351.944 4.10631 353 3.51969 353 2.8679C353 2.2161 351.813 1.62949 350.493 1.62949C347.722 1.62949 344.951 1.75985 342.313 1.82502C340.861 2.02056 339.542 2.08574 338.222 2.15092ZM271.327 3.38933C271.459 3.38933 271.459 3.38933 271.59 3.38933C271.459 3.38933 271.327 3.38933 271.327 3.38933Z" fill="#EE9B4E"/>
</svg>
