<svg width="140" height="8" viewBox="0 0 140 8" fill="none" xmlns="http://www.w3.org/2000/svg">
<path d="M207.916 1.13916C207.105 1.17368 206.375 1.17368 205.563 1.2082C204.509 1.24272 203.455 1.31176 202.319 1.34627C200.535 1.41531 198.75 1.55339 197.047 1.72599C195.181 1.93311 193.397 2.20927 191.694 2.58899C191.369 2.65803 191.045 2.76159 190.639 2.79611C190.234 2.86515 189.909 2.93419 189.504 3.00323C188.936 3.10679 188.449 3.17583 187.881 3.24487C187.233 3.31391 186.584 3.38295 185.935 3.41747C185.367 3.45199 184.799 3.45199 184.232 3.45199C183.664 3.45199 183.177 3.41747 182.609 3.41747C181.879 3.38295 181.149 3.31391 180.419 3.21035C179.689 3.10679 178.959 3.00323 178.229 2.86515C177.013 2.62351 175.796 2.34735 174.579 2.07119C174.012 1.93311 173.525 1.79503 172.957 1.62243C172.308 1.44983 171.659 1.27724 171.011 1.10464C170.524 0.966556 169.956 0.862997 169.388 0.759437C169.064 0.690397 168.658 0.655878 168.253 0.621358C167.847 0.586838 167.523 0.586838 167.117 0.552318C166.874 0.552318 166.631 0.552318 166.468 0.586838C166.144 0.621358 165.82 0.655878 165.495 0.690397C165.008 0.759437 164.522 0.862997 164.035 0.966556C163.062 1.17368 162.17 1.38079 161.196 1.58791C159.98 1.86407 158.844 2.10571 157.546 2.34735C156.816 2.48543 156.005 2.58899 155.275 2.69255C154.221 2.83063 153.247 2.89967 152.193 2.96871C151.22 3.03775 150.165 3.03775 149.192 3.07227C148.056 3.07227 146.921 3.03775 145.785 2.96871C144.325 2.86515 142.946 2.76159 141.486 2.62351C140.189 2.48543 138.891 2.31283 137.674 2.10571C136.458 1.86407 135.241 1.62243 134.024 1.34627C132.645 1.0356 131.267 0.724917 129.807 0.517798C129.239 0.414238 128.671 0.379719 128.022 0.310679C127.373 0.241639 126.643 0.241639 125.913 0.241639C125.183 0.241639 124.534 0.310679 123.804 0.379719C123.074 0.448758 122.426 0.586838 121.777 0.724917C120.236 1.07012 118.857 1.51887 117.478 1.96763C116.667 2.24379 115.856 2.51995 115.045 2.79611C114.396 3.00323 113.666 3.24487 112.936 3.45199C112.206 3.65911 111.395 3.83171 110.584 4.0043C110.178 4.07334 109.854 4.14238 109.448 4.1769C108.961 4.24594 108.394 4.28046 107.907 4.31498C107.664 4.31498 107.501 4.31498 107.258 4.31498C107.096 4.31498 106.934 4.31498 106.771 4.31498C106.366 4.28046 105.96 4.21142 105.555 4.14238C104.095 3.83171 102.716 3.45199 101.418 3.03775C100.769 2.83063 100.201 2.62351 99.6337 2.38187C99.2281 2.20927 98.8225 2.07119 98.417 1.89859C97.3626 1.48435 96.3893 1.00108 95.2537 0.621358C94.767 0.483278 94.2804 0.345199 93.7126 0.207119C93.3882 0.138079 93.0637 0.10356 92.7393 0.0690397C92.6582 0.0690397 92.496 0.0345199 92.4148 0.0345199C92.1715 0.0345199 91.9282 0 91.766 0C91.6849 0 91.5226 0 91.4415 0H91.3604C91.1982 0 90.9549 0 90.7926 0.0345199C90.3871 0.0690397 90.0627 0.10356 89.6571 0.138079C88.9271 0.241639 88.1971 0.345199 87.4671 0.483278C86.8994 0.586838 86.3316 0.690397 85.7638 0.828477C85.3583 0.897517 84.9527 1.00108 84.5472 1.07012C83.8983 1.2082 83.3305 1.34627 82.6816 1.48435C82.3572 1.55339 82.0328 1.62243 81.7894 1.69147C81.2217 1.82955 80.6539 2.00215 80.1672 2.14023C79.7617 2.24379 79.3561 2.34735 78.9506 2.48543C77.8961 2.76159 76.9228 3.07227 75.8684 3.34843C73.6784 3.96978 71.4073 4.59114 68.974 5.0399C68.4062 5.14346 67.9196 5.2125 67.3518 5.31606C66.7029 5.41962 65.9729 5.48866 65.243 5.52318C64.9185 5.52318 64.6752 5.5577 64.3507 5.5577C63.8641 5.5577 63.4585 5.5577 62.9719 5.52318C62.323 5.48866 61.6741 5.41962 61.1063 5.31606C60.4575 5.17798 59.8086 5.00538 59.2408 4.83278C58.2675 4.5221 57.4564 4.14238 56.6453 3.76267C56.2397 3.59007 55.8342 3.38295 55.4286 3.21035C54.942 3.00323 54.3742 2.79611 53.8875 2.58899C53.4009 2.41639 52.9953 2.27831 52.4276 2.17475C51.9409 2.24379 51.6165 2.17475 51.292 2.14023C50.9676 2.10571 50.6431 2.07119 50.3187 2.07119C50.0754 2.07119 49.9131 2.07119 49.6698 2.10571C49.3454 2.14023 49.102 2.17475 48.7776 2.24379C48.5343 2.31283 48.2098 2.38187 47.9665 2.45091C47.7232 2.55447 47.4798 2.65803 47.3176 2.76159C46.9121 2.96871 46.5065 3.17583 46.1821 3.38295C45.8576 3.55555 45.5332 3.69363 45.2899 3.86623C44.9654 4.03882 44.5599 4.24594 44.2354 4.41854C43.5054 4.79826 42.6943 5.10894 41.8021 5.41962C41.1532 5.62674 40.4233 5.79934 39.6933 5.97194C38.9633 6.0755 38.3144 6.14454 37.5844 6.21358C36.53 6.2481 35.5566 6.2481 34.5022 6.21358C32.88 6.11002 31.3389 5.9029 29.7978 5.62674C28.419 5.35058 27.1212 5.07442 25.8234 4.72922C25.1746 4.55662 24.5257 4.38402 23.8768 4.1769C23.2279 4.0043 22.579 3.79719 21.9302 3.62459C21.2813 3.41747 20.6324 3.24487 19.9835 3.07227C19.3346 2.89967 18.6046 2.72707 17.8746 2.58899C16.4958 2.31283 15.0358 2.14023 13.5758 2.17475C13.2514 2.17475 12.8458 2.20927 12.5214 2.20927C12.1158 2.24379 11.7914 2.27831 11.4669 2.31283C11.1425 2.34735 10.8181 2.41639 10.5747 2.45091C10.2503 2.51995 9.92585 2.58899 9.60141 2.62351C7.8981 2.86515 6.51923 3.21035 5.22146 3.59007C4.08592 3.93527 2.95038 4.31498 1.97706 4.76374C1.4904 4.97086 1.08485 5.17798 0.679297 5.3851C0.517077 5.48866 0.354857 5.59222 0.273747 5.7303C0.273747 5.76482 0.192637 5.83386 0.192637 5.86838C0.111526 5.97194 0.111526 6.0755 0.0304163 6.17906C-0.0506938 6.31714 0.0304163 6.45522 0.273747 6.55877C0.517077 6.62781 0.841518 6.66233 1.16596 6.62782C1.40929 6.5933 1.57151 6.55877 1.81484 6.55877C2.13928 6.52425 2.38261 6.45522 2.70705 6.38618C3.1126 6.28262 3.27482 6.04098 3.03149 5.86838C2.86927 5.76482 2.70705 5.7303 2.46372 5.69578C3.27482 5.31606 4.16703 4.97086 5.05924 4.62566C6.60034 4.14238 8.22254 3.76267 9.92585 3.41747C10.3314 3.34843 10.737 3.27939 11.1425 3.21035C11.6292 3.17583 12.1969 3.10679 12.6836 3.07227C13.1703 3.03775 13.5758 3.03775 14.0625 3.07227C14.3869 3.10679 14.6302 3.10679 14.9547 3.14131C15.4413 3.21035 15.8469 3.27939 16.2524 3.34843C17.0635 3.52103 17.8746 3.69363 18.6046 3.90075C19.4968 4.14238 20.3079 4.41854 21.2002 4.6947C22.0113 4.93634 22.9035 5.2125 23.7957 5.45414C24.6879 5.69578 25.5801 5.93742 26.4723 6.14454C28.2567 6.55878 30.1223 6.90397 31.9878 7.14561C33.9344 7.38725 36.0433 7.49081 38.1522 7.35273C39.1255 7.28369 40.0177 7.18013 40.9099 7.04205C41.8021 6.86945 42.6132 6.69686 43.3432 6.45522C44.1543 6.21358 44.8843 5.9029 45.6143 5.59222C46.0199 5.41962 46.3443 5.24702 46.6687 5.07442C47.1554 4.79826 47.6421 4.55662 48.1287 4.28046C48.6965 3.96978 49.2643 3.62459 49.9942 3.31391C50.0754 3.31391 50.0754 3.27939 50.1565 3.27939C50.2376 3.27939 50.3187 3.24487 50.3998 3.24487H50.4809C50.6431 3.24487 50.7242 3.27939 50.8865 3.27939C51.2109 3.34843 51.5353 3.41747 51.8598 3.52103C52.752 3.79719 53.482 4.14238 54.212 4.48758C55.1853 4.90182 56.1586 5.35058 57.2131 5.7303C57.6997 5.9029 58.1864 6.04098 58.673 6.17906C59.2408 6.35166 59.8897 6.45522 60.5386 6.55877C61.1063 6.66233 61.7552 6.69685 62.4041 6.76589C63.1341 6.80041 63.9452 6.83493 64.6752 6.80041C65.3241 6.80041 65.9729 6.73137 66.5407 6.69686C67.2707 6.62782 68.0007 6.52426 68.7307 6.4207C70.1096 6.21358 71.4073 5.93742 72.624 5.66126C74.4895 5.24702 76.1928 4.72922 77.8961 4.24594C78.7072 4.0043 79.5183 3.76267 80.4105 3.52103C81.3839 3.24487 82.3572 3.00323 83.3305 2.72707C83.4116 2.69255 83.5738 2.65803 83.655 2.65803C83.9794 2.58899 84.3038 2.51995 84.6283 2.41639C85.1149 2.31283 85.6016 2.17475 86.1694 2.07119C86.2505 2.03667 86.4127 2.03667 86.4938 2.00215C86.8183 1.93311 87.2238 1.86407 87.5482 1.79503C88.116 1.69147 88.7649 1.55339 89.3327 1.44983C89.9004 1.34627 90.5493 1.27724 91.1982 1.2082C91.3604 1.2082 91.4415 1.2082 91.6037 1.2082C91.6849 1.2082 91.8471 1.2082 91.9282 1.2082C92.1715 1.24272 92.4148 1.27724 92.7393 1.31175C93.1448 1.41531 93.5504 1.51887 93.9559 1.65695C95.1726 2.10571 96.227 2.58899 97.3626 3.03775C98.0926 3.31391 98.8225 3.59007 99.5525 3.86623C100.283 4.10786 101.013 4.31498 101.743 4.55662C102.554 4.79826 103.365 4.97086 104.176 5.17798C104.906 5.35058 105.798 5.45414 106.609 5.52318C107.015 5.5577 107.339 5.5577 107.745 5.52318C108.231 5.52318 108.718 5.48866 109.205 5.41962C110.016 5.35058 110.827 5.24702 111.557 5.10894C112.449 4.93634 113.26 4.76374 114.071 4.55662C115.207 4.24594 116.18 3.90075 117.235 3.55555C117.802 3.34843 118.451 3.14131 119.019 2.93419C119.506 2.76159 119.992 2.62351 120.479 2.45091C121.533 2.10571 122.588 1.82955 123.804 1.58791C124.372 1.48435 124.94 1.41531 125.589 1.38079C125.913 1.38079 126.157 1.34627 126.481 1.34627C126.724 1.34627 126.968 1.34627 127.292 1.38079C128.266 1.44983 129.158 1.55339 130.05 1.69147C130.78 1.82955 131.591 2.00215 132.321 2.14023C132.808 2.24379 133.213 2.34735 133.7 2.45091C134.105 2.55447 134.592 2.65803 135.079 2.76159C135.971 2.93419 136.863 3.10679 137.755 3.27939C138.729 3.45199 139.702 3.55555 140.675 3.65911C142.784 3.90074 144.893 4.03882 147.002 4.14238C148.056 4.21142 149.192 4.21142 150.246 4.21142C151.301 4.21142 152.355 4.14238 153.41 4.07334C155.275 3.96979 157.141 3.72815 158.925 3.41747C160.061 3.21035 161.115 2.96871 162.251 2.72707C163.548 2.45091 164.846 2.14023 166.225 1.86407C166.468 1.82955 166.793 1.79503 167.036 1.76051C167.198 1.76051 167.361 1.76051 167.523 1.76051C167.928 1.79503 168.253 1.82955 168.658 1.89859C169.875 2.14023 170.929 2.48543 172.065 2.79611C173.201 3.14131 174.417 3.41747 175.634 3.69363C176.85 3.96978 178.148 4.1769 179.446 4.38402C180.906 4.59114 182.447 4.6947 183.988 4.72922C185.367 4.76374 186.746 4.6947 188.044 4.55662C189.179 4.45306 190.315 4.24594 191.369 4.03882C191.856 3.93527 192.261 3.86623 192.748 3.76267C193.073 3.69363 193.316 3.62459 193.64 3.55555C194.046 3.45199 194.533 3.38295 194.938 3.27939C197.128 2.89967 199.399 2.69255 201.751 2.55447C202.968 2.48543 204.266 2.45091 205.563 2.38187C206.618 2.34735 207.753 2.31283 208.808 2.27831C210.998 2.20927 213.269 2.14023 215.459 2.17475C216.351 2.17475 217 1.86407 217 1.51887C217 1.17368 216.27 0.862997 215.459 0.862997C213.756 0.862997 212.052 0.932036 210.43 0.966556C209.538 1.07012 208.727 1.10464 207.916 1.13916ZM166.793 1.79503C166.874 1.79503 166.874 1.79503 166.955 1.79503C166.874 1.79503 166.793 1.79503 166.793 1.79503Z" fill="#259D4A"/>
</svg>
