<svg width="172" height="63" viewBox="0 0 172 63" fill="none" xmlns="http://www.w3.org/2000/svg">
<rect width="172" height="62.7468" rx="31.3734" fill="#CCF8D1"/>
<rect x="0.455026" y="0.455026" width="171.09" height="61.8367" rx="30.9184" stroke="#2F4235" stroke-opacity="0.24" stroke-width="0.910053"/>
<rect x="8.11914" y="7.38086" width="48.721" height="48.721" rx="24.3605" fill="url(#paint0_linear_1290_9)"/>
<path d="M17.7012 45.9148L19.79 38.3298C18.4986 36.1034 17.8211 33.5821 17.8282 31.0046C17.8282 22.928 24.4333 16.3613 32.5414 16.3613C36.479 16.3613 40.1767 17.8854 42.95 20.6525C45.7303 23.4196 47.2616 27.0997 47.2546 31.0116C47.2546 39.0883 40.6495 45.6549 32.5343 45.6549H32.5273C30.0645 45.6549 27.644 45.0369 25.4918 43.871L17.7012 45.9148ZM25.8658 41.2233L26.3103 41.4902C28.1874 42.5998 30.3397 43.1828 32.5343 43.1898H32.5414C39.2805 43.1898 44.7706 37.7328 44.7706 31.0187C44.7706 27.7669 43.5004 24.7119 41.1929 22.4083C38.8853 20.1047 35.8086 18.8405 32.5414 18.8405C25.8022 18.8335 20.3121 24.2905 20.3121 31.0046C20.3121 33.3012 20.9543 35.5416 22.1822 37.48L22.4715 37.9435L21.2366 42.4313L25.8658 41.2233Z" fill="white"/>
<path d="M18.2168 45.4011L20.235 38.076C18.986 35.9339 18.3297 33.4969 18.3297 31.0107C18.3368 23.215 24.7089 16.873 32.5419 16.873C36.3454 16.873 39.9091 18.3479 42.5906 21.0167C45.2721 23.6855 46.747 27.2392 46.747 31.0177C46.747 38.8134 40.3677 45.1553 32.5419 45.1553H32.5348C30.1567 45.1553 27.8209 44.5583 25.7463 43.4346L18.2168 45.4011Z" fill="url(#paint1_linear_1290_9)"/>
<path d="M17.7012 45.9148L19.79 38.3298C18.4986 36.1034 17.8211 33.5821 17.8282 31.0046C17.8282 22.928 24.4333 16.3613 32.5414 16.3613C36.479 16.3613 40.1767 17.8854 42.95 20.6525C45.7303 23.4196 47.2616 27.0997 47.2546 31.0116C47.2546 39.0883 40.6495 45.6549 32.5343 45.6549H32.5273C30.0645 45.6549 27.644 45.0369 25.4918 43.871L17.7012 45.9148ZM25.8658 41.2233L26.3103 41.4902C28.1874 42.5998 30.3397 43.1828 32.5343 43.1898H32.5414C39.2805 43.1898 44.7706 37.7328 44.7706 31.0187C44.7706 27.7669 43.5004 24.7119 41.1929 22.4083C38.8853 20.1047 35.8086 18.8405 32.5414 18.8405C25.8022 18.8335 20.3121 24.2905 20.3121 31.0046C20.3121 33.3012 20.9543 35.5416 22.1822 37.48L22.4715 37.9435L21.2366 42.4313L25.8658 41.2233Z" fill="url(#paint2_linear_1290_9)"/>
<path fill-rule="evenodd" clip-rule="evenodd" d="M28.8649 24.8793C28.5896 24.2683 28.3003 24.2543 28.0392 24.2473C27.8275 24.2402 27.5805 24.2402 27.3336 24.2402C27.0866 24.2402 26.6914 24.3315 26.3527 24.6967C26.014 25.0619 25.0684 25.9469 25.0684 27.7518C25.0684 29.5497 26.388 31.2915 26.5714 31.5373C26.7549 31.7831 29.1189 35.5967 32.8519 37.0645C35.9568 38.2865 36.5919 38.0407 37.2623 37.9775C37.9327 37.9143 39.4358 37.0926 39.7463 36.2358C40.0497 35.379 40.0497 34.6486 39.958 34.494C39.8662 34.3395 39.6192 34.2482 39.2523 34.0656C38.8854 33.883 37.0788 32.9981 36.7401 32.8717C36.4014 32.7523 36.1544 32.6891 35.9145 33.0543C35.6675 33.4195 34.9618 34.2412 34.7501 34.487C34.5384 34.7328 34.3197 34.7609 33.9527 34.5783C33.5858 34.3957 32.4003 34.0094 30.996 32.7593C29.9022 31.7901 29.1612 30.5892 28.9495 30.224C28.7378 29.8588 28.9284 29.6621 29.1118 29.4795C29.2741 29.318 29.4788 29.0511 29.6623 28.8404C29.8457 28.6297 29.9092 28.4752 30.0292 28.2294C30.1492 27.9836 30.0927 27.7729 30.001 27.5903C29.9092 27.4147 29.1895 25.6027 28.8649 24.8793Z" fill="white"/>
<path d="M74.5757 42.229C69.7041 42.229 66.4763 39.0609 66.4763 34.3388C66.4763 29.6166 69.7041 26.4486 74.5757 26.4486C78.6104 26.4486 81.7187 28.989 82.3762 32.7847H78.9392C78.461 30.8719 76.7275 29.6166 74.5757 29.6166C71.8559 29.6166 70.0627 31.4995 70.0627 34.3388C70.0627 37.1781 71.8559 39.0609 74.5757 39.0609C76.7574 39.0609 78.5207 37.7459 78.969 35.7435H82.4061C81.7784 39.6288 78.6403 42.229 74.5757 42.229ZM84.5567 41.8105V21.3081H88.1432V27.9729C89.1295 27.0464 90.7434 26.4486 92.2078 26.4486C96.3023 26.4486 99.0221 28.8695 99.0221 32.5157V41.8105H95.4356V32.9341C95.4356 30.9317 93.9712 29.6166 91.7894 29.6166C89.6077 29.6166 88.1432 30.9317 88.1432 32.9341V41.8105H84.5567ZM108.95 42.229C104.287 42.229 101.179 39.0609 101.179 34.3388C101.179 29.6166 104.287 26.4486 108.95 26.4486C110.713 26.4486 112.656 27.2556 113.791 28.4809V26.867H117.378V41.8105H113.791V40.1966C112.656 41.422 110.713 42.229 108.95 42.229ZM109.308 39.0609C111.998 39.0609 113.791 37.1781 113.791 34.3388C113.791 31.4995 111.998 29.6166 109.308 29.6166C106.589 29.6166 104.765 31.4995 104.765 34.3388C104.765 37.1781 106.589 39.0609 109.308 39.0609ZM126.366 42.229C123.377 42.229 121.404 40.5254 121.404 37.985V29.8557H119.013V26.867H121.404V21.3081H124.991V26.867H128.757V29.8557H124.991V37.985C124.991 38.7322 125.529 39.2403 126.306 39.2403H128.906V41.8105C128.368 42.0496 127.352 42.229 126.366 42.229ZM130.526 41.8105V37.3873H134.949V41.8105H130.526ZM137.705 41.8105V37.3873H142.129V41.8105H137.705Z" fill="#0B434B"/>
<defs>
<linearGradient id="paint0_linear_1290_9" x1="32.4784" y1="56.0995" x2="32.4784" y2="7.37915" gradientUnits="userSpaceOnUse">
<stop stop-color="#20B038"/>
<stop offset="1" stop-color="#60D66A"/>
</linearGradient>
<linearGradient id="paint1_linear_1290_9" x1="32.4812" y1="45.3997" x2="32.4812" y2="16.872" gradientUnits="userSpaceOnUse">
<stop stop-color="#20B038"/>
<stop offset="1" stop-color="#60D66A"/>
</linearGradient>
<linearGradient id="paint2_linear_1290_9" x1="32.4808" y1="45.912" x2="32.4808" y2="16.3613" gradientUnits="userSpaceOnUse">
<stop stop-color="#F9F9F9"/>
<stop offset="1" stop-color="white"/>
</linearGradient>
</defs>
</svg>
